<svg width="750" height="560" viewBox="0 0 750 560" fill="none" xmlns="http://www.w3.org/2000/svg">
<g filter="url(#filter0_d_4095_657)">
<path fill-rule="evenodd" clip-rule="evenodd" d="M375.002 402.389C197.266 402.389 53.1836 422.286 53.1836 446.831C53.1836 471.375 197.266 491.272 375.002 491.272C552.737 491.272 696.82 471.375 696.82 446.831C696.82 422.286 552.737 402.389 375.002 402.389Z" fill="#F6F7FA"/>
<path fill-rule="evenodd" clip-rule="evenodd" d="M583.111 328.806C699.883 288.782 702.358 146.892 559.61 132.354C416.861 117.817 410.133 134.935 355.944 89.9597C301.754 44.9839 111.917 6.41593 84.0082 70.8978C56.0986 135.38 218.787 127.319 151.397 183.955C84.0082 240.591 52.2233 307.987 151.397 350.613C250.571 393.242 466.339 368.83 583.111 328.806Z" fill="#FAFBFD"/>
<path fill-rule="evenodd" clip-rule="evenodd" d="M380.335 76.9901C375.076 93.9099 388.602 107.369 423.567 113.472C458.533 119.574 476.483 118.32 503.633 117.539C530.783 116.758 532.901 97.8118 511.043 93.9335C489.185 90.0546 466.851 84.8993 446.362 67.9936C425.871 51.0874 385.595 60.0697 380.335 76.9901Z" fill="#FAFBFD"/>
<path fill-rule="evenodd" clip-rule="evenodd" d="M518.136 330.262L552.827 444.269C553.236 445.611 554.581 446.437 555.963 446.193L556.095 446.165C556.671 446.028 557.172 445.677 557.497 445.182C557.822 444.688 557.946 444.088 557.844 443.505L557.816 443.372L531.559 332.8L518.136 330.262ZM473.208 330.262L459.785 332.8L433.528 443.372C433.232 444.619 434.002 445.869 435.249 446.165L435.381 446.193C436.048 446.311 436.736 446.18 437.314 445.826C437.892 445.471 438.32 444.918 438.517 444.269L473.208 330.262ZM497.118 325.607L497.122 325.632L484.328 330.215L475.691 443.533C475.593 444.81 476.55 445.924 477.828 446.022L477.963 446.029C478.64 446.041 479.299 445.805 479.814 445.364C480.329 444.924 480.665 444.31 480.759 443.639L497.153 325.864L513.548 443.639C513.638 444.286 513.953 444.88 514.438 445.317C514.924 445.754 515.548 446.006 516.2 446.028L516.344 446.029L516.479 446.022C517.712 445.929 518.646 444.886 518.621 443.665L518.615 443.533L509.977 330.215L497.185 325.632L497.189 325.608L497.153 325.621L497.118 325.607Z" fill="#8EA0CC"/>
<path fill-rule="evenodd" clip-rule="evenodd" d="M518.138 330.262L524.449 351.001H535.882L531.56 332.8L518.138 330.262ZM497.119 325.607L497.123 325.632L484.33 330.215L482.747 351.001H493.655L497.155 325.864L500.654 351.001H511.564L509.979 330.215L497.187 325.632L497.19 325.607L497.155 325.62L497.119 325.607ZM473.209 330.262L459.787 332.8L455.465 351.001H466.898L473.209 330.262Z" fill="#6375A6"/>
<path fill-rule="evenodd" clip-rule="evenodd" d="M501.696 249.755L503.221 246.825C504.558 244.258 506.474 242.037 508.819 240.339C511.163 238.641 513.87 237.513 516.727 237.044L545.916 232.252C547.662 231.965 549.454 232.191 551.075 232.902C552.696 233.612 554.076 234.778 555.048 236.257C556.077 237.822 556.769 239.585 557.08 241.433C557.391 243.28 557.315 245.172 556.856 246.989L553.756 259.248C553.182 261.52 552.715 263.817 552.358 266.133L545.432 311.12C543.998 320.432 539.129 328.868 531.784 334.767C524.437 340.669 515.153 343.618 505.747 343.039L474.076 341.088C471.943 340.956 469.817 340.733 467.704 340.417L436.845 335.815C434.685 335.493 432.634 334.658 430.863 333.38C429.092 332.102 427.653 330.418 426.667 328.47C425.453 326.072 426.411 323.143 428.81 321.928C429.339 321.661 429.912 321.492 430.501 321.43L463.513 317.968C472.795 316.994 480.641 310.665 483.557 301.8L497.035 260.815C498.287 257.008 499.845 253.309 501.696 249.755Z" fill="#90A2CF"/>
<path fill-rule="evenodd" clip-rule="evenodd" d="M550.094 265.745L549.875 266.733L549.735 267.392L549.515 268.461L549.204 270.03L547.827 277.162L547.397 279.34L546.936 281.608L546.694 282.772L546.443 283.955L546.186 285.154L545.918 286.368L545.501 288.213L545.212 289.457L544.914 290.71C544.864 290.92 544.812 291.13 544.761 291.34L544.448 292.604L544.125 293.875L543.793 295.147L543.45 296.423C543.218 297.275 542.979 298.125 542.734 298.974L542.358 300.246C539.95 308.291 536.878 316.083 532.902 321.796C522.44 336.83 454.549 336.8 441.294 332.383L440.546 332.132L439.812 331.881L439.092 331.631L438.385 331.381L437.692 331.132L437.015 330.882L436.353 330.633C436.244 330.591 436.136 330.55 436.028 330.508L435.39 330.26L434.769 330.009L434.165 329.76C434.066 329.717 433.967 329.677 433.87 329.634L433.293 329.384C433.104 329.301 432.917 329.217 432.734 329.134L432.195 328.883C432.019 328.8 431.846 328.716 431.676 328.632L431.177 328.381C430.786 328.18 430.4 327.969 430.02 327.748L429.596 327.494C428.012 326.519 426.927 325.528 426.474 324.503C426.225 325.141 426.113 325.824 426.146 326.508C426.18 327.192 426.357 327.861 426.667 328.471C427.631 330.376 429.029 332.029 430.747 333.296C432.465 334.564 434.457 335.411 436.561 335.771L436.847 335.817L467.706 340.419C469.517 340.689 471.337 340.892 473.163 341.028L474.076 341.089L505.747 343.041C515.153 343.62 524.437 340.671 531.784 334.77C539.005 328.97 543.837 320.715 545.359 311.579L545.432 311.122L552.359 266.135C552.664 264.15 553.05 262.179 553.516 260.225L553.756 259.25L556.856 246.991C557.371 244.953 557.404 242.822 556.952 240.77L556.218 243.218L555.691 244.997L554.855 247.853L554.224 250.038L553.774 251.618L553.204 253.65L552.799 255.116L552.288 256.994L551.928 258.343L551.477 260.067L551.162 261.302L550.866 262.487L550.59 263.624L550.332 264.71L550.094 265.745Z" fill="#ABC2FF"/>
<path fill-rule="evenodd" clip-rule="evenodd" d="M401.805 440.46C404.753 438.874 406.744 437.277 407.774 435.669C412.671 428.027 412.067 417.221 411.264 407.237L425.26 406.26C424.498 409.221 424.682 411.758 425.81 413.869C427.503 417.035 428.732 420.893 427.926 423.175C427.389 424.697 422.793 431.435 414.14 443.389L401.805 440.46Z" fill="white"/>
<path d="M401.805 440.46C404.753 438.874 406.744 437.277 407.774 435.669C412.671 428.027 412.067 417.221 411.264 407.237L425.26 406.26C424.498 409.221 424.682 411.758 425.81 413.869C427.503 417.035 428.732 420.893 427.926 423.175C427.389 424.697 422.793 431.435 414.14 443.388L401.805 440.46Z" stroke="black" stroke-width="3.452"/>
<path fill-rule="evenodd" clip-rule="evenodd" d="M428.018 420.104C430.123 420.458 431.146 422.329 431.087 425.716C431.027 429.103 430.895 436.677 430.69 448.44L427.689 448.387L426.94 434.007L420.123 445.879C419.713 446.594 419.121 447.188 418.408 447.6C417.694 448.013 416.884 448.23 416.06 448.229L394.26 448.211C390.443 448.155 390.169 446.927 393.439 444.528C396.709 442.128 400.278 440.272 404.143 438.959C406.833 442.201 410.103 442.894 413.952 441.038C417.801 439.182 422.49 432.203 428.018 420.104Z" fill="black"/>
<path fill-rule="evenodd" clip-rule="evenodd" d="M468.039 440.395C470.437 438.058 471.91 435.974 472.458 434.145C475.058 425.449 471.5 415.228 467.977 405.851L481.16 401.055C481.243 404.112 482.119 406.499 483.786 408.217C486.287 410.794 488.532 414.164 488.386 416.58C488.288 418.191 485.727 425.935 480.705 439.81L468.039 440.395Z" fill="white"/>
<path d="M468.039 440.395C470.437 438.058 471.91 435.974 472.458 434.145C475.058 425.449 471.5 415.228 467.977 405.851L481.16 401.055C481.243 404.112 482.119 406.499 483.786 408.217C486.287 410.794 488.532 414.164 488.386 416.58C488.288 418.191 485.727 425.935 480.705 439.81L468.039 440.395Z" stroke="black" stroke-width="3.452"/>
<path fill-rule="evenodd" clip-rule="evenodd" d="M487.628 413.603C489.749 413.363 491.248 414.879 492.124 418.151L498.006 440.104L495.107 440.881L490.423 427.264L487.143 440.556C486.946 441.356 486.54 442.09 485.968 442.683C485.396 443.276 484.677 443.708 483.885 443.935L462.923 449.926C459.239 450.925 458.637 449.82 461.12 446.612C463.602 443.403 466.521 440.636 469.874 438.308C473.354 440.684 476.687 440.447 479.876 437.602C483.064 434.758 485.649 426.758 487.628 413.603Z" fill="black"/>
<path fill-rule="evenodd" clip-rule="evenodd" d="M468.323 289.074C432.899 291.795 412.866 296.67 408.222 303.699C403.579 310.728 403.307 348.433 407.408 416.811C410.56 418.799 414.313 419.791 418.67 419.791C423.026 419.791 426.775 418.799 429.918 416.811L437.669 315.446L468.323 289.074Z" fill="#006561"/>
<g opacity="0.3">
<mask id="mask0_4095_657" style="mask-type:luminance" maskUnits="userSpaceOnUse" x="420" y="333" width="3" height="84">
<path d="M420.285 333.232H422.342V416.817H420.285V333.232Z" fill="white"/>
</mask>
<g mask="url(#mask0_4095_657)">
<path d="M421.972 416.811L420.656 333.238" stroke="white" stroke-width="3.452"/>
</g>
</g>
<path fill-rule="evenodd" clip-rule="evenodd" d="M518.83 287.947C521.549 297.633 522.909 306.244 522.909 313.779C522.909 325.082 512.03 334.718 498.704 334.718C489.821 334.718 474.67 334.003 453.251 332.574L484.761 405.081C482.598 408.01 480.078 410.249 477.201 411.799C474.323 413.348 470.498 413.9 465.726 413.451L418.542 335.469C415.519 330.472 413.598 324.888 412.909 319.089L412.86 318.673C412.218 313.279 413.61 307.839 416.765 303.417C418.313 301.246 420.287 299.413 422.567 298.03C424.847 296.647 427.385 295.743 430.026 295.373L461.861 290.91L518.83 287.947Z" fill="#008782"/>
<g opacity="0.3">
<mask id="mask1_4095_657" style="mask-type:luminance" maskUnits="userSpaceOnUse" x="442" y="289" width="72" height="121">
<path d="M442.301 289.602H513.101V409.028H442.301V289.602Z" fill="white"/>
</mask>
<g mask="url(#mask1_4095_657)">
<path d="M511.734 289.66C514.343 305.886 511.833 316.074 504.202 320.227C496.752 324.279 476.767 325.317 444.243 323.34C443.99 323.325 443.737 323.375 443.509 323.485C443.28 323.595 443.084 323.763 442.939 323.971C442.793 324.179 442.704 324.421 442.679 324.673C442.654 324.926 442.694 325.18 442.796 325.413L479.298 408.879" stroke="white" stroke-width="3.452"/>
</g>
</g>
<path fill-rule="evenodd" clip-rule="evenodd" d="M485.354 206.738L472.692 208.24C468.801 208.702 465.088 210.132 461.893 212.399C458.675 214.683 455.906 217.542 453.726 220.832L435.504 248.33L454.172 263.717L463.945 251.333L465.519 262.839C466.315 268.655 466.263 274.556 465.366 280.357L463.945 289.541C481.111 298.245 499.713 298.245 519.75 289.541L517.923 281.849C515.847 273.117 515.375 264.08 516.532 255.179L517.272 249.476L523.672 263.989L547.946 256.84L536.176 222.4C534.714 218.119 532.105 214.321 528.635 211.42C525.199 208.547 520.893 206.918 516.416 206.798L496.071 206.249C492.491 206.153 488.91 206.317 485.354 206.738Z" fill="#FF9907"/>
<path fill-rule="evenodd" clip-rule="evenodd" d="M513.527 236.65L517.594 250.207L517.272 249.476L516.531 255.179C515.408 263.831 515.821 272.613 517.753 281.12L517.923 281.848L519.75 289.54C499.913 298.158 481.483 298.244 464.46 289.797L463.945 289.54L465.366 280.356C466.227 274.788 466.309 269.127 465.61 263.537L465.519 262.839L464.473 255.194C466.649 257.418 469.246 259.186 472.114 260.392C474.982 261.599 478.062 262.22 481.173 262.22H497.648C501.023 262.22 504.304 261.109 506.984 259.057C508.292 258.055 509.389 256.803 510.21 255.374C511.03 253.944 511.558 252.366 511.763 250.73L513.527 236.65Z" fill="#E28603"/>
<path d="M513.527 236.65L517.894 251.201" stroke="black" stroke-width="3.452" stroke-linecap="round"/>
<path fill-rule="evenodd" clip-rule="evenodd" d="M463.453 226.805L465.064 236.145C465.401 238.098 465.126 240.108 464.278 241.9C460.445 249.998 461.796 256.487 468.326 261.364" fill="#FF9907"/>
<path d="M463.451 226.805L465.062 236.145C465.398 238.098 465.124 240.108 464.276 241.9C460.443 249.998 461.793 256.487 468.324 261.364M521.847 259.396L546.352 252.391M438.715 243.626L457.693 258.767" stroke="black" stroke-width="3.452" stroke-linecap="round"/>
<path fill-rule="evenodd" clip-rule="evenodd" d="M427.538 274.05C428.518 275.247 429.783 276.178 431.216 276.758C432.65 277.339 434.206 277.55 435.743 277.372L437.126 277.212C439.126 276.98 441.049 276.309 442.76 275.248C444.47 274.186 445.925 272.759 447.02 271.07L452.438 262.71L438.148 250.861L420.13 214.84C420.002 213.558 419.468 211.361 418.532 208.25C417.595 205.139 417.822 201.983 419.21 198.781C417.689 198.238 416.556 198.448 415.809 199.412C415.063 200.376 414.316 202.195 413.568 204.869L407.047 198.782L400.411 190.492C400.263 190.307 400.05 190.186 399.816 190.153C399.582 190.121 399.344 190.179 399.151 190.316C398.952 190.457 398.81 190.664 398.75 190.9C398.69 191.137 398.716 191.387 398.823 191.606L399.714 193.416L397.999 191.527C397.822 191.333 397.58 191.21 397.319 191.182C397.058 191.154 396.795 191.223 396.581 191.375C396.366 191.529 396.213 191.756 396.151 192.013C396.088 192.27 396.121 192.542 396.243 192.777L397.581 195.367L396.444 194.118C396.27 193.927 396.031 193.81 395.774 193.788C395.517 193.767 395.262 193.844 395.059 194.004C394.855 194.165 394.718 194.396 394.675 194.652C394.632 194.909 394.685 195.172 394.826 195.391L398.438 201.034C398.701 204.138 399.176 206.397 399.864 207.812C400.896 209.934 406.436 216.731 409.697 218.786L422.959 265.298C423.872 268.498 425.43 271.476 427.538 274.05Z" fill="white"/>
<path d="M427.538 274.05C428.518 275.247 429.783 276.178 431.216 276.758C432.65 277.339 434.206 277.55 435.743 277.372L437.126 277.212C439.126 276.98 441.049 276.309 442.76 275.248C444.47 274.186 445.925 272.759 447.02 271.07L452.438 262.71L438.148 250.861L420.13 214.84C420.002 213.558 419.468 211.361 418.532 208.25C417.595 205.139 417.822 201.983 419.21 198.781C417.689 198.238 416.556 198.448 415.809 199.412C415.063 200.376 414.316 202.195 413.568 204.869L407.047 198.782L400.411 190.492C400.263 190.307 400.05 190.186 399.816 190.153C399.582 190.121 399.344 190.179 399.151 190.316C398.952 190.457 398.81 190.664 398.75 190.9C398.69 191.137 398.716 191.387 398.823 191.606L399.714 193.416L397.999 191.527C397.822 191.333 397.58 191.21 397.319 191.182C397.058 191.154 396.795 191.223 396.581 191.375C396.366 191.529 396.213 191.756 396.151 192.013C396.088 192.27 396.121 192.542 396.243 192.777L397.581 195.367L396.444 194.118C396.27 193.927 396.031 193.81 395.774 193.788C395.517 193.767 395.262 193.844 395.059 194.004C394.855 194.165 394.718 194.396 394.675 194.652C394.632 194.909 394.685 195.172 394.826 195.391L398.438 201.034C398.701 204.138 399.176 206.397 399.864 207.812C400.896 209.934 406.436 216.731 409.697 218.786L422.959 265.298C423.872 268.498 425.43 271.476 427.538 274.05Z" stroke="black" stroke-width="3.452"/>
<path d="M404.357 208.159L403.086 206.541C402.114 205.301 401.471 203.836 401.217 202.281L400.546 198.168C400.499 197.881 400.363 197.616 400.157 197.41C399.95 197.205 399.684 197.07 399.397 197.025C399.275 197.006 399.151 197.014 399.033 197.048C398.915 197.082 398.805 197.141 398.712 197.222C398.62 197.303 398.545 197.403 398.495 197.515C398.445 197.627 398.42 197.749 398.422 197.872L398.479 201.647M406.344 201.19L400.093 193.986M404.463 203.846L400.665 199.413M399.211 197.194L397.355 195.03M413.568 204.869C411.794 207.815 411.88 210.837 413.825 213.935M409.243 201.629C406.911 202.276 405.281 203.733 404.356 206M437.077 248.645L443.738 262.221" stroke="black" stroke-width="3.452" stroke-linecap="round"/>
<path fill-rule="evenodd" clip-rule="evenodd" d="M469.253 217.426L479.955 214.884C481.101 214.614 482.251 215.321 482.526 216.466L488.523 241.619C488.798 242.764 488.091 243.915 486.944 244.188C486.944 244.188 486.944 244.188 486.942 244.187L476.241 246.73C475.094 247 473.945 246.292 473.67 245.148L467.673 219.994C467.398 218.848 468.105 217.698 469.251 217.425C469.251 217.425 469.252 217.425 469.253 217.426Z" fill="#4D5D88"/>
<path fill-rule="evenodd" clip-rule="evenodd" d="M468.249 217.444L478.951 214.901C480.097 214.631 481.247 215.339 481.522 216.483L487.519 241.637C487.794 242.782 487.087 243.933 485.94 244.206C485.94 244.206 485.94 244.206 485.938 244.205L475.237 246.748C474.091 247.017 472.941 246.31 472.666 245.165L466.669 220.012C466.394 218.866 467.101 217.716 468.247 217.443C468.248 217.443 468.248 217.443 468.249 217.444Z" fill="#ABC2FF"/>
<path fill-rule="evenodd" clip-rule="evenodd" d="M475.735 223.444C476.984 223.422 478.014 224.415 478.036 225.661C478.058 226.908 477.063 227.936 475.813 227.958C474.565 227.98 473.534 226.987 473.512 225.741C473.491 224.493 474.485 223.465 475.735 223.444Z" fill="white"/>
<path fill-rule="evenodd" clip-rule="evenodd" d="M469.348 218.42C469.513 218.417 469.677 218.446 469.83 218.507C469.984 218.567 470.124 218.657 470.243 218.771C470.362 218.885 470.457 219.022 470.523 219.173C470.589 219.324 470.624 219.487 470.627 219.652C470.633 219.985 470.505 220.306 470.274 220.545C470.042 220.785 469.726 220.922 469.393 220.928C468.698 220.94 468.126 220.389 468.113 219.696C468.101 219.004 468.654 218.433 469.348 218.42Z" fill="#4D5D88"/>
<path fill-rule="evenodd" clip-rule="evenodd" d="M546.037 257.371L549.211 274.25C550.455 280.859 546.856 287.427 540.617 289.936C534.111 292.552 526.672 291.022 521.726 286.049L487.803 251.942L486.019 251.53C481.512 250.49 477.166 248.846 473.099 246.643L467.845 243.797C467.593 243.661 467.393 243.446 467.276 243.186C467.158 242.925 467.13 242.633 467.194 242.355C467.223 242.231 467.277 242.114 467.352 242.011C467.428 241.908 467.524 241.822 467.634 241.758C467.744 241.694 467.867 241.653 467.993 241.638C468.12 241.623 468.248 241.634 468.37 241.671L476.041 243.958L466.029 238.62C465.791 238.493 465.605 238.285 465.506 238.033C465.407 237.781 465.401 237.503 465.489 237.247C465.575 236.999 465.752 236.793 465.984 236.671C466.217 236.55 466.487 236.522 466.739 236.593L477.804 239.712L465.928 234.15C465.813 234.096 465.71 234.02 465.624 233.926C465.538 233.833 465.472 233.723 465.429 233.603C465.386 233.484 465.366 233.357 465.372 233.23C465.378 233.104 465.409 232.979 465.463 232.864C465.495 232.794 465.536 232.729 465.583 232.669C465.809 232.388 466.116 232.182 466.462 232.08C466.808 231.978 467.177 231.984 467.519 232.098L480.852 236.52L471.672 231.511C471.405 231.364 471.203 231.12 471.107 230.83C471.012 230.54 471.03 230.224 471.159 229.947C471.287 229.67 471.516 229.451 471.8 229.337C472.083 229.222 472.399 229.219 472.684 229.328L486.888 234.802L485.899 230.052L487.64 231.355C489.621 232.837 491.12 234.873 491.947 237.205L492.043 237.474C492.804 239.619 494.25 241.455 496.158 242.697L527.076 262.822L546.037 257.371Z" fill="white"/>
<path d="M546.037 257.371L549.211 274.25C550.455 280.859 546.856 287.427 540.617 289.936C534.111 292.552 526.672 291.022 521.726 286.049L487.803 251.942L486.019 251.53C481.512 250.49 477.166 248.846 473.099 246.643L467.845 243.797C467.593 243.661 467.393 243.446 467.276 243.186C467.158 242.925 467.13 242.633 467.194 242.355C467.223 242.231 467.277 242.114 467.352 242.011C467.428 241.908 467.524 241.822 467.634 241.758C467.744 241.694 467.867 241.653 467.993 241.638C468.12 241.623 468.248 241.634 468.37 241.671L476.041 243.958L466.029 238.62C465.791 238.493 465.605 238.285 465.506 238.033C465.407 237.781 465.401 237.503 465.489 237.247C465.575 236.999 465.752 236.793 465.984 236.671C466.217 236.55 466.487 236.522 466.739 236.593L477.804 239.712L465.928 234.15C465.813 234.096 465.71 234.02 465.624 233.926C465.538 233.833 465.472 233.723 465.429 233.603C465.386 233.484 465.366 233.357 465.372 233.23C465.378 233.104 465.409 232.979 465.463 232.864C465.495 232.794 465.536 232.729 465.583 232.669C465.809 232.388 466.116 232.182 466.462 232.08C466.808 231.978 467.177 231.984 467.519 232.098L480.852 236.52L471.672 231.511C471.405 231.364 471.203 231.12 471.107 230.83C471.012 230.54 471.03 230.224 471.159 229.947C471.287 229.67 471.516 229.451 471.8 229.337C472.083 229.222 472.399 229.219 472.684 229.328L486.888 234.802L485.899 230.052L487.64 231.355C489.621 232.837 491.12 234.873 491.947 237.205L492.043 237.474C492.804 239.619 494.25 241.455 496.158 242.697L527.076 262.822L546.037 257.371Z" stroke="black" stroke-width="3.452"/>
<path d="M524.625 261.131L537.671 270.09M510.879 164.997C511.547 161.13 513.948 158.982 518.082 158.554C524.283 157.914 530.025 165.338 527.545 172.128" stroke="black" stroke-width="3.452" stroke-linecap="round"/>
<path fill-rule="evenodd" clip-rule="evenodd" d="M510.285 165.847C511.035 162.918 512.797 160.87 515.57 159.705C519.732 157.955 524.431 160.744 526.062 163.29C527.694 165.835 529.451 170.822 526.578 175.495C523.705 180.168 516.251 178.876 513.268 173.761C511.28 170.35 510.285 167.713 510.285 165.847Z" fill="black"/>
<path d="M475.822 164.24C472.572 169.531 472.617 175.611 475.958 182.483" stroke="black" stroke-width="3.452" stroke-linecap="round"/>
<path fill-rule="evenodd" clip-rule="evenodd" d="M508.059 165.098L510.692 164.312C512.694 167.811 513.694 171.241 513.694 174.601L510.692 175.494L508.059 165.098Z" fill="#FFAD02"/>
<path fill-rule="evenodd" clip-rule="evenodd" d="M476.714 182.023C474.622 178.729 473.75 174.458 474.098 169.211C474.62 161.34 480.788 158.159 486.857 157.283C492.928 156.407 504.41 157.456 510.014 166.662C515.62 175.868 507.534 191.268 499.489 196.49C494.126 199.972 486.534 195.15 476.714 182.023Z" fill="black"/>
<path fill-rule="evenodd" clip-rule="evenodd" d="M475.765 176.597L476.25 192.33C476.307 194.171 476.979 195.94 478.159 197.355C478.729 198.038 479.442 198.588 480.248 198.965C481.054 199.342 481.933 199.538 482.823 199.538H485.231V210.801C485.231 213.876 487.723 216.368 490.798 216.368C491.49 216.368 492.177 216.239 492.822 215.988C497.399 214.201 500.412 209.79 500.412 204.876V185.666C503.109 184.018 504.579 181.725 504.821 178.79C505.185 174.386 500.586 174.143 499.26 175.519C498.375 176.436 497.832 177.769 497.631 179.518C489.806 180.607 480.363 172.384 479.981 168.645C479.318 169.777 478.703 170.723 478.132 171.483C477.924 171.759 477.698 172.02 477.456 172.266C476.896 172.836 476.458 173.514 476.168 174.258C475.877 175.003 475.74 175.798 475.765 176.597Z" fill="white"/>
<path d="M475.765 176.597L476.25 192.33C476.307 194.171 476.979 195.94 478.159 197.355C478.729 198.038 479.442 198.588 480.248 198.965C481.054 199.342 481.933 199.538 482.823 199.538H485.231V210.801C485.231 213.876 487.723 216.368 490.798 216.368C491.49 216.368 492.177 216.239 492.822 215.988C497.399 214.201 500.412 209.79 500.412 204.876V185.666C503.109 184.018 504.579 181.725 504.821 178.79C505.185 174.386 500.586 174.143 499.26 175.519C498.375 176.436 497.832 177.769 497.631 179.518C489.806 180.607 480.363 172.384 479.981 168.645C479.318 169.777 478.703 170.723 478.132 171.483C477.924 171.759 477.698 172.02 477.456 172.266C476.896 172.836 476.458 173.514 476.168 174.258C475.877 175.003 475.74 175.798 475.765 176.597Z" stroke="black" stroke-width="3.452"/>
<path fill-rule="evenodd" clip-rule="evenodd" d="M486.525 190.931C485.037 191.27 483.898 191.475 483.107 191.543C482.421 191.603 481.345 191.591 479.88 191.509C480.78 193.31 481.953 194.16 483.399 194.057C484.846 193.955 485.881 192.842 486.525 190.931ZM486.589 179.879C486.998 179.879 487.33 180.462 487.33 181.182C487.33 181.901 486.998 182.485 486.589 182.485C486.18 182.485 485.849 181.901 485.849 181.182C485.849 180.462 486.18 179.879 486.589 179.879ZM478.252 179.879C478.662 179.879 478.993 180.462 478.993 181.182C478.993 181.901 478.662 182.485 478.252 182.485C477.843 182.485 477.512 181.901 477.512 181.182C477.512 180.462 477.843 179.879 478.252 179.879Z" fill="black"/>
<path d="M481.79 180.889C481.767 182.572 481.253 184.057 480.25 185.345C478.744 187.275 479.057 189.005 483.455 188.468" stroke="black" stroke-width="3.452" stroke-linecap="round"/>
<path d="M484.537 177.526C486.445 176.655 488.404 176.92 490.415 178.321M480.584 177.755C478.611 176.78 476.726 176.79 474.926 177.787" stroke="black" stroke-width="5.178" stroke-linecap="round"/>
<path fill-rule="evenodd" clip-rule="evenodd" d="M493.63 195.557C492.468 199.095 491.345 201.659 490.263 203.247C489.179 204.836 487.504 206.377 485.234 207.871V199.21C489.432 198.88 491.423 197.771 493.63 195.557Z" fill="black"/>
<path d="M503.524 178.766C503.524 177.285 502.233 175.488 500.828 176.524C499.891 177.215 499.446 178.456 499.491 180.247H500.928" stroke="black" stroke-width="3.452" stroke-linecap="round"/>
<path d="M479.805 168.645C483.131 176.751 489.075 180.376 497.634 179.518" stroke="black" stroke-width="1.726" stroke-linecap="round"/>
<path d="M511.433 174.582C511.433 183.669 507.793 190.923 500.512 196.344" stroke="black" stroke-width="3.452" stroke-linecap="round"/>
<path d="M480.223 165.539C484.142 174.397 490.259 178.826 498.57 178.826" stroke="white" stroke-width="1.726" stroke-linecap="round"/>
<path fill-rule="evenodd" clip-rule="evenodd" d="M267.306 196.529L275.984 206.283L314.597 189.266L326.991 192.069L310.944 197.099L281.885 226.104C278.994 228.99 275.075 230.611 270.99 230.611C269.08 230.612 267.209 230.071 265.593 229.052C263.977 228.034 262.682 226.578 261.859 224.855L253.184 206.701L267.306 196.529Z" fill="white"/>
<path d="M267.306 196.529L275.984 206.283L314.597 189.266L326.991 192.069L310.944 197.099L281.885 226.104C278.994 228.99 275.075 230.611 270.99 230.611C269.08 230.612 267.209 230.071 265.593 229.052C263.977 228.034 262.682 226.578 261.859 224.855L253.184 206.701L267.306 196.529Z" stroke="black" stroke-width="3.452" stroke-linecap="round"/>
<path fill-rule="evenodd" clip-rule="evenodd" d="M290.192 182.402H351.667C352.485 182.402 353.149 183.066 353.149 183.884C353.149 184.702 352.485 185.365 351.667 185.365H290.192C289.375 185.365 288.711 184.702 288.711 183.884C288.711 183.066 289.375 182.402 290.192 182.402Z" fill="#95AFF3"/>
<path fill-rule="evenodd" clip-rule="evenodd" d="M305.336 175.773C304.527 175.689 303.727 175.542 302.943 175.331C300.413 174.641 298.065 173.402 296.068 171.703C296 171.635 295.928 171.573 295.851 171.516C293.792 169.701 292.275 167.353 291.468 164.729C291.099 163.529 290.985 162.265 291.133 161.019C291.282 159.772 291.69 158.571 292.33 157.491C292.886 156.626 293.578 155.858 294.38 155.216C295.513 154.321 296.862 153.743 298.291 153.542C299.719 153.34 301.176 153.522 302.512 154.068C304.479 155.005 306.237 156.329 307.68 157.962L305.1 160.914C303.818 159.334 302.129 158.134 300.216 157.442C299.41 157.26 298.568 157.329 297.802 157.639C297.036 157.95 296.383 158.486 295.93 159.178C295.383 159.984 295.064 160.922 295.007 161.894C294.95 162.867 295.157 163.836 295.606 164.7C297.195 167.82 299.94 170.196 303.256 171.32L305.336 175.773ZM336.425 172.497C337.798 172.192 339.583 170.78 341.103 166.209C342.496 162.064 344.749 158.259 347.713 155.044C347.822 154.923 347.899 154.777 347.937 154.619C347.975 154.461 347.973 154.296 347.932 154.139C347.89 153.982 347.81 153.838 347.699 153.719C347.588 153.6 347.449 153.511 347.295 153.459H345.917C345.26 153.453 344.614 153.616 344.039 153.933C341.729 155.24 339.818 157.688 338.161 159.344C337.327 160.214 336.273 160.841 335.111 161.159L336.425 172.497Z" fill="#ABC2FF"/>
<path fill-rule="evenodd" clip-rule="evenodd" d="M320.018 182.882H328.354C328.483 182.882 328.611 182.857 328.73 182.807C328.849 182.758 328.957 182.686 329.048 182.595C329.139 182.504 329.211 182.396 329.26 182.277C329.31 182.158 329.335 182.031 329.335 181.902V181.08C329.337 180.909 329.383 180.742 329.469 180.594C329.555 180.447 329.678 180.325 329.825 180.239C332.858 178.5 335.193 175.761 336.429 172.491C336.926 171.105 337.18 169.643 337.181 168.171C337.171 165.684 336.454 163.252 335.112 161.158C333.876 159.244 332.24 157.621 330.316 156.401L323.268 155.42H317.198L309.721 156.401C309 156.865 308.317 157.387 307.68 157.96C306.692 158.825 305.825 159.818 305.101 160.913C303.645 163.054 302.863 165.582 302.855 168.171C302.854 169.233 302.989 170.291 303.257 171.319C303.664 172.921 304.369 174.432 305.337 175.771C306.629 177.587 308.29 179.11 310.211 180.239C310.359 180.325 310.482 180.447 310.568 180.594C310.654 180.742 310.7 180.909 310.701 181.08V181.902C310.701 182.031 310.727 182.158 310.776 182.277C310.825 182.396 310.897 182.504 310.988 182.595C311.079 182.686 311.188 182.758 311.307 182.808C311.426 182.857 311.553 182.882 311.682 182.882H320.018Z" fill="#C1D2FF"/>
<path fill-rule="evenodd" clip-rule="evenodd" d="M310.213 180.239C310.36 180.324 310.483 180.447 310.569 180.594C310.655 180.742 310.701 180.909 310.703 181.08V181.902C310.703 182.03 310.728 182.158 310.777 182.277C310.827 182.396 310.899 182.504 310.99 182.595C311.081 182.686 311.189 182.758 311.308 182.807C311.427 182.856 311.555 182.882 311.684 182.882H328.356C328.485 182.882 328.612 182.856 328.731 182.807C328.85 182.758 328.958 182.686 329.049 182.595C329.14 182.504 329.213 182.396 329.262 182.277C329.311 182.158 329.337 182.03 329.337 181.902V181.08C329.338 180.909 329.385 180.742 329.47 180.594C329.556 180.447 329.679 180.324 329.827 180.239L329.929 180.18L310.113 180.18L310.213 180.239Z" fill="#95AFF3"/>
<g opacity="0.2">
<mask id="mask2_4095_657" style="mask-type:luminance" maskUnits="userSpaceOnUse" x="327" y="159" width="8" height="11">
<path d="M327.371 159.342H334.24V169.151H327.371V159.342Z" fill="white"/>
</mask>
<g mask="url(#mask2_4095_657)">
<path d="M333.257 169.151C333.4 169.151 333.54 169.12 333.67 169.06C333.799 169.001 333.914 168.913 334.006 168.805C334.098 168.696 334.165 168.568 334.203 168.431C334.241 168.294 334.249 168.15 334.225 168.009C333.175 161.704 328.972 159.536 328.793 159.447C328.562 159.337 328.296 159.321 328.054 159.405C327.811 159.488 327.611 159.662 327.496 159.891C327.38 160.12 327.359 160.385 327.437 160.63C327.514 160.874 327.684 161.078 327.91 161.199C328.064 161.277 331.413 163.063 332.291 168.332C332.329 168.561 332.447 168.769 332.624 168.919C332.801 169.069 333.025 169.151 333.257 169.151Z" fill="white"/>
</g>
</g>
<path fill-rule="evenodd" clip-rule="evenodd" d="M309.348 153.459L318.547 154.439H321.489L330.688 153.459C330.449 153.453 330.22 153.362 330.041 153.204C328.129 151.727 325.851 150.798 323.451 150.516C322.784 150.516 322.117 149.143 321.754 148.28L320.064 146.318L318.282 148.28C317.919 149.143 317.253 150.516 316.585 150.516C314.186 150.798 311.908 151.727 309.996 153.204C309.816 153.363 309.587 153.453 309.348 153.459Z" fill="#ABC2FF"/>
<path fill-rule="evenodd" clip-rule="evenodd" d="M316.586 146.594C316.586 145.511 318.123 144.633 320.019 144.633C321.915 144.633 323.452 145.511 323.452 146.594C323.452 147.677 321.915 148.555 320.019 148.555C318.123 148.555 316.586 147.677 316.586 146.594ZM307.613 154.294L309.721 156.402H330.317L332.425 154.294C332.493 154.225 332.539 154.137 332.557 154.042C332.575 153.947 332.565 153.848 332.527 153.759C332.489 153.67 332.426 153.594 332.345 153.541C332.264 153.487 332.169 153.459 332.072 153.46H307.966C307.869 153.459 307.774 153.487 307.693 153.54C307.613 153.594 307.549 153.67 307.512 153.759C307.474 153.848 307.463 153.946 307.481 154.042C307.499 154.137 307.545 154.225 307.613 154.294Z" fill="#95AFF3"/>
<path fill-rule="evenodd" clip-rule="evenodd" d="M220.653 434.557C218.296 432.178 216.86 430.07 216.345 428.23C213.896 419.49 217.632 409.333 221.319 400.02L208.221 394.994C208.084 398.049 207.167 400.42 205.471 402.109C202.926 404.642 200.622 407.972 200.726 410.39C200.796 412.003 203.221 419.79 208 433.751L220.653 434.557Z" fill="white"/>
<path d="M220.653 434.557C218.296 432.178 216.86 430.07 216.345 428.23C213.896 419.49 217.632 409.333 221.319 400.02L208.221 394.994C208.084 398.049 207.167 400.42 205.471 402.109C202.926 404.642 200.622 407.972 200.726 410.39C200.796 412.003 203.221 419.79 208 433.751L220.653 434.557Z" stroke="black" stroke-width="3.452"/>
<path fill-rule="evenodd" clip-rule="evenodd" d="M201.539 407.425C199.423 407.149 197.897 408.639 196.964 411.895L190.699 433.742L193.585 434.569L198.505 421.036L201.554 434.383C201.737 435.187 202.129 435.927 202.691 436.531C203.252 437.134 203.963 437.578 204.752 437.818L225.605 444.175C229.271 445.238 229.892 444.143 227.466 440.893C225.04 437.642 222.171 434.823 218.858 432.438C215.338 434.751 212.009 434.457 208.871 431.558C205.733 428.657 203.288 420.613 201.539 407.425Z" fill="black"/>
<path fill-rule="evenodd" clip-rule="evenodd" d="M214.18 246.355C208.239 262.853 210.256 280.071 220.235 298.009L220.757 325.494C220.902 333.141 219.862 340.763 217.674 348.091L202.645 398.432C205.19 401.357 208.058 403.442 211.248 404.686C214.437 405.93 218.26 406.553 222.716 406.553L243.799 353.186C245.532 348.8 246.842 344.259 247.711 339.625L254.854 301.547L241.862 246.356L214.18 246.355Z" fill="#312C1C"/>
<path fill-rule="evenodd" clip-rule="evenodd" d="M317.257 434.806C314.829 433.169 313.115 431.538 312.113 429.913C307.35 422.186 301.003 406.484 300.131 398.232L285.969 401.195L291.441 417.068C291.952 418.599 296.429 425.416 304.872 437.519L317.257 434.806Z" fill="white"/>
<path d="M317.257 434.806C314.829 433.169 313.115 431.538 312.113 429.913C307.35 422.186 301.003 406.484 300.131 398.232L285.969 401.195L291.441 417.068C291.952 418.599 296.429 425.416 304.872 437.519L317.257 434.806Z" stroke="black" stroke-width="3.452"/>
<path fill-rule="evenodd" clip-rule="evenodd" d="M291.401 413.996C289.29 414.313 288.234 416.166 288.234 419.553V442.281H291.236L292.236 427.915L298.845 439.905C299.242 440.627 299.824 441.231 300.53 441.656C301.236 442.081 302.042 442.312 302.866 442.325L324.664 442.688C328.481 442.699 328.776 441.476 325.548 439.019C322.32 436.564 318.785 434.646 314.943 433.266C312.197 436.459 308.916 437.095 305.1 435.172C301.283 433.249 296.717 426.191 291.401 413.996Z" fill="black"/>
<g opacity="0.3">
<mask id="mask3_4095_657" style="mask-type:luminance" maskUnits="userSpaceOnUse" x="213" y="282" width="27" height="124">
<path d="M213.195 282.389H239.728V405.059H213.195V282.389Z" fill="white"/>
</mask>
<g mask="url(#mask3_4095_657)">
<path d="M213.539 404.927L234.006 351.7C236.783 344.477 238.282 336.826 238.434 329.089L239.356 282.396" stroke="white" stroke-width="3.452"/>
</g>
</g>
<path fill-rule="evenodd" clip-rule="evenodd" d="M220.91 249.771C218.128 268.262 223.987 284.1 238.488 297.286L258.222 334.557C260.179 338.254 261.82 342.11 263.126 346.084L283.549 408.206C287.121 409.197 291.003 409.197 295.198 408.206C299.392 407.217 303.095 405.46 306.309 402.936L287.355 328.63C287.209 328.059 287.057 327.49 286.897 326.923L264.285 246.355L220.91 249.771Z" fill="#413B25"/>
<g opacity="0.3">
<mask id="mask4_4095_657" style="mask-type:luminance" maskUnits="userSpaceOnUse" x="240" y="248" width="54" height="162">
<path d="M240.512 248.812H293.011V409.063H240.512V248.812Z" fill="white"/>
</mask>
<g mask="url(#mask4_4095_657)">
<path d="M292.66 408.951L270.766 340.494C269.829 337.564 268.711 334.696 267.418 331.905L251.413 297.379C248.53 291.16 246.524 284.57 245.453 277.798L240.879 248.871" stroke="white" stroke-width="3.452"/>
</g>
</g>
<path fill-rule="evenodd" clip-rule="evenodd" d="M251.754 135.505C254.416 132.01 255.294 127.193 254.386 121.058C253.026 111.853 242.56 108.815 235.424 110.846C228.288 112.876 222.68 115.594 220.856 130.467C220.067 136.903 214.608 143.818 211.704 149.83C206.784 160.017 208.52 174.191 220.856 180.128C244.081 191.306 261.489 180.7 262.128 165.621C262.405 159.083 262.141 153.814 255.247 146.451C252.335 143.34 251.17 139.691 251.754 135.505Z" fill="black"/>
<path fill-rule="evenodd" clip-rule="evenodd" d="M239.414 161.896C244.808 164.636 248.759 167.478 251.267 170.42C253.776 173.364 260.634 181.661 271.843 195.313L259.151 207.024L239.414 161.896Z" fill="#C5575A"/>
<path d="M268.841 191.959L259.184 201.71" stroke="black" stroke-width="3.452" stroke-linecap="round"/>
<path fill-rule="evenodd" clip-rule="evenodd" d="M235.562 160.593L231.687 159.779C229.897 159.403 228.039 159.518 226.308 160.111C224.578 160.705 223.04 161.755 221.858 163.15L221.738 163.291C219.253 166.222 217.575 169.75 216.867 173.527L216.829 173.733C216.138 177.42 215.969 181.185 216.328 184.918L218.99 212.663L211.52 248.501C229.821 259.312 248.417 258.952 267.309 247.421L260.89 203.395C264.161 197.843 264.979 192.834 263.343 188.371C260.89 181.677 254.488 178.066 250.206 172.162L249.902 171.567C248.483 168.783 246.458 166.352 243.977 164.454C241.496 162.555 238.62 161.236 235.562 160.593Z" fill="#ED6D6F"/>
<path fill-rule="evenodd" clip-rule="evenodd" d="M255.629 201.872L261.791 211.322L299.039 191.012C300.599 185.092 302.912 181.917 305.976 181.486C308.746 181.096 313.5 179.604 320.238 177.007C320.428 176.934 320.635 176.918 320.834 176.961C321.033 177.003 321.215 177.102 321.359 177.247C321.502 177.391 321.601 177.574 321.642 177.773C321.684 177.972 321.666 178.179 321.592 178.368C321.029 179.81 319.987 181.014 318.64 181.777L315.303 183.667L328.227 184.325H336.691C337.008 184.325 337.311 184.451 337.535 184.675C337.759 184.899 337.885 185.202 337.885 185.519C337.885 185.836 337.759 186.14 337.535 186.364C337.311 186.588 337.008 186.713 336.691 186.713H328.227L337.679 187.862C337.968 187.897 338.234 188.037 338.428 188.255C338.621 188.473 338.727 188.755 338.728 189.046C338.728 189.321 338.618 189.584 338.424 189.778C338.23 189.972 337.967 190.081 337.692 190.081L337.671 190.081L328.628 189.893L336.653 190.906C336.885 190.935 337.098 191.048 337.252 191.223C337.406 191.399 337.491 191.624 337.491 191.858C337.491 191.969 337.47 192.079 337.427 192.181C337.385 192.284 337.322 192.377 337.244 192.456C337.165 192.534 337.072 192.596 336.97 192.639C336.867 192.682 336.757 192.703 336.646 192.703H328.628L332.265 193.449C332.507 193.498 332.725 193.63 332.881 193.822C333.038 194.014 333.123 194.254 333.123 194.501C333.123 194.613 333.101 194.724 333.058 194.828C333.015 194.932 332.953 195.026 332.873 195.105C332.794 195.184 332.7 195.247 332.596 195.29C332.493 195.333 332.382 195.355 332.27 195.355H332.247L312.141 194.821C311.003 194.791 309.897 195.198 309.051 195.96L272.023 229.277C270.277 230.847 268.229 232.043 266.004 232.792C263.779 233.54 261.424 233.825 259.084 233.628C256.759 233.433 254.502 232.74 252.468 231.595C250.434 230.451 248.67 228.882 247.296 226.995L237.977 214.2L255.629 201.872Z" fill="white"/>
<path d="M255.629 201.872L261.791 211.322L299.039 191.012C300.599 185.092 302.912 181.917 305.976 181.486C308.746 181.096 313.5 179.604 320.238 177.007C320.428 176.934 320.635 176.918 320.834 176.961C321.033 177.003 321.215 177.102 321.359 177.247C321.502 177.391 321.601 177.574 321.642 177.773C321.684 177.972 321.666 178.179 321.592 178.368C321.029 179.81 319.987 181.014 318.64 181.777L315.303 183.667L328.227 184.325H336.691C337.008 184.325 337.311 184.451 337.535 184.675C337.759 184.899 337.885 185.202 337.885 185.519C337.885 185.836 337.759 186.14 337.535 186.364C337.311 186.588 337.008 186.713 336.691 186.713H328.227L337.679 187.862C337.968 187.897 338.234 188.037 338.428 188.255C338.621 188.473 338.727 188.755 338.728 189.046C338.728 189.321 338.618 189.584 338.424 189.778C338.23 189.972 337.967 190.081 337.692 190.081L337.671 190.081L328.628 189.893L336.653 190.906C336.885 190.935 337.098 191.048 337.252 191.223C337.406 191.399 337.491 191.624 337.491 191.858C337.491 191.969 337.47 192.079 337.427 192.181C337.385 192.284 337.322 192.377 337.244 192.456C337.165 192.534 337.072 192.596 336.97 192.639C336.867 192.682 336.757 192.703 336.646 192.703H328.628L332.265 193.449C332.507 193.498 332.725 193.63 332.881 193.822C333.038 194.014 333.123 194.254 333.123 194.501C333.123 194.613 333.101 194.724 333.058 194.828C333.015 194.932 332.953 195.026 332.873 195.105C332.794 195.184 332.7 195.247 332.596 195.29C332.493 195.333 332.382 195.355 332.27 195.355H332.247L312.141 194.821C311.003 194.791 309.897 195.198 309.051 195.96L272.023 229.277C270.277 230.847 268.229 232.043 266.004 232.792C263.779 233.54 261.424 233.825 259.084 233.628C256.759 233.433 254.502 232.74 252.468 231.595C250.434 230.451 248.67 228.882 247.296 226.995L237.977 214.2L255.629 201.872Z" stroke="black" stroke-width="3.452"/>
<path d="M331.248 186.934L324.052 186.443M329.929 190.007L324.051 189.633M324.052 192.186L330.488 192.81M251.738 216.736L263.176 210.584" stroke="black" stroke-width="3.452" stroke-linecap="round"/>
<path fill-rule="evenodd" clip-rule="evenodd" d="M243.848 172.715L259.182 201.709L235.674 216.036L217.945 185.718" fill="#ED6D6F"/>
<path d="M243.848 172.715L259.182 201.709L235.674 216.036L217.945 185.718" stroke="black" stroke-width="3.452" stroke-linecap="round"/>
<path fill-rule="evenodd" clip-rule="evenodd" d="M244.241 152.198L243.757 164.315C241.719 165.134 238.814 165.311 235.042 164.847C231.271 164.384 228.478 163.526 226.666 162.273L229.401 142.173C226.074 140.286 224.504 137.78 224.691 134.652C224.971 129.96 230.028 129.96 231.831 134.147C240.339 133.574 246.008 129.548 248.834 122.07C249.657 124.053 250.572 125.286 251.579 125.768V146.654C251.579 147.391 251.429 148.12 251.139 148.797C250.848 149.474 250.423 150.085 249.889 150.592C248.803 151.624 247.363 152.198 245.866 152.198H244.241Z" fill="white"/>
<path d="M244.241 152.198L243.757 164.315C241.719 165.134 238.814 165.311 235.042 164.847C231.271 164.384 228.478 163.526 226.666 162.273L229.401 142.173C226.074 140.286 224.504 137.78 224.691 134.652C224.971 129.96 230.028 129.96 231.831 134.147C240.339 133.574 246.008 129.548 248.834 122.07C249.657 124.053 250.572 125.286 251.579 125.768V146.654C251.579 147.391 251.429 148.12 251.139 148.797C250.848 149.474 250.423 150.085 249.889 150.592C248.803 151.624 247.363 152.198 245.866 152.198H244.241Z" stroke="black" stroke-width="3.452"/>
<path fill-rule="evenodd" clip-rule="evenodd" d="M244.396 151.896L237.832 150.754L243.923 160.476L244.396 151.896Z" fill="black"/>
<path d="M230.027 134.999C229.388 133.747 228.525 133.194 227.436 133.343C226.77 133.433 225.894 133.849 226.231 135.842C226.316 136.347 226.794 137.333 227.667 138.799M248.585 132.717C248.656 135.71 249.083 137.914 249.867 139.33C251.042 141.452 247.609 141.626 245.678 140.324" stroke="black" stroke-width="3.452" stroke-linecap="round"/>
<path fill-rule="evenodd" clip-rule="evenodd" d="M242.62 134.147C243.028 134.147 243.36 134.73 243.36 135.45C243.36 136.169 243.028 136.753 242.62 136.753C242.211 136.753 241.879 136.169 241.879 135.45C241.879 134.73 242.21 134.147 242.62 134.147ZM250.767 133.406C251.176 133.406 251.507 133.99 251.507 134.709C251.507 135.429 251.176 136.012 250.767 136.012C250.358 136.012 250.026 135.429 250.026 134.709C250.026 133.99 250.357 133.406 250.767 133.406Z" fill="black"/>
<path d="M238.508 132.167C239.95 130.645 241.866 130.156 244.255 130.701M248.682 129.633C249.983 129.114 251.202 129.163 252.339 129.78" stroke="black" stroke-width="5.178" stroke-linecap="round"/>
<path d="M242.561 143.983C245.135 145.685 247.414 145.851 249.399 144.48M248.671 121.385C246.018 131.176 240.492 135.353 232.094 133.914" stroke="black" stroke-width="3.452" stroke-linecap="round"/>
<path d="M250.107 118.432C249.021 126.134 243.016 130.896 232.094 132.718" stroke="white" stroke-width="1.726" stroke-linecap="round"/>
<path fill-rule="evenodd" clip-rule="evenodd" d="M229.403 142.174C236.941 148.722 240.198 156.728 239.175 166.194C237.64 180.393 223.15 184.226 215.311 176.436C210.084 171.242 214.782 159.822 229.403 142.174Z" fill="black"/>
<path d="M229.402 142.174C239.857 151.666 242.765 161.673 238.128 172.194C233.49 182.716 224.184 180.648 210.211 165.99M232.82 211.249L256.471 196.926" stroke="black" stroke-width="3.452" stroke-linecap="round"/>
<path fill-rule="evenodd" clip-rule="evenodd" d="M337.328 276.18H370.927L358.687 325.725V443.773H349.506V325.725L337.328 276.18Z" fill="#6375A6"/>
<path fill-rule="evenodd" clip-rule="evenodd" d="M370.475 278.015L366.848 292.694H341.388L337.78 278.015H370.475ZM322.577 440.715H385.618C387.308 440.715 388.677 442.084 388.677 443.773C388.677 445.462 387.308 446.831 385.618 446.831H322.577C320.887 446.831 319.519 445.462 319.519 443.773C319.519 442.084 320.887 440.715 322.577 440.715ZM218.25 280.027V275.879L228.279 276.356L222.809 280.46L218.25 280.027ZM489.278 280.323V276.175L479.249 276.652L484.72 280.756L489.278 280.323Z" fill="#4D5D88"/>
<path fill-rule="evenodd" clip-rule="evenodd" d="M353.791 273.211C428.649 273.211 489.333 276.262 489.333 280.025C489.333 283.789 428.649 286.84 353.791 286.84C278.934 286.84 218.25 283.789 218.25 280.025C218.25 276.262 278.934 273.211 353.791 273.211Z" fill="#4D5D88"/>
<path fill-rule="evenodd" clip-rule="evenodd" d="M353.791 271.582C428.649 271.582 489.333 274.069 489.333 277.137C489.333 280.205 428.649 282.693 353.791 282.693C278.934 282.693 218.25 280.205 218.25 277.137C218.25 274.069 278.934 271.582 353.791 271.582Z" fill="#ACBCE2"/>
<path d="M397.271 262.931V265.782C397.271 266.165 397.152 266.538 396.931 266.85C396.71 267.163 396.398 267.399 396.037 267.526L389.414 269.864V267.85L394.809 265.923C394.989 265.859 395.144 265.741 395.254 265.585C395.363 265.429 395.422 265.243 395.422 265.052V263.855C395.422 263.61 395.325 263.375 395.152 263.202C394.978 263.028 394.743 262.931 394.498 262.931H389.414V261.082H395.423C395.665 261.082 395.906 261.13 396.13 261.223C396.354 261.316 396.558 261.452 396.73 261.624C396.901 261.795 397.037 261.999 397.13 262.223C397.223 262.448 397.271 262.688 397.271 262.931Z" fill="#ECF0F1"/>
<path d="M386.992 273.099H377.859C371.461 268.478 372.776 258.771 372.776 258.771H392.075C392.075 258.771 393.39 268.478 386.992 273.099Z" fill="#ECF0F1"/>
<path d="M392.131 262.469C391.898 265.709 390.837 270.322 386.993 273.099H377.861C374.016 270.322 372.956 265.709 372.723 262.469H392.131Z" fill="#C57157"/>
<path d="M396.808 272.637C396.808 272.637 396.808 276.334 392.648 276.334H375.085C370.926 276.334 370.926 272.637 370.926 272.637H396.808Z" fill="#ECF0F1"/>
<path d="M385.255 265.242C385.194 265.242 385.134 265.23 385.078 265.206C385.022 265.183 384.971 265.149 384.928 265.106C384.885 265.063 384.851 265.012 384.828 264.956C384.805 264.9 384.793 264.84 384.793 264.779V258.771C384.793 258.515 385 258.309 385.255 258.309C385.511 258.309 385.717 258.515 385.717 258.771V264.779C385.717 264.84 385.705 264.9 385.682 264.956C385.659 265.012 385.625 265.063 385.582 265.106C385.539 265.149 385.488 265.183 385.432 265.206C385.376 265.23 385.316 265.242 385.255 265.242Z" fill="#624C34"/>
<path d="M387.104 266.165V270.787H383.406V266.165L385.255 264.316L387.104 266.165Z" fill="#624C34"/>
<path d="M382.328 257.385C382.236 257.385 382.147 257.357 382.071 257.306C381.995 257.256 381.936 257.183 381.901 257.099C381.867 257.015 381.857 256.922 381.875 256.832C381.893 256.743 381.937 256.66 382.002 256.596C382.044 256.551 383.102 255.414 381.932 253.463C381.112 252.097 381.309 250.999 381.619 250.318C381.823 249.868 382.129 249.47 382.513 249.158C382.611 249.084 382.734 249.052 382.855 249.069C382.977 249.086 383.086 249.15 383.16 249.248C383.234 249.346 383.266 249.469 383.249 249.591C383.232 249.712 383.167 249.821 383.069 249.895C382.801 250.124 382.588 250.41 382.446 250.733C382.146 251.421 382.24 252.18 382.724 252.987C384.279 255.578 382.722 257.182 382.655 257.249C382.612 257.292 382.561 257.326 382.505 257.35C382.449 257.373 382.388 257.385 382.328 257.385ZM376.935 257.385C376.844 257.385 376.754 257.358 376.678 257.308C376.602 257.257 376.542 257.185 376.507 257.1C376.472 257.015 376.463 256.922 376.481 256.832C376.499 256.743 376.544 256.66 376.609 256.596C376.714 256.488 377.628 255.495 376.609 254.476C375.725 253.593 375.778 252.695 375.977 252.097C376.109 251.706 376.325 251.349 376.609 251.049C376.695 250.963 376.812 250.914 376.935 250.913C377.057 250.913 377.175 250.961 377.262 251.047C377.443 251.227 377.444 251.52 377.263 251.701C377.156 251.811 376.243 252.803 377.262 253.822C378.145 254.705 378.092 255.604 377.894 256.202C377.761 256.592 377.545 256.949 377.262 257.249C377.219 257.292 377.168 257.326 377.112 257.35C377.056 257.373 376.996 257.385 376.935 257.385ZM388.028 257.385C387.936 257.384 387.847 257.357 387.771 257.306C387.695 257.256 387.636 257.184 387.601 257.099C387.566 257.015 387.557 256.922 387.575 256.832C387.593 256.743 387.636 256.66 387.701 256.596C387.807 256.488 388.72 255.495 387.701 254.476C386.817 253.593 386.87 252.695 387.069 252.097C387.202 251.706 387.418 251.349 387.701 251.049C387.758 250.992 387.829 250.95 387.908 250.929C387.986 250.908 388.069 250.908 388.147 250.929C388.225 250.949 388.297 250.99 388.355 251.048C388.412 251.105 388.453 251.176 388.475 251.254C388.518 251.414 388.473 251.584 388.355 251.701C388.248 251.811 387.335 252.803 388.354 253.822C389.238 254.705 389.185 255.604 388.986 256.202C388.853 256.592 388.637 256.949 388.354 257.249C388.311 257.292 388.261 257.326 388.204 257.35C388.148 257.373 388.088 257.385 388.028 257.385Z" fill="#E0E2E5"/>
</g>
<defs>
<filter id="filter0_d_4095_657" x="-31.2857" y="-22.2857" width="812.571" height="604.571" filterUnits="userSpaceOnUse" color-interpolation-filters="sRGB">
<feFlood flood-opacity="0" result="BackgroundImageFix"/>
<feColorMatrix in="SourceAlpha" type="matrix" values="0 0 0 0 0 0 0 0 0 0 0 0 0 0 0 0 0 0 127 0" result="hardAlpha"/>
<feMorphology radius="4.28571" operator="dilate" in="SourceAlpha" result="effect1_dropShadow_4095_657"/>
<feOffset dy="16"/>
<feGaussianBlur stdDeviation="24"/>
<feComposite in2="hardAlpha" operator="out"/>
<feColorMatrix type="matrix" values="0 0 0 0 0.160784 0 0 0 0 0 0 0 0 0 0.501961 0 0 0 0.4 0"/>
<feBlend mode="normal" in2="BackgroundImageFix" result="effect1_dropShadow_4095_657"/>
<feBlend mode="normal" in="SourceGraphic" in2="effect1_dropShadow_4095_657" result="shape"/>
</filter>
</defs>
</svg>
