<svg width="48" height="48" viewBox="0 0 48 48" fill="none" xmlns="http://www.w3.org/2000/svg">
<g clip-path="url(#clip0_4230_10139)">
<path d="M44.15 0H4.1C1.9125 0 0 1.575 0 3.7375V43.875C0 46.05 1.9125 47.9875 4.1 47.9875H44.1375C46.3375 47.9875 47.9875 46.0375 47.9875 43.875V3.7375C48 1.575 46.3375 0 44.15 0ZM14.875 40H8V18.625H14.875V40ZM11.675 15.375H11.625C9.425 15.375 8 13.7375 8 11.6875C8 9.6 9.4625 8 11.7125 8C13.9625 8 15.3375 9.5875 15.3875 11.6875C15.3875 13.7375 13.9625 15.375 11.675 15.375ZM40 40H33.125V28.3125C33.125 25.5125 32.125 23.6 29.6375 23.6C27.7375 23.6 26.6125 24.8875 26.1125 26.1375C25.925 26.5875 25.875 27.2 25.875 27.825V40H19V18.625H25.875V21.6C26.875 20.175 28.4375 18.125 32.075 18.125C36.5875 18.125 40 21.1 40 27.5125V40Z" fill="white"/>
</g>
<defs>
<clipPath id="clip0_4230_10139">
<rect width="48" height="48" fill="white"/>
</clipPath>
</defs>
</svg>
