<svg width="326" height="268" viewBox="0 0 326 268" fill="none" xmlns="http://www.w3.org/2000/svg">
<g clip-path="url(#clip0_4072_11305)">
<path d="M132.315 203.131L198.168 221.381C203.534 223.117 209.197 219.704 210.175 214.124L239.853 49.0508C240.997 42.5724 236.764 36.3575 230.338 35.0762L165.378 22.1074C159.142 20.862 153.109 25.0532 152.072 31.352L124.374 190.019C123.42 195.767 126.794 201.335 132.315 203.131Z" fill="url(#paint0_linear_4072_11305)"/>
<path d="M126.579 203.131L192.433 221.381C197.798 223.117 203.462 219.704 204.44 214.124L234.117 49.0508C235.262 42.5724 231.029 36.3575 224.602 35.0762L159.655 22.1074C153.419 20.862 147.386 25.0532 146.349 31.352L118.65 190.019C117.684 195.767 121.071 201.335 126.579 203.131Z" fill="url(#paint1_linear_4072_11305)"/>
<path d="M231.053 48.512L201.387 213.585C200.862 216.555 198.299 218.722 195.294 218.722C194.662 218.722 194.018 218.615 193.398 218.411L127.545 200.161C123.515 198.868 121.011 194.725 121.702 190.546L149.401 31.8789C150.056 27.9152 153.443 25.0293 157.437 25.0293C157.962 25.0293 158.51 25.0772 159.035 25.185L181.32 29.6396C181.928 29.7594 182.429 30.2024 182.619 30.8012L183.752 34.3098C183.991 35.0642 184.611 35.639 185.374 35.8306L196.88 38.7285C197.56 38.8962 198.287 38.7046 198.8 38.2256L202.4 34.8008C202.913 34.3098 203.629 34.1062 204.32 34.2379L223.994 38.1657C228.739 39.0758 231.887 43.734 231.053 48.512Z" fill="url(#paint2_linear_4072_11305)"/>
<path d="M231.135 76.7979L233.818 77.2649L233.222 80.3544L230.551 79.8993L231.135 76.7979Z" fill="white"/>
<path d="M230.147 81.5151L232.83 81.9702L232.233 85.0597L229.562 84.6047L230.147 81.5151Z" fill="white"/>
<g opacity="0.15">
<path opacity="0.037" d="M205.369 140.24C205.369 165.842 225.103 188.618 249.462 191.121C273.822 193.624 293.555 174.895 293.555 149.305C293.555 123.715 273.822 100.926 249.462 98.4236C225.103 95.9209 205.369 114.638 205.369 140.24Z" fill="#030711"/>
<path opacity="0.074" d="M205.918 140.301C205.918 165.58 225.413 188.068 249.451 190.535C273.488 193.002 292.983 174.513 292.983 149.246C292.983 123.979 273.488 101.478 249.451 99.0114C225.413 96.5326 205.918 115.022 205.918 140.301Z" fill="#030711"/>
<path opacity="0.111" d="M206.477 140.36C206.477 165.315 225.721 187.517 249.449 189.959C273.188 192.402 292.421 174.153 292.421 149.197C292.421 124.242 273.188 102.028 249.449 99.5853C225.709 97.1425 206.477 115.404 206.477 140.36Z" fill="#030711"/>
<path opacity="0.148" d="M207.039 140.409C207.039 165.041 226.033 186.955 249.451 189.362C272.869 191.769 291.863 173.759 291.863 149.126C291.863 124.494 272.881 102.58 249.451 100.173C226.021 97.7662 207.039 115.788 207.039 140.409Z" fill="#030711"/>
<path opacity="0.185" d="M207.6 140.467C207.6 164.776 226.343 186.403 249.463 188.774C272.583 191.145 291.326 173.374 291.326 149.065C291.326 124.756 272.583 103.129 249.463 100.758C226.343 98.3874 207.6 116.17 207.6 140.467Z" fill="#030711"/>
<path opacity="0.222" d="M208.148 140.526C208.148 164.512 226.642 185.851 249.451 188.186C272.261 190.533 290.754 172.99 290.754 149.004C290.754 125.019 272.261 103.679 249.451 101.344C226.642 99.0093 208.148 116.54 208.148 140.526Z" fill="#030711"/>
<path opacity="0.259" d="M208.707 140.587C208.707 164.249 226.95 185.301 249.45 187.612C271.949 189.923 290.192 172.62 290.192 148.957C290.192 125.295 271.949 104.243 249.45 101.932C226.95 99.621 208.707 116.925 208.707 140.587Z" fill="#030711"/>
<path opacity="0.296" d="M209.268 140.647C209.268 163.986 227.26 184.75 249.45 187.025C271.639 189.3 289.632 172.236 289.632 148.909C289.632 125.582 271.639 104.806 249.45 102.531C227.26 100.244 209.268 117.308 209.268 140.647Z" fill="#030711"/>
<path opacity="0.333" d="M209.828 140.695C209.828 163.71 227.57 184.187 249.462 186.427C271.353 188.666 289.095 171.841 289.095 148.838C289.095 125.822 271.353 105.345 249.462 103.106C227.57 100.854 209.828 117.691 209.828 140.695Z" fill="#030711"/>
<path opacity="0.37" d="M210.377 140.754C210.377 163.446 227.869 183.624 249.45 185.851C271.032 188.078 288.523 171.469 288.523 148.789C288.523 126.108 271.032 105.919 249.45 103.691C227.869 101.464 210.377 118.073 210.377 140.754Z" fill="#030711"/>
<path opacity="0.407" d="M210.938 140.815C210.938 163.184 228.179 183.074 249.45 185.265C270.722 187.457 287.963 171.099 287.963 148.73C287.963 126.361 270.722 106.471 249.45 104.279C228.179 102.088 210.938 118.446 210.938 140.815Z" fill="#030711"/>
<path opacity="0.444" d="M211.5 140.875C211.5 162.908 228.491 182.523 249.452 184.678C270.414 186.834 287.405 170.716 287.405 148.67C287.405 126.624 270.414 107.022 249.452 104.866C228.491 102.711 211.5 118.829 211.5 140.875Z" fill="#030711"/>
<path opacity="0.481" d="M212.059 140.922C212.059 162.632 228.799 181.96 249.463 184.079C270.114 186.199 286.867 170.32 286.867 148.598C286.867 126.875 270.114 107.572 249.451 105.452C228.799 103.333 212.059 119.212 212.059 140.922Z" fill="#030711"/>
<path opacity="0.518" d="M212.607 140.982C212.607 162.369 229.098 181.409 249.451 183.504C269.804 185.6 286.295 169.949 286.295 148.562C286.295 127.175 269.804 108.135 249.451 106.039C229.11 103.944 212.607 119.595 212.607 140.982Z" fill="#030711"/>
<path opacity="0.556" d="M213.166 141.042C213.166 162.105 229.406 180.858 249.449 182.918C269.493 184.977 285.732 169.566 285.732 148.502C285.732 127.438 269.493 108.686 249.449 106.626C229.418 104.566 213.166 119.978 213.166 141.042Z" fill="#030711"/>
<path opacity="0.593" d="M213.727 141.103C213.727 161.843 229.728 180.308 249.449 182.332C269.183 184.356 285.172 169.184 285.172 148.443C285.172 127.703 269.171 109.238 249.449 107.214C229.716 105.178 213.727 120.35 213.727 141.103Z" fill="#030711"/>
<path opacity="0.63" d="M214.287 141.162C214.287 161.579 230.038 179.757 249.461 181.756C268.885 183.756 284.636 168.812 284.636 148.394C284.636 127.977 268.885 109.799 249.461 107.8C230.026 105.8 214.287 120.733 214.287 141.162Z" fill="#030711"/>
<path opacity="0.667" d="M214.838 141.211C214.838 161.304 230.338 179.195 249.452 181.159C268.565 183.123 284.066 168.429 284.066 148.324C284.066 128.23 268.565 110.34 249.452 108.376C230.338 106.424 214.838 121.117 214.838 141.211Z" fill="#030711"/>
<path opacity="0.704" d="M215.396 141.27C215.396 161.04 230.647 178.643 249.45 180.571C268.253 182.499 283.503 168.045 283.503 148.263C283.503 128.48 268.253 110.889 249.45 108.961C230.647 107.033 215.396 121.499 215.396 141.27Z" fill="#030711"/>
<path opacity="0.741" d="M215.959 141.33C215.959 160.777 230.959 178.093 249.452 179.985C267.945 181.877 282.945 167.663 282.945 148.204C282.945 128.744 267.945 111.441 249.452 109.549C230.959 107.657 215.959 121.883 215.959 141.33Z" fill="#030711"/>
<path opacity="0.778" d="M216.518 141.389C216.518 160.513 231.267 177.541 249.462 179.409C267.657 181.277 282.407 167.29 282.407 148.166C282.407 129.043 267.657 112.014 249.462 110.146C231.267 108.278 216.518 122.265 216.518 141.389Z" fill="#030711"/>
<path opacity="0.815" d="M217.066 141.449C217.066 160.249 231.565 176.99 249.451 178.822C267.336 180.654 281.835 166.907 281.835 148.107C281.835 129.306 267.336 112.565 249.451 110.733C231.565 108.889 217.066 122.636 217.066 141.449Z" fill="#030711"/>
<path opacity="0.852" d="M217.625 141.497C217.625 159.974 231.874 176.415 249.449 178.224C267.024 180.032 281.273 166.512 281.273 148.035C281.273 129.558 267.024 113.116 249.449 111.308C231.874 109.5 217.625 123.02 217.625 141.497Z" fill="#030711"/>
<path opacity="0.889" d="M218.186 141.557C218.186 159.711 232.184 175.865 249.449 177.649C266.714 179.421 280.712 166.141 280.712 147.987C280.712 129.833 266.714 113.679 249.449 111.895C232.184 110.123 218.186 123.403 218.186 141.557Z" fill="#030711"/>
<path opacity="0.926" d="M218.746 141.618C218.746 159.448 232.494 175.315 249.461 177.063C266.428 178.811 280.176 165.759 280.176 147.928C280.176 130.098 266.428 114.231 249.461 112.483C232.494 110.746 218.746 123.787 218.746 141.618Z" fill="#030711"/>
<path opacity="0.963" d="M219.297 141.676C219.297 159.184 232.794 174.763 249.451 176.475C266.108 178.188 279.606 165.375 279.606 147.867C279.606 130.36 266.108 114.781 249.451 113.069C232.806 111.356 219.297 124.169 219.297 141.676Z" fill="#030711"/>
<path d="M219.857 141.725C219.857 158.909 233.104 174.201 249.451 175.878C265.799 177.554 279.046 164.993 279.046 147.809C279.046 130.625 265.799 115.333 249.451 113.656C233.104 111.98 219.857 124.542 219.857 141.725Z" fill="#030711"/>
</g>
<g opacity="0.15">
<path opacity="0.037" d="M168.383 205.096C168.383 230.698 188.116 253.474 212.476 255.977C236.835 258.479 256.569 239.751 256.569 214.161C256.569 188.57 236.835 165.782 212.476 163.279C188.128 160.777 168.383 179.505 168.383 205.096Z" fill="#030711"/>
<path opacity="0.074" d="M168.943 205.156C168.943 230.435 188.438 252.924 212.476 255.391C236.514 257.858 256.009 239.369 256.009 214.102C256.009 188.835 236.514 166.334 212.476 163.867C188.438 161.4 168.943 179.89 168.943 205.156Z" fill="#030711"/>
<path opacity="0.111" d="M169.502 205.216C169.502 230.171 188.746 252.372 212.474 254.815C236.202 257.258 255.446 239.009 255.446 214.053C255.446 189.097 236.202 166.896 212.474 164.453C188.746 162.01 169.502 180.26 169.502 205.216Z" fill="#030711"/>
<path opacity="0.148" d="M170.066 205.276C170.066 229.909 189.061 251.823 212.478 254.23C235.896 256.636 254.89 238.626 254.89 213.994C254.89 189.362 235.896 167.448 212.478 165.041C189.049 162.634 170.066 180.644 170.066 205.276Z" fill="#030711"/>
<path opacity="0.185" d="M170.611 205.335C170.611 229.644 189.355 251.27 212.475 253.641C235.594 256.012 254.338 238.242 254.338 213.933C254.338 189.624 235.594 167.997 212.475 165.626C189.355 163.243 170.611 181.026 170.611 205.335Z" fill="#030711"/>
<path opacity="0.222" d="M171.174 205.384C171.174 229.369 189.667 250.709 212.477 253.044C235.286 255.379 253.78 237.848 253.78 213.862C253.78 189.876 235.286 168.537 212.477 166.202C189.667 163.867 171.174 181.41 171.174 205.384Z" fill="#030711"/>
<path opacity="0.259" d="M171.732 205.443C171.732 229.105 189.975 250.157 212.475 252.468C234.975 254.779 253.217 237.475 253.217 213.813C253.217 190.151 234.975 169.099 212.475 166.788C189.975 164.477 171.732 181.792 171.732 205.443Z" fill="#030711"/>
<path opacity="0.296" d="M172.293 205.503C172.293 228.842 190.285 249.606 212.475 251.881C234.665 254.156 252.657 237.092 252.657 213.765C252.657 190.438 234.665 169.662 212.475 167.387C190.285 165.112 172.293 182.164 172.293 205.503Z" fill="#030711"/>
<path opacity="0.333" d="M172.842 205.563C172.842 228.578 190.584 249.055 212.475 251.294C234.367 253.546 252.109 236.709 252.109 213.705C252.109 190.702 234.367 170.213 212.475 167.973C190.596 165.722 172.842 182.547 172.842 205.563Z" fill="#030711"/>
<path opacity="0.37" d="M173.402 205.622C173.402 228.315 190.894 248.492 212.476 250.72C234.057 252.935 251.549 236.338 251.549 213.657C251.549 190.977 234.057 170.788 212.476 168.56C190.894 166.333 173.402 182.93 173.402 205.622Z" fill="#030711"/>
<path opacity="0.407" d="M173.961 205.67C173.961 228.039 191.202 247.929 212.474 250.121C233.745 252.312 250.987 235.954 250.987 213.585C250.987 191.216 233.745 171.326 212.474 169.135C191.202 166.943 173.961 183.313 173.961 205.67Z" fill="#030711"/>
<path opacity="0.444" d="M174.525 205.73C174.525 227.764 191.516 247.378 212.478 249.534C233.439 251.689 250.43 235.571 250.43 213.525C250.43 191.48 233.439 171.877 212.478 169.721C191.516 167.566 174.525 183.696 174.525 205.73Z" fill="#030711"/>
<path opacity="0.481" d="M175.072 205.791C175.072 227.501 191.813 246.829 212.476 248.948C233.128 251.068 249.88 235.189 249.88 213.467C249.88 191.744 233.14 172.429 212.476 170.309C191.813 168.19 175.072 184.068 175.072 205.791Z" fill="#030711"/>
<path opacity="0.518" d="M175.633 205.851C175.633 227.238 192.123 246.278 212.476 248.373C232.83 250.469 249.32 234.818 249.32 213.431C249.32 192.044 232.83 173.004 212.476 170.908C192.135 168.812 175.633 184.452 175.633 205.851Z" fill="#030711"/>
<path opacity="0.556" d="M176.191 205.898C176.191 226.961 192.431 245.714 212.475 247.774C232.518 249.833 248.758 234.422 248.758 213.358C248.758 192.294 232.518 173.542 212.475 171.482C192.431 169.422 176.191 184.834 176.191 205.898Z" fill="#030711"/>
<path opacity="0.593" d="M176.752 205.959C176.752 226.699 192.753 245.164 212.475 247.188C232.208 249.212 248.197 234.04 248.197 213.299C248.197 192.559 232.196 174.093 212.475 172.07C192.741 170.046 176.752 185.218 176.752 205.959Z" fill="#030711"/>
<path opacity="0.63" d="M177.301 206.017C177.301 226.435 193.052 244.612 212.475 246.612C231.898 248.612 247.649 233.667 247.649 213.25C247.649 192.833 231.898 174.655 212.475 172.656C193.052 170.656 177.301 185.6 177.301 206.017Z" fill="#030711"/>
<path opacity="0.667" d="M177.863 206.078C177.863 226.172 193.364 244.063 212.477 246.026C231.59 247.99 247.091 233.285 247.091 213.191C247.091 193.098 231.59 175.207 212.477 173.243C193.364 171.28 177.863 185.973 177.863 206.078Z" fill="#030711"/>
<path opacity="0.704" d="M178.424 206.137C178.424 225.907 193.674 243.51 212.477 245.438C231.281 247.366 246.531 232.913 246.531 213.13C246.531 193.348 231.281 175.757 212.477 173.829C193.674 171.889 178.424 186.354 178.424 206.137Z" fill="#030711"/>
<path opacity="0.741" d="M178.984 206.186C178.984 225.633 193.984 242.949 212.477 244.841C230.971 246.733 245.97 232.519 245.97 213.059C245.97 193.6 230.971 176.297 212.477 174.405C193.984 172.513 178.984 186.739 178.984 206.186Z" fill="#030711"/>
<path opacity="0.778" d="M179.531 206.246C179.531 225.369 194.281 242.398 212.476 244.266C230.671 246.134 245.42 232.147 245.42 213.023C245.42 193.9 230.671 176.871 212.476 175.003C194.281 173.135 179.531 187.122 179.531 206.246Z" fill="#030711"/>
<path opacity="0.815" d="M180.092 206.305C180.092 225.106 194.591 241.847 212.476 243.679C230.361 245.511 244.86 231.764 244.86 212.964C244.86 194.163 230.361 177.422 212.476 175.59C194.591 173.746 180.092 187.505 180.092 206.305Z" fill="#030711"/>
<path opacity="0.852" d="M180.65 206.364C180.65 224.842 194.899 241.283 212.474 243.091C230.049 244.899 244.298 231.38 244.298 212.903C244.298 194.426 230.049 177.984 212.474 176.176C194.899 174.368 180.65 187.887 180.65 206.364Z" fill="#030711"/>
<path opacity="0.889" d="M181.211 206.412C181.211 224.565 195.209 240.72 212.474 242.504C229.739 244.276 243.738 230.996 243.738 212.842C243.738 194.688 229.739 178.534 212.474 176.75C195.209 174.978 181.211 188.258 181.211 206.412Z" fill="#030711"/>
<path opacity="0.926" d="M181.76 206.473C181.76 224.303 195.508 240.17 212.475 241.918C229.442 243.666 243.19 230.614 243.19 212.783C243.19 194.953 229.442 179.086 212.475 177.338C195.519 175.601 181.76 188.642 181.76 206.473Z" fill="#030711"/>
<path opacity="0.963" d="M182.322 206.532C182.322 224.039 195.82 239.618 212.477 241.331C229.134 243.043 242.631 230.23 242.631 212.723C242.631 195.216 229.134 179.636 212.477 177.924C195.82 176.224 182.322 189.025 182.322 206.532Z" fill="#030711"/>
<path d="M182.883 206.592C182.883 223.776 196.13 239.068 212.477 240.744C228.824 242.421 242.071 229.859 242.071 212.675C242.071 195.491 228.824 180.2 212.477 178.523C196.13 176.847 182.883 189.408 182.883 206.592Z" fill="#030711"/>
</g>
<g opacity="0.15">
<path opacity="0.037" d="M26.0749 125.044C27.1241 131.235 38.1057 135.031 50.6134 133.534C63.1211 132.025 72.4095 125.786 71.3603 119.595C70.311 113.404 59.3295 109.608 46.8217 111.105C34.3259 112.614 25.0256 118.853 26.0749 125.044Z" fill="#030711"/>
<path opacity="0.074" d="M26.3595 125.008C27.3849 131.127 38.2353 134.875 50.588 133.39C62.9408 131.906 72.1099 125.751 71.0726 119.631C70.0472 113.512 59.1968 109.764 46.8441 111.249C34.5033 112.734 25.3341 118.889 26.3595 125.008Z" fill="#030711"/>
<path opacity="0.111" d="M26.6459 124.972C27.6594 131.008 38.3667 134.708 50.5644 133.247C62.7502 131.786 71.812 125.703 70.7866 119.667C69.7731 113.632 59.0659 109.932 46.8681 111.393C34.6704 112.854 25.6324 118.937 26.6459 124.972Z" fill="#030711"/>
<path opacity="0.148" d="M26.9341 124.937C27.9356 130.889 38.4998 134.553 50.5426 133.104C62.5734 131.655 71.516 125.656 70.5025 119.692C69.5009 113.741 58.9367 110.077 46.894 111.525C34.8632 112.974 25.9325 118.986 26.9341 124.937Z" fill="#030711"/>
<path opacity="0.185" d="M27.2183 124.9C28.208 130.779 38.641 134.384 50.5049 132.959C62.3687 131.534 71.204 125.606 70.2025 119.727C69.2128 113.847 58.7798 110.243 46.9159 111.668C35.052 113.105 26.2287 119.02 27.2183 124.9Z" fill="#030711"/>
<path opacity="0.222" d="M27.5066 124.864C28.4843 130.66 38.7743 134.229 50.4831 132.816C62.2039 131.403 70.8961 125.559 69.9184 119.763C68.9407 113.967 58.6507 110.399 46.9418 111.812C35.233 113.225 26.5289 119.069 27.5066 124.864Z" fill="#030711"/>
<path opacity="0.259" d="M27.7909 124.841C28.7567 130.565 38.9036 134.073 50.4575 132.684C62.0113 131.295 70.5962 125.523 69.6304 119.811C68.6646 114.087 58.5177 110.579 46.9639 111.968C35.41 113.345 26.8251 119.117 27.7909 124.841Z" fill="#030711"/>
<path opacity="0.296" d="M28.0791 124.805C29.033 130.445 39.0368 133.917 50.4356 132.54C61.8344 131.163 70.3001 125.487 69.3462 119.835C68.3924 114.195 58.3886 110.722 46.9897 112.099C35.6028 113.464 27.1252 119.152 28.0791 124.805Z" fill="#030711"/>
<path opacity="0.333" d="M28.3634 124.77C29.3054 130.338 39.178 133.751 50.4099 132.397C61.6538 131.044 70.0002 125.44 69.0583 119.872C68.1163 114.304 58.2437 110.891 47.0118 112.244C35.7798 113.597 27.4215 119.201 28.3634 124.77Z" fill="#030711"/>
<path opacity="0.37" d="M28.6517 124.733C29.5817 130.218 39.3113 133.583 50.3882 132.253C61.4651 130.924 69.7042 125.392 68.7742 119.907C67.8442 114.423 58.1146 111.058 47.0377 112.387C35.9608 113.716 27.7216 119.249 28.6517 124.733Z" fill="#030711"/>
<path opacity="0.407" d="M28.9363 124.697C29.8425 130.11 39.4409 133.427 50.3628 132.109C61.2847 130.792 69.4046 125.344 68.4865 119.931C67.5803 114.518 57.9819 111.201 47.06 112.519C36.1381 113.836 28.0301 119.284 28.9363 124.697Z" fill="#030711"/>
<path opacity="0.444" d="M29.2206 124.661C30.1148 129.99 39.5702 133.259 50.3371 131.965C61.104 130.672 69.1046 125.295 68.1984 119.967C67.3042 114.638 57.8489 111.369 47.0819 112.662C36.327 113.955 28.3263 119.332 29.2206 124.661Z" fill="#030711"/>
<path opacity="0.481" d="M29.5088 124.624C30.3912 129.881 39.7153 133.102 50.3153 131.821C60.9153 130.54 68.8086 125.247 67.9143 120.002C67.032 114.745 57.7079 111.524 47.1079 112.805C36.5079 114.086 28.6265 119.379 29.5088 124.624Z" fill="#030711"/>
<path opacity="0.518" d="M29.7951 124.589C30.6655 129.762 39.8466 132.936 50.2916 131.678C60.7366 130.421 68.5107 125.212 67.6283 120.039C66.7579 114.866 57.5768 111.692 47.1319 112.95C36.6869 114.207 28.9247 119.416 29.7951 124.589Z" fill="#030711"/>
<path opacity="0.556" d="M30.0814 124.565C30.9399 129.666 39.9779 132.791 50.2679 131.546C60.5578 130.313 68.2008 125.175 67.3423 120.074C66.4838 114.973 57.4458 111.847 47.1558 113.093C36.8659 114.326 29.2229 119.463 30.0814 124.565Z" fill="#030711"/>
<path opacity="0.593" d="M30.3657 124.529C31.2122 129.547 40.1072 132.624 50.2421 131.403C60.3771 130.182 67.9008 125.128 67.0542 120.111C66.2076 115.093 57.3127 112.016 47.1778 113.237C37.0547 114.447 29.5191 119.512 30.3657 124.529Z" fill="#030711"/>
<path opacity="0.63" d="M30.6539 124.493C31.4886 129.427 40.2523 132.468 50.2204 131.259C60.2003 130.061 67.6048 125.08 66.7701 120.146C65.9355 115.213 57.1717 112.171 47.2037 113.381C37.2357 114.578 29.8193 119.548 30.6539 124.493Z" fill="#030711"/>
<path opacity="0.667" d="M30.9402 124.457C31.7629 129.319 40.3836 132.3 50.1966 131.115C60.0097 129.929 67.3068 125.032 66.4841 120.17C65.6614 115.308 57.0407 112.326 47.2277 113.512C37.4147 114.697 30.1175 119.595 30.9402 124.457Z" fill="#030711"/>
<path opacity="0.704" d="M31.2249 124.422C32.0357 129.2 40.5133 132.146 50.1713 130.984C59.8293 129.823 67.0072 125.009 66.1964 120.219C65.3856 115.429 56.908 112.495 47.25 113.657C37.592 114.818 30.426 119.644 31.2249 124.422Z" fill="#030711"/>
<path opacity="0.741" d="M31.5111 124.385C32.3099 129.091 40.6445 131.977 50.1475 130.839C59.6505 129.702 66.7092 124.96 65.9103 120.254C65.1114 115.547 56.7769 112.662 47.2739 113.799C37.7828 114.937 30.7241 119.679 31.5111 124.385Z" fill="#030711"/>
<path opacity="0.778" d="M31.7993 124.349C32.5743 128.971 40.7896 131.809 50.1257 130.695C59.4737 129.57 66.4132 124.911 65.6262 120.289C64.8512 115.667 56.6359 112.829 47.2998 113.943C37.9638 115.068 31.0243 119.726 31.7993 124.349Z" fill="#030711"/>
<path opacity="0.815" d="M32.0856 124.313C32.8487 128.864 40.9209 131.654 50.102 130.552C59.2831 129.45 66.1152 124.864 65.3402 120.314C64.5771 115.763 56.5049 112.973 47.3238 114.075C38.1427 115.188 31.3225 119.775 32.0856 124.313Z" fill="#030711"/>
<path opacity="0.852" d="M32.3679 124.29C33.1191 128.757 41.0482 131.499 50.0743 130.421C59.1004 129.332 65.8133 124.829 65.0502 120.362C64.2871 115.896 56.3699 113.154 47.3438 114.231C38.3297 115.309 31.6167 119.812 32.3679 124.29Z" fill="#030711"/>
<path opacity="0.889" d="M32.6562 124.254C33.3954 128.648 41.1815 131.343 50.0525 130.277C58.9236 129.211 65.5054 124.781 64.7661 120.398C64.0268 116.003 56.2408 113.309 47.3697 114.374C38.5106 115.428 31.9169 119.859 32.6562 124.254Z" fill="#030711"/>
<path opacity="0.926" d="M32.9425 124.218C33.6698 128.529 41.3247 131.175 50.0288 130.133C58.7449 129.091 65.2074 124.745 64.4801 120.422C63.7527 116.111 56.0979 113.464 47.3937 114.506C38.6896 115.56 32.2151 119.907 32.9425 124.218Z" fill="#030711"/>
<path opacity="0.963" d="M33.2288 124.182C33.9442 128.421 41.456 131.02 50.0051 129.99C58.5542 128.96 64.9095 124.697 64.194 120.458C63.4786 116.219 55.9668 113.62 47.4177 114.65C38.8686 115.68 32.5134 119.943 33.2288 124.182Z" fill="#030711"/>
<path d="M33.5151 124.146C34.2185 128.301 41.5873 130.852 49.9814 129.846C58.3755 128.84 64.6115 124.649 63.908 120.493C63.2045 116.338 55.8358 113.788 47.4417 114.793C39.0476 115.799 32.8116 119.991 33.5151 124.146Z" fill="#030711"/>
</g>
<path d="M197.916 82.7366C200.015 82.9043 202.065 82.9642 204.045 82.9642C205.332 82.9642 206.584 82.9163 207.813 82.8205H207.836C214.788 82.4013 220.94 80.9644 226.318 79.0005C219.891 80.6291 212.57 81.4314 204.343 80.7728L197.916 82.7366Z" fill="url(#paint3_linear_4072_11305)"/>
<path d="M237.932 173.206C237.932 173.206 238.623 173.087 239.458 172.919C239.482 172.919 239.482 172.919 239.494 172.919C240.567 172.692 241.914 172.428 242.415 172.248C301.937 151.185 305.407 98.9983 305.407 98.9983L298.98 100.962C267.8 88.9994 256.711 71.9113 253.349 64.9419C253.146 65.1335 252.944 65.3011 252.729 65.4808C247.435 69.9594 238.516 75.9587 226.306 79.0004C220.929 80.9642 214.776 82.4012 207.825 82.8203H207.801C206.573 82.9161 205.321 82.9521 204.033 82.964C203.986 83.3832 203.938 83.8502 203.89 84.3771C202.603 97.4296 201.112 142.922 237.932 173.206Z" fill="url(#paint4_linear_4072_11305)"/>
<path d="M231.503 175.181C231.503 175.181 235.092 174.534 235.987 174.223C237.155 173.804 238.324 173.373 239.456 172.93C239.48 172.93 239.48 172.93 239.492 172.93C295.64 151.1 298.978 100.973 298.978 100.973C267.799 89.01 256.71 71.9219 253.347 64.9526C252.536 63.2641 252.155 62.1624 252.083 61.899L252.06 61.8271C252.06 61.8271 243.141 72.9039 226.305 79.011C220.927 80.9749 214.775 82.4119 207.823 82.831H207.8C206.571 82.9268 205.32 82.9627 204.032 82.9747C202.052 82.9747 200.002 82.9148 197.903 82.7472C197.915 82.7352 188.138 139.508 231.503 175.181Z" fill="url(#paint5_linear_4072_11305)"/>
<path d="M292.863 104.554C283.181 100.483 275.454 95.9203 269.35 91.3579C275.216 96.2197 282.847 101.225 292.648 105.728C292.732 105.309 292.803 104.913 292.863 104.554Z" fill="url(#paint6_linear_4072_11305)"/>
<path d="M233.065 169.147C233.232 169.111 233.387 169.087 233.507 169.051C205.594 142.024 205.546 104.686 206.548 91.4542C206.917 91.4422 207.311 91.4542 207.68 91.4542H208.694C209.743 91.4303 210.768 91.3824 211.794 91.3105H211.818C218.733 90.8914 225.482 89.5023 231.861 87.1552C241.149 83.7903 248.232 79.0243 252.989 75.1085C252 73.7434 251.177 72.4621 250.462 71.2886C245.74 75.36 238.264 80.6409 228.213 84.2933C221.833 86.6164 215.085 88.0294 208.169 88.4485H208.145C207.12 88.5204 206.094 88.5563 205.045 88.5802L204.056 88.5922C203.662 88.6042 203.269 88.5922 202.899 88.5802C201.874 102.315 201.957 141.952 233.065 169.147Z" fill="url(#paint7_linear_4072_11305)"/>
<path d="M233.508 169.05C233.842 168.99 234.08 168.93 234.211 168.882C235.237 168.523 236.322 168.116 237.383 167.685L238.325 167.314H238.384C279.866 150.776 290.156 118.349 292.636 105.727C282.835 101.225 275.216 96.231 269.338 91.3573C261.588 85.5854 256.389 79.8255 252.967 75.1074C248.221 79.0112 241.139 83.7892 231.839 87.1541C225.459 89.4892 218.711 90.8903 211.795 91.3094H211.771C210.746 91.3812 209.72 91.4411 208.671 91.4531H207.658C207.288 91.4651 206.895 91.4531 206.525 91.4531C205.547 104.685 205.595 142.023 233.508 169.05Z" fill="url(#paint8_linear_4072_11305)"/>
<path d="M252.061 61.8159L252.084 61.8878C252.168 62.1512 252.537 63.2529 253.348 64.9414C256.711 71.9107 267.8 88.9988 298.979 100.962L305.406 98.9978C265.391 83.6461 258.487 59.8521 258.487 59.8521L252.061 61.8159Z" fill="url(#paint9_linear_4072_11305)"/>
<path d="M202.9 88.5802L206.549 91.4542C206.919 91.4422 207.312 91.4542 207.682 91.4542H208.695C209.744 91.4303 210.77 91.3824 211.795 91.3105H211.819C218.735 90.8914 225.483 89.5023 231.863 87.1552C241.151 83.7903 248.233 79.0243 252.991 75.1085C252.001 73.7434 251.179 72.4621 250.463 71.2886C245.741 75.36 238.265 80.6409 228.214 84.2933C221.835 86.6164 215.086 88.0294 208.171 88.4485H208.147C207.121 88.5204 206.096 88.5563 205.047 88.5802L204.057 88.5922C203.663 88.6042 203.282 88.5922 202.9 88.5802Z" fill="url(#paint10_linear_4072_11305)"/>
<path d="M233.508 169.05C233.842 168.99 234.08 168.93 234.211 168.882C235.237 168.523 236.322 168.116 237.383 167.685L238.325 167.314H238.385C279.866 150.776 290.156 118.349 292.636 105.727C282.835 101.225 275.216 96.231 269.338 91.3573C261.588 85.5854 256.389 79.8255 252.967 75.1074L233.508 169.05Z" fill="url(#paint11_linear_4072_11305)"/>
<path d="M225.556 79.419C220.178 81.3829 214.026 82.8198 207.074 83.239H207.051C205.823 83.3348 204.571 83.3707 203.283 83.3827C201.518 83.3827 199.694 83.3228 197.846 83.1911C197.881 82.9156 197.917 82.736 197.917 82.736C200.016 82.9037 202.067 82.9635 204.046 82.9635C205.334 82.9635 206.586 82.9156 207.814 82.8198H207.838C214.789 82.4007 220.941 80.9637 226.319 78.9999C229.431 77.8742 232.269 76.581 234.832 75.2158C232.054 76.7366 228.978 78.1856 225.556 79.419Z" fill="url(#paint12_linear_4072_11305)"/>
<path d="M298.228 101.381C267.048 89.4184 255.959 72.3303 252.596 65.361C251.929 63.9839 251.571 63.0259 251.416 62.5588C251.833 62.0918 252.072 61.8164 252.072 61.8164L252.096 61.8883C252.179 62.1517 252.549 63.2534 253.36 64.9418C256.722 71.9112 267.811 88.9993 298.991 100.962C298.991 100.962 296.213 142.455 253.419 166.369C295.485 142.395 298.228 101.381 298.228 101.381Z" fill="url(#paint13_linear_4072_11305)"/>
<path d="M237.786 112.433C238.526 108.841 242.043 106.53 245.62 107.272C249.197 108.014 251.498 111.547 250.759 115.14C250.199 117.846 248.064 119.822 245.513 120.313L244.189 126.731C243.903 128.108 242.556 128.994 241.185 128.707C239.813 128.42 238.931 127.066 239.217 125.689L240.541 119.271C238.394 117.81 237.214 115.14 237.786 112.433Z" fill="url(#paint14_linear_4072_11305)"/>
<g opacity="0.23">
<path opacity="0.037" d="M116.277 112.339C116.277 137.941 136.011 160.717 160.37 163.22C184.73 165.723 204.463 146.994 204.463 121.404C204.463 95.8136 184.73 73.0255 160.37 70.5228C136.011 68.02 116.277 86.7367 116.277 112.339Z" fill="#030711"/>
<path opacity="0.074" d="M116.838 112.387C116.838 137.666 136.333 160.155 160.371 162.621C184.408 165.088 203.903 146.599 203.903 121.332C203.903 96.0653 184.408 73.5645 160.371 71.0977C136.333 68.6309 116.838 87.1201 116.838 112.387Z" fill="#030711"/>
<path opacity="0.111" d="M117.385 112.447C117.385 137.402 136.629 159.604 160.357 162.047C184.097 164.49 203.329 146.24 203.329 121.284C203.329 96.3287 184.097 74.1273 160.369 71.6845C136.641 69.2416 117.385 87.5032 117.385 112.447Z" fill="#030711"/>
<path opacity="0.148" d="M117.947 112.508C117.947 137.14 136.941 159.054 160.359 161.461C183.789 163.868 202.771 145.858 202.771 121.226C202.771 96.5933 183.789 74.6793 160.371 72.2724C136.941 69.8654 117.947 87.8756 117.947 112.508Z" fill="#030711"/>
<path opacity="0.185" d="M118.508 112.566C118.508 136.875 137.252 158.502 160.371 160.873C183.491 163.244 202.234 145.473 202.234 121.164C202.234 96.8553 183.491 75.2287 160.371 72.8577C137.252 70.4867 118.508 88.2573 118.508 112.566Z" fill="#030711"/>
<path opacity="0.222" d="M119.068 112.627C119.068 136.613 137.562 157.952 160.371 160.287C183.181 162.622 201.674 145.091 201.674 121.105C201.674 97.1197 183.181 75.7805 160.371 73.4454C137.562 71.0984 119.068 88.6415 119.068 112.627Z" fill="#030711"/>
<path opacity="0.259" d="M119.615 112.674C119.615 136.337 137.858 157.388 160.358 159.699C182.857 162.011 201.1 144.707 201.1 121.045C201.1 97.3824 182.857 76.3306 160.358 74.0195C137.858 71.7203 119.615 89.0239 119.615 112.674Z" fill="#030711"/>
<path opacity="0.296" d="M120.176 112.733C120.176 136.072 138.168 156.836 160.358 159.112C182.548 161.387 200.54 144.323 200.54 120.996C200.54 97.6686 182.548 76.8923 160.358 74.6171C138.168 72.3419 120.176 89.406 120.176 112.733Z" fill="#030711"/>
<path opacity="0.333" d="M120.736 112.794C120.736 135.81 138.478 156.287 160.37 158.526C182.261 160.765 200.004 143.941 200.004 120.937C200.004 97.9332 182.261 77.4442 160.37 75.2049C138.478 72.9537 120.736 89.7783 120.736 112.794Z" fill="#030711"/>
<path opacity="0.37" d="M121.297 112.853C121.297 135.545 138.789 155.723 160.37 157.95C181.952 160.177 199.443 143.568 199.443 120.888C199.443 98.2076 181.952 78.018 160.37 75.7907C138.789 73.5634 121.297 90.1605 121.297 112.853Z" fill="#030711"/>
<path opacity="0.407" d="M121.846 112.914C121.846 135.283 139.087 155.173 160.359 157.364C181.63 159.556 198.871 143.198 198.871 120.829C198.871 98.4601 181.63 78.5699 160.359 76.3785C139.099 74.1871 121.846 90.5447 121.846 112.914Z" fill="#030711"/>
<path opacity="0.444" d="M122.408 112.962C122.408 134.995 139.399 154.61 160.361 156.766C181.322 158.921 198.313 142.803 198.313 120.757C198.313 98.7116 181.334 79.1088 160.373 76.9653C139.399 74.8098 122.408 90.9279 122.408 112.962Z" fill="#030711"/>
<path opacity="0.481" d="M122.967 113.021C122.967 134.732 139.707 154.059 160.371 156.179C181.034 158.298 197.775 142.419 197.775 120.697C197.775 98.9747 181.034 79.6593 160.371 77.5397C139.707 75.4202 122.967 91.3108 122.967 113.021Z" fill="#030711"/>
<path opacity="0.518" d="M123.527 113.081C123.527 134.468 140.018 153.508 160.371 155.604C180.724 157.699 197.214 142.048 197.214 120.661C197.214 99.2741 180.724 80.2341 160.371 78.1385C140.018 76.0429 123.527 91.682 123.527 113.081Z" fill="#030711"/>
<path opacity="0.556" d="M124.074 113.142C124.074 134.206 140.314 152.958 160.357 155.018C180.401 157.078 196.641 141.666 196.641 120.602C196.641 99.5385 180.401 80.7859 160.357 78.7262C140.326 76.6545 124.074 92.0662 124.074 113.142Z" fill="#030711"/>
<path opacity="0.593" d="M124.635 113.189C124.635 133.929 140.636 152.395 160.358 154.418C180.091 156.442 196.08 141.27 196.08 120.53C196.08 99.7892 180.079 81.324 160.358 79.3002C140.636 77.2765 124.635 92.4486 124.635 113.189Z" fill="#030711"/>
<path opacity="0.63" d="M125.195 113.249C125.195 133.666 140.946 151.844 160.37 153.844C179.793 155.843 195.544 140.899 195.544 120.482C195.544 100.065 179.793 81.8868 160.37 79.887C140.946 77.8992 125.195 92.8318 125.195 113.249Z" fill="#030711"/>
<path opacity="0.667" d="M125.758 113.31C125.758 133.404 141.258 151.294 160.372 153.258C179.485 155.222 194.986 140.517 194.986 120.423C194.986 100.329 179.485 82.4386 160.372 80.4747C141.246 78.5109 125.758 93.216 125.758 113.31Z" fill="#030711"/>
<path opacity="0.704" d="M126.305 113.369C126.305 133.139 141.555 150.742 160.358 152.67C179.161 154.598 194.412 140.145 194.412 120.362C194.412 100.58 179.161 82.9886 160.358 81.0607C141.555 79.1327 126.305 93.5864 126.305 113.369Z" fill="#030711"/>
<path opacity="0.741" d="M126.867 113.429C126.867 132.876 141.867 150.192 160.36 152.084C178.854 153.976 193.853 139.762 193.853 120.303C193.853 100.844 178.854 83.54 160.36 81.648C141.867 79.7559 126.867 93.9701 126.867 113.429Z" fill="#030711"/>
<path opacity="0.778" d="M127.426 113.477C127.426 132.601 142.175 149.629 160.37 151.497C178.566 153.365 193.315 139.379 193.315 120.255C193.315 101.131 178.566 84.1028 160.37 82.2347C142.175 80.3666 127.426 94.3533 127.426 113.477Z" fill="#030711"/>
<path opacity="0.815" d="M127.986 113.537C127.986 132.337 142.485 149.078 160.37 150.91C178.256 152.743 192.755 138.996 192.755 120.195C192.755 101.394 178.256 84.6537 160.37 82.8215C142.485 80.9894 127.986 94.7365 127.986 113.537Z" fill="#030711"/>
<path opacity="0.852" d="M128.533 113.597C128.533 132.074 142.782 148.515 160.357 150.324C177.932 152.132 192.181 138.612 192.181 120.135C192.181 101.658 177.944 85.2165 160.369 83.4083C142.782 81.6001 128.533 95.1197 128.533 113.597Z" fill="#030711"/>
<path opacity="0.889" d="M129.094 113.656C129.094 131.81 143.092 147.964 160.357 149.748C177.622 151.52 191.62 138.24 191.62 120.086C191.62 101.932 177.622 85.7783 160.357 83.9941C143.092 82.2218 129.094 95.5019 129.094 113.656Z" fill="#030711"/>
<path opacity="0.926" d="M129.654 113.704C129.654 131.535 143.402 147.401 160.369 149.149C177.336 150.898 191.084 137.845 191.084 120.015C191.084 102.184 177.336 86.3175 160.369 84.5692C143.402 82.8328 129.654 95.8734 129.654 113.704Z" fill="#030711"/>
<path opacity="0.963" d="M130.217 113.763C130.217 131.271 143.714 146.85 160.371 148.562C177.028 150.275 190.526 137.462 190.526 119.954C190.526 102.447 177.028 86.8679 160.371 85.1555C143.714 83.4551 130.217 96.2562 130.217 113.763Z" fill="#030711"/>
<path d="M130.766 113.825C130.766 131.008 144.013 146.3 160.36 147.977C176.707 149.653 189.954 137.092 189.954 119.908C189.954 102.724 176.707 87.432 160.36 85.7555C144.013 84.0791 130.766 96.6407 130.766 113.825Z" fill="#030711"/>
</g>
<path d="M107.287 41.6741L185.839 56.5229C188.379 57.0019 190.06 59.4687 189.571 62.0193L178.363 121.223C177.743 124.528 174.512 126.648 171.245 125.905L95.8287 108.841C93.0147 108.206 89.08 105.237 89.5689 102.375L101.468 45.7335C101.945 42.9793 104.557 41.1591 107.287 41.6741Z" fill="url(#paint15_linear_4072_11305)"/>
<path d="M106.225 41.9621L184.777 56.8109C187.317 57.2899 188.998 59.7568 188.509 62.3074L177.301 121.511C176.681 124.816 173.45 126.936 170.183 126.193L92.6562 108.89C89.8423 108.255 88.018 105.513 88.5069 102.663L100.406 46.0216C100.872 43.2674 103.495 41.4472 106.225 41.9621Z" fill="url(#paint16_linear_4072_11305)"/>
<path d="M185.707 77.1675L97.5569 59.5645L94.4688 74.2576L182.762 92.7348L185.707 77.1675Z" fill="#DD57DB"/>
<path d="M153.908 96.2073L169.122 99.0812C169.611 99.177 169.945 99.656 169.849 100.147L167.679 111.619C167.56 112.254 166.928 112.673 166.296 112.529L151.678 109.224C151.129 109.104 150.784 108.565 150.879 108.014L152.775 96.9976C152.87 96.4588 153.371 96.1115 153.908 96.2073Z" fill="url(#paint17_linear_4072_11305)"/>
<path d="M115.322 87.3948L104.316 84.9519C104.281 84.94 104.257 84.916 104.269 84.8801L104.591 83.4431C104.603 83.4072 104.626 83.3832 104.662 83.3952L115.668 85.8381C115.703 85.8501 115.727 85.874 115.715 85.9099L115.393 87.3469C115.393 87.3828 115.358 87.4068 115.322 87.3948Z" fill="url(#paint18_linear_4072_11305)"/>
<path d="M124.706 94.0648L103.375 89.3347C103.339 89.3228 103.315 89.2988 103.327 89.2629L103.649 87.8259C103.661 87.79 103.685 87.766 103.721 87.778L125.052 92.5081C125.088 92.5201 125.112 92.544 125.1 92.5799L124.778 94.0169C124.766 94.0528 124.73 94.0768 124.706 94.0648Z" fill="url(#paint19_linear_4072_11305)"/>
<path d="M123.741 98.4476L102.398 93.7176C102.363 93.7056 102.339 93.6816 102.351 93.6457L102.673 92.2087C102.685 92.1728 102.708 92.1489 102.744 92.1608L124.075 96.8909C124.111 96.9029 124.135 96.9268 124.123 96.9627L123.801 98.3997C123.801 98.4356 123.777 98.4596 123.741 98.4476Z" fill="url(#paint20_linear_4072_11305)"/>
<path d="M122.776 102.83L101.445 98.1004C101.41 98.0884 101.386 98.0644 101.398 98.0285L101.72 96.5915C101.731 96.5556 101.755 96.5317 101.791 96.5436L123.122 101.274C123.158 101.286 123.182 101.31 123.17 101.346L122.848 102.783C122.848 102.818 122.812 102.83 122.776 102.83Z" fill="url(#paint21_linear_4072_11305)"/>
<path d="M170.349 62.9672L160.274 61.3266C160.25 61.3266 160.238 61.3027 160.238 61.2787L160.453 59.9256C160.453 59.9016 160.477 59.8896 160.501 59.8896L170.576 61.5302C170.6 61.5302 170.612 61.5541 170.612 61.5781L170.397 62.9313C170.385 62.9552 170.361 62.9792 170.349 62.9672Z" fill="url(#paint22_linear_4072_11305)"/>
<path d="M179.136 68.511L159.63 65.3257C159.606 65.3257 159.594 65.3017 159.594 65.2778L159.808 63.9246C159.808 63.9006 159.832 63.8887 159.856 63.8887L179.363 67.074C179.387 67.074 179.399 67.0979 179.399 67.1219L179.184 68.475C179.172 68.499 179.16 68.511 179.136 68.511Z" fill="url(#paint23_linear_4072_11305)"/>
<path d="M117.944 49.3864L110.897 48.2368C110.873 48.2368 110.861 48.2129 110.861 48.1889L111.016 47.2669C111.016 47.2429 111.04 47.231 111.064 47.231L118.111 48.3805C118.135 48.3805 118.147 48.4045 118.147 48.4284L117.992 49.3505C117.992 49.3745 117.968 49.3984 117.944 49.3864Z" fill="url(#paint24_linear_4072_11305)"/>
<path d="M124.12 53.2789L110.444 51.0396C110.42 51.0396 110.408 51.0156 110.408 50.9917L110.563 50.0696C110.563 50.0457 110.587 50.0337 110.611 50.0337L124.287 52.273C124.311 52.273 124.323 52.2969 124.323 52.3209L124.168 53.2429C124.156 53.2669 124.132 53.2789 124.12 53.2789Z" fill="url(#paint25_linear_4072_11305)"/>
<path d="M123.667 56.0797L109.991 53.8404C109.967 53.8404 109.955 53.8164 109.955 53.7925L110.11 52.8704C110.11 52.8465 110.134 52.8345 110.158 52.8345L123.834 55.0738C123.858 55.0738 123.87 55.0977 123.87 55.1217L123.715 56.0437C123.703 56.0677 123.679 56.0916 123.667 56.0797Z" fill="url(#paint26_linear_4072_11305)"/>
<path d="M123.214 58.8946L109.538 56.6553C109.514 56.6553 109.502 56.6314 109.502 56.6074L109.657 55.6853C109.657 55.6614 109.681 55.6494 109.705 55.6494L123.381 57.8887C123.405 57.8887 123.417 57.9127 123.417 57.9366L123.262 58.8587C123.25 58.8826 123.226 58.8946 123.214 58.8946Z" fill="url(#paint27_linear_4072_11305)"/>
<path d="M175.428 162.476L244.262 175.492C246.492 175.911 247.959 178.067 247.529 180.306L237.704 232.181C237.156 235.079 234.33 236.935 231.469 236.289L163.529 221.128C161.06 220.566 159.463 218.171 159.892 215.668L170.313 166.032C170.742 163.625 173.043 162.021 175.428 162.476Z" fill="url(#paint28_linear_4072_11305)"/>
<path d="M174.307 162.895L243.142 175.911C245.371 176.33 246.838 178.486 246.409 180.725L236.584 232.6C236.035 235.498 233.209 237.354 230.348 236.708L162.396 221.535C159.928 220.973 158.33 218.578 158.759 216.075L169.18 166.439C169.621 164.044 171.923 162.44 174.307 162.895Z" fill="url(#paint29_linear_4072_11305)"/>
<path d="M193.791 193.024L180.198 190.27C179.566 190.138 179.149 189.491 179.28 188.833C179.411 188.174 180.019 187.731 180.651 187.863L194.244 190.617C194.876 190.749 195.293 191.395 195.162 192.054C195.043 192.712 194.423 193.143 193.791 193.024Z" fill="url(#paint30_linear_4072_11305)"/>
<path d="M215.168 186.426L201.575 183.671C200.943 183.54 200.526 182.893 200.657 182.234C200.788 181.576 201.396 181.133 202.028 181.264L215.621 184.019C216.253 184.15 216.67 184.797 216.539 185.456C216.42 186.126 215.8 186.557 215.168 186.426Z" fill="url(#paint31_linear_4072_11305)"/>
<path d="M192.693 198.819L179.1 196.065C178.468 195.933 178.051 195.287 178.182 194.628C178.313 193.969 178.922 193.526 179.554 193.658L193.146 196.412C193.778 196.544 194.196 197.191 194.064 197.849C193.933 198.508 193.325 198.951 192.693 198.819Z" fill="url(#paint32_linear_4072_11305)"/>
<path d="M191.597 204.615L178.005 201.861C177.373 201.729 176.955 201.082 177.087 200.424C177.218 199.765 177.826 199.322 178.458 199.454L192.051 202.208C192.683 202.34 193.1 202.986 192.969 203.645C192.838 204.316 192.218 204.747 191.597 204.615Z" fill="url(#paint33_linear_4072_11305)"/>
<path d="M190.498 210.423L176.905 207.669C176.273 207.537 175.856 206.891 175.987 206.232C176.118 205.573 176.726 205.13 177.358 205.262L190.951 208.016C191.583 208.148 192 208.795 191.869 209.453C191.738 210.112 191.118 210.555 190.498 210.423Z" fill="url(#paint34_linear_4072_11305)"/>
<path d="M231.8 203.968L200.084 197.55L201.527 189.958L233.231 196.376L231.8 203.968Z" stroke="white" stroke-width="0.45283" stroke-miterlimit="10"/>
<path d="M229.705 215.033L198 208.614L199.431 201.01L231.147 207.429L229.705 215.033Z" stroke="white" stroke-width="0.45283" stroke-miterlimit="10"/>
<path d="M227.607 226.086L195.902 219.667L197.345 212.075L229.05 218.494L227.607 226.086Z" stroke="white" stroke-width="0.45283" stroke-miterlimit="10"/>
<path d="M31.814 64.6298L74.2377 72.6529C75.6089 72.9164 76.5151 74.2456 76.2528 75.6227L69.8499 109.823C69.516 111.607 67.7752 112.757 66.0105 112.35L24.1353 103.009C22.621 102.662 21.6313 101.189 21.8937 99.6442L28.6662 66.8212C28.9166 65.3363 30.3355 64.3544 31.814 64.6298Z" fill="url(#paint35_linear_4072_11305)"/>
<path d="M38.2031 79.3457L41.7802 95.9309L63.2186 89.6201L61.0366 83.1298L46.2872 88.5903L43.0202 77.3579L38.2031 79.3457Z" fill="url(#paint36_linear_4072_11305)"/>
<path d="M30.1675 65.0727L72.5913 73.0958C73.9625 73.3593 74.8686 74.6885 74.6063 76.0656L68.2034 110.266C67.8696 112.05 66.1287 113.2 64.3641 112.792L22.4888 103.452C20.9745 103.105 19.9849 101.632 20.2472 100.087L27.0197 67.2641C27.2701 65.7792 28.689 64.7972 30.1675 65.0727Z" fill="url(#paint37_linear_4072_11305)"/>
<path d="M36.5605 79.7906L40.1376 96.3757L61.576 90.065L59.394 83.5746L44.6447 89.0351L41.3776 77.8027L36.5605 79.7906Z" fill="white"/>
<path d="M45.1795 106.746L40.8512 126.612C40.2312 129.438 41.984 132.24 44.7741 132.923L64.7936 137.82C67.4406 138.467 70.0876 136.803 70.6838 134.144L82.5596 80.3891C83.1677 77.6469 85.8743 75.9105 88.6048 76.5212L93.7557 77.6708" stroke="#6959B7" stroke-width="1.35849" stroke-miterlimit="10"/>
<path d="M105.913 199.299C100.512 194.773 87.8609 191.6 73.0996 191.6C58.3383 191.6 45.6875 194.773 40.2862 199.299H37.4961V204.197C37.4961 211.155 53.4378 216.783 73.0996 216.783C92.7614 216.783 108.703 211.143 108.703 204.197V199.299H105.913Z" fill="#303A52"/>
<path d="M106.106 199.108C100.705 194.582 88.0542 191.408 73.293 191.408C58.5317 191.408 45.8809 194.582 40.4795 199.108L37.6895 195.803V204.006C37.6895 210.963 53.6311 216.591 73.293 216.591C92.9548 216.591 108.896 210.951 108.896 204.006V195.803L106.106 199.108Z" fill="url(#paint38_linear_4072_11305)"/>
<path d="M73.293 208.389C92.9562 208.389 108.896 202.754 108.896 195.803C108.896 188.853 92.9562 183.218 73.293 183.218C53.6297 183.218 37.6895 188.853 37.6895 195.803C37.6895 202.754 53.6297 208.389 73.293 208.389Z" fill="url(#paint39_linear_4072_11305)"/>
<path d="M101.203 195.803C101.203 196.186 101.143 196.534 101.036 196.893C99.4976 191.947 87.6457 188.115 73.2898 188.115C58.9339 188.115 47.0939 191.947 45.5439 196.893C45.4366 196.545 45.377 196.186 45.377 195.803C45.377 190.343 57.8728 185.948 73.2779 185.948C88.683 185.948 101.203 190.343 101.203 195.803Z" fill="url(#paint40_linear_4072_11305)"/>
<path d="M101.039 196.88C99.5006 201.826 87.6487 205.646 73.2928 205.646C58.9369 205.646 47.0969 201.814 45.5469 196.88C47.085 191.934 58.9369 188.103 73.2928 188.103C87.6606 188.115 99.5006 191.946 101.039 196.88Z" fill="url(#paint41_linear_4072_11305)"/>
<path d="M73.293 208.028C53.7981 208.028 37.9995 202.484 37.7133 195.623C37.7133 195.682 37.6895 195.742 37.6895 195.802C37.6895 202.76 53.6311 208.388 73.293 208.388C92.9548 208.388 108.896 202.748 108.896 195.802C108.896 195.742 108.873 195.682 108.873 195.623C108.598 202.484 92.7879 208.028 73.293 208.028Z" fill="url(#paint42_linear_4072_11305)"/>
<path d="M72.1242 203.538V201.742C70.2403 201.73 68.2968 201.407 67.1641 200.964L67.9391 199.766C69.1076 200.197 70.7888 200.533 72.6131 200.533C74.9143 200.533 76.4763 199.802 76.4763 198.784C76.4763 197.802 75.2124 197.204 72.8158 196.665C69.513 195.946 67.4621 195.132 67.4621 193.587C67.4621 192.114 69.3699 190.989 72.3627 190.713V188.917H74.3778V190.641C76.3213 190.677 77.6567 190.965 78.5868 191.264L77.776 192.438C77.0963 192.222 75.7609 191.827 73.6862 191.827C71.1823 191.827 70.2522 192.641 70.2522 193.36C70.2522 194.282 71.4565 194.749 74.2705 195.395C77.609 196.138 79.2902 197.072 79.2902 198.653C79.2902 200.054 77.5136 201.383 74.1631 201.682V203.538H72.1242Z" fill="white"/>
<path d="M105.913 189.768C100.512 185.241 87.8609 182.068 73.0996 182.068C58.3383 182.068 45.6875 185.241 40.2862 189.768H37.4961V194.665C37.4961 201.623 53.4378 207.251 73.0996 207.251C92.7614 207.251 108.703 201.611 108.703 194.665V189.768H105.913Z" fill="#303A52"/>
<path d="M106.106 189.577C100.705 185.05 88.0542 181.877 73.293 181.877C58.5317 181.877 45.8809 185.05 40.4795 189.577L37.6895 186.272V194.474C37.6895 201.432 53.6311 207.06 73.293 207.06C92.9548 207.06 108.896 201.42 108.896 194.474V186.272L106.106 189.577Z" fill="url(#paint43_linear_4072_11305)"/>
<path d="M73.293 198.857C92.9562 198.857 108.896 193.222 108.896 186.272C108.896 179.321 92.9562 173.686 73.293 173.686C53.6297 173.686 37.6895 179.321 37.6895 186.272C37.6895 193.222 53.6297 198.857 73.293 198.857Z" fill="url(#paint44_linear_4072_11305)"/>
<path d="M101.203 186.27C101.203 186.654 101.143 187.001 101.036 187.36C99.4976 182.414 87.6457 178.582 73.2898 178.582C58.9339 178.582 47.0939 182.414 45.5439 187.36C45.4366 187.013 45.377 186.654 45.377 186.27C45.377 180.81 57.8728 176.415 73.2779 176.415C88.683 176.415 101.203 180.81 101.203 186.27Z" fill="url(#paint45_linear_4072_11305)"/>
<path d="M101.039 187.348C99.5006 192.293 87.6487 196.113 73.2928 196.113C58.9369 196.113 47.0969 192.282 45.5469 187.348C47.085 182.402 58.9369 178.57 73.2928 178.57C87.6606 178.582 99.5006 182.414 101.039 187.348Z" fill="url(#paint46_linear_4072_11305)"/>
<path d="M73.293 198.498C53.7981 198.498 37.9995 192.953 37.7133 186.092C37.7133 186.152 37.6895 186.212 37.6895 186.271C37.6895 193.229 53.6311 198.857 73.293 198.857C92.9548 198.857 108.896 193.217 108.896 186.271C108.896 186.212 108.873 186.152 108.873 186.092C108.598 192.953 92.7879 198.498 73.293 198.498Z" fill="url(#paint47_linear_4072_11305)"/>
<path d="M72.1242 194.008V192.211C70.2403 192.199 68.2968 191.876 67.1641 191.433L67.9391 190.235C69.1076 190.667 70.7888 191.002 72.6131 191.002C74.9143 191.002 76.4763 190.271 76.4763 189.254C76.4763 188.272 75.2124 187.673 72.8158 187.134C69.513 186.415 67.4621 185.601 67.4621 184.056C67.4621 182.584 69.3699 181.458 72.3627 181.182V179.386H74.3778V181.111C76.3213 181.147 77.6567 181.434 78.5868 181.733L77.776 182.907C77.0963 182.691 75.7609 182.296 73.6862 182.296C71.1823 182.296 70.2522 183.11 70.2522 183.829C70.2522 184.751 71.4565 185.218 74.2705 185.865C77.609 186.607 79.2902 187.541 79.2902 189.122C79.2902 190.523 77.5136 191.852 74.1631 192.151V194.008H72.1242Z" fill="white"/>
<path d="M105.913 180.237C100.512 175.71 87.8609 172.537 73.0996 172.537C58.3383 172.537 45.6875 175.71 40.2862 180.237H37.4961V185.135C37.4961 192.092 53.4378 197.72 73.0996 197.72C92.7614 197.72 108.703 192.08 108.703 185.135V180.237H105.913Z" fill="#303A52"/>
<path d="M106.104 180.045C100.703 175.519 88.0523 172.345 73.291 172.345C58.5297 172.345 45.8789 175.519 40.4776 180.045L37.6875 176.74V184.943C37.6875 191.9 53.6292 197.528 73.291 197.528C92.9528 197.528 108.895 191.888 108.895 184.943V176.74L106.104 180.045Z" fill="url(#paint48_linear_4072_11305)"/>
<path d="M73.291 189.325C92.9543 189.325 108.895 183.691 108.895 176.74C108.895 169.789 92.9543 164.154 73.291 164.154C53.6277 164.154 37.6875 169.789 37.6875 176.74C37.6875 183.691 53.6277 189.325 73.291 189.325Z" fill="url(#paint49_linear_4072_11305)"/>
<path d="M101.201 176.741C101.201 177.124 101.141 177.471 101.034 177.83C99.4957 172.885 87.6437 169.053 73.2879 169.053C58.932 169.053 47.092 172.885 45.5419 177.83C45.4346 177.483 45.375 177.124 45.375 176.741C45.375 171.28 57.8708 166.885 73.2759 166.885C88.6811 166.885 101.201 171.28 101.201 176.741Z" fill="url(#paint50_linear_4072_11305)"/>
<path d="M101.037 177.818C99.4987 182.763 87.6467 186.583 73.2909 186.583C58.935 186.583 47.095 182.751 45.5449 177.818C47.0831 172.872 58.935 169.04 73.2909 169.04C87.6587 169.052 99.4987 172.884 101.037 177.818Z" fill="url(#paint51_linear_4072_11305)"/>
<path d="M73.291 188.967C53.7961 188.967 37.9975 183.423 37.7113 176.561C37.7113 176.621 37.6875 176.681 37.6875 176.741C37.6875 183.698 53.6292 189.326 73.291 189.326C92.9528 189.326 108.895 183.686 108.895 176.741C108.895 176.681 108.871 176.621 108.871 176.561C108.596 183.423 92.7859 188.967 73.291 188.967Z" fill="url(#paint52_linear_4072_11305)"/>
<path d="M72.1223 184.476V182.68C70.2384 182.668 68.2948 182.344 67.1621 181.901L67.9371 180.704C69.1056 181.135 70.7868 181.47 72.6111 181.47C74.9124 181.47 76.4743 180.74 76.4743 179.722C76.4743 178.74 75.2105 178.141 72.8138 177.602C69.511 176.884 67.4602 176.069 67.4602 174.525C67.4602 173.052 69.3679 171.926 72.3607 171.651V169.854H74.3758V171.579C76.3193 171.615 77.6548 171.902 78.5848 172.202L77.774 173.375C77.0944 173.16 75.7589 172.764 73.6842 172.764C71.1803 172.764 70.2503 173.579 70.2503 174.297C70.2503 175.219 71.4546 175.686 74.2685 176.333C77.6071 177.075 79.2883 178.009 79.2883 179.59C79.2883 180.991 77.5117 182.32 74.1612 182.62V184.476H72.1223Z" fill="white"/>
<path d="M105.913 170.705C100.512 166.178 87.8609 163.005 73.0996 163.005C58.3383 163.005 45.6875 166.178 40.2862 170.705H37.4961V175.602C37.4961 182.56 53.4378 188.188 73.0996 188.188C92.7614 188.188 108.703 182.548 108.703 175.602V170.705H105.913Z" fill="#303A52"/>
<path d="M106.104 170.513C100.703 165.986 88.0523 162.813 73.291 162.813C58.5297 162.813 45.8789 165.986 40.4776 170.513L37.6875 167.208V175.411C37.6875 182.368 53.6292 187.996 73.291 187.996C92.9528 187.996 108.895 182.356 108.895 175.411V167.208L106.104 170.513Z" fill="url(#paint53_linear_4072_11305)"/>
<path d="M73.291 179.793C92.9543 179.793 108.895 174.158 108.895 167.208C108.895 160.257 92.9543 154.622 73.291 154.622C53.6277 154.622 37.6875 160.257 37.6875 167.208C37.6875 174.158 53.6277 179.793 73.291 179.793Z" fill="url(#paint54_linear_4072_11305)"/>
<path d="M101.201 167.208C101.201 167.592 101.141 167.939 101.034 168.298C99.4957 163.352 87.6437 159.52 73.2879 159.52C58.932 159.52 47.092 163.352 45.5419 168.298C45.4346 167.951 45.375 167.592 45.375 167.208C45.375 161.748 57.8708 157.353 73.2759 157.353C88.6811 157.353 101.201 161.748 101.201 167.208Z" fill="url(#paint55_linear_4072_11305)"/>
<path d="M101.037 168.285C99.4987 173.231 87.6467 177.051 73.2909 177.051C58.935 177.051 47.095 173.219 45.5449 168.285C47.0831 163.34 58.935 159.508 73.2909 159.508C87.6587 159.52 99.4987 163.352 101.037 168.285Z" fill="url(#paint56_linear_4072_11305)"/>
<path d="M73.291 179.435C53.7961 179.435 37.9975 173.89 37.7113 167.029C37.7113 167.089 37.6875 167.149 37.6875 167.208C37.6875 174.166 53.6292 179.794 73.291 179.794C92.9528 179.794 108.895 174.154 108.895 167.208C108.895 167.149 108.871 167.089 108.871 167.029C108.596 173.89 92.7859 179.435 73.291 179.435Z" fill="url(#paint57_linear_4072_11305)"/>
<path d="M72.1223 174.944V173.147C70.2384 173.135 68.2948 172.812 67.1621 172.369L67.9371 171.171C69.1056 171.603 70.7868 171.938 72.6111 171.938C74.9124 171.938 76.4743 171.207 76.4743 170.19C76.4743 169.208 75.2105 168.609 72.8138 168.07C69.511 167.352 67.4602 166.537 67.4602 164.992C67.4602 163.52 69.3679 162.394 72.3607 162.118V160.322H74.3758V162.047C76.3193 162.083 77.6548 162.37 78.5848 162.669L77.774 163.843C77.0944 163.627 75.7589 163.232 73.6842 163.232C71.1803 163.232 70.2503 164.046 70.2503 164.765C70.2503 165.687 71.4546 166.154 74.2685 166.801C77.6071 167.543 79.2883 168.477 79.2883 170.058C79.2883 171.459 77.5117 172.788 74.1612 173.087V174.944H72.1223Z" fill="white"/>
<path d="M105.913 161.172C100.512 156.646 87.8609 153.473 73.0996 153.473C58.3383 153.473 45.6875 156.646 40.2862 161.172H37.4961V166.07C37.4961 173.028 53.4378 178.656 73.0996 178.656C92.7614 178.656 108.703 173.016 108.703 166.07V161.172H105.913Z" fill="#303A52"/>
<path d="M106.104 160.981C100.703 156.454 88.0523 153.281 73.291 153.281C58.5297 153.281 45.8789 156.454 40.4776 160.981L37.6875 157.676V165.878C37.6875 172.836 53.6292 178.464 73.291 178.464C92.9528 178.464 108.895 172.824 108.895 165.878V157.676L106.104 160.981Z" fill="url(#paint58_linear_4072_11305)"/>
<path d="M73.291 170.261C92.9543 170.261 108.895 164.626 108.895 157.675C108.895 150.725 92.9543 145.09 73.291 145.09C53.6277 145.09 37.6875 150.725 37.6875 157.675C37.6875 164.626 53.6277 170.261 73.291 170.261Z" fill="url(#paint59_linear_4072_11305)"/>
<path d="M101.201 157.676C101.201 158.059 101.141 158.407 101.034 158.766C99.4957 153.82 87.6437 149.988 73.2879 149.988C58.932 149.988 47.092 153.82 45.5419 158.766C45.4346 158.419 45.375 158.059 45.375 157.676C45.375 152.216 57.8708 147.821 73.2759 147.821C88.6811 147.821 101.201 152.216 101.201 157.676Z" fill="url(#paint60_linear_4072_11305)"/>
<path d="M101.037 158.753C99.4987 163.699 87.6467 167.519 73.2909 167.519C58.935 167.519 47.095 163.687 45.5449 158.753C47.0831 153.808 58.935 149.976 73.2909 149.976C87.6587 149.988 99.4987 153.82 101.037 158.753Z" fill="url(#paint61_linear_4072_11305)"/>
<path d="M73.291 169.903C53.7961 169.903 37.9975 164.358 37.7113 157.497C37.7113 157.556 37.6875 157.616 37.6875 157.676C37.6875 164.634 53.6292 170.262 73.291 170.262C92.9528 170.262 108.895 164.622 108.895 157.676C108.895 157.616 108.871 157.556 108.871 157.497C108.596 164.358 92.7859 169.903 73.291 169.903Z" fill="url(#paint62_linear_4072_11305)"/>
<path d="M72.1223 165.411V163.615C70.2384 163.603 68.2948 163.28 67.1621 162.837L67.9371 161.639C69.1056 162.07 70.7868 162.406 72.6111 162.406C74.9124 162.406 76.4743 161.675 76.4743 160.657C76.4743 159.675 75.2105 159.077 72.8138 158.538C69.511 157.819 67.4602 157.005 67.4602 155.46C67.4602 153.987 69.3679 152.862 72.3607 152.586V150.79H74.3758V152.514C76.3193 152.55 77.6548 152.838 78.5848 153.137L77.774 154.311C77.0944 154.095 75.7589 153.7 73.6842 153.7C71.1803 153.7 70.2503 154.514 70.2503 155.233C70.2503 156.155 71.4546 156.622 74.2685 157.268C77.6071 158.011 79.2883 158.945 79.2883 160.526C79.2883 161.927 77.5117 163.256 74.1612 163.555V165.411H72.1223Z" fill="white"/>
<path d="M105.913 151.64C100.512 147.114 87.8609 143.94 73.0996 143.94C58.3383 143.94 45.6875 147.114 40.2862 151.64H37.4961V156.538C37.4961 163.495 53.4378 169.124 73.0996 169.124C92.7614 169.124 108.703 163.483 108.703 156.538V151.64H105.913Z" fill="#303A52"/>
<path d="M106.104 151.448C100.703 146.922 88.0523 143.749 73.291 143.749C58.5297 143.749 45.8789 146.922 40.4776 151.448L37.6875 148.143V156.346C37.6875 163.303 53.6292 168.932 73.291 168.932C92.9528 168.932 108.895 163.291 108.895 156.346V148.143L106.104 151.448Z" fill="url(#paint63_linear_4072_11305)"/>
<path d="M73.291 160.729C92.9543 160.729 108.895 155.094 108.895 148.143C108.895 141.192 92.9543 135.558 73.291 135.558C53.6277 135.558 37.6875 141.192 37.6875 148.143C37.6875 155.094 53.6277 160.729 73.291 160.729Z" fill="url(#paint64_linear_4072_11305)"/>
<path d="M101.201 148.144C101.201 148.527 101.141 148.874 101.034 149.234C99.4957 144.288 87.6437 140.456 73.2879 140.456C58.932 140.456 47.092 144.288 45.5419 149.234C45.4346 148.886 45.375 148.527 45.375 148.144C45.375 142.683 57.8708 138.289 73.2759 138.289C88.6811 138.289 101.201 142.683 101.201 148.144Z" fill="url(#paint65_linear_4072_11305)"/>
<path d="M101.037 149.221C99.4987 154.167 87.6467 157.987 73.2909 157.987C58.935 157.987 47.095 154.155 45.5449 149.221C47.0831 144.275 58.935 140.443 73.2909 140.443C87.6587 140.455 99.4987 144.287 101.037 149.221Z" fill="url(#paint66_linear_4072_11305)"/>
<path d="M73.291 160.37C53.7961 160.37 37.9975 154.826 37.7113 147.964C37.7113 148.024 37.6875 148.084 37.6875 148.144C37.6875 155.101 53.6292 160.73 73.291 160.73C92.9528 160.73 108.895 155.089 108.895 148.144C108.895 148.084 108.871 148.024 108.871 147.964C108.596 154.826 92.7859 160.37 73.291 160.37Z" fill="url(#paint67_linear_4072_11305)"/>
<path d="M72.1223 155.879V154.083C70.2384 154.071 68.2948 153.748 67.1621 153.304L67.9371 152.107C69.1056 152.538 70.7868 152.873 72.6111 152.873C74.9124 152.873 76.4743 152.143 76.4743 151.125C76.4743 150.143 75.2105 149.544 72.8138 149.006C69.511 148.287 67.4602 147.473 67.4602 145.928C67.4602 144.455 69.3679 143.329 72.3607 143.054V141.258H74.3758V142.982C76.3193 143.018 77.6548 143.306 78.5848 143.605L77.774 144.778C77.0944 144.563 75.7589 144.168 73.6842 144.168C71.1803 144.168 70.2503 144.982 70.2503 145.7C70.2503 146.623 71.4546 147.09 74.2685 147.736C77.6071 148.479 79.2883 149.413 79.2883 150.993C79.2883 152.394 77.5117 153.724 74.1612 154.023V155.879H72.1223Z" fill="white"/>
<path d="M161.452 221.418C156.051 213.862 143.4 208.569 128.638 208.569C113.877 208.569 101.226 213.874 95.825 221.418H93.0469V229.597C93.0469 241.212 108.989 250.625 128.65 250.625C148.312 250.625 164.254 241.212 164.254 229.597V221.418H161.452Z" fill="#303A52"/>
<path d="M161.643 221.095C156.242 213.539 143.591 208.246 128.83 208.246C114.069 208.246 101.418 213.551 96.0167 221.095H93.2266V229.274C93.2266 240.89 109.168 250.302 128.83 250.302C148.492 250.302 164.434 240.89 164.434 229.274V221.095H161.643Z" fill="url(#paint68_linear_4072_11305)"/>
<path d="M128.842 242.123C148.505 242.123 164.445 232.708 164.445 221.095C164.445 209.481 148.505 200.067 128.842 200.067C109.179 200.067 93.2383 209.481 93.2383 221.095C93.2383 232.708 109.179 242.123 128.842 242.123Z" fill="url(#paint69_linear_4072_11305)"/>
<path d="M156.742 221.095C156.742 221.73 156.682 222.317 156.575 222.915C155.037 214.665 143.185 208.258 128.829 208.258C114.473 208.258 102.633 214.653 101.083 222.915C100.976 222.329 100.916 221.742 100.916 221.095C100.916 211.982 113.412 204.63 128.817 204.63C144.222 204.63 156.742 211.97 156.742 221.095Z" fill="url(#paint70_linear_4072_11305)"/>
<path d="M156.576 222.903C155.038 231.154 143.186 237.56 128.83 237.56C114.474 237.56 102.634 231.166 101.084 222.903C102.622 214.653 114.474 208.246 128.83 208.246C143.198 208.258 155.038 214.653 156.576 222.903Z" fill="url(#paint71_linear_4072_11305)"/>
<path d="M128.842 241.512C109.347 241.512 93.5483 232.256 93.2621 220.784C93.2621 220.891 93.2383 220.987 93.2383 221.083C93.2383 232.699 109.18 242.111 128.842 242.111C148.504 242.111 164.445 232.699 164.445 221.083C164.445 220.975 164.421 220.879 164.421 220.784C164.135 232.268 148.325 241.512 128.842 241.512Z" fill="url(#paint72_linear_4072_11305)"/>
<path d="M127.675 234.016V231.01C125.791 230.986 123.848 230.447 122.715 229.705L123.49 227.717C124.658 228.435 126.34 228.998 128.164 228.998C130.465 228.998 132.027 227.777 132.027 226.076C132.027 224.436 130.763 223.43 128.367 222.532C125.064 221.334 123.013 219.969 123.013 217.383C123.013 214.916 124.921 213.036 127.913 212.593V209.587H129.929V212.473C131.872 212.533 133.207 213.012 134.138 213.515L133.327 215.479C132.647 215.119 131.312 214.461 129.237 214.461C126.733 214.461 125.803 215.826 125.803 217.023C125.803 218.568 127.007 219.346 129.821 220.412C133.16 221.658 134.841 223.214 134.841 225.861C134.841 228.208 133.064 230.411 129.714 230.914V234.016H127.675Z" fill="white"/>
<path d="M105.64 191.097C97.019 187.708 83.5216 190.187 71.145 198.246C58.7685 206.305 51.0182 217.681 50.589 226.961L48.252 228.482L52.6875 235.344C58.9831 245.079 77.4526 244.265 93.9546 233.524C110.445 222.77 118.72 206.161 112.424 196.426L107.989 189.564L105.64 191.097Z" fill="#303A52"/>
<path d="M105.628 190.726C97.0073 187.337 83.5099 189.816 71.1333 197.875C58.7567 205.934 51.0065 217.31 50.5772 226.59L48.2402 228.111L52.6758 234.973C58.9714 244.708 77.4408 243.894 93.9429 233.153C110.445 222.411 118.708 205.79 112.412 196.054L107.977 189.193L105.628 190.726Z" fill="url(#paint73_linear_4072_11305)"/>
<path d="M107.977 189.193C114.272 198.928 105.997 215.549 89.5073 226.291C73.0171 237.044 54.5357 237.858 48.2401 228.111C41.9445 218.375 50.2194 201.754 66.7096 191.013C83.1997 180.271 101.681 179.457 107.977 189.193Z" fill="url(#paint74_linear_4072_11305)"/>
<path d="M101.515 193.396C101.86 193.923 102.135 194.45 102.361 195.013C96.5902 188.93 83.1882 190.043 71.1455 197.887C59.1028 205.73 52.6283 217.573 55.8119 225.345C55.4065 224.914 55.0369 224.447 54.6911 223.908C49.7548 216.256 56.2412 203.263 69.1781 194.845C82.1151 186.415 96.5783 185.756 101.515 193.396Z" fill="url(#paint75_linear_4072_11305)"/>
<path d="M102.362 195.012C105.545 202.783 99.0706 214.614 87.0279 222.47C74.9852 230.313 61.5832 231.427 55.8122 225.344C52.6287 217.572 59.1031 205.741 71.1458 197.886C83.1886 190.042 96.5905 188.928 102.362 195.012Z" fill="url(#paint76_linear_4072_11305)"/>
<path d="M89.174 225.789C72.827 236.446 54.5483 237.32 48.0977 227.848C48.1454 227.932 48.1811 228.028 48.2407 228.112C54.5363 237.847 73.0058 237.033 89.5079 226.292C105.998 215.538 114.273 198.929 107.977 189.194C107.918 189.11 107.846 189.038 107.787 188.954C113.772 198.726 105.521 215.131 89.174 225.789Z" fill="url(#paint77_linear_4072_11305)"/>
<path d="M84.1285 220.137L82.495 217.61C80.8972 218.616 78.9775 219.227 77.6182 219.227L77.189 217.131C78.5602 217.095 80.2772 216.64 81.8034 215.646C83.735 214.389 84.3789 212.509 83.4608 211.096C82.5784 209.719 80.9687 209.563 78.4648 210.126C75.0428 210.928 72.5865 210.904 71.1915 208.725C69.8561 206.653 70.4403 204.031 72.7058 202.031L71.0723 199.504L72.7654 198.402L74.3274 200.821C75.9967 199.803 77.3679 199.48 78.429 199.396L78.8106 201.492C78.0475 201.564 76.5809 201.743 74.8401 202.881C72.7415 204.246 72.6939 205.911 73.3377 206.904C74.1724 208.198 75.6032 208.198 78.5483 207.551C82.0299 206.773 84.2835 207.156 85.7143 209.371C86.9901 211.347 86.692 214.161 84.1642 216.413L85.8454 219.011L84.1285 220.137Z" fill="white"/>
</g>
<defs>
<linearGradient id="paint0_linear_4072_11305" x1="173.38" y1="160.653" x2="197.565" y2="43.1748" gradientUnits="userSpaceOnUse">
<stop stop-color="#FCF3F6"/>
<stop offset="1" stop-color="#EAC7D3"/>
</linearGradient>
<linearGradient id="paint1_linear_4072_11305" x1="200.951" y1="33.1291" x2="156.758" y2="186.649" gradientUnits="userSpaceOnUse">
<stop stop-color="#FCF3F6"/>
<stop offset="1" stop-color="#EAC7D3"/>
</linearGradient>
<linearGradient id="paint2_linear_4072_11305" x1="200.135" y1="35.984" x2="157.407" y2="184.416" gradientUnits="userSpaceOnUse">
<stop stop-color="#7362C4"/>
<stop offset="1" stop-color="#4F4191"/>
</linearGradient>
<linearGradient id="paint3_linear_4072_11305" x1="212.468" y1="76.9113" x2="211.251" y2="84.8254" gradientUnits="userSpaceOnUse">
<stop stop-color="#FFFBFC"/>
<stop offset="1" stop-color="#EAC7D3"/>
</linearGradient>
<linearGradient id="paint4_linear_4072_11305" x1="250.892" y1="172.741" x2="255.316" y2="69.2497" gradientUnits="userSpaceOnUse">
<stop stop-color="#FFFBFC"/>
<stop offset="1" stop-color="#EAC7D3"/>
</linearGradient>
<linearGradient id="paint5_linear_4072_11305" x1="250.509" y1="76.9735" x2="234.999" y2="177.804" gradientUnits="userSpaceOnUse">
<stop stop-color="#FCF3F6"/>
<stop offset="1" stop-color="#EAC7D3"/>
</linearGradient>
<linearGradient id="paint6_linear_4072_11305" x1="281.361" y1="94.6646" x2="279.926" y2="103.996" gradientUnits="userSpaceOnUse">
<stop stop-color="#7362C4"/>
<stop offset="1" stop-color="#4F4191"/>
</linearGradient>
<linearGradient id="paint7_linear_4072_11305" x1="236.82" y1="138.346" x2="227.537" y2="91.759" gradientUnits="userSpaceOnUse">
<stop stop-color="#7362C4"/>
<stop offset="1" stop-color="#4F4191"/>
</linearGradient>
<linearGradient id="paint8_linear_4072_11305" x1="252.927" y1="75.1392" x2="238.362" y2="169.827" gradientUnits="userSpaceOnUse">
<stop stop-color="#7362C4"/>
<stop offset="1" stop-color="#4F4191"/>
</linearGradient>
<linearGradient id="paint9_linear_4072_11305" x1="281.086" y1="63.3673" x2="275.844" y2="97.4446" gradientUnits="userSpaceOnUse">
<stop stop-color="#FFFBFC"/>
<stop offset="1" stop-color="#EAC7D3"/>
</linearGradient>
<linearGradient id="paint10_linear_4072_11305" x1="204.518" y1="84.0332" x2="261.415" y2="78.2522" gradientUnits="userSpaceOnUse">
<stop stop-color="#7362C4"/>
<stop offset="1" stop-color="#4F4191"/>
</linearGradient>
<linearGradient id="paint11_linear_4072_11305" x1="232.192" y1="116.69" x2="274.209" y2="137.451" gradientUnits="userSpaceOnUse">
<stop stop-color="#574B90"/>
<stop offset="0.995" stop-color="#3E22C4"/>
</linearGradient>
<linearGradient id="paint12_linear_4072_11305" x1="216.834" y1="74.2856" x2="215.015" y2="86.1141" gradientUnits="userSpaceOnUse">
<stop stop-color="#FCF3F6"/>
<stop offset="1" stop-color="white"/>
</linearGradient>
<linearGradient id="paint13_linear_4072_11305" x1="275.383" y1="79.1978" x2="261.492" y2="169.501" gradientUnits="userSpaceOnUse">
<stop stop-color="#FCF3F6"/>
<stop offset="1" stop-color="white"/>
</linearGradient>
<linearGradient id="paint14_linear_4072_11305" x1="236.891" y1="112.371" x2="247.45" y2="120.925" gradientUnits="userSpaceOnUse">
<stop stop-color="#FFFBFC"/>
<stop offset="1" stop-color="#EAC7D3"/>
</linearGradient>
<linearGradient id="paint15_linear_4072_11305" x1="167.441" y1="111.309" x2="127.227" y2="69.1285" gradientUnits="userSpaceOnUse">
<stop stop-color="#FD6E9F"/>
<stop offset="0.995" stop-color="#FC85AE"/>
</linearGradient>
<linearGradient id="paint16_linear_4072_11305" x1="147.196" y1="46.5915" x2="134.614" y2="102.182" gradientUnits="userSpaceOnUse">
<stop stop-color="#FD6E9F"/>
<stop offset="0.995" stop-color="#FC85AE"/>
</linearGradient>
<linearGradient id="paint17_linear_4072_11305" x1="161.842" y1="97.1066" x2="159.412" y2="107.842" gradientUnits="userSpaceOnUse">
<stop stop-color="#FCF3F6"/>
<stop offset="1" stop-color="#EAC7D3"/>
</linearGradient>
<linearGradient id="paint18_linear_4072_11305" x1="110.147" y1="84.7317" x2="109.821" y2="86.206" gradientUnits="userSpaceOnUse">
<stop stop-color="#FCF3F6"/>
<stop offset="1" stop-color="#EAC7D3"/>
</linearGradient>
<linearGradient id="paint19_linear_4072_11305" x1="114.354" y1="90.2558" x2="114.027" y2="91.7304" gradientUnits="userSpaceOnUse">
<stop stop-color="#FCF3F6"/>
<stop offset="1" stop-color="#EAC7D3"/>
</linearGradient>
<linearGradient id="paint20_linear_4072_11305" x1="113.393" y1="94.6341" x2="113.066" y2="96.1088" gradientUnits="userSpaceOnUse">
<stop stop-color="#FCF3F6"/>
<stop offset="1" stop-color="#EAC7D3"/>
</linearGradient>
<linearGradient id="paint21_linear_4072_11305" x1="112.432" y1="99.0125" x2="112.105" y2="100.487" gradientUnits="userSpaceOnUse">
<stop stop-color="#FCF3F6"/>
<stop offset="1" stop-color="#EAC7D3"/>
</linearGradient>
<linearGradient id="paint22_linear_4072_11305" x1="165.521" y1="60.8177" x2="165.301" y2="62.1636" gradientUnits="userSpaceOnUse">
<stop stop-color="#FCF3F6"/>
<stop offset="1" stop-color="#EAC7D3"/>
</linearGradient>
<linearGradient id="paint23_linear_4072_11305" x1="169.595" y1="65.5857" x2="169.375" y2="66.9317" gradientUnits="userSpaceOnUse">
<stop stop-color="#FCF3F6"/>
<stop offset="1" stop-color="#EAC7D3"/>
</linearGradient>
<linearGradient id="paint24_linear_4072_11305" x1="114.574" y1="47.8813" x2="114.42" y2="48.8261" gradientUnits="userSpaceOnUse">
<stop stop-color="#FCF3F6"/>
<stop offset="1" stop-color="#EAC7D3"/>
</linearGradient>
<linearGradient id="paint25_linear_4072_11305" x1="117.432" y1="51.2284" x2="117.278" y2="52.1734" gradientUnits="userSpaceOnUse">
<stop stop-color="#FCF3F6"/>
<stop offset="1" stop-color="#EAC7D3"/>
</linearGradient>
<linearGradient id="paint26_linear_4072_11305" x1="116.978" y1="54.0326" x2="116.823" y2="54.9776" gradientUnits="userSpaceOnUse">
<stop stop-color="#FCF3F6"/>
<stop offset="1" stop-color="#EAC7D3"/>
</linearGradient>
<linearGradient id="paint27_linear_4072_11305" x1="116.523" y1="56.839" x2="116.369" y2="57.784" gradientUnits="userSpaceOnUse">
<stop stop-color="#FCF3F6"/>
<stop offset="1" stop-color="#EAC7D3"/>
</linearGradient>
<linearGradient id="paint28_linear_4072_11305" x1="199.33" y1="187.557" x2="213.161" y2="220.379" gradientUnits="userSpaceOnUse">
<stop stop-color="#7362C4"/>
<stop offset="1" stop-color="#4F4191"/>
</linearGradient>
<linearGradient id="paint29_linear_4072_11305" x1="190.632" y1="224.39" x2="216.419" y2="172.623" gradientUnits="userSpaceOnUse">
<stop stop-color="#574B90"/>
<stop offset="0.995" stop-color="#3E22C4"/>
</linearGradient>
<linearGradient id="paint30_linear_4072_11305" x1="187.048" y1="191.358" x2="187.436" y2="189.443" gradientUnits="userSpaceOnUse">
<stop stop-color="#FCF3F6"/>
<stop offset="1" stop-color="#EAC7D3"/>
</linearGradient>
<linearGradient id="paint31_linear_4072_11305" x1="208.429" y1="184.769" x2="208.817" y2="182.854" gradientUnits="userSpaceOnUse">
<stop stop-color="#FCF3F6"/>
<stop offset="1" stop-color="#EAC7D3"/>
</linearGradient>
<linearGradient id="paint32_linear_4072_11305" x1="185.949" y1="197.158" x2="186.337" y2="195.243" gradientUnits="userSpaceOnUse">
<stop stop-color="#FCF3F6"/>
<stop offset="1" stop-color="#EAC7D3"/>
</linearGradient>
<linearGradient id="paint33_linear_4072_11305" x1="184.853" y1="202.959" x2="185.24" y2="201.044" gradientUnits="userSpaceOnUse">
<stop stop-color="#FCF3F6"/>
<stop offset="1" stop-color="#EAC7D3"/>
</linearGradient>
<linearGradient id="paint34_linear_4072_11305" x1="183.752" y1="208.76" x2="184.139" y2="206.845" gradientUnits="userSpaceOnUse">
<stop stop-color="#FCF3F6"/>
<stop offset="1" stop-color="#EAC7D3"/>
</linearGradient>
<linearGradient id="paint35_linear_4072_11305" x1="54.0141" y1="67.0967" x2="46.8214" y2="98.8768" gradientUnits="userSpaceOnUse">
<stop stop-color="#7362C4"/>
<stop offset="1" stop-color="#4F4191"/>
</linearGradient>
<linearGradient id="paint36_linear_4072_11305" x1="38.2059" y1="86.641" x2="63.2148" y2="86.641" gradientUnits="userSpaceOnUse">
<stop stop-color="#7362C4"/>
<stop offset="1" stop-color="#4F4191"/>
</linearGradient>
<linearGradient id="paint37_linear_4072_11305" x1="46.1774" y1="104.589" x2="48.5826" y2="72.9768" gradientUnits="userSpaceOnUse">
<stop stop-color="#574B90"/>
<stop offset="0.995" stop-color="#3E22C4"/>
</linearGradient>
<linearGradient id="paint38_linear_4072_11305" x1="104.241" y1="201.6" x2="25.2038" y2="207.68" gradientUnits="userSpaceOnUse">
<stop stop-color="#B24FB1"/>
<stop offset="0.359" stop-color="#FFB6CF"/>
<stop offset="0.722" stop-color="#9E579D"/>
<stop offset="1" stop-color="#AD52AC"/>
</linearGradient>
<linearGradient id="paint39_linear_4072_11305" x1="79.7016" y1="178.402" x2="68.6136" y2="208.268" gradientUnits="userSpaceOnUse">
<stop stop-color="#B24FB1"/>
<stop offset="0.359" stop-color="#FFB6CF"/>
<stop offset="1" stop-color="#AD52AC"/>
</linearGradient>
<linearGradient id="paint40_linear_4072_11305" x1="34.9518" y1="195.638" x2="112.975" y2="189.175" gradientUnits="userSpaceOnUse">
<stop stop-color="#B24FB1"/>
<stop offset="0.359" stop-color="#FFB6CF"/>
<stop offset="0.705" stop-color="#9E579D"/>
<stop offset="1" stop-color="#AD52AC"/>
</linearGradient>
<linearGradient id="paint41_linear_4072_11305" x1="92.9289" y1="184.064" x2="53.5646" y2="209.55" gradientUnits="userSpaceOnUse">
<stop stop-color="#B24FB1"/>
<stop offset="0.359" stop-color="#FFB6CF"/>
<stop offset="1" stop-color="#AD52AC"/>
</linearGradient>
<linearGradient id="paint42_linear_4072_11305" x1="37.6958" y1="202.003" x2="108.899" y2="202.003" gradientUnits="userSpaceOnUse">
<stop stop-color="#FFB6CF"/>
<stop offset="1" stop-color="#FFCCDE"/>
</linearGradient>
<linearGradient id="paint43_linear_4072_11305" x1="104.241" y1="192.069" x2="25.2038" y2="198.148" gradientUnits="userSpaceOnUse">
<stop stop-color="#B24FB1"/>
<stop offset="0.359" stop-color="#FFB6CF"/>
<stop offset="0.722" stop-color="#9E579D"/>
<stop offset="1" stop-color="#AD52AC"/>
</linearGradient>
<linearGradient id="paint44_linear_4072_11305" x1="79.7016" y1="168.87" x2="68.6136" y2="198.736" gradientUnits="userSpaceOnUse">
<stop stop-color="#B24FB1"/>
<stop offset="0.359" stop-color="#FFB6CF"/>
<stop offset="1" stop-color="#AD52AC"/>
</linearGradient>
<linearGradient id="paint45_linear_4072_11305" x1="34.9518" y1="186.105" x2="112.975" y2="179.642" gradientUnits="userSpaceOnUse">
<stop stop-color="#B24FB1"/>
<stop offset="0.359" stop-color="#FFB6CF"/>
<stop offset="0.705" stop-color="#9E579D"/>
<stop offset="1" stop-color="#AD52AC"/>
</linearGradient>
<linearGradient id="paint46_linear_4072_11305" x1="92.9289" y1="174.531" x2="53.5646" y2="200.018" gradientUnits="userSpaceOnUse">
<stop stop-color="#B24FB1"/>
<stop offset="0.359" stop-color="#FFB6CF"/>
<stop offset="1" stop-color="#AD52AC"/>
</linearGradient>
<linearGradient id="paint47_linear_4072_11305" x1="37.6958" y1="192.472" x2="108.899" y2="192.472" gradientUnits="userSpaceOnUse">
<stop stop-color="#FFB6CF"/>
<stop offset="1" stop-color="#FFCCDE"/>
</linearGradient>
<linearGradient id="paint48_linear_4072_11305" x1="104.239" y1="182.537" x2="25.2019" y2="188.616" gradientUnits="userSpaceOnUse">
<stop stop-color="#B24FB1"/>
<stop offset="0.359" stop-color="#FFB6CF"/>
<stop offset="0.722" stop-color="#9E579D"/>
<stop offset="1" stop-color="#AD52AC"/>
</linearGradient>
<linearGradient id="paint49_linear_4072_11305" x1="79.6996" y1="159.339" x2="68.6116" y2="189.204" gradientUnits="userSpaceOnUse">
<stop stop-color="#B24FB1"/>
<stop offset="0.359" stop-color="#FFB6CF"/>
<stop offset="1" stop-color="#AD52AC"/>
</linearGradient>
<linearGradient id="paint50_linear_4072_11305" x1="34.9498" y1="176.575" x2="112.973" y2="170.113" gradientUnits="userSpaceOnUse">
<stop stop-color="#B24FB1"/>
<stop offset="0.359" stop-color="#FFB6CF"/>
<stop offset="0.705" stop-color="#9E579D"/>
<stop offset="1" stop-color="#AD52AC"/>
</linearGradient>
<linearGradient id="paint51_linear_4072_11305" x1="92.9269" y1="165.001" x2="53.5627" y2="190.488" gradientUnits="userSpaceOnUse">
<stop stop-color="#B24FB1"/>
<stop offset="0.359" stop-color="#FFB6CF"/>
<stop offset="1" stop-color="#AD52AC"/>
</linearGradient>
<linearGradient id="paint52_linear_4072_11305" x1="37.6938" y1="182.941" x2="108.897" y2="182.941" gradientUnits="userSpaceOnUse">
<stop stop-color="#FFB6CF"/>
<stop offset="1" stop-color="#FFCCDE"/>
</linearGradient>
<linearGradient id="paint53_linear_4072_11305" x1="104.239" y1="173.004" x2="25.2019" y2="179.084" gradientUnits="userSpaceOnUse">
<stop stop-color="#B24FB1"/>
<stop offset="0.359" stop-color="#FFB6CF"/>
<stop offset="0.722" stop-color="#9E579D"/>
<stop offset="1" stop-color="#AD52AC"/>
</linearGradient>
<linearGradient id="paint54_linear_4072_11305" x1="79.6996" y1="149.806" x2="68.6116" y2="179.672" gradientUnits="userSpaceOnUse">
<stop stop-color="#B24FB1"/>
<stop offset="0.359" stop-color="#FFB6CF"/>
<stop offset="1" stop-color="#AD52AC"/>
</linearGradient>
<linearGradient id="paint55_linear_4072_11305" x1="34.9498" y1="167.043" x2="112.973" y2="160.58" gradientUnits="userSpaceOnUse">
<stop stop-color="#B24FB1"/>
<stop offset="0.359" stop-color="#FFB6CF"/>
<stop offset="0.705" stop-color="#9E579D"/>
<stop offset="1" stop-color="#AD52AC"/>
</linearGradient>
<linearGradient id="paint56_linear_4072_11305" x1="92.9269" y1="155.469" x2="53.5627" y2="180.955" gradientUnits="userSpaceOnUse">
<stop stop-color="#B24FB1"/>
<stop offset="0.359" stop-color="#FFB6CF"/>
<stop offset="1" stop-color="#AD52AC"/>
</linearGradient>
<linearGradient id="paint57_linear_4072_11305" x1="37.6938" y1="173.409" x2="108.897" y2="173.409" gradientUnits="userSpaceOnUse">
<stop stop-color="#FFB6CF"/>
<stop offset="1" stop-color="#FFCCDE"/>
</linearGradient>
<linearGradient id="paint58_linear_4072_11305" x1="104.239" y1="163.472" x2="25.2019" y2="169.552" gradientUnits="userSpaceOnUse">
<stop stop-color="#B24FB1"/>
<stop offset="0.359" stop-color="#FFB6CF"/>
<stop offset="0.722" stop-color="#9E579D"/>
<stop offset="1" stop-color="#AD52AC"/>
</linearGradient>
<linearGradient id="paint59_linear_4072_11305" x1="79.6996" y1="140.274" x2="68.6116" y2="170.14" gradientUnits="userSpaceOnUse">
<stop stop-color="#B24FB1"/>
<stop offset="0.359" stop-color="#FFB6CF"/>
<stop offset="1" stop-color="#AD52AC"/>
</linearGradient>
<linearGradient id="paint60_linear_4072_11305" x1="34.9498" y1="157.51" x2="112.973" y2="151.048" gradientUnits="userSpaceOnUse">
<stop stop-color="#B24FB1"/>
<stop offset="0.359" stop-color="#FFB6CF"/>
<stop offset="0.705" stop-color="#9E579D"/>
<stop offset="1" stop-color="#AD52AC"/>
</linearGradient>
<linearGradient id="paint61_linear_4072_11305" x1="92.9269" y1="145.936" x2="53.5627" y2="171.423" gradientUnits="userSpaceOnUse">
<stop stop-color="#B24FB1"/>
<stop offset="0.359" stop-color="#FFB6CF"/>
<stop offset="1" stop-color="#AD52AC"/>
</linearGradient>
<linearGradient id="paint62_linear_4072_11305" x1="37.6938" y1="163.877" x2="108.897" y2="163.877" gradientUnits="userSpaceOnUse">
<stop stop-color="#FFB6CF"/>
<stop offset="1" stop-color="#FFCCDE"/>
</linearGradient>
<linearGradient id="paint63_linear_4072_11305" x1="104.239" y1="153.94" x2="25.2019" y2="160.019" gradientUnits="userSpaceOnUse">
<stop stop-color="#B24FB1"/>
<stop offset="0.359" stop-color="#FFB6CF"/>
<stop offset="0.722" stop-color="#9E579D"/>
<stop offset="1" stop-color="#AD52AC"/>
</linearGradient>
<linearGradient id="paint64_linear_4072_11305" x1="79.6996" y1="130.742" x2="68.6116" y2="160.607" gradientUnits="userSpaceOnUse">
<stop stop-color="#B24FB1"/>
<stop offset="0.359" stop-color="#FFB6CF"/>
<stop offset="1" stop-color="#AD52AC"/>
</linearGradient>
<linearGradient id="paint65_linear_4072_11305" x1="34.9498" y1="147.978" x2="112.973" y2="141.516" gradientUnits="userSpaceOnUse">
<stop stop-color="#B24FB1"/>
<stop offset="0.359" stop-color="#FFB6CF"/>
<stop offset="0.705" stop-color="#9E579D"/>
<stop offset="1" stop-color="#AD52AC"/>
</linearGradient>
<linearGradient id="paint66_linear_4072_11305" x1="92.9269" y1="136.404" x2="53.5627" y2="161.891" gradientUnits="userSpaceOnUse">
<stop stop-color="#B24FB1"/>
<stop offset="0.359" stop-color="#FFB6CF"/>
<stop offset="1" stop-color="#AD52AC"/>
</linearGradient>
<linearGradient id="paint67_linear_4072_11305" x1="37.6938" y1="154.344" x2="108.897" y2="154.344" gradientUnits="userSpaceOnUse">
<stop stop-color="#FFB6CF"/>
<stop offset="1" stop-color="#FFCCDE"/>
</linearGradient>
<linearGradient id="paint68_linear_4072_11305" x1="159.779" y1="226.868" x2="80.7171" y2="232.95" gradientUnits="userSpaceOnUse">
<stop stop-color="#B24FB1"/>
<stop offset="0.359" stop-color="#FFB6CF"/>
<stop offset="0.722" stop-color="#9E579D"/>
<stop offset="1" stop-color="#AD52AC"/>
</linearGradient>
<linearGradient id="paint69_linear_4072_11305" x1="137.553" y1="197.418" x2="122.464" y2="238.061" gradientUnits="userSpaceOnUse">
<stop stop-color="#B24FB1"/>
<stop offset="0.359" stop-color="#FFB6CF"/>
<stop offset="1" stop-color="#AD52AC"/>
</linearGradient>
<linearGradient id="paint70_linear_4072_11305" x1="90.2263" y1="218.068" x2="168.312" y2="211.6" gradientUnits="userSpaceOnUse">
<stop stop-color="#B24FB1"/>
<stop offset="0.359" stop-color="#FFB6CF"/>
<stop offset="0.705" stop-color="#9E579D"/>
<stop offset="1" stop-color="#AD52AC"/>
</linearGradient>
<linearGradient id="paint71_linear_4072_11305" x1="149.016" y1="209.73" x2="108.557" y2="235.925" gradientUnits="userSpaceOnUse">
<stop stop-color="#B24FB1"/>
<stop offset="0.359" stop-color="#FFB6CF"/>
<stop offset="1" stop-color="#AD52AC"/>
</linearGradient>
<linearGradient id="paint72_linear_4072_11305" x1="93.2365" y1="231.457" x2="164.44" y2="231.457" gradientUnits="userSpaceOnUse">
<stop stop-color="#FFB6CF"/>
<stop offset="1" stop-color="#FFCCDE"/>
</linearGradient>
<linearGradient id="paint73_linear_4072_11305" x1="107.191" y1="196.585" x2="43.9944" y2="244.685" gradientUnits="userSpaceOnUse">
<stop stop-color="#B24FB1"/>
<stop offset="0.359" stop-color="#FFB6CF"/>
<stop offset="0.722" stop-color="#9E579D"/>
<stop offset="1" stop-color="#AD52AC"/>
</linearGradient>
<linearGradient id="paint74_linear_4072_11305" x1="72.5861" y1="184.03" x2="82.1503" y2="226.328" gradientUnits="userSpaceOnUse">
<stop stop-color="#B24FB1"/>
<stop offset="0.359" stop-color="#FFB6CF"/>
<stop offset="1" stop-color="#AD52AC"/>
</linearGradient>
<linearGradient id="paint75_linear_4072_11305" x1="44.0753" y1="227.222" x2="106.242" y2="179.327" gradientUnits="userSpaceOnUse">
<stop stop-color="#B24FB1"/>
<stop offset="0.359" stop-color="#FFB6CF"/>
<stop offset="0.705" stop-color="#9E579D"/>
<stop offset="1" stop-color="#AD52AC"/>
</linearGradient>
<linearGradient id="paint76_linear_4072_11305" x1="88.8748" y1="188.091" x2="69.1623" y2="232.196" gradientUnits="userSpaceOnUse">
<stop stop-color="#B24FB1"/>
<stop offset="0.359" stop-color="#FFB6CF"/>
<stop offset="1" stop-color="#AD52AC"/>
</linearGradient>
<linearGradient id="paint77_linear_4072_11305" x1="53.8562" y1="236.81" x2="113.741" y2="198.123" gradientUnits="userSpaceOnUse">
<stop stop-color="#FFB6CF"/>
<stop offset="1" stop-color="#FFCCDE"/>
</linearGradient>
<clipPath id="clip0_4072_11305">
<rect width="325" height="272" fill="white" transform="translate(0.5 -2)"/>
</clipPath>
</defs>
</svg>
