<svg width="162" height="160" viewBox="0 0 162 160" fill="none" xmlns="http://www.w3.org/2000/svg">
<g clip-path="url(#clip0_4111_3233)">
<mask id="mask0_4111_3233" style="mask-type:luminance" maskUnits="userSpaceOnUse" x="-17" y="-20" width="201" height="200">
<path d="M183.795 -20H-16.2051V180H183.795V-20Z" fill="white"/>
</mask>
<g mask="url(#mask0_4111_3233)">
<g opacity="0.897483">
<path d="M11.9012 124.436L10.9709 125.443C10.5333 125.912 9.79993 125.941 9.33052 125.508L8.32327 124.577C7.85386 124.144 7.82453 123.41 8.25831 122.941L9.18858 121.93C9.62235 121.46 10.3557 121.431 10.829 121.865L11.8364 122.799C12.3058 123.232 12.335 123.966 11.9012 124.436Z" fill="#FFCC3D"/>
</g>
<path d="M30.1428 155.483H91.3846L76.7788 108.907C75.8498 105.945 72.8733 104.126 69.8135 104.651C69.8135 104.651 53.7948 106.856 48.612 108.291C43.4659 109.716 31.8913 116.024 31.8913 116.024C29.367 117.004 27.7709 119.509 27.9491 122.211L30.1428 155.483Z" fill="#605EFD"/>
<path d="M32.1613 155.483L34.7254 114.521L27.2531 117.845C23.7727 119.393 21.0063 122.2 19.5082 125.703L6.85742 155.286L19.3793 155.483H32.1613Z" fill="#605EFD"/>
<path d="M19.5082 125.702L6.85742 155.285L19.3793 155.483H32.1613L34.7254 121.684" stroke="#030047" stroke-width="1.2656" stroke-linecap="round" stroke-linejoin="round"/>
<path d="M69.5219 155.483L77.1773 127.333C77.882 124.742 75.9309 122.19 73.2461 122.19H41.5641C39.7258 122.19 38.1156 123.421 37.6332 125.195L29.3965 155.483H69.5219Z" fill="#030047"/>
<path d="M64.1554 125.893H51.2229C49.8257 125.893 48.789 124.598 49.0948 123.235L49.6112 120.932C49.8347 119.936 50.7187 119.228 51.7394 119.228H64.6718C66.069 119.228 67.1058 120.524 66.7999 121.887L66.2835 124.189C66.0601 125.185 65.1761 125.893 64.1554 125.893Z" fill="#FFCC3D"/>
<path d="M26.8023 130.971L35.2488 123.3C36.2816 122.362 37.8992 122.526 38.723 123.652C39.3917 124.566 39.3136 125.827 38.5363 126.651L33.6421 131.839L40.3929 132.011C42.0382 132.053 43.3046 133.595 42.8945 135.189C42.6788 136.026 42.1019 136.83 40.8269 137.305C40.8269 137.305 42.4976 141.33 37.523 142.204C37.523 142.204 39.7453 146.04 37.0335 146.805C34.5163 147.516 31.4812 147.813 31.4812 147.813L29.6554 154.526C29.6554 154.526 26.2495 151.325 24.8066 148.933C23.6593 147.031 24.0945 137.489 25.1484 133.66C25.4335 132.624 26.0074 131.693 26.8023 130.971Z" fill="white"/>
<path d="M26.8023 130.971L35.2488 123.3C36.2816 122.362 37.8992 122.526 38.723 123.652C39.3917 124.566 39.3136 125.827 38.5363 126.651L33.6421 131.839L40.3929 132.011C42.0382 132.053 43.3046 133.595 42.8945 135.189C42.6788 136.026 42.1019 136.83 40.8269 137.305C40.8269 137.305 42.4976 141.33 37.523 142.204C37.523 142.204 39.7453 146.04 37.0335 146.805C34.5163 147.516 31.4812 147.813 31.4812 147.813L29.6554 154.526C29.6554 154.526 26.2495 151.325 24.8066 148.933C23.6593 147.031 24.0945 137.489 25.1484 133.66C25.4335 132.624 26.0074 131.693 26.8023 130.971Z" stroke="#030047" stroke-width="1.2656" stroke-linecap="round" stroke-linejoin="round"/>
<path d="M40.8266 137.304H28.9434" stroke="#030047" stroke-width="1.2656" stroke-linecap="round" stroke-linejoin="round"/>
<path d="M37.5234 142.203H27.9355" stroke="#030047" stroke-width="1.2656" stroke-linecap="round" stroke-linejoin="round"/>
<path d="M33.6438 131.839H29.3965" stroke="#030047" stroke-width="1.2656" stroke-linecap="round" stroke-linejoin="round"/>
<path d="M57.3027 90.2634L58.3621 107.435C58.3621 107.435 67.5668 114.844 57.3488 116.61C43.6184 118.983 42.9695 110.945 42.9695 110.945L40.5957 90.8927L57.3027 90.2634Z" fill="white"/>
<path d="M57.3027 90.2634L58.3621 107.435C58.3621 107.435 67.5668 114.844 57.3488 116.61C43.6184 118.983 42.9695 110.945 42.9695 110.945L40.5957 90.8927L57.3027 90.2634Z" stroke="#030047" stroke-width="1.2656" stroke-linecap="round" stroke-linejoin="round"/>
<path d="M48.0776 68.9813C48.4147 71.4762 51.1377 73.168 54.16 72.7598C57.1823 72.3516 59.3592 69.9981 59.0221 67.5032C58.685 65.0083 53.9049 59.8723 50.8827 60.2805C47.8604 60.6887 47.7405 66.4864 48.0776 68.9813Z" fill="#030047"/>
<path d="M40.2867 94.2843C39.5914 93.6667 38.9379 92.9921 38.3328 92.2632C35.6199 88.9949 33.4852 85.0308 30.6348 81.1152L49.9512 64.405C50.4223 64.6218 59.8332 70.2019 64.3316 82.9675C67.4211 91.7343 64.4824 96.4695 57.9938 98.3164C54.9332 99.1875 51.7609 99.2523 48.7613 98.5929" fill="white"/>
<path d="M40.2867 94.2843C39.5914 93.6667 38.9379 92.9921 38.3328 92.2632C35.6199 88.9949 33.4852 85.0308 30.6348 81.1152L49.9512 64.405C50.4223 64.6218 59.8332 70.2019 64.3316 82.9675C67.4211 91.7343 64.4824 96.4695 57.9938 98.3164C54.9332 99.1875 51.7609 99.2523 48.7613 98.5929" stroke="#030047" stroke-width="1.2656" stroke-linecap="round" stroke-linejoin="round"/>
<path d="M41.5494 101.052L41.6974 97.428L42.9162 89.1558C43.5416 89.778 44.6002 89.4487 44.7752 88.5843C45.0884 87.0374 42.8638 82.5788 40.4134 79.9562C40.4134 79.9562 57.2091 74.3562 55.0232 66.428C51.1947 52.5425 43.4271 54.3554 35.2865 65.8933C31.2548 71.6073 19.9095 77.355 28.408 86.1546C25.9423 94.3581 36.7466 101.596 41.5494 101.052Z" fill="#030047"/>
<path d="M45.053 95.5142C45.053 95.5142 43.1869 97.4759 40.0647 97.7314C36.9424 97.9868 32.9455 89.9134 35.0198 88.1911C37.094 86.4689 42.9205 89.1568 42.9205 89.1568" fill="white"/>
<path d="M45.053 95.5142C45.053 95.5142 43.1869 97.4759 40.0647 97.7314C36.9424 97.9868 32.9455 89.9134 35.0198 88.1911C37.094 86.4689 42.9205 89.1568 42.9205 89.1568" stroke="#030047" stroke-width="1.2656" stroke-linecap="round" stroke-linejoin="round"/>
<path d="M41.3006 91.0682C40.7377 90.5776 40.0725 90.2049 39.3596 89.9819C38.9127 89.842 38.4373 89.7608 37.9756 89.8385C37.5139 89.9163 37.0666 90.1706 36.8362 90.578C36.51 91.1549 36.6756 91.8807 36.9186 92.4975C37.3619 93.6221 38.2135 94.6963 39.4784 94.976" fill="white"/>
<path d="M41.3006 91.0682C40.7377 90.5776 40.0725 90.2049 39.3596 89.9819C38.9127 89.842 38.4373 89.7608 37.9756 89.8385C37.5139 89.9163 37.0666 90.1706 36.8362 90.578C36.51 91.1549 36.6756 91.8807 36.9186 92.4975C37.3619 93.6221 38.2135 94.6963 39.4784 94.976" stroke="#030047" stroke-width="1.2656" stroke-linecap="round" stroke-linejoin="round"/>
<path d="M55.6426 82.4187C55.8992 83.1738 57.5016 85.3468 58.1824 85.7625C58.8633 86.1781 60.609 86.3183 60.8277 87.0855C61.0301 87.7953 60.8461 88.6027 60.3563 89.155" fill="white"/>
<path d="M55.6426 82.4187C55.8992 83.1738 57.5016 85.3468 58.1824 85.7625C58.8633 86.1781 60.609 86.3183 60.8277 87.0855C61.0301 87.7953 60.8461 88.6027 60.3563 89.155" stroke="#030047" stroke-width="1.2656" stroke-linecap="round" stroke-linejoin="round"/>
<path d="M53.0098 90.8923C53.2621 91.6333 53.8355 92.2591 54.552 92.5751C55.2684 92.8912 56.1168 92.8935 56.8344 92.5802" stroke="#030047" stroke-width="1.2656" stroke-linecap="round" stroke-linejoin="round"/>
<path d="M51.9727 80.8228C50.4242 80.7635 49.7313 81.4162 49.3105 82.2947" stroke="#030047" stroke-width="1.2656" stroke-linecap="round" stroke-linejoin="round"/>
<path d="M58.6797 77.238C57.5566 77.256 56.6691 77.7462 56.0176 78.7095" stroke="#030047" stroke-width="1.2656" stroke-linecap="round" stroke-linejoin="round"/>
<g opacity="0.4">
<path d="M41.0063 115.986L38.3574 118.636" stroke="white" stroke-width="1.2656" stroke-linecap="round" stroke-linejoin="round"/>
</g>
<g opacity="0.4">
<path d="M45.2156 119.142L44.8652 121.002" stroke="white" stroke-width="1.2656" stroke-linecap="round" stroke-linejoin="round"/>
</g>
<g opacity="0.4">
<path d="M26.4187 122.648L23.7129 125.354" stroke="white" stroke-width="1.2656" stroke-linecap="round" stroke-linejoin="round"/>
</g>
<g opacity="0.4">
<path d="M22.4199 129.592L23.9953 131.168" stroke="white" stroke-width="1.2656" stroke-linecap="round" stroke-linejoin="round"/>
</g>
<g opacity="0.4">
<path d="M30.0684 121.456V123.866" stroke="white" stroke-width="1.2656" stroke-linecap="round" stroke-linejoin="round"/>
</g>
<g opacity="0.4">
<path d="M17.7246 142.007L19.9391 144.221" stroke="white" stroke-width="1.2656" stroke-linecap="round" stroke-linejoin="round"/>
</g>
<g opacity="0.4">
<path d="M21.0879 146.916L19.1191 148.885" stroke="white" stroke-width="1.2656" stroke-linecap="round" stroke-linejoin="round"/>
</g>
<g opacity="0.4">
<path d="M19.4785 134.642L21.0977 136.262" stroke="white" stroke-width="1.2656" stroke-linecap="round" stroke-linejoin="round"/>
</g>
<path d="M5.10742 155.483H157.566" stroke="#030047" stroke-width="1.2656" stroke-linecap="round" stroke-linejoin="round"/>
<path d="M118.347 104.725L118.35 104.721L122.859 100.189C122.859 100.189 123.856 99.5764 125.915 98.5438C127.973 97.5112 127.992 95.437 127.992 95.437L131.751 95.0704C132.668 94.981 133.51 94.5353 134.099 93.826C136.434 91.0194 142.299 83.7642 141.36 82.8609C140.192 81.7432 137.349 83.5657 137.349 83.5657C134.812 81.1805 132.156 85.0459 132.156 85.0459C130.307 84.2776 127.859 86.8036 127.859 86.8036L120.631 85.8482L125.995 81.9336C126.73 81.3967 127.105 80.5507 127.075 79.7106C127.056 79.1629 126.869 78.621 126.502 78.1597C125.713 77.1691 124.325 76.8794 123.204 77.4752L114.124 82.2946C113.125 82.8282 112.286 83.6162 111.693 84.5812L105.482 93.6214" fill="white"/>
<path d="M118.347 104.725L118.35 104.721L122.859 100.189C122.859 100.189 123.856 99.5764 125.915 98.5438C127.973 97.5112 127.992 95.437 127.992 95.437L131.751 95.0704C132.668 94.981 133.51 94.5353 134.099 93.826C136.434 91.0194 142.299 83.7642 141.36 82.8609C140.192 81.7432 137.349 83.5657 137.349 83.5657C134.812 81.1805 132.156 85.0459 132.156 85.0459C130.307 84.2776 127.859 86.8036 127.859 86.8036L120.631 85.8482L125.995 81.9336C126.73 81.3967 127.105 80.5507 127.075 79.7106C127.056 79.1629 126.869 78.621 126.502 78.1597C125.713 77.1691 124.325 76.8794 123.204 77.4752L114.124 82.2946C113.125 82.8282 112.286 83.6162 111.693 84.5812L105.482 93.6214" stroke="#030047" stroke-width="1.2656" stroke-linecap="round" stroke-linejoin="round"/>
<path d="M114.734 93.0375C114.734 93.0375 120.041 91.3063 123.909 93.4042C123.909 93.4042 130.417 84.4846 131.622 88.0072C131.826 88.602 131.737 89.2602 131.426 89.8069L127.991 95.4361" fill="white"/>
<path d="M114.734 93.0375C114.734 93.0375 120.041 91.3063 123.909 93.4042C123.909 93.4042 130.417 84.4846 131.622 88.0072C131.826 88.602 131.737 89.2602 131.426 89.8069L127.991 95.4361" stroke="#030047" stroke-width="1.2656" stroke-linecap="round" stroke-linejoin="round"/>
<path d="M133.816 94.1277C133.816 94.1277 137.959 87.1539 137.519 86.137C137.078 85.1201 134.358 84.9528 131.586 89.4554" stroke="#030047" stroke-width="1.2656" stroke-linecap="round" stroke-linejoin="round"/>
<path d="M66.9162 105.16L73.8017 103.65C77.4793 102.844 81.3262 103.572 84.4554 105.665L96.8324 113.945L103.369 93.3539L123.969 102.691L116.045 128.857C114.938 134.325 110.784 138.668 105.371 140.017C101.511 140.979 97.4258 140.309 94.0762 138.163L73.6626 125.089L66.9162 105.16Z" fill="#605EFD"/>
<path d="M94.4913 121.36L103.374 93.3534L123.973 102.691L120.22 115.083" stroke="#030047" stroke-width="1.2656" stroke-linecap="round" stroke-linejoin="round"/>
<g opacity="0.4">
<path d="M90.6895 122.617L90.7892 125.474" stroke="white" stroke-width="1.2656" stroke-linecap="round" stroke-linejoin="round"/>
</g>
<g opacity="0.4">
<path d="M97.0449 125.729L99.3935 127.92" stroke="white" stroke-width="1.2656" stroke-linecap="round" stroke-linejoin="round"/>
</g>
<g opacity="0.4">
<path d="M105.369 110.771L108.489 113.681" stroke="white" stroke-width="1.2656" stroke-linecap="round" stroke-linejoin="round"/>
</g>
<g opacity="0.4">
<path d="M113.951 105.559L114.113 110.194" stroke="white" stroke-width="1.2656" stroke-linecap="round" stroke-linejoin="round"/>
</g>
<g opacity="0.4">
<path d="M106.469 102.102L105.317 103.337" stroke="white" stroke-width="1.2656" stroke-linecap="round" stroke-linejoin="round"/>
</g>
<g opacity="0.4">
<path d="M116.4 113.264L118.433 115.159" stroke="white" stroke-width="1.2656" stroke-linecap="round" stroke-linejoin="round"/>
</g>
<g opacity="0.4">
<path d="M86.2554 112.281L79.752 112.508" stroke="white" stroke-width="1.2656" stroke-linecap="round" stroke-linejoin="round"/>
</g>
<path d="M155.16 47.3947C155.16 50.6869 154.711 53.8725 153.874 56.8967C149.721 71.9201 135.95 82.9506 119.608 82.9506C99.9699 82.9506 84.0566 67.0291 84.0566 47.3947C84.0566 27.7604 99.9699 11.8428 119.608 11.8428C139.243 11.8428 155.16 27.7604 155.16 47.3947Z" fill="white"/>
<path d="M155.16 47.3947C155.16 50.6869 154.711 53.8725 153.874 56.8967C149.721 71.9201 135.95 82.9506 119.608 82.9506C99.9699 82.9506 84.0566 67.0291 84.0566 47.3947C84.0566 27.7604 99.9699 11.8428 119.608 11.8428C139.243 11.8428 155.16 27.7604 155.16 47.3947Z" stroke="#030047" stroke-width="1.2656" stroke-linecap="round" stroke-linejoin="round"/>
<path d="M109.806 12.8041C112.963 11.8718 116.146 11.4006 119.283 11.3463L119.873 46.9005L109.806 12.8041Z" fill="#030047"/>
<path d="M107.733 5.77613L119.875 46.8993L78.748 59.0421C72.042 36.3294 85.0204 12.4821 107.733 5.77613Z" fill="#FFCC3D"/>
<path d="M107.733 5.77613L119.875 46.8993L78.748 59.0421C72.042 36.3294 85.0204 12.4821 107.733 5.77613Z" stroke="#030047" stroke-width="1.2656" stroke-linecap="round" stroke-linejoin="round"/>
<path d="M93.1375 49.2162H58.4367C52.0137 49.2162 46.8066 44.0092 46.8066 37.5861C46.8066 31.1631 52.0137 25.9561 58.4367 25.9561H93.1375C99.5605 25.9561 104.767 31.1631 104.767 37.5861C104.767 44.0092 99.5605 49.2162 93.1375 49.2162Z" fill="white"/>
<path d="M93.1375 49.2162H58.4367C52.0137 49.2162 46.8066 44.0092 46.8066 37.5861C46.8066 31.1631 52.0137 25.9561 58.4367 25.9561H93.1375C99.5605 25.9561 104.767 31.1631 104.767 37.5861C104.767 44.0092 99.5605 49.2162 93.1375 49.2162Z" stroke="#030047" stroke-width="1.2656" stroke-linecap="round" stroke-linejoin="round"/>
<path d="M68.098 37.2834C68.098 41.5393 64.6477 44.9896 60.3918 44.9896C56.1359 44.9896 52.6855 41.5393 52.6855 37.2834C52.6855 33.0275 56.1359 29.5771 60.3918 29.5771C64.6477 29.5771 68.098 33.0275 68.098 37.2834Z" fill="#030047"/>
<path d="M57.248 37.6258L59.1164 39.4941L63.5379 35.0723" stroke="white" stroke-width="4.2192" stroke-miterlimit="10"/>
<path d="M87.5605 35.8888H71.2012V32.7853H87.5605V35.8888Z" fill="#E6F3FC"/>
<path d="M97.5023 41.0978H71.2012V37.9943H97.5023V41.0978Z" fill="#E6F3FC"/>
<path d="M144.332 155.208H111.483C106.32 155.208 102.135 151.023 102.135 145.86V127.371C102.135 122.208 106.32 118.022 111.483 118.022H144.332C149.495 118.022 153.681 122.208 153.681 127.371V145.86C153.681 151.023 149.495 155.208 144.332 155.208Z" fill="white"/>
<path d="M144.332 155.208H111.483C106.32 155.208 102.135 151.023 102.135 145.86V127.371C102.135 122.208 106.32 118.022 111.483 118.022H144.332C149.495 118.022 153.681 122.208 153.681 127.371V145.86C153.681 151.023 149.495 155.208 144.332 155.208Z" stroke="#030047" stroke-width="1.2656" stroke-linecap="round" stroke-linejoin="round"/>
<path d="M114.606 148.265H112.688C111.468 148.265 110.479 147.466 110.479 146.48V142.447C110.479 141.462 111.468 140.663 112.688 140.663H114.606C115.826 140.663 116.815 141.462 116.815 142.447V146.48C116.815 147.466 115.826 148.265 114.606 148.265Z" fill="#FFCC3D"/>
<path d="M124.746 148.388H122.828C121.608 148.388 120.619 147.791 120.619 147.054V137.404C120.619 136.667 121.608 136.069 122.828 136.069H124.746C125.967 136.069 126.956 136.667 126.956 137.404V147.054C126.956 147.791 125.967 148.388 124.746 148.388Z" fill="#605EFD"/>
<path d="M134.888 148.399H132.969C131.749 148.399 130.76 148.003 130.76 147.514V146.354C130.76 145.864 131.749 145.468 132.969 145.468H134.888C136.108 145.468 137.096 145.864 137.096 146.354V147.514C137.096 148.003 136.108 148.399 134.888 148.399Z" fill="#FFCC3D"/>
<path d="M145.028 148.486H143.109C141.889 148.486 140.9 148.408 140.9 148.312V146.884C140.9 146.788 141.889 146.71 143.109 146.71H145.028C146.248 146.71 147.237 146.788 147.237 146.884V148.312C147.237 148.408 146.248 148.486 145.028 148.486Z" fill="#605EFD"/>
<path d="M52.6492 83.4892C52.996 84.2291 52.8749 85.0173 52.3788 85.2502C51.8827 85.483 51.1992 85.072 50.8523 84.3322C50.5054 83.5923 50.6261 82.8041 51.1222 82.5712C51.6183 82.3384 52.3023 82.7494 52.6492 83.4892Z" fill="#030047"/>
<path d="M59.3562 79.9044C59.7031 80.6442 59.5824 81.4325 59.0863 81.6653C58.5902 81.8981 57.9062 81.4868 57.5593 80.7469C57.2124 80.0071 57.3331 79.2188 57.8292 78.986C58.3253 78.7532 59.0093 79.1645 59.3562 79.9044Z" fill="#030047"/>
</g>
</g>
<defs>
<clipPath id="clip0_4111_3233">
<rect width="160.8" height="160" fill="white" transform="translate(0.599609)"/>
</clipPath>
</defs>
</svg>
