<svg width="298" height="298" viewBox="0 0 298 298" fill="none" xmlns="http://www.w3.org/2000/svg">
<g clip-path="url(#clip0_4072_8898)">
<path d="M152.091 185.724C154.555 185.724 156.553 183.727 156.553 181.263V180.712H147.63V181.263C147.629 183.727 149.626 185.724 152.091 185.724Z" fill="#1F2733"/>
<path d="M152.091 182.503C162.29 182.503 170.556 174.236 170.556 164.038V155.04H133.625V164.038C133.626 174.236 141.893 182.503 152.091 182.503Z" fill="#293241"/>
<path d="M133.304 164.834H170.878C172.212 164.834 173.294 163.752 173.294 162.418V162.293C173.294 160.959 172.212 159.877 170.878 159.877H133.304C131.97 159.877 130.889 160.959 130.889 162.293V162.418C130.889 163.751 131.97 164.834 133.304 164.834ZM133.304 173.005H170.878C172.212 173.005 173.294 171.923 173.294 170.589V170.464C173.294 169.13 172.212 168.048 170.878 168.048H133.304C131.97 168.048 130.889 169.13 130.889 170.464V170.589C130.889 171.923 131.97 173.005 133.304 173.005Z" fill="#1F2733"/>
<path d="M101.989 86.4787C101.989 101.67 108.75 115.281 119.427 124.471C119.427 124.471 119.432 124.475 119.443 124.485C119.91 124.926 130.464 135.053 129.21 152.402C129.083 154.124 130.452 155.588 132.179 155.588H172.005C173.732 155.588 175.1 154.124 174.974 152.402C173.72 135.053 184.272 124.926 184.741 124.485C184.752 124.476 184.757 124.471 184.757 124.471C195.434 115.282 202.195 101.67 202.195 86.4787C202.195 58.8084 179.763 36.377 152.093 36.377C124.42 36.377 101.989 58.8094 101.989 86.4787Z" fill="#FFDE74"/>
<path d="M101.989 86.4787C101.989 101.67 108.75 115.281 119.427 124.471C119.427 124.471 119.432 124.475 119.443 124.485C119.91 124.926 130.464 135.053 129.21 152.402C129.083 154.124 130.452 155.588 132.179 155.588H137.772C136.046 155.588 134.677 154.124 134.803 152.402C136.058 135.053 125.504 124.926 125.037 124.485C125.026 124.476 125.021 124.471 125.021 124.471C114.343 115.282 107.583 101.67 107.583 86.4787C107.583 59.7471 128.518 37.9047 154.888 36.4544C153.962 36.4028 153.03 36.377 152.091 36.377C124.42 36.377 101.989 58.8094 101.989 86.4787Z" fill="#F2A807"/>
<path d="M152.015 27.3277C153.866 20.6415 153.865 10.8214 152.414 4.03598C152.3 3.51845 152.175 3.00093 152.015 2.4834C151.855 3.00093 151.73 3.51845 151.616 4.03598C150.166 10.8175 150.163 20.6376 152.015 27.3277ZM192.824 44.1676C198.86 40.7486 205.803 33.8042 209.576 27.9803C209.861 27.5333 210.139 27.0793 210.391 26.5995C209.912 26.8528 209.458 27.13 209.011 27.4151C203.192 31.1858 196.246 38.1282 192.824 44.1676ZM209.772 84.9331C216.459 86.7836 226.279 86.7826 233.064 85.3324C233.582 85.2181 234.099 85.093 234.617 84.9331C234.099 84.7731 233.582 84.648 233.064 84.5337C226.284 83.0845 216.464 83.0815 209.772 84.9331ZM192.932 125.742C196.352 131.778 203.296 138.722 209.12 142.494C209.567 142.779 210.021 143.057 210.501 143.309C210.247 142.83 209.97 142.376 209.685 141.93C205.914 136.11 198.972 129.163 192.932 125.742ZM111.359 125.85C105.323 129.269 98.38 136.215 94.6074 142.038C94.3223 142.485 94.0441 142.939 93.7918 143.419C94.2706 143.165 94.7256 142.888 95.1726 142.603C100.991 138.832 107.937 131.89 111.359 125.85ZM94.4097 85.086C87.7246 83.2354 77.9035 83.2364 71.118 84.6867C70.6005 84.8009 70.083 84.9261 69.5654 85.086C70.083 85.2459 70.6005 85.3711 71.118 85.4853C77.8995 86.9336 87.7196 86.9366 94.4097 85.086ZM111.251 44.2759C107.832 38.2404 100.887 31.297 95.0633 27.5243C94.6163 27.2393 94.1623 26.9611 93.6826 26.7088C93.9359 27.1876 94.213 27.6425 94.4981 28.0895C98.2688 33.9085 105.21 40.8549 111.251 44.2759Z" fill="#FFDE74"/>
<path d="M90.9 280.21L86.0615 280.383L86.2846 286.647L91.1231 286.474L90.9 280.21Z" fill="#FEB582"/>
<path d="M91.3348 283.787C91.3348 283.787 97.4795 287.7 97.8292 288.011C98.2106 288.35 98.1719 288.57 98.153 288.752C98.0964 289.312 97.6196 289.792 96.9988 289.802L85.7592 289.805C85.6767 289.805 85.6062 289.745 85.5933 289.663C85.5397 289.339 85.4989 289.035 85.4681 288.752C85.2387 286.662 85.5695 284.535 85.8764 283.848C85.9092 283.776 86.0115 283.777 86.0443 283.849C86.9969 285.954 90.0444 285.774 90.9851 283.914C91.0497 283.786 91.2027 283.729 91.3348 283.787Z" fill="#293241"/>
<path d="M98.1536 288.753C98.097 289.313 97.6202 289.793 96.9994 289.803L85.7598 289.806C85.6773 289.806 85.6068 289.746 85.5939 289.664C85.5403 289.34 85.4995 289.037 85.4688 288.753H98.1536Z" fill="#1C232D"/>
<path d="M68.0556 280.198L67.8594 286.463L72.6985 286.614L72.8947 280.35L68.0556 280.198Z" fill="#FEB582"/>
<path d="M73.1062 283.787C73.1062 283.787 79.25 287.7 79.6007 288.011C79.9821 288.35 79.9424 288.57 79.9245 288.752C79.8669 289.312 79.3911 289.792 78.7702 289.802L67.5307 289.805C67.4482 289.805 67.3777 289.745 67.3648 289.663C67.3111 289.339 67.2704 289.035 67.2396 288.752C67.0102 286.662 67.3409 284.535 67.6479 283.848C67.6807 283.776 67.783 283.777 67.8158 283.849C68.7684 285.954 71.8159 285.774 72.7566 283.914C72.8222 283.786 72.9741 283.729 73.1062 283.787Z" fill="#293241"/>
<path d="M79.9251 288.753C79.8675 289.313 79.3917 289.793 78.7708 289.803L67.5313 289.806C67.4488 289.806 67.3783 289.746 67.3654 289.664C67.3118 289.34 67.271 289.037 67.2402 288.753H79.9251Z" fill="#1C232D"/>
<path d="M92.1347 281.502L85.0314 281.664L78.9502 228.659C78.9045 228.368 78.4863 228.364 78.4356 228.654L74.1852 281.584L66.5156 281.665L67.4653 217.527L89.6086 215.96L92.1347 281.502Z" fill="#293241"/>
<path d="M105.624 201.06L102.271 205.207L94.4512 213.96L91.1235 209.35C91.1305 209.169 91.1384 208.987 91.1454 208.809L97.5603 199.678L91.6718 194.223C91.6013 196.516 91.4195 202.079 91.1454 208.809L90.9417 209.098L91.1235 209.35C90.9636 213.168 90.7788 217.34 90.5643 221.495C81.5587 223.192 74.655 222.447 65.9246 220.056C65.9246 220.056 67.6183 211.125 66.6587 196.432C66.5842 195.342 66.5663 194.25 66.5882 193.152L59.9398 198.289L65.6912 208.265L61.7596 212.793L54.7556 203.38L51.7835 198.948C50.6382 197.233 50.9759 194.923 52.5693 193.616L65.8839 182.665C66.1134 182.495 66.3468 182.336 66.5882 182.188C67.4891 181.639 68.4785 181.246 69.5086 181.027L73.5296 180.182L74.7603 179.923C75.1527 179.86 75.5421 179.805 75.9354 179.756C78.081 179.497 80.2495 179.533 82.3842 179.841C83.0368 179.942 83.6884 180.064 84.337 180.212L84.3629 180.223L89.5322 181.657C90.5434 181.942 91.5 182.406 92.3413 183.025C92.5708 183.196 92.8271 183.396 93.0377 183.584L105.319 195.68C106.787 197.124 106.921 199.452 105.624 201.06Z" fill="#5E28E8"/>
<path d="M91.145 208.809C91.1381 208.986 91.1301 209.168 91.1232 209.35L90.9414 209.098L91.145 208.809Z" fill="#5E28E8"/>
<path d="M74.3906 174.23C74.3906 174.23 74.7005 175.741 75.3701 176.43L75.225 174.538L74.5794 173.653L74.3906 174.23Z" fill="#222824"/>
<path d="M74.6797 172.354C74.6797 172.354 74.4681 175.317 75.9859 177.584C76.9177 178.975 78.5616 179.654 80.2245 179.455C83.6743 179.039 85.2418 175.775 83.6227 168.12L77.5107 165.656L73.6387 168.197L74.6797 172.354Z" fill="#FEB582"/>
<path d="M75.8281 176.94L75.99 180.771C76.0626 182.481 77.4612 183.836 79.1737 183.854C81.0699 183.874 82.5729 182.259 82.4159 180.368L82.1914 177.666L75.8281 176.94Z" fill="#FEB582"/>
<path d="M74.6552 172.683C74.6552 172.683 75.3446 172.092 75.0058 170.91C76.2475 170.236 76.767 169.152 75.9018 167.283C75.9018 167.283 82.0386 170.191 84.8766 168.493C84.8766 168.493 86.2027 167.561 85.1418 166.18C84.8955 164.444 84.2647 163.261 82.8621 163.187L81.1387 163.618C81.1387 163.618 78.6126 161.817 76.5574 162.783C76.5574 162.783 73.638 163.814 73.2397 165.309C73.2397 165.309 70.9669 165.577 71.7407 168.238L73.3271 171.919L73.5715 172.952L74.6552 172.683Z" fill="#222824"/>
<path d="M75.2714 172.829C75.4671 173.61 75.1502 174.362 74.5632 174.509C73.9771 174.656 73.3424 174.141 73.1477 173.361C72.952 172.58 73.2689 171.828 73.8559 171.681C74.443 171.534 75.0767 172.048 75.2714 172.829Z" fill="#FEB582"/>
<path d="M84.3596 180.219L83.8034 181.096L81.9538 184.005L81.6687 183.961L79.983 183.7L82.371 179.839H82.376C82.7057 179.889 83.0375 179.945 83.3663 180.007C83.6891 180.07 84.01 180.137 84.3298 180.21L84.3596 180.219ZM78.5029 183.806L76.7457 184.338L76.5928 184.385L74.6359 181.702L73.5273 180.182L74.7571 179.924C74.8624 179.906 74.9677 179.89 75.074 179.872C75.364 179.827 75.662 179.789 75.9491 179.755L75.9541 179.764L78.5029 183.806Z" fill="#1D8BCE"/>
<path d="M80.7326 183.506L79.4442 184.672L78.0039 183.698L79.2933 182.532L80.7326 183.506Z" fill="white"/>
<path d="M78.3601 183.79C78.3601 183.79 78.677 198.849 76.1162 204.657L78.8191 208.892L82.0842 204.994C82.0842 204.994 80.6071 184.441 80.325 183.708L78.3601 183.79Z" fill="white"/>
<path d="M69.8073 212.58C70.0497 212.798 70.0715 213.169 69.854 213.414C69.7387 213.543 69.5758 213.609 69.4139 213.609C69.2768 213.609 69.1358 213.563 69.0235 213.46L69.0643 213.499C69.3394 213.743 69.3613 214.162 69.1189 214.435C68.9898 214.581 68.808 214.657 68.6242 214.657C68.4703 214.657 68.3133 214.603 68.1872 214.489L67.9478 214.278C68.1703 214.525 68.1762 214.908 67.9507 215.161C67.8186 215.31 67.6369 215.383 67.4561 215.383C67.2991 215.383 67.1422 215.329 67.016 215.216L66.8541 215.073C67.1124 215.301 67.1352 215.697 66.9067 215.953C66.7826 216.093 66.6097 216.164 66.4389 216.164H66.4359C66.2879 216.164 66.1419 216.112 66.0237 216.004L63.4331 213.697L62.3076 212.162L65.3939 208.608C65.7436 208.801 66.3048 208.96 66.8928 209.081C67.7123 209.249 68.5845 209.342 69.0077 209.35C69.4368 209.38 69.8411 209.378 70.0199 209.655C70.0805 209.745 70.1162 209.845 70.1321 209.946C70.1957 210.345 69.8848 210.708 69.4835 210.765L67.7918 210.784L69.8073 212.58Z" fill="#FEB582"/>
<path d="M91.145 208.809C91.1381 208.986 91.1301 209.168 91.1232 209.35L90.9414 209.098L91.145 208.809Z" fill="#5E28E8"/>
<path d="M86.4534 213.029C86.1932 213.224 86.1375 213.592 86.3322 213.855C86.4355 213.994 86.5915 214.074 86.7534 214.088C86.8905 214.1 87.0345 214.066 87.1557 213.975L87.111 214.01C86.815 214.229 86.7554 214.644 86.9729 214.937C87.0892 215.094 87.263 215.186 87.4468 215.203C87.5997 215.217 87.7616 215.176 87.8977 215.075L88.155 214.885C87.9106 215.111 87.8709 215.492 88.0735 215.764C88.1918 215.924 88.3656 216.014 88.5464 216.03C88.7023 216.044 88.8632 216.003 88.9993 215.902L89.1742 215.774C88.896 215.979 88.8394 216.371 89.043 216.646C89.1543 216.797 89.3202 216.884 89.49 216.898H89.493C89.641 216.911 89.791 216.873 89.9182 216.776L92.7055 214.709L93.963 213.281L91.2065 209.465C90.841 209.626 90.2678 209.735 89.6708 209.803C88.8394 209.897 87.9623 209.912 87.5401 209.883C87.11 209.875 86.7077 209.836 86.5051 210.096C86.4365 210.182 86.3918 210.277 86.367 210.376C86.2687 210.768 86.5458 211.157 86.9402 211.25L88.6239 211.42L86.4534 213.029Z" fill="#FEB582"/>
<path d="M213.691 280.814L213.482 286.663L218 286.824L218.209 280.975L213.691 280.814Z" fill="#FEB582"/>
<path d="M213.296 284.185C213.296 284.185 207.558 287.84 207.231 288.13C206.875 288.447 206.912 288.652 206.929 288.822C206.983 289.345 207.428 289.794 208.007 289.803L218.503 289.805C218.579 289.805 218.646 289.748 218.658 289.673C218.707 289.37 218.746 289.087 218.775 288.822C218.99 286.87 218.681 284.884 218.394 284.243C218.363 284.175 218.267 284.177 218.237 284.244C217.348 286.21 214.502 286.042 213.623 284.304C213.562 284.185 213.419 284.131 213.296 284.185Z" fill="#293241"/>
<path d="M206.93 288.822C206.983 289.345 207.428 289.794 208.007 289.803L218.503 289.805C218.58 289.805 218.646 289.748 218.658 289.673C218.708 289.37 218.746 289.086 218.775 288.822H206.93Z" fill="#1C232D"/>
<path d="M235.852 280.847L231.334 280.99L231.519 286.84L236.037 286.697L235.852 280.847Z" fill="#FEB582"/>
<path d="M231.143 284.185C231.143 284.185 225.406 287.84 225.079 288.13C224.722 288.447 224.759 288.652 224.777 288.822C224.831 289.345 225.276 289.794 225.855 289.803L236.35 289.805C236.427 289.805 236.493 289.748 236.505 289.673C236.555 289.37 236.594 289.087 236.623 288.822C236.837 286.87 236.528 284.884 236.241 284.243C236.21 284.175 236.115 284.177 236.084 284.244C235.195 286.21 232.349 286.042 231.47 284.304C231.409 284.185 231.266 284.131 231.143 284.185Z" fill="#293241"/>
<path d="M224.776 288.822C224.83 289.345 225.275 289.794 225.854 289.803L236.35 289.805C236.426 289.805 236.493 289.748 236.505 289.673C236.554 289.37 236.593 289.086 236.622 288.822H224.776Z" fill="#1C232D"/>
<path d="M212.11 281.765L219.803 281.917L224.989 232.216C225.032 231.943 225.424 231.939 225.472 232.211L229.457 281.84L237.421 281.917L236.93 221.778L213.941 220.308L212.11 281.765Z" fill="#293241"/>
<path d="M227.28 168.074C227.28 168.074 232.063 166.139 234.159 174.307C234.159 174.307 236.75 181.719 239.264 185.724C239.264 185.724 241.692 192.9 231.799 194.351C231.799 194.351 231.157 187.892 229.2 186.774C226.947 186.415 224.785 186.472 222.767 187.193C222.767 187.193 222.095 189.756 219.435 190.078C219.435 190.078 220.784 184.938 219.696 180.852C219.247 179.166 219.1 177.411 219.355 175.685C219.603 173.999 220.152 172.113 221.332 170.866C221.332 170.868 224.218 166.838 227.28 168.074Z" fill="#222824"/>
<path d="M237.759 225.143C230.096 227.19 221.912 226.976 213.355 225.143C214.028 218.024 214.491 204.132 214.491 204.132V190.083C215.327 189.462 216.144 188.967 217.237 188.509C218.253 188.085 219.314 187.789 220.397 187.602L223.571 187.054C225.469 186.728 227.407 186.685 229.314 186.95C233.058 187.47 234.787 188.32 238.585 190.769C238.135 204.513 237.566 219.819 237.759 225.143Z" fill="#F29DFF"/>
<path d="M229.199 181.669H222.767V187.481C222.767 189.258 224.207 190.698 225.983 190.698C227.759 190.698 229.199 189.258 229.199 187.481V181.669Z" fill="#FCC199"/>
<path d="M225.507 172.57C225.507 172.57 227.012 176.224 231.419 175.723C231.419 175.723 232.691 180.392 230.584 183.523C228.833 186.126 225.077 186.486 222.876 184.252C222.051 183.416 221.554 182.3 221.382 180.905C221.259 179.903 221.363 178.878 221.754 177.948C221.944 177.497 222.176 177.115 222.445 176.796L225.507 172.57Z" fill="#FCC199"/>
<path d="M197.641 185.503C197.67 185.137 197.724 184.799 197.515 184.612C197.445 184.55 197.366 184.506 197.282 184.479C196.955 184.375 196.609 184.591 196.51 184.921L196.277 186.342L195.024 184.418C194.873 184.186 194.562 184.12 194.33 184.272C194.098 184.423 194.032 184.734 194.183 184.967L194.662 185.702L194.155 184.926C193.986 184.666 193.636 184.592 193.376 184.762C193.115 184.932 193.042 185.281 193.212 185.541L193.769 186.394L193.395 185.819C193.225 185.559 192.876 185.484 192.616 185.654C192.356 185.824 192.281 186.173 192.451 186.434L192.733 186.867L192.552 186.589C192.391 186.342 192.062 186.273 191.816 186.433C191.57 186.594 191.5 186.924 191.66 187.169L193.272 189.645L194.988 191.346L198.181 189.266L198.029 189.033L197.9 188.836C197.515 188.244 197.554 186.178 197.641 185.503Z" fill="#FEB582"/>
<path d="M194.003 191.492L203.03 204.056C203.794 205.122 205.181 205.541 206.411 205.072L214.494 202.002L215.195 196.693L214.493 190.083C214.05 190.352 213.635 190.626 213.256 190.985L205.844 197.981L198.436 188.122L194.003 191.492Z" fill="#F29DFF"/>
<path d="M238.195 199.743L244.112 204.154L238.259 213.199L241.527 216.966L248.423 208.387L250.892 204.701C251.848 203.277 251.565 201.358 250.238 200.267L239.17 191.163C238.98 191.021 238.785 190.889 238.585 190.768L238.195 199.743Z" fill="#F29DFF"/>
<path d="M234.837 216.791C234.635 216.972 234.617 217.281 234.798 217.484C234.894 217.592 235.029 217.646 235.163 217.646C235.278 217.646 235.395 217.608 235.488 217.523L235.454 217.555C235.225 217.759 235.206 218.106 235.408 218.333C235.515 218.454 235.666 218.519 235.819 218.519C235.947 218.519 236.077 218.473 236.183 218.379L236.381 218.204C236.196 218.409 236.192 218.727 236.379 218.938C236.49 219.061 236.64 219.123 236.791 219.123C236.921 219.123 237.052 219.078 237.156 218.983L237.291 218.864C237.077 219.054 237.058 219.384 237.247 219.596C237.351 219.712 237.495 219.772 237.636 219.772H237.638C237.761 219.772 237.882 219.728 237.981 219.64L240.135 217.721L241.071 216.444L238.505 213.489C238.215 213.649 237.748 213.782 237.258 213.883C236.577 214.023 235.852 214.1 235.499 214.107C235.143 214.132 234.806 214.13 234.658 214.361C234.607 214.437 234.577 214.519 234.564 214.604C234.512 214.936 234.77 215.238 235.104 215.285L236.51 215.301L234.837 216.791Z" fill="#FEB582"/>
<path d="M142.154 82.8268L146.356 89.5169C146.356 89.5169 161.041 74.2355 169.688 71.1055L170.051 71.5902C170.051 71.5902 155.739 82.9202 146.571 98.7609L136.703 86.7972L142.154 82.8268Z" fill="white"/>
<path d="M152.015 111.316C137.467 111.316 125.632 99.4801 125.632 84.9327C125.632 70.3854 137.467 58.5498 152.015 58.5498C166.562 58.5498 178.398 70.3854 178.398 84.9327C178.398 99.4801 166.562 111.316 152.015 111.316ZM152.015 61.4752C139.081 61.4752 128.557 71.9976 128.557 84.9327C128.557 97.8669 139.08 108.39 152.015 108.39C164.95 108.39 175.472 97.8679 175.472 84.9327C175.472 71.9976 164.949 61.4752 152.015 61.4752Z" fill="white"/>
</g>
<defs>
<clipPath id="clip0_4072_8898">
<rect width="298" height="298" fill="white"/>
</clipPath>
</defs>
</svg>
