<svg width="298" height="298" viewBox="0 0 298 298" fill="none" xmlns="http://www.w3.org/2000/svg">
<g clip-path="url(#clip0_4072_8956)">
<g clip-path="url(#clip1_4072_8956)">
<path d="M220.879 249.3C193.477 246.982 165.417 244.62 138.289 250.541C114.413 255.753 89.0146 257.781 66.4974 246.122C45.9802 235.499 31.2124 211.461 37.0811 189.114C40.0183 177.929 47.5654 168.344 50.2417 157.094C54.2019 140.448 46.9805 123.454 40.8075 107.495C34.6346 91.5365 29.4755 73.1532 37.0989 57.8341C45.051 41.8539 64.8139 34.8526 82.6296 35.9532C100.445 37.0534 117.133 44.5241 133.93 50.5619C150.727 56.6 169.021 61.3113 186.276 56.7426C197.434 53.7885 207.231 47.1765 217.906 42.786C230.028 37.7996 243.868 35.7669 256.285 39.9664C268.703 44.1659 279.129 55.549 279.617 68.6482C280.39 89.4179 258.472 103.854 252.587 123.787C248.324 138.222 253.011 153.742 259.123 167.497C265.234 181.253 272.903 194.686 274.948 209.598C276.351 219.825 274.427 231.137 268.264 239.595C257.371 254.541 236.655 250.635 220.879 249.3Z" fill="#EFD8F3"/>
<path d="M210.426 148.878C210.11 148.878 209.843 148.635 209.818 148.315C209.754 147.485 209.733 146.642 209.757 145.808C209.766 145.471 210.052 145.21 210.385 145.215C210.722 145.225 210.988 145.506 210.978 145.843C210.955 146.634 210.975 147.433 211.036 148.22C211.062 148.556 210.811 148.85 210.474 148.876C210.458 148.878 210.442 148.878 210.426 148.878ZM210.991 141.608C210.946 141.608 210.901 141.603 210.855 141.592C210.526 141.517 210.32 141.19 210.395 140.861C210.751 139.302 211.259 137.709 211.908 136.127C212.035 135.815 212.393 135.666 212.704 135.793C213.017 135.921 213.166 136.278 213.038 136.59C212.415 138.11 211.927 139.638 211.587 141.132C211.522 141.416 211.27 141.608 210.991 141.608ZM214.621 132.597C214.518 132.597 214.414 132.571 214.318 132.517C214.026 132.349 213.924 131.976 214.092 131.683C214.875 130.315 215.776 128.92 216.77 127.536C216.968 127.262 217.35 127.2 217.623 127.397C217.897 127.594 217.959 127.975 217.762 128.249C216.792 129.599 215.914 130.958 215.152 132.29C215.039 132.487 214.833 132.597 214.621 132.597ZM220.278 124.669C220.138 124.669 219.997 124.621 219.882 124.523C219.625 124.304 219.594 123.919 219.813 123.662C220.758 122.552 221.782 121.423 222.857 120.307L223.124 120.031C223.359 119.788 223.747 119.782 223.988 120.016C224.23 120.251 224.237 120.638 224.002 120.88L223.737 121.155C222.68 122.253 221.672 123.363 220.744 124.454C220.622 124.596 220.451 124.669 220.278 124.669ZM227.016 117.624C226.857 117.624 226.698 117.562 226.578 117.439C226.343 117.197 226.348 116.81 226.59 116.575C227.346 115.84 228.106 115.109 228.866 114.377L230.102 113.188C230.346 112.954 230.732 112.96 230.966 113.203C231.2 113.446 231.193 113.833 230.95 114.067L229.714 115.258C228.955 115.988 228.196 116.718 227.442 117.451C227.323 117.566 227.169 117.624 227.016 117.624ZM234.004 110.821C233.849 110.821 233.693 110.762 233.574 110.644C233.335 110.407 233.333 110.02 233.571 109.78C234.826 108.515 235.917 107.365 236.906 106.264C237.131 106.014 237.517 105.992 237.768 106.219C238.019 106.444 238.04 106.83 237.814 107.081C236.812 108.197 235.708 109.361 234.439 110.641C234.319 110.761 234.162 110.821 234.004 110.821ZM240.486 103.544C240.357 103.544 240.225 103.503 240.114 103.417C239.847 103.212 239.797 102.828 240.003 102.561C241.034 101.221 241.93 99.9289 242.743 98.6094C242.92 98.322 243.296 98.2328 243.583 98.4099C243.871 98.5868 243.96 98.9631 243.783 99.2502C242.948 100.606 242.028 101.933 240.971 103.306C240.851 103.462 240.669 103.544 240.486 103.544ZM171.929 97.6204C171.837 97.6204 171.743 97.5994 171.655 97.5551C171.353 97.4035 171.232 97.0365 171.384 96.7352C172.114 95.2813 172.92 93.8335 173.78 92.4319C173.956 92.1442 174.332 92.0546 174.62 92.2305C174.907 92.4067 174.998 92.7831 174.821 93.0708C173.98 94.4429 173.191 95.8603 172.475 97.2835C172.368 97.4969 172.152 97.6204 171.929 97.6204ZM245.522 95.226C245.443 95.226 245.362 95.2101 245.283 95.1768C244.973 95.0446 244.828 94.6861 244.96 94.3757C245.583 92.9146 246.092 91.3915 246.475 89.8484C246.556 89.5212 246.887 89.322 247.215 89.4025C247.542 89.484 247.742 89.8154 247.661 90.1426C247.262 91.7488 246.732 93.334 246.084 94.8542C245.986 95.0866 245.76 95.226 245.522 95.226ZM177.018 89.3152C176.892 89.3152 176.766 89.2768 176.657 89.1972C176.385 88.9981 176.326 88.6156 176.525 88.3434C177.487 87.0304 178.518 85.7343 179.591 84.4915C179.812 84.2364 180.196 84.2076 180.453 84.4281C180.708 84.6486 180.736 85.0343 180.516 85.2897C179.464 86.5083 178.453 87.7786 177.511 89.0653C177.391 89.2286 177.206 89.3152 177.018 89.3152ZM247.852 85.7989C247.836 85.7989 247.82 85.7983 247.805 85.7973C247.468 85.7711 247.216 85.4776 247.243 85.141C247.295 84.4666 247.321 83.7873 247.321 83.1226C247.321 82.1963 247.27 81.2765 247.168 80.3887C247.13 80.0537 247.371 79.7508 247.706 79.7126C248.04 79.6732 248.345 79.9153 248.382 80.2503C248.489 81.1837 248.543 82.1504 248.543 83.1229C248.543 83.8187 248.516 84.5293 248.461 85.2354C248.436 85.5555 248.168 85.7989 247.852 85.7989ZM183.381 81.9386C183.224 81.9386 183.066 81.8782 182.947 81.7576C182.71 81.518 182.711 81.1313 182.951 80.8937C184.109 79.7466 185.331 78.6276 186.58 77.5681C186.837 77.3496 187.223 77.3819 187.441 77.6389C187.659 77.8963 187.627 78.2817 187.37 78.4999C186.145 79.5393 184.947 80.6366 183.811 81.7618C183.692 81.8798 183.536 81.9386 183.381 81.9386ZM246.689 76.1882C246.438 76.1882 246.203 76.033 246.113 75.7834C245.569 74.2665 244.84 72.8665 243.948 71.6224C243.752 71.3483 243.815 70.9665 244.089 70.7702C244.363 70.5743 244.745 70.6364 244.941 70.9105C245.899 72.2464 246.68 73.7469 247.263 75.3706C247.377 75.6881 247.212 76.0379 246.895 76.152C246.827 76.1766 246.757 76.1882 246.689 76.1882ZM190.812 75.6367C190.622 75.6367 190.436 75.549 190.317 75.3842C190.119 75.111 190.18 74.7288 190.453 74.5309C191.779 73.5714 193.156 72.6528 194.547 71.8003C194.835 71.6241 195.211 71.7139 195.388 72.0017C195.564 72.2894 195.474 72.6654 195.186 72.8417C193.821 73.6781 192.47 74.5794 191.17 75.5206C191.061 75.5992 190.936 75.6367 190.812 75.6367ZM199.119 70.5478C198.897 70.5478 198.683 70.4259 198.575 70.2148C198.421 69.9144 198.54 69.5462 198.841 69.3926C200.301 68.6467 201.804 67.9516 203.309 67.3266C203.62 67.1963 203.978 67.3447 204.107 67.6564C204.237 67.9681 204.089 68.3253 203.777 68.4547C202.302 69.0673 200.828 69.7489 199.397 70.4805C199.308 70.5261 199.212 70.5478 199.119 70.5478ZM241.059 68.3952C240.93 68.3952 240.8 68.3544 240.689 68.2701C239.486 67.3519 238.11 66.5714 236.6 65.95C236.288 65.8216 236.139 65.4647 236.268 65.1527C236.396 64.841 236.751 64.6913 237.065 64.8203C238.673 65.4822 240.142 66.316 241.43 67.2985C241.698 67.5032 241.75 67.8866 241.545 68.155C241.425 68.3124 241.243 68.3952 241.059 68.3952ZM208.116 66.8139C207.858 66.8139 207.618 66.6493 207.535 66.391C207.431 66.0699 207.607 65.7256 207.928 65.6215C209.49 65.1155 211.086 64.6703 212.671 64.2985C212.999 64.2219 213.328 64.4253 213.405 64.7537C213.482 65.0822 213.279 65.411 212.95 65.488C211.398 65.852 209.835 66.2882 208.304 66.7838C208.242 66.8042 208.178 66.8139 208.116 66.8139ZM232.163 64.6241C232.124 64.6241 232.085 64.6202 232.045 64.6128C230.567 64.3257 228.968 64.1398 227.293 64.0599C226.956 64.0437 226.695 63.7576 226.712 63.4204C226.728 63.0835 227.007 62.8252 227.351 62.8391C229.085 62.9219 230.743 63.1149 232.278 63.413C232.61 63.4776 232.826 63.798 232.762 64.1294C232.705 64.4214 232.449 64.6241 232.163 64.6241ZM217.598 64.5931C217.3 64.5931 217.039 64.3745 216.994 64.0706C216.945 63.7369 217.176 63.4266 217.51 63.3777C219.138 63.1398 220.788 62.9717 222.412 62.8782C222.754 62.8562 223.038 63.1165 223.057 63.4531C223.077 63.7896 222.819 64.0787 222.482 64.0981C220.893 64.1896 219.28 64.3538 217.687 64.5869C217.657 64.5911 217.627 64.5931 217.598 64.5931ZM169.068 104.386C169.001 104.386 168.934 104.375 168.868 104.352C168.549 104.241 168.38 103.894 168.491 103.575C168.759 102.802 169.048 102.023 169.351 101.259C169.476 100.945 169.831 100.792 170.145 100.917C170.458 101.041 170.612 101.396 170.487 101.71C170.19 102.457 169.907 103.219 169.645 103.975C169.558 104.228 169.321 104.386 169.068 104.386ZM89.9662 134.671C89.906 134.671 89.8449 134.662 89.7845 134.644C89.0021 134.4 88.2129 134.128 87.4392 133.836C87.1236 133.717 86.9642 133.364 87.0835 133.049C87.2028 132.733 87.5566 132.575 87.8711 132.693C88.6225 132.977 89.3884 133.24 90.1479 133.477C90.4702 133.577 90.65 133.92 90.5497 134.242C90.4683 134.504 90.2268 134.671 89.9662 134.671ZM83.1712 131.875C83.0768 131.875 82.9807 131.853 82.8909 131.807C81.4272 131.049 79.985 130.196 78.6044 129.271C78.3241 129.084 78.2491 128.704 78.437 128.424C78.6248 128.144 79.0037 128.069 79.2847 128.257C80.6274 129.156 82.0296 129.985 83.4528 130.722C83.7522 130.877 83.8695 131.245 83.7143 131.545C83.6054 131.754 83.3923 131.875 83.1712 131.875ZM75.0225 126.419C74.8831 126.419 74.7431 126.372 74.6287 126.275C73.3655 125.208 72.1473 124.059 71.0073 122.858C70.7752 122.613 70.7849 122.227 71.0296 121.994C71.2747 121.762 71.6607 121.772 71.8935 122.017C73.0024 123.185 74.1877 124.304 75.4169 125.341C75.6746 125.559 75.7073 125.944 75.4897 126.202C75.3687 126.345 75.1961 126.419 75.0225 126.419ZM68.2731 119.303C68.0881 119.303 67.9055 119.22 67.7855 119.061C66.7833 117.737 65.8492 116.346 65.0099 114.926C64.8379 114.636 64.9343 114.261 65.2246 114.089C65.5156 113.918 65.8896 114.014 66.0613 114.304C66.8773 115.684 67.7852 117.036 68.76 118.324C68.9637 118.593 68.9103 118.976 68.6413 119.18C68.5314 119.263 68.4014 119.303 68.2731 119.303ZM63.2883 110.86C63.0536 110.86 62.8302 110.724 62.729 110.496C62.6216 110.253 62.5172 110.01 62.4141 109.766C61.8796 108.49 61.3998 107.165 60.9896 105.827C60.8906 105.504 61.0714 105.162 61.394 105.063C61.7154 104.966 62.0587 105.145 62.1574 105.468C62.5566 106.768 63.0219 108.055 63.5408 109.292C63.6404 109.529 63.7425 109.766 63.8466 110.002C63.9831 110.311 63.8434 110.671 63.535 110.808C63.4545 110.843 63.3704 110.86 63.2883 110.86ZM60.406 101.488C60.1173 101.488 59.8602 101.283 59.8062 100.988C59.5069 99.3686 59.2957 97.7064 59.1784 96.0482C59.1544 95.7116 59.4079 95.4197 59.7442 95.3957C60.0791 95.3689 60.3733 95.625 60.3969 95.9618C60.5111 97.5748 60.7167 99.1911 61.0073 100.766C61.0691 101.098 60.8496 101.417 60.5178 101.478C60.4803 101.485 60.4428 101.488 60.406 101.488ZM158.585 94.1064C158.366 94.1064 158.153 93.9877 158.044 93.7802C157.295 92.3576 156.475 90.9412 155.609 89.5694C155.429 89.2842 155.514 88.9069 155.799 88.7268C156.083 88.5467 156.462 88.6311 156.642 88.9169C157.525 90.3156 158.36 91.7601 159.125 93.2108C159.282 93.5092 159.168 93.8788 158.869 94.0362C158.779 94.0834 158.681 94.1064 158.585 94.1064ZM59.7138 91.7048C59.7054 91.7048 59.697 91.7048 59.6889 91.7045C59.352 91.6909 59.0895 91.4064 59.103 91.0695C59.1696 89.4155 59.3287 87.7478 59.5764 86.1135C59.6275 85.7799 59.9391 85.5503 60.2721 85.6011C60.6058 85.6515 60.8353 85.9632 60.7849 86.2965C60.544 87.8869 60.3888 89.5092 60.3245 91.1183C60.3109 91.4475 60.04 91.7048 59.7138 91.7048ZM153.345 85.8048C153.159 85.8048 152.975 85.7197 152.855 85.5587C151.893 84.2668 150.866 82.9907 149.804 81.7663C149.583 81.5115 149.61 81.1255 149.865 80.9047C150.121 80.6832 150.506 80.7117 150.727 80.9658C151.809 82.2131 152.855 83.5131 153.835 84.829C154.037 85.0996 153.981 85.4824 153.71 85.6838C153.6 85.7653 153.472 85.8048 153.345 85.8048ZM61.1874 82.0094C61.135 82.0094 61.0817 82.0026 61.0284 81.9884C60.7028 81.9008 60.5094 81.5655 60.5974 81.2399C61.029 79.6341 61.556 78.0431 62.1635 76.5112C62.288 76.1973 62.6433 76.044 62.9569 76.1688C63.2702 76.2933 63.4238 76.6483 63.2993 76.9619C62.7086 78.4501 62.1965 79.9962 61.7768 81.5568C61.7037 81.8297 61.4571 82.0094 61.1874 82.0094ZM146.911 78.3871C146.756 78.3871 146.6 78.3279 146.48 78.2092C145.337 77.0715 144.135 75.9587 142.908 74.9018C142.652 74.6816 142.623 74.2959 142.843 74.0402C143.064 73.7847 143.449 73.7563 143.705 73.9758C144.955 75.0518 146.179 76.185 147.342 77.3434C147.582 77.581 147.583 77.968 147.345 78.2073C147.225 78.3269 147.068 78.3871 146.911 78.3871ZM93.2872 78.0806C93.0467 78.0806 92.8187 77.9377 92.7217 77.7016C92.5937 77.3896 92.7424 77.0327 93.0548 76.9044C94.4026 76.3502 95.5753 75.3001 96.3574 73.9464C96.5268 73.6541 96.8992 73.5542 97.1921 73.723C97.4841 73.8918 97.584 74.2655 97.4152 74.5575C96.499 76.1433 95.1152 77.378 93.5193 78.034C93.443 78.0657 93.3645 78.0806 93.2872 78.0806ZM88.5119 78.0175C88.4295 78.0175 88.3457 78.0007 88.2652 77.9651C86.7198 77.2817 85.3568 76.0298 84.4272 74.4398C84.2569 74.1485 84.3551 73.7744 84.6464 73.604C84.9374 73.434 85.3112 73.5313 85.4822 73.8232C86.2834 75.1931 87.4469 76.2674 88.7593 76.8478C89.068 76.9845 89.2074 77.345 89.0709 77.6535C88.9701 77.8817 88.7463 78.0175 88.5119 78.0175ZM64.8091 72.8986C64.7105 72.8986 64.6103 72.8746 64.5175 72.8242C64.2214 72.6629 64.1114 72.292 64.2728 71.9955C65.0869 70.4986 65.9876 69.0799 66.9501 67.7789C67.1518 67.5074 67.534 67.4505 67.8046 67.6512C68.0759 67.8517 68.1328 68.2342 67.9323 68.5054C67.0031 69.7612 66.1331 71.1317 65.3455 72.5794C65.2353 72.7831 65.0254 72.8986 64.8091 72.8986ZM139.47 71.9794C139.343 71.9794 139.216 71.9403 139.106 71.8588C137.808 70.894 136.46 69.9639 135.097 69.0948C134.812 68.9131 134.729 68.5355 134.91 68.2513C135.092 67.9665 135.469 67.8831 135.754 68.0648C137.141 68.9493 138.514 69.8963 139.835 70.8785C140.105 71.0796 140.162 71.4624 139.961 71.733C139.841 71.8944 139.657 71.9794 139.47 71.9794ZM97.9054 70.1336C97.5892 70.1336 97.3215 69.8898 97.2969 69.5694C97.1834 68.0845 96.6913 66.5753 95.8724 65.2054C95.6994 64.9157 95.7942 64.5407 96.0835 64.3677C96.3726 64.1947 96.7482 64.2888 96.9215 64.5785C97.8362 66.1103 98.3874 67.8038 98.5154 69.4763C98.541 69.8126 98.2891 70.1061 97.9529 70.132C97.9367 70.133 97.9212 70.1336 97.9054 70.1336ZM83.8508 70.0334C83.8336 70.0334 83.8165 70.0327 83.7994 70.0314C83.4634 70.0036 83.2132 69.7081 83.241 69.3722C83.3807 67.6871 83.9607 66.0505 84.9662 64.5077C85.1511 64.2248 85.53 64.1459 85.8116 64.3292C86.0939 64.5132 86.1741 64.8918 85.9898 65.1747C85.0962 66.5462 84.5811 67.992 84.4586 69.4728C84.4324 69.7922 84.1657 70.0334 83.8508 70.0334ZM131.192 66.6988C131.093 66.6988 130.994 66.6748 130.901 66.6247C129.478 65.854 128.01 65.1268 126.539 64.4641C126.231 64.3254 126.094 63.9636 126.233 63.6558C126.371 63.3483 126.733 63.2116 127.041 63.3499C128.539 64.0253 130.033 64.7654 131.482 65.5504C131.779 65.7107 131.89 66.0816 131.729 66.3784C131.619 66.583 131.408 66.6988 131.192 66.6988ZM70.6714 65.0573C70.511 65.0573 70.3507 64.9946 70.2307 64.8698C69.9973 64.6264 70.0047 64.2397 70.2482 64.0059C71.4991 62.8039 72.8308 61.7592 74.2071 60.9009C74.4932 60.7227 74.8702 60.8094 75.0487 61.0958C75.2271 61.3823 75.1402 61.7592 74.8537 61.9377C73.5492 62.7508 72.2844 63.7434 71.0946 64.8866C70.9759 65.0004 70.8237 65.0573 70.6714 65.0573ZM122.241 62.6652C122.171 62.6652 122.101 62.6532 122.031 62.628C120.507 62.0725 118.949 61.5698 117.4 61.134C117.075 61.0428 116.886 60.7053 116.977 60.3803C117.069 60.0554 117.407 59.8663 117.731 59.9578C119.309 60.4017 120.897 60.9138 122.45 61.4799C122.767 61.5953 122.93 61.9461 122.814 62.2633C122.724 62.5113 122.49 62.6652 122.241 62.6652ZM88.8908 61.9561C88.6991 61.9561 88.51 61.8659 88.391 61.6972C88.1967 61.4214 88.263 61.0402 88.5384 60.8459C88.8841 60.6024 89.2413 60.3739 89.606 60.1618C89.2455 60.0276 88.8766 59.9067 88.4987 59.799C88.1741 59.7069 87.9859 59.3687 88.0787 59.0441C88.1708 58.7195 88.5093 58.5313 88.8336 58.6241C89.6018 58.843 90.3383 59.113 91.0392 59.4324C91.7033 59.1366 92.4039 58.8756 93.1281 58.6545C93.4511 58.5562 93.7922 58.7373 93.8908 59.0606C93.9894 59.3832 93.8077 59.7247 93.4854 59.8233C93.1346 59.9303 92.7903 60.0473 92.4537 60.1734C92.7919 60.3752 93.1197 60.5902 93.4366 60.8174C93.7108 61.0143 93.7731 61.3958 93.5766 61.67C93.379 61.9445 92.9969 62.0063 92.7237 61.81C92.1931 61.4288 91.628 61.0864 91.0318 60.7848C91.0302 60.7854 91.0289 60.7861 91.0279 60.7867C90.4107 61.089 89.81 61.445 89.2426 61.8449C89.1353 61.9199 89.0124 61.9561 88.8908 61.9561ZM112.79 60.0108C112.75 60.0108 112.71 60.0066 112.67 59.9988C111.077 59.6817 109.461 59.4259 107.866 59.2384C107.531 59.199 107.291 58.8954 107.33 58.5601C107.37 58.2251 107.674 57.9849 108.009 58.0247C109.636 58.2161 111.284 58.477 112.909 58.8003C113.24 58.8659 113.454 59.188 113.388 59.5187C113.33 59.8094 113.075 60.0108 112.79 60.0108ZM78.972 59.9626C78.7114 59.9626 78.4703 59.7948 78.3885 59.5329C78.2882 59.2109 78.4683 58.8685 78.7907 58.7683C80.3982 58.2681 82.0832 58.0011 83.799 57.9746C83.8023 57.9746 83.8055 57.9746 83.8091 57.9746C84.1418 57.9746 84.4143 58.2416 84.4195 58.5759C84.4246 58.9135 84.1553 59.1912 83.8181 59.1964C82.2187 59.2209 80.6494 59.4696 79.1534 59.9351C79.093 59.9539 79.0322 59.9626 78.972 59.9626ZM98.1284 58.9594C97.8148 58.9594 97.5478 58.7192 97.521 58.4007C97.4919 58.0648 97.7411 57.7686 98.0774 57.7399C99.067 57.6552 100.096 57.6138 101.223 57.6138C101.227 57.6138 101.229 57.6138 101.232 57.6138C101.783 57.6138 102.367 57.6238 102.968 57.6442L103.06 57.6471C103.397 57.6581 103.661 57.9403 103.65 58.2775C103.64 58.6079 103.368 58.8682 103.04 58.8682C103.033 58.8682 103.027 58.8682 103.019 58.8679L102.928 58.865C102.34 58.8453 101.769 58.8352 101.232 58.8352C101.229 58.8352 101.227 58.8352 101.224 58.8352C100.132 58.8352 99.1365 58.875 98.1818 58.9571C98.164 58.9587 98.1462 58.9594 98.1284 58.9594ZM161.632 100.858C161.385 100.858 161.153 100.708 161.06 100.464C160.776 99.7148 160.473 98.9599 160.157 98.2202C160.024 97.9098 160.169 97.5509 160.479 97.4187C160.79 97.2868 161.149 97.4306 161.281 97.741C161.603 98.4963 161.913 99.2667 162.203 100.031C162.322 100.347 162.163 100.699 161.848 100.819C161.777 100.845 161.704 100.858 161.632 100.858Z" fill="#8ABAE7"/>
<path d="M167.377 150.94C183.253 135.063 183.253 109.323 167.376 93.4469C151.5 77.5709 125.76 77.5714 109.884 93.4479C94.0077 109.324 94.0081 135.065 109.885 150.941C125.761 166.817 151.502 166.816 167.377 150.94Z" fill="#8ABAE7"/>
<path d="M176.035 208.497L175.888 211.322L177.108 211.385L177.255 208.561L176.035 208.497Z" fill="black"/>
<path d="M175.712 214.737L175.564 217.561L176.785 217.625L176.932 214.8L175.712 214.737Z" fill="black"/>
<path d="M178.149 212.538L178.085 213.758L180.909 213.905L180.973 212.685L178.149 212.538Z" fill="black"/>
<path d="M171.901 212.203L171.837 213.423L174.661 213.57L174.725 212.35L171.901 212.203Z" fill="black"/>
<path d="M112.124 66.0144L111.977 68.8389L113.197 68.9025L113.344 66.0781L112.124 66.0144Z" fill="black"/>
<path d="M111.792 72.2464L111.644 75.0708L112.864 75.1348L113.012 72.3104L111.792 72.2464Z" fill="black"/>
<path d="M114.237 70.0567L114.173 71.2769L116.997 71.4248L117.061 70.2047L114.237 70.0567Z" fill="black"/>
<path d="M107.993 69.7286L107.93 70.9487L110.754 71.0964L110.818 69.8762L107.993 69.7286Z" fill="black"/>
<path d="M258.948 253.958C258.686 253.958 258.445 253.789 258.364 253.526C258.265 253.204 258.446 252.863 258.768 252.764C258.831 252.744 265.067 250.766 270.536 244.11C279.694 232.965 279.725 217.469 278.138 206.433C278.09 206.099 278.322 205.789 278.656 205.741C278.99 205.691 279.299 205.925 279.347 206.258C280.973 217.565 280.919 233.454 271.431 244.945C265.726 251.854 259.393 253.85 259.126 253.931C259.067 253.95 259.007 253.958 258.948 253.958Z" fill="#4666C9"/>
<path d="M267.528 253.483C267.334 253.483 267.142 253.39 267.024 253.217C266.833 252.939 266.904 252.558 267.183 252.368C267.31 252.281 279.894 243.459 280.978 226.175C280.999 225.838 281.288 225.581 281.625 225.603C281.962 225.624 282.218 225.914 282.197 226.251C281.076 244.149 268.005 253.286 267.873 253.376C267.767 253.448 267.647 253.483 267.528 253.483Z" fill="#4666C9"/>
<path d="M45.9201 100.826C45.7012 100.826 45.4895 100.708 45.3802 100.501C38.2376 87.017 38.5639 71.2266 46.2308 59.2916C54.2276 46.8426 68.8622 40.292 86.3888 41.3133C86.7253 41.333 86.9827 41.6221 86.9627 41.9586C86.9429 42.2955 86.6633 42.5474 86.317 42.5332C69.243 41.5338 55.0103 47.8849 47.2583 59.9521C39.8293 71.5166 39.5234 86.8347 46.4594 99.9287C46.6172 100.227 46.504 100.597 46.2056 100.754C46.1144 100.803 46.0168 100.826 45.9201 100.826Z" fill="white"/>
<path d="M45.476 75.7844C45.4479 75.7844 45.4197 75.7825 45.391 75.7782C45.057 75.7317 44.8239 75.4236 44.8701 75.0896C44.8995 74.8765 48.0553 53.7192 68.054 47.3962C68.3757 47.2947 68.7187 47.4728 68.8209 47.7945C68.9224 48.1162 68.7442 48.4596 68.4226 48.5611C49.1721 54.6477 46.109 75.0524 46.0806 75.2577C46.0376 75.5632 45.7757 75.7844 45.476 75.7844Z" fill="white"/>
<path d="M253.714 61.836C251.604 61.836 249.888 60.1189 249.888 58.0087C249.888 55.8984 251.604 54.1816 253.714 54.1816C255.825 54.1816 257.542 55.8984 257.542 58.0087C257.542 60.1189 255.825 61.836 253.714 61.836ZM253.714 55.4038C252.278 55.4038 251.109 56.5725 251.109 58.009C251.109 59.4454 252.278 60.6145 253.714 60.6145C255.151 60.6145 256.32 59.4454 256.32 58.009C256.32 56.5725 255.151 55.4038 253.714 55.4038Z" fill="black"/>
<path d="M215.644 84.7721C215.565 84.7721 215.487 84.7569 215.413 84.7265L211.094 82.9548C210.782 82.8267 210.633 82.4701 210.761 82.1578C210.889 81.8462 211.245 81.6968 211.558 81.8245L215.221 83.3276L216.172 79.4844C216.214 79.3117 216.33 79.1666 216.488 79.0864C216.647 79.0056 216.832 78.9984 216.996 79.0657L221.315 80.8371C221.628 80.9651 221.777 81.3221 221.649 81.6341C221.521 81.9461 221.165 82.0961 220.852 81.9674L217.188 80.4647L216.237 84.3078C216.195 84.4805 216.079 84.6256 215.921 84.7062C215.834 84.7501 215.739 84.7721 215.644 84.7721Z" fill="#4666C9"/>
<path d="M129.773 113.15H58.252V184.671H129.773V113.15Z" fill="#4666C9"/>
<path d="M129.771 185.402H58.2499C57.8461 185.402 57.5186 185.075 57.5186 184.671V113.15C57.5186 112.746 57.8461 112.418 58.2499 112.418H129.771C130.175 112.418 130.502 112.746 130.502 113.15V184.671C130.502 185.075 130.175 185.402 129.771 185.402ZM58.9815 183.94H129.04V113.881H58.9815V183.94Z" fill="black"/>
<path d="M86.9352 170.521C83.9116 175.54 79.3313 178.327 76.7044 176.744C74.0775 175.162 74.3992 169.81 77.4228 164.791C80.4464 159.771 85.0271 156.985 87.6536 158.567C90.2802 160.15 89.9588 165.501 86.9352 170.521Z" fill="#F57A3E"/>
<path d="M86.4409 167.2C84.579 170.292 81.7581 172.007 80.1406 171.033C78.5231 170.059 78.7209 166.763 80.5829 163.672C82.4448 160.58 85.2657 158.865 86.8832 159.839C88.5007 160.813 88.3029 164.109 86.4409 167.2Z" fill="white"/>
<path d="M97.9179 157.005C95.0737 155.049 91.2968 155.482 88.958 157.862C90.228 157.916 91.4986 158.314 92.6234 159.087C95.8115 161.28 96.6188 165.642 94.4265 168.83C94.1898 169.174 93.9266 169.488 93.6437 169.776C95.9738 169.875 98.302 168.811 99.721 166.747C101.913 163.559 101.106 159.197 97.9179 157.005Z" fill="#F57A3E"/>
<path d="M93.9485 170.514C93.8363 170.514 93.7238 170.511 93.6109 170.507C93.3219 170.494 93.0671 170.313 92.9614 170.044C92.8553 169.775 92.9181 169.469 93.1208 169.263C93.3807 168.999 93.6164 168.714 93.8217 168.415C94.7716 167.034 95.1266 165.366 94.8214 163.718C94.5168 162.069 93.5883 160.639 92.2071 159.689C91.2352 159.021 90.1004 158.642 88.9252 158.592C88.6368 158.58 88.382 158.398 88.2757 158.13C88.1696 157.861 88.2317 157.555 88.4347 157.349C91.0687 154.669 95.2307 154.271 98.3303 156.402C100.033 157.573 101.178 159.337 101.555 161.369C101.931 163.402 101.493 165.459 100.322 167.161C98.8673 169.277 96.5032 170.514 93.9485 170.514ZM90.7079 157.4C91.534 157.627 92.3209 157.992 93.0358 158.484C94.7386 159.655 95.8838 161.419 96.2598 163.451C96.6122 165.356 96.2498 167.282 95.2391 168.918C96.7997 168.594 98.187 167.684 99.1166 166.332C100.066 164.951 100.422 163.283 100.117 161.635C99.8114 159.987 98.8828 158.557 97.5023 157.607C95.4295 156.182 92.7739 156.151 90.7079 157.4Z" fill="black"/>
<path d="M86.5485 149.188C89.3926 151.144 90.3399 154.826 88.9552 157.861C88.4502 156.694 87.6235 155.65 86.499 154.877C83.3108 152.684 78.9487 153.492 76.7564 156.68C76.5197 157.024 76.3202 157.383 76.1528 157.75C75.2262 155.609 75.3872 153.055 76.8062 150.991C78.9982 147.803 83.36 146.996 86.5485 149.188Z" fill="#F57A3E"/>
<path d="M88.9576 158.593C88.955 158.593 88.9528 158.593 88.9505 158.593C88.6615 158.59 88.4015 158.417 88.2864 158.152C87.8189 157.073 87.0582 156.149 86.0873 155.481C83.236 153.52 79.3217 154.244 77.3615 157.095C77.1578 157.392 76.9758 157.714 76.8203 158.054C76.7003 158.317 76.4297 158.468 76.1481 158.482C75.8591 158.479 75.5991 158.306 75.484 158.041C74.4174 155.577 74.6871 152.787 76.2057 150.578C77.377 148.875 79.141 147.73 81.1736 147.354C83.2047 146.978 85.2635 147.417 86.9654 148.587C90.065 150.718 91.1826 154.746 89.6233 158.166C89.504 158.426 89.2438 158.593 88.9576 158.593ZM82.5425 152.916C84.0537 152.916 85.579 153.356 86.9156 154.275C87.6301 154.767 88.2525 155.371 88.7611 156.061C89.1882 153.685 88.2085 151.216 86.1368 149.792C84.7549 148.841 83.0873 148.487 81.4394 148.792C79.7912 149.096 78.3605 150.025 77.411 151.406C76.4811 152.758 76.1287 154.379 76.3841 155.952C77.8927 153.975 80.1998 152.916 82.5425 152.916Z" fill="black"/>
<path d="M106.535 147.486C99.6585 157.485 91.857 164.059 86.9964 160.716C82.1357 157.374 85.4823 147.736 92.3581 137.737C99.2343 127.738 111.896 124.507 111.896 124.507C111.896 124.507 113.41 137.487 106.535 147.486Z" fill="#EFD8F3"/>
<path d="M89.847 162.317C88.655 162.317 87.5606 161.988 86.5838 161.316C81.7678 158.005 83.7022 149.033 91.7571 137.32C98.7089 127.211 111.189 123.93 111.717 123.796C111.922 123.744 112.139 123.782 112.312 123.901C112.486 124.021 112.6 124.21 112.625 124.419C112.688 124.96 114.091 137.788 107.139 147.897C100.718 157.235 94.5318 162.317 89.847 162.317ZM111.24 125.461C108.337 126.38 98.5896 129.966 92.9627 138.148C85.5386 148.944 83.4118 157.36 87.4122 160.111C91.4154 162.864 98.5098 157.863 105.933 147.069C111.569 138.874 111.423 128.499 111.24 125.461Z" fill="black"/>
<path d="M102.864 143.951C103.983 142.324 103.571 140.097 101.944 138.978C100.317 137.859 98.0905 138.272 96.9716 139.898C95.8526 141.526 96.2645 143.752 97.892 144.871C99.5189 145.99 101.745 145.578 102.864 143.951Z" fill="#4666C9"/>
<path d="M99.9105 146.231C99.0696 146.231 98.2202 145.986 97.4766 145.475C96.5287 144.823 95.8911 143.841 95.6816 142.709C95.4721 141.578 95.7159 140.433 96.3677 139.486C97.0194 138.538 98.0017 137.9 99.1329 137.691C100.263 137.48 101.409 137.725 102.357 138.377C104.314 139.723 104.812 142.409 103.466 144.366L103.466 144.367C102.631 145.579 101.282 146.231 99.9105 146.231ZM99.9212 139.082C99.0152 139.082 98.1242 139.513 97.5736 140.314C97.1426 140.941 96.9816 141.696 97.1203 142.443C97.2584 143.19 97.6793 143.839 98.3056 144.269C99.5978 145.158 101.372 144.83 102.261 143.538C103.15 142.245 102.821 140.471 101.529 139.583C101.038 139.244 100.476 139.082 99.9212 139.082Z" fill="black"/>
<path d="M111.895 124.504C111.895 124.504 104.898 126.293 98.4814 131.318L110.333 139.468C112.729 131.678 111.895 124.504 111.895 124.504Z" fill="#F57A3E"/>
<path d="M110.331 140.199C110.185 140.199 110.04 140.156 109.917 140.071L98.0649 131.92C97.8732 131.788 97.7555 131.572 97.7484 131.34C97.7413 131.107 97.8451 130.885 98.0284 130.742C104.491 125.68 111.42 123.87 111.712 123.796C111.916 123.744 112.134 123.782 112.307 123.901C112.481 124.021 112.595 124.21 112.619 124.42C112.654 124.719 113.443 131.837 111.03 139.683C110.961 139.905 110.791 140.082 110.571 140.159C110.493 140.186 110.412 140.199 110.331 140.199ZM99.727 131.288L109.912 138.292C111.463 132.663 111.356 127.466 111.235 125.461C109.319 126.065 104.429 127.826 99.727 131.288Z" fill="black"/>
<path d="M89.1786 161.374C86.669 164.987 83.7912 167.33 82.7505 166.607C81.7098 165.884 82.9008 162.369 85.4101 158.756C87.9196 155.143 90.7974 152.8 91.8381 153.523C92.8788 154.246 91.6881 157.761 89.1786 161.374Z" fill="#F57A3E"/>
<path d="M83.1795 167.462C82.8672 167.462 82.5824 167.382 82.3325 167.208C80.6257 166.022 82.4198 161.78 84.8087 158.34C87.1983 154.9 90.5497 151.74 92.2545 152.923C93.9619 154.109 92.1672 158.352 89.778 161.791H89.7786C87.7385 164.728 84.9994 167.462 83.1795 167.462ZM91.3425 154.108C90.7893 154.108 88.5756 155.481 86.0104 159.174C83.3182 163.051 82.885 165.672 83.1747 166.014C83.5694 166.15 85.8834 164.835 88.5765 160.957C91.2691 157.081 91.7023 154.46 91.4123 154.118C91.3932 154.111 91.3699 154.108 91.3425 154.108Z" fill="black"/>
<path d="M262.122 114.036H190.602V185.557H262.122V114.036Z" fill="white"/>
<path d="M262.121 186.288H190.599C190.196 186.288 189.868 185.961 189.868 185.557V114.036C189.868 113.631 190.196 113.304 190.599 113.304H262.121C262.525 113.304 262.852 113.631 262.852 114.036V185.556C262.852 185.961 262.524 186.288 262.121 186.288ZM191.331 184.825H261.389V114.767H191.331V184.825Z" fill="black"/>
<path d="M207.754 175.462C206.006 175.462 204.588 174.044 204.588 172.295V160.993C204.588 159.244 206.006 157.827 207.754 157.827C209.503 157.827 210.921 159.244 210.921 160.993V172.295C210.921 174.044 209.503 175.462 207.754 175.462Z" fill="#EFD8F3"/>
<path d="M207.752 176.193C205.603 176.193 203.854 174.445 203.854 172.295V160.993C203.854 158.844 205.603 157.095 207.752 157.095C209.901 157.095 211.65 158.844 211.65 160.993V172.295C211.65 174.445 209.901 176.193 207.752 176.193ZM207.752 158.558C206.41 158.558 205.317 159.65 205.317 160.993V172.296C205.317 173.639 206.41 174.731 207.752 174.731C209.095 174.731 210.187 173.639 210.187 172.296V160.993C210.188 159.65 209.095 158.558 207.752 158.558Z" fill="black"/>
<path d="M222.539 175.464H217.77C217.338 175.464 216.988 175.114 216.988 174.681V149.485C216.988 149.053 217.338 148.703 217.77 148.703H222.539C222.971 148.703 223.321 149.053 223.321 149.485V174.682C223.322 175.114 222.971 175.464 222.539 175.464Z" fill="#EFD8F3"/>
<path d="M220.157 176.193C218.008 176.193 216.259 174.444 216.259 172.295V151.867C216.259 149.718 218.008 147.969 220.157 147.969C222.306 147.969 224.054 149.718 224.054 151.867V172.295C224.054 174.444 222.306 176.193 220.157 176.193ZM220.157 149.432C218.814 149.432 217.721 150.524 217.721 151.867V172.295C217.721 173.638 218.814 174.73 220.157 174.73C221.499 174.73 222.592 173.638 222.592 172.295V151.867C222.592 150.524 221.499 149.432 220.157 149.432Z" fill="black"/>
<path d="M234.972 175.46H230.15C229.733 175.46 229.395 175.122 229.395 174.705V139.784C229.395 139.367 229.733 139.028 230.15 139.028H234.972C235.389 139.028 235.728 139.367 235.728 139.784V174.705C235.728 175.122 235.389 175.46 234.972 175.46Z" fill="#EFD8F3"/>
<path d="M232.666 176.192H232.452C230.362 176.192 228.661 174.491 228.661 172.401V142.088C228.661 139.997 230.362 138.297 232.452 138.297H232.666C234.756 138.297 236.456 139.997 236.456 142.088V172.401C236.456 174.491 234.756 176.192 232.666 176.192ZM232.452 139.76C231.168 139.76 230.124 140.804 230.124 142.088V172.401C230.124 173.685 231.168 174.729 232.452 174.729H232.666C233.949 174.729 234.994 173.685 234.994 172.401V142.088C234.994 140.804 233.949 139.76 232.666 139.76H232.452Z" fill="black"/>
<path d="M244.964 175.462C243.216 175.462 241.798 174.044 241.798 172.296V133.486C241.798 131.737 243.216 130.319 244.964 130.319C246.713 130.319 248.131 131.737 248.131 133.486V172.296C248.131 174.044 246.713 175.462 244.964 175.462Z" fill="#EFD8F3"/>
<path d="M244.962 176.194C242.813 176.194 241.064 174.445 241.064 172.296V133.486C241.064 131.337 242.813 129.588 244.962 129.588C247.111 129.588 248.86 131.337 248.86 133.486V172.296C248.86 174.445 247.112 176.194 244.962 176.194ZM244.962 131.051C243.62 131.051 242.527 132.143 242.527 133.486V172.296C242.527 173.639 243.62 174.731 244.962 174.731C246.305 174.731 247.398 173.639 247.398 172.296V133.486C247.398 132.143 246.305 131.051 244.962 131.051Z" fill="black"/>
<path d="M201.021 153.162C200.567 153.162 200.12 152.953 199.834 152.557C199.361 151.903 199.508 150.988 200.162 150.515L239.056 122.383C239.711 121.909 240.625 122.057 241.098 122.711C241.571 123.365 241.424 124.28 240.77 124.753L201.877 152.885C201.618 153.072 201.318 153.162 201.021 153.162Z" fill="#F57A3E"/>
<path d="M240.582 128.398C239.774 128.398 239.119 127.743 239.119 126.936V123.955H236.137C235.33 123.955 234.675 123.3 234.675 122.492C234.675 121.684 235.329 121.029 236.137 121.029H240.582C241.39 121.029 242.045 121.684 242.045 122.492V126.936C242.045 127.743 241.39 128.398 240.582 128.398Z" fill="#F57A3E"/>
<path d="M262.122 185.556H190.602V257.077H262.122V185.556Z" fill="#8ABAE7"/>
<path d="M262.121 257.807H190.599C190.196 257.807 189.868 257.48 189.868 257.076V185.556C189.868 185.151 190.196 184.824 190.599 184.824H262.121C262.525 184.824 262.852 185.151 262.852 185.556V257.076C262.852 257.48 262.524 257.807 262.121 257.807ZM191.331 256.345H261.389V186.287H191.331V256.345Z" fill="black"/>
<path d="M225.668 198.831H244.077C246.671 198.831 248.774 200.934 248.774 203.528V216.776C248.774 219.37 246.671 221.474 244.077 221.474V227.815L237.736 221.474H225.668C223.074 221.474 220.971 219.37 220.971 216.776V203.528C220.971 200.933 223.074 198.831 225.668 198.831Z" fill="white"/>
<path d="M208.64 244.533C208.545 244.533 208.45 244.515 208.36 244.477C208.086 244.364 207.908 244.097 207.908 243.801V238.142C205.26 237.784 203.211 235.508 203.211 232.763V219.515C203.211 216.521 205.646 214.086 208.64 214.086H227.049C230.042 214.086 232.477 216.521 232.477 219.515V232.763C232.477 235.756 230.042 238.192 227.049 238.192H215.284L209.157 244.318C209.017 244.459 208.829 244.533 208.64 244.533ZM208.64 215.549C206.453 215.549 204.674 217.328 204.674 219.515V232.764C204.674 234.95 206.453 236.73 208.64 236.73C209.043 236.73 209.371 237.057 209.371 237.461V242.037L214.464 236.944C214.601 236.807 214.787 236.73 214.981 236.73H227.049C229.235 236.73 231.015 234.95 231.015 232.764V219.515C231.015 217.328 229.236 215.549 227.049 215.549H208.64Z" fill="black"/>
<path d="M212.805 226.981C212.805 226.263 212.224 225.681 211.506 225.681C210.788 225.681 210.206 226.263 210.206 226.981C210.206 227.698 210.788 228.28 211.506 228.28C212.224 228.28 212.805 227.698 212.805 226.981ZM219.277 226.981C219.277 226.263 218.696 225.681 217.978 225.681C217.26 225.681 216.678 226.263 216.678 226.981C216.678 227.698 217.26 228.28 217.978 228.28C218.696 228.28 219.277 227.698 219.277 226.981ZM225.749 226.981C225.749 226.263 225.168 225.681 224.45 225.681C223.732 225.681 223.15 226.263 223.15 226.981C223.15 227.698 223.732 228.28 224.45 228.28C225.168 228.28 225.749 227.698 225.749 226.981ZM237.11 209.972C237.11 209.254 236.528 208.672 235.81 208.672C235.092 208.672 234.511 209.254 234.511 209.972C234.511 210.689 235.092 211.271 235.81 211.271C236.528 211.271 237.11 210.689 237.11 209.972Z" fill="#4666C9"/>
<path d="M44.0121 225.162H16.085V254.729H44.0121V225.162Z" fill="#8ABAE7"/>
<path d="M44.0105 255.03H16.0833C15.9256 255.03 15.7979 254.895 15.7979 254.728V225.161C15.7979 224.994 15.9259 224.859 16.0833 224.859H44.0105C44.1683 224.859 44.296 224.994 44.296 225.161V254.728C44.296 254.895 44.1683 255.03 44.0105 255.03ZM16.3688 254.425H43.725V225.463H16.3688V254.425Z" fill="black"/>
<path d="M40.2136 222.659C42.6259 222.659 44.5815 221.34 44.5815 219.713C44.5815 218.086 42.6259 216.767 40.2136 216.767C37.8013 216.767 35.8457 218.086 35.8457 219.713C35.8457 221.34 37.8013 222.659 40.2136 222.659Z" fill="white"/>
<path d="M37.4703 223.02C37.4645 223.02 37.4587 223.02 37.4529 223.019C37.1516 223.01 36.9149 222.759 36.9246 222.457C37.0148 219.575 38.7358 218.116 40.0717 217.415C39.0717 217.166 38.2337 217.088 38.0326 217.264C37.4425 217.78 36.6145 219.5 36.3452 220.119C36.225 220.395 35.9036 220.521 35.6272 220.402C35.3507 220.281 35.224 219.96 35.3443 219.684C35.4532 219.433 36.4341 217.212 37.3135 216.443C37.5618 216.226 38.6284 215.613 41.9278 216.851C42.157 216.937 42.3009 217.165 42.2799 217.409C42.2589 217.652 42.0778 217.853 41.8373 217.898C41.6876 217.927 38.1351 218.662 38.0151 222.491C38.0064 222.786 37.7639 223.02 37.4703 223.02Z" fill="black"/>
<path d="M39.9774 223.02C39.6761 223.02 39.4316 222.776 39.4316 222.475C39.4316 221.358 39.7485 220.495 40.3734 219.911C41.2399 219.101 42.3699 219.168 42.4181 219.171C42.7187 219.191 42.946 219.451 42.9256 219.752C42.9053 220.051 42.6411 220.276 42.3482 220.26C42.3272 220.26 41.6195 220.233 41.1103 220.716C40.7204 221.087 40.5228 221.678 40.5228 222.475C40.5231 222.776 40.2787 223.02 39.9774 223.02ZM58.5027 177.034C54.9437 172.767 60.0229 170.329 60.0229 170.329C60.9372 167.383 62.1561 168.094 65.9146 169.618C69.673 171.142 70.5874 173.783 72.5175 178.151C74.4477 182.519 83.082 181.808 86.9423 186.176C90.8023 190.544 89.6649 200.271 80.3394 201.21C65.2036 202.734 58.5027 177.034 58.5027 177.034Z" fill="black"/>
<path d="M76.8851 211.367C76.8851 211.367 68.7588 229.042 68.5554 234.121C68.3524 239.2 79.8282 249.968 79.8282 249.968V262.158L88.2973 249.17L81.3546 234.121C81.3546 234.121 94.9666 225.994 94.9666 217.055C94.9666 208.116 87.6526 203.24 87.6526 203.24L76.8851 211.367Z" fill="#4666C7"/>
<path d="M83.7032 227.233L76.8856 211.368L47.8333 243.874L41.7383 238.906C41.7383 238.906 43.9184 247.616 47.0616 255.031C61.8737 240.624 71.4365 240.555 84.098 226.809" fill="#4666C7"/>
<path d="M87.6506 203.241C81.7576 198.633 77.4925 198.263 73.8355 190.238C71.6222 185.381 63.2711 190.374 63.9481 201.074C64.6254 211.774 72.0748 215.566 72.0748 215.566L87.6506 203.241Z" fill="#F37A3E"/>
<path d="M68.5533 191.322C68.5533 191.322 54.7408 210.555 41.7383 215.567C41.7383 215.567 42.2801 219.901 44.1764 221.797C44.1764 221.797 64.7094 216.918 72.7547 203.241C75.4637 198.636 75.3227 187.801 68.5533 191.322Z" fill="#F37A3E"/>
<path d="M45.1923 225.018H27.1108C26.8771 225.018 26.6689 224.869 26.5939 224.648L20.0924 205.415C19.9958 205.129 20.149 204.819 20.4345 204.723C20.7203 204.627 21.0297 204.78 21.1261 205.065L27.502 223.927H45.1919C45.4933 223.927 45.7377 224.171 45.7377 224.473C45.7377 224.774 45.4936 225.018 45.1923 225.018Z" fill="black"/>
<path d="M62.8355 188.375C65.4695 188.375 67.6047 184.79 67.6047 180.368C67.6047 175.945 65.4695 172.36 62.8355 172.36C60.2016 172.36 58.0664 175.945 58.0664 180.368C58.0664 184.79 60.2016 188.375 62.8355 188.375Z" fill="white"/>
<path d="M62.839 188.921C59.859 188.921 57.5244 185.164 57.5244 180.368C57.5244 175.572 59.8587 171.815 62.839 171.815C65.8196 171.815 68.1542 175.572 68.1542 180.368C68.1539 185.164 65.8192 188.921 62.839 188.921ZM62.839 172.906C60.5499 172.906 58.6159 176.323 58.6159 180.368C58.6159 184.413 60.5499 187.83 62.839 187.83C65.1287 187.83 67.0627 184.413 67.0627 180.368C67.0627 176.323 65.1283 172.906 62.839 172.906Z" fill="black"/>
<path d="M66.048 172.232C68.3516 173.562 69.5365 175.822 68.6946 177.28C67.8527 178.738 65.3027 178.842 62.9992 177.512C60.6956 176.182 59.5107 173.922 60.3526 172.464C61.1945 171.006 63.7444 170.902 66.048 172.232ZM51.532 251.509C51.3351 251.509 51.145 251.402 51.0477 251.215L47.351 244.126C47.2116 243.859 47.3154 243.529 47.5825 243.389C47.8499 243.25 48.1793 243.354 48.3187 243.621L52.0154 250.711C52.1547 250.978 52.0509 251.307 51.7839 251.446C51.7034 251.489 51.6171 251.509 51.532 251.509ZM79.8307 250.514C79.628 250.514 79.433 250.4 79.3389 250.206C79.2076 249.935 79.3211 249.608 79.5924 249.477L86.8174 245.982C87.0896 245.85 87.4152 245.964 87.5464 246.236C87.6774 246.507 87.5642 246.833 87.2927 246.964L80.068 250.459C79.9914 250.496 79.9102 250.514 79.8307 250.514ZM70.3001 239.393C70.1265 239.393 69.9552 239.31 69.8498 239.156C67.4081 235.591 66.5391 231.945 76.3095 214.453C76.4566 214.19 76.7893 214.096 77.0518 214.243C77.315 214.389 77.4091 214.722 77.2623 214.985C67.7987 231.928 68.5397 235.311 70.7502 238.539C70.9206 238.788 70.8572 239.127 70.6086 239.297C70.5139 239.362 70.4062 239.393 70.3001 239.393ZM66.8013 210.873C66.6374 210.873 66.4754 210.8 66.3681 210.66C66.1844 210.421 66.229 210.079 66.468 209.895C66.5384 209.841 73.5203 204.37 73.8569 195.702C73.8685 195.401 74.1142 195.169 74.4236 195.178C74.7246 195.19 74.9594 195.443 74.9477 195.744C74.5905 204.935 67.4372 210.527 67.133 210.76C67.0334 210.837 66.917 210.873 66.8013 210.873Z" fill="black"/>
<path d="M72.784 208.976H68.7811C68.4798 208.976 68.2354 208.732 68.2354 208.43C68.2354 208.129 68.4798 207.884 68.7811 207.884H72.784C73.0853 207.884 73.3297 208.128 73.3297 208.43C73.3294 208.731 73.0853 208.976 72.784 208.976Z" fill="black"/>
<path d="M236.213 94.5605L227.463 100.044L216.264 97.7982C216.264 97.7982 213.814 101.91 214.981 106.343C214.981 106.343 225.522 112.15 228.359 110.763C231.197 109.376 241.579 103.66 241.579 103.66L236.213 94.5605Z" fill="#F37A3E"/>
<path d="M228.165 110.766C228.165 110.766 233.415 96.0749 236.214 94.5583C239.014 93.0416 251.497 87.7921 254.996 90.9417C258.496 94.0914 264.329 110.657 259.663 114.04C254.997 117.423 244.782 114.974 244.782 114.974C244.782 114.974 234.902 117.569 228.165 110.766Z" fill="#F37A3E"/>
<path d="M251.974 107.919C251.958 107.919 251.943 107.918 251.927 107.916L240.888 106.808C240.63 106.782 240.441 106.552 240.467 106.294C240.493 106.035 240.728 105.843 240.982 105.873L251.33 106.912L249.422 100.288C249.351 100.039 249.494 99.778 249.744 99.7062C249.993 99.6338 250.254 99.778 250.326 100.028L252.426 107.319C252.469 107.469 252.435 107.63 252.335 107.75C252.245 107.858 252.113 107.919 251.974 107.919Z" fill="black"/>
<path d="M239.973 107.245C239.973 107.245 243.794 110.424 243.094 114.623L240.936 115.489V118.357C240.936 118.357 239.011 120.106 233.878 118.357C233.878 118.357 231.049 108.995 239.973 107.245ZM216.613 98.5248C216.613 98.5248 213.404 96.95 210.43 99.5164C208.968 100.778 208.563 104.241 209.613 105.758C210.663 107.274 214.979 107.624 216.613 98.5248ZM251.419 83.7583C250.558 87.6703 247.921 90.4152 245.53 89.8886C243.139 89.3622 241.899 85.7641 242.76 81.8517C243.622 77.9397 246.258 75.1948 248.649 75.7215C251.04 76.2478 252.28 79.8459 251.419 83.7583Z" fill="white"/>
<path d="M246.141 90.4265C245.903 90.4265 245.665 90.4013 245.428 90.3493C242.744 89.7579 241.369 85.982 242.301 81.7524C242.735 79.777 243.62 78.0176 244.791 76.7984C246.021 75.5177 247.428 74.9726 248.749 75.2643C250.071 75.5553 251.119 76.6403 251.697 78.3189C252.248 79.9177 252.312 81.8857 251.877 83.8611C251.028 87.7169 248.598 90.4265 246.141 90.4265ZM248.05 76.1282C247.199 76.1282 246.3 76.5847 245.469 77.4492C244.416 78.5459 243.617 80.1456 243.218 81.9542C242.414 85.6073 243.496 88.9613 245.63 89.4311C247.765 89.8999 250.155 87.3114 250.959 83.6587C251.357 81.8498 251.304 80.0619 250.809 78.6248C250.341 77.2675 249.538 76.4001 248.547 76.1818C248.384 76.1459 248.218 76.1282 248.05 76.1282Z" fill="black"/>
<path d="M250.432 84.3793C251.881 84.3793 253.057 82.3359 253.057 79.8151C253.057 77.2944 251.881 75.251 250.432 75.251C248.982 75.251 247.807 77.2944 247.807 79.8151C247.807 82.3359 248.982 84.3793 250.432 84.3793Z" fill="black"/>
<path d="M211.683 107.046C211.517 107.046 211.356 106.958 211.27 106.801C209.592 103.726 210.646 100.99 210.692 100.875C210.788 100.634 211.061 100.517 211.302 100.612C211.543 100.708 211.661 100.98 211.566 101.221C211.555 101.249 210.637 103.678 212.095 106.351C212.22 106.579 212.136 106.864 211.908 106.988C211.837 107.027 211.759 107.046 211.683 107.046ZM213.2 106.386C213.018 106.386 212.845 106.28 212.769 106.103C211.396 102.941 212.438 100.112 212.483 99.9928C212.575 99.75 212.847 99.6284 213.089 99.7199C213.332 99.8117 213.454 100.082 213.363 100.325C213.353 100.35 212.415 102.929 213.631 105.729C213.734 105.967 213.625 106.244 213.387 106.347C213.326 106.373 213.262 106.386 213.2 106.386ZM233.877 118.827C233.657 118.827 233.461 118.673 233.416 118.45C232.689 114.821 233.109 111.917 234.665 109.82C236.667 107.121 239.795 106.791 239.928 106.778C240.186 106.753 240.416 106.942 240.441 107.201C240.466 107.459 240.277 107.689 240.019 107.714C239.982 107.717 237.156 108.03 235.412 110.39C234.027 112.264 233.666 114.914 234.338 118.265C234.389 118.52 234.224 118.767 233.97 118.818C233.938 118.825 233.907 118.827 233.877 118.827Z" fill="black"/>
<path d="M236.151 119.375C235.91 119.375 235.705 119.191 235.684 118.946L235.233 113.762C235.21 113.503 235.401 113.275 235.66 113.253C235.914 113.229 236.147 113.421 236.169 113.68L236.62 118.864C236.643 119.123 236.451 119.351 236.193 119.373C236.179 119.375 236.165 119.375 236.151 119.375ZM238.593 119.598C238.352 119.598 238.148 119.415 238.125 119.171L237.683 114.288C237.659 114.03 237.85 113.801 238.108 113.778C238.369 113.757 238.595 113.945 238.619 114.203L239.061 119.086C239.085 119.345 238.894 119.573 238.636 119.596C238.621 119.598 238.607 119.598 238.593 119.598ZM240.935 118.828C240.696 118.828 240.491 118.645 240.468 118.402L240.031 113.765C240.006 113.507 240.196 113.277 240.455 113.253C240.715 113.226 240.942 113.418 240.967 113.677L241.404 118.314C241.428 118.572 241.239 118.801 240.98 118.826C240.965 118.827 240.95 118.828 240.935 118.828ZM209.614 106.229C209.419 106.229 209.238 106.108 209.17 105.914C208.071 102.766 208.53 99.9379 210.398 98.3505C212.051 96.9447 214.519 96.8536 216.838 98.1132C217.066 98.237 217.15 98.5225 217.026 98.7504C216.902 98.979 216.617 99.0624 216.389 98.9392C214.391 97.8539 212.379 97.9008 211.007 99.0666C209.447 100.393 209.092 102.837 210.058 105.604C210.143 105.849 210.014 106.117 209.769 106.203C209.717 106.22 209.665 106.229 209.614 106.229Z" fill="black"/>
<path d="M214.689 104.958C214.483 104.958 214.293 104.821 214.236 104.612C213.41 101.584 214.404 99.5894 214.446 99.506C214.564 99.2748 214.849 99.1833 215.079 99.302C215.309 99.4196 215.401 99.7022 215.284 99.9327C215.268 99.9657 214.421 101.72 215.143 104.365C215.211 104.615 215.064 104.874 214.813 104.942C214.772 104.953 214.731 104.958 214.689 104.958Z" fill="black"/>
<path d="M228.16 111.237C228.08 111.237 227.999 111.217 227.925 111.174C227.7 111.044 227.624 110.756 227.754 110.532L237.65 93.4326C237.78 93.2076 238.068 93.131 238.292 93.2612C238.517 93.3912 238.593 93.6786 238.463 93.9033L228.567 111.003C228.48 111.153 228.322 111.237 228.16 111.237Z" fill="black"/>
<path d="M252.895 84.5524C252.479 85.8395 251.34 86.6239 250.351 86.3038C249.363 85.9837 248.899 84.6808 249.316 83.3937C249.733 82.1066 250.872 81.3222 251.86 81.6423C252.849 81.9621 253.312 83.265 252.895 84.5524Z" fill="white"/>
<path d="M250.802 86.8428C250.602 86.8428 250.404 86.8127 250.209 86.7497C249.962 86.6698 249.826 86.4047 249.907 86.158C249.986 85.9113 250.251 85.7755 250.498 85.8557C251.224 86.0904 252.12 85.4277 252.451 84.4066C252.62 83.8819 252.625 83.3436 252.465 82.891C252.319 82.4823 252.054 82.1975 251.718 82.0885C251.382 81.9796 251 82.0555 250.643 82.3016C250.247 82.5741 249.935 83.0129 249.766 83.5376C249.686 83.7846 249.421 83.9207 249.174 83.8399C248.927 83.76 248.792 83.4952 248.872 83.2482C249.105 82.5276 249.545 81.9165 250.11 81.5276C250.714 81.1121 251.388 80.9938 252.008 81.1946C252.628 81.395 253.105 81.8858 253.351 82.5764C253.581 83.223 253.579 83.976 253.345 84.6963C252.927 85.9857 251.864 86.8428 250.802 86.8428Z" fill="black"/>
<path d="M251.704 78.2194L242.86 78.5789C243.342 76.0707 249.321 71.0251 251.704 78.2194Z" fill="black"/>
<path d="M165.539 184.326H94.0176V255.847H165.539V184.326Z" fill="#EFD8F3"/>
<path d="M165.537 256.577H94.0155C93.6117 256.577 93.2842 256.25 93.2842 255.846V184.326C93.2842 183.922 93.6117 183.594 94.0155 183.594H165.537C165.941 183.594 166.268 183.922 166.268 184.326V255.846C166.268 256.25 165.941 256.577 165.537 256.577ZM94.7468 255.115H164.805V185.057H94.7468V255.115Z" fill="black"/>
<path d="M149.277 217.747L152.415 215.597C151.541 212.905 151.607 213.11 150.732 210.418L146.929 210.523C145.757 208.909 145.349 208.348 144.177 206.734L145.452 203.15C143.162 201.486 143.336 201.613 141.046 199.949L138.032 202.269C136.134 201.653 135.475 201.439 133.577 200.822L132.502 197.173C129.672 197.173 129.887 197.173 127.057 197.173L125.982 200.822C124.084 201.439 123.424 201.653 121.527 202.269L118.512 199.949C116.222 201.613 116.397 201.486 114.107 203.15L115.382 206.734C114.209 208.348 113.802 208.909 112.629 210.523L108.826 210.418C107.952 213.11 108.018 212.905 107.144 215.597L110.282 217.747C110.282 219.742 110.282 220.436 110.282 222.43L107.144 224.581C108.018 227.273 107.952 227.068 108.826 229.76L112.629 229.654C113.802 231.268 114.21 231.83 115.382 233.444L114.107 237.028C116.397 238.692 116.223 238.565 118.512 240.229L121.527 237.909C123.424 238.525 124.084 238.739 125.982 239.356L127.057 243.005C129.887 243.005 129.672 243.005 132.502 243.005L133.577 239.356C135.475 238.739 136.134 238.525 138.032 237.909L141.046 240.229C143.336 238.565 143.162 238.692 145.452 237.028L144.177 233.444C145.349 231.83 145.757 231.268 146.929 229.654L150.732 229.76C151.607 227.068 151.54 227.273 152.415 224.581L149.277 222.43C149.277 220.435 149.277 219.741 149.277 217.747ZM129.78 226.402C126.293 226.402 123.466 223.575 123.466 220.088C123.466 216.601 126.293 213.774 129.78 213.774C133.267 213.774 136.094 216.601 136.094 220.088C136.094 223.576 133.267 226.402 129.78 226.402Z" fill="#8ABAE7"/>
<path d="M132.5 243.735H127.055C126.73 243.735 126.445 243.521 126.353 243.21L125.387 239.931L121.666 238.722L118.956 240.807C118.699 241.004 118.343 241.009 118.08 240.819L113.675 237.618C113.413 237.428 113.307 237.087 113.416 236.781L114.562 233.561L112.262 230.395L108.844 230.49C108.522 230.514 108.229 230.293 108.128 229.985L106.446 224.806C106.346 224.498 106.461 224.16 106.728 223.977L109.549 222.044V218.132L106.728 216.2C106.461 216.017 106.346 215.679 106.446 215.371L108.128 210.191C108.228 209.883 108.521 209.67 108.844 209.687L112.262 209.781L114.562 206.616L113.416 203.394C113.307 203.089 113.413 202.748 113.675 202.557L118.08 199.357C118.343 199.167 118.699 199.17 118.956 199.369L121.666 201.454L125.387 200.245L126.353 196.966C126.445 196.655 126.73 196.441 127.055 196.441H132.5C132.825 196.441 133.11 196.655 133.202 196.966L134.168 200.245L137.889 201.454L140.598 199.369C140.855 199.171 141.211 199.167 141.474 199.357L145.88 202.557C146.142 202.748 146.248 203.089 146.139 203.394L144.993 206.616L147.292 209.781L150.71 209.687C151.04 209.67 151.326 209.883 151.426 210.191L153.109 215.371C153.209 215.679 153.094 216.017 152.827 216.2L150.006 218.132V222.044L152.827 223.977C153.094 224.16 153.209 224.498 153.109 224.806L151.426 229.985C151.326 230.293 151.039 230.513 150.71 230.49L147.292 230.395L144.993 233.561L146.139 236.781C146.248 237.087 146.142 237.427 145.88 237.618L141.474 240.819C141.211 241.01 140.854 241.004 140.598 240.807L137.889 238.722L134.168 239.931L133.202 243.21C133.11 243.521 132.825 243.735 132.5 243.735ZM127.602 242.272H131.953L132.874 239.147C132.942 238.916 133.12 238.733 133.349 238.659L137.803 237.211C138.034 237.137 138.284 237.18 138.475 237.327L141.056 239.314L144.577 236.756L143.485 233.687C143.404 233.46 143.441 233.207 143.582 233.012L146.335 229.223C146.477 229.028 146.702 228.908 146.947 228.922L150.204 229.012L151.548 224.873L148.861 223.032C148.662 222.896 148.543 222.671 148.543 222.429V217.746C148.543 217.504 148.662 217.278 148.861 217.142L151.548 215.301L150.204 211.162L146.947 211.252C146.703 211.271 146.477 211.146 146.335 210.951L143.582 207.162C143.441 206.967 143.404 206.715 143.485 206.487L144.577 203.418L141.056 200.86L138.475 202.847C138.284 202.995 138.033 203.037 137.803 202.963L133.349 201.516C133.12 201.441 132.942 201.258 132.874 201.027L131.953 197.903H127.602L126.681 201.027C126.613 201.258 126.435 201.441 126.206 201.516L121.752 202.963C121.521 203.037 121.27 202.994 121.079 202.847L118.498 200.86L114.977 203.418L116.069 206.487C116.151 206.715 116.114 206.967 115.972 207.162L113.22 210.951C113.078 211.146 112.853 211.27 112.608 211.252L109.351 211.162L108.006 215.301L110.693 217.142C110.893 217.278 111.012 217.504 111.012 217.746V222.429C111.012 222.671 110.893 222.896 110.693 223.032L108.006 224.873L109.351 229.012L112.608 228.922C112.854 228.909 113.078 229.028 113.22 229.223L115.972 233.012C116.114 233.207 116.151 233.46 116.069 233.687L114.977 236.756L118.498 239.314L121.079 237.327C121.271 237.18 121.522 237.138 121.752 237.211L126.206 238.659C126.435 238.733 126.613 238.916 126.681 239.147L127.602 242.272ZM129.777 227.133C125.893 227.133 122.733 223.973 122.733 220.087C122.733 216.203 125.893 213.042 129.777 213.042C133.662 213.042 136.822 216.203 136.822 220.087C136.822 223.973 133.662 227.133 129.777 227.133ZM129.777 214.505C126.7 214.505 124.195 217.009 124.195 220.087C124.195 223.166 126.7 225.67 129.777 225.67C132.856 225.67 135.36 223.166 135.36 220.087C135.36 217.009 132.856 214.505 129.777 214.505Z" fill="black"/>
<path d="M152.683 135.162C157.183 132.955 161.2 137.571 161.653 140.357H153.75L152.683 135.162Z" fill="white"/>
<path d="M161.65 140.878C161.423 140.878 161.213 140.728 161.148 140.498C160.484 138.144 159.348 136.558 157.772 135.781C155.451 134.638 152.9 135.635 152.875 135.646C152.608 135.753 152.304 135.623 152.196 135.356C152.089 135.089 152.217 134.785 152.484 134.677C152.605 134.629 155.478 133.495 158.222 134.839C160.081 135.75 161.404 137.558 162.154 140.214C162.232 140.491 162.07 140.779 161.793 140.858C161.745 140.872 161.697 140.878 161.65 140.878Z" fill="black"/>
<path d="M159.643 140.877C159.449 140.877 159.262 140.768 159.172 140.581L157.79 137.694C157.666 137.433 157.775 137.122 158.035 136.997C158.296 136.872 158.607 136.982 158.732 137.243L160.114 140.129C160.238 140.39 160.129 140.701 159.869 140.826C159.796 140.861 159.719 140.877 159.643 140.877ZM157.57 140.877C157.381 140.877 157.199 140.774 157.106 140.594L155.648 137.771C155.516 137.515 155.616 137.2 155.872 137.067C156.128 136.935 156.443 137.036 156.576 137.292L158.033 140.116C158.166 140.372 158.065 140.687 157.809 140.819C157.733 140.859 157.651 140.877 157.57 140.877Z" fill="black"/>
<path d="M164.543 142.202H147.713C147.203 142.202 146.79 141.789 146.79 141.28C146.79 140.77 147.203 140.357 147.713 140.357H164.543C165.053 140.357 165.466 140.77 165.466 141.28C165.466 141.789 165.053 142.202 164.543 142.202Z" fill="#4666C7"/>
<path d="M163.702 140.861L171.331 125.859C171.562 125.405 172.117 125.224 172.572 125.455C173.026 125.686 173.207 126.242 172.976 126.696L165.347 141.698C165.116 142.152 164.561 142.333 164.106 142.103C163.652 141.871 163.471 141.316 163.702 140.861Z" fill="#4666C7"/>
<path d="M134.636 175.713C134.636 175.713 156.274 143.522 160.161 143.522C165.344 143.522 186.853 157.961 186.853 157.961L190.611 151.402C192.943 160.682 187.89 168.457 187.89 168.457L169.361 160.569C166.381 171.178 152.681 195.278 134.636 175.713Z" fill="black"/>
<path d="M134.636 175.713L146.791 158.463C146.791 158.463 137.616 130.363 130.36 132.436C123.104 134.51 122.327 159.905 134.636 175.713Z" fill="#F37A3E"/>
<path d="M127.448 144.874C127.448 144.874 138.235 155.952 141.636 155.563C145.037 155.175 156.116 140.889 156.116 140.889C156.116 140.889 156.056 137.324 151.781 134.505L141.895 143.521C141.895 143.521 136.455 134.959 133.312 133.018C128.905 130.297 123.075 138.169 127.448 144.874Z" fill="#F37A3E"/>
<path d="M141.225 156.181C140.205 156.181 138.245 155.292 133.803 151.503C130.772 148.918 127.977 146.149 127.949 146.121C127.745 145.918 127.743 145.588 127.946 145.383C128.15 145.178 128.48 145.177 128.685 145.38C128.712 145.407 131.483 148.152 134.485 150.712C140.149 155.543 141.275 155.163 141.385 155.104C143.522 153.953 144.64 153.027 144.651 153.018C144.872 152.833 145.201 152.862 145.386 153.083C145.571 153.304 145.542 153.633 145.321 153.818C145.273 153.859 144.121 154.816 141.88 156.024C141.711 156.115 141.502 156.181 141.225 156.181ZM188.925 169.762C188.842 169.762 188.757 169.742 188.678 169.699C188.425 169.563 188.33 169.246 188.467 168.992C193.73 159.223 191.368 151.329 191.343 151.25C191.258 150.975 191.411 150.682 191.686 150.596C191.961 150.509 192.254 150.663 192.34 150.938C192.446 151.275 194.869 159.309 189.386 169.488C189.291 169.662 189.111 169.762 188.925 169.762Z" fill="black"/>
<path d="M141.439 122.2L137.807 118.575C137.807 118.575 134.247 114.118 131.081 115.138C128.348 116.019 127.608 120.446 129.277 124.605C130.945 128.764 134.458 131.269 137.123 130.201C139.273 129.338 140.213 126.413 139.62 123.13L141.439 122.2Z" fill="white"/>
<path d="M135.846 130.965C133.211 130.965 130.278 128.509 128.79 124.8C127.661 121.984 127.562 118.951 128.532 116.884C129.065 115.749 129.89 114.974 130.919 114.642C134.298 113.553 137.868 117.823 138.194 118.226L141.806 121.831C141.924 121.949 141.979 122.116 141.953 122.281C141.927 122.446 141.824 122.589 141.675 122.665L140.195 123.422C140.707 126.888 139.574 129.78 137.315 130.686C136.845 130.875 136.351 130.965 135.846 130.965ZM132.072 115.508C131.792 115.508 131.513 115.547 131.24 115.636C130.493 115.876 129.884 116.461 129.477 117.328C128.626 119.141 128.734 121.855 129.76 124.411C131.318 128.297 134.535 130.677 136.927 129.716C138.767 128.978 139.662 126.308 139.105 123.223C139.064 122.997 139.177 122.77 139.381 122.666L140.561 122.062L137.437 118.944C137.424 118.931 137.411 118.916 137.399 118.901C137.368 118.863 134.649 115.508 132.072 115.508Z" fill="black"/>
<path d="M130.907 127.491C132.948 127.491 134.603 124.76 134.603 121.39C134.603 118.021 132.948 115.29 130.907 115.29C128.866 115.29 127.212 118.021 127.212 121.39C127.212 124.76 128.866 127.491 130.907 127.491Z" fill="black"/>
<path d="M134.607 123.121C135.34 124.408 135.15 125.898 134.182 126.449C133.214 127 131.836 126.403 131.103 125.116C130.37 123.829 130.561 122.339 131.528 121.788C132.496 121.237 133.874 121.834 134.607 123.121Z" fill="white"/>
<path d="M134.182 126.449C133.214 127 131.836 126.403 131.103 125.116C130.37 123.829 130.561 122.339 131.528 121.788C132.496 121.237 133.875 121.834 134.607 123.121" fill="white"/>
<path d="M133.395 127.172C132.38 127.172 131.29 126.502 130.647 125.374C129.773 123.839 130.052 122.026 131.268 121.334C132.484 120.641 134.185 121.327 135.059 122.862C135.201 123.113 135.114 123.431 134.863 123.574C134.612 123.717 134.294 123.629 134.151 123.379C133.572 122.362 132.488 121.84 131.784 122.241C131.081 122.642 130.975 123.84 131.555 124.857C132.134 125.875 133.218 126.396 133.922 125.995C134.172 125.852 134.491 125.939 134.634 126.19C134.776 126.441 134.689 126.759 134.439 126.902C134.116 127.085 133.761 127.172 133.395 127.172Z" fill="black"/>
<path d="M132.628 119.285C134.9 119.285 136.742 118.023 136.742 116.466C136.742 114.91 134.9 113.648 132.628 113.648C130.356 113.648 128.515 114.91 128.515 116.466C128.515 118.023 130.356 119.285 132.628 119.285Z" fill="black"/>
<path d="M215.366 112.916H190.915L184.606 92.6152H209.058L215.366 112.916Z" fill="#4666C7"/>
<path d="M215.366 113.33H191.369C191.14 113.33 190.954 113.144 190.954 112.915C190.954 112.687 191.14 112.501 191.369 112.501H215.366C215.594 112.501 215.78 112.687 215.78 112.915C215.78 113.144 215.594 113.33 215.366 113.33Z" fill="black"/>
<path d="M228.885 113.33H215.366C215.184 113.33 215.024 113.212 214.97 113.039L208.753 93.0297H184.606C184.377 93.0297 184.191 92.8441 184.191 92.6152C184.191 92.3863 184.377 92.2007 184.606 92.2007H209.058C209.24 92.2007 209.4 92.319 209.454 92.492L215.671 112.501H228.885C229.114 112.501 229.299 112.687 229.299 112.915C229.3 113.144 229.114 113.33 228.885 113.33Z" fill="black"/>
<path d="M201.9 102.391C202.404 104.049 201.957 105.654 200.901 105.975C199.845 106.296 198.58 105.213 198.076 103.554C197.571 101.896 198.018 100.292 199.074 99.9704C200.13 99.6494 201.395 100.733 201.9 102.391Z" fill="#88B8E5"/>
</g>
</g>
<defs>
<clipPath id="clip0_4072_8956">
<rect width="280" height="280" fill="white" transform="translate(9 9)"/>
</clipPath>
<clipPath id="clip1_4072_8956">
<rect width="280" height="280" fill="white" transform="translate(9 9)"/>
</clipPath>
</defs>
</svg>
