<svg width="298" height="298" viewBox="0 0 298 298" fill="none" xmlns="http://www.w3.org/2000/svg">
<g clip-path="url(#clip0_4072_9101)">
<path d="M256.775 242.119H48.9406C44.8806 236.057 39.6006 226.051 38.6006 213.013C36.2006 181.693 60.7206 160.999 63.6186 158.635C73.2186 150.803 77.5086 152.671 91.4066 145.113C133.543 122.199 132.245 95.2614 157.587 92.7534C177.057 90.8254 197.641 104.753 207.683 118.153C214.649 127.445 212.617 131.239 221.529 142.713C233.343 157.925 240.507 155.879 252.483 169.865C257.533 175.763 268.797 189.163 269.283 207.965C269.665 222.245 262.917 234.199 256.775 242.119Z" fill="#EED6FF"/>
<path d="M24.8799 241.249H278.316V242.987H24.8799V241.249Z" fill="#161E31"/>
<path d="M121.141 150.207C122.697 150.028 123.814 148.621 123.635 147.065C123.456 145.509 122.049 144.393 120.493 144.572C118.937 144.751 117.821 146.157 118 147.713C118.179 149.269 119.585 150.386 121.141 150.207Z" fill="#AA97FF"/>
<path d="M278.33 229.979C278.69 228.455 277.746 226.927 276.221 226.568C274.697 226.208 273.169 227.152 272.81 228.676C272.45 230.201 273.394 231.728 274.918 232.088C276.443 232.448 277.97 231.504 278.33 229.979Z" fill="#AA97FF"/>
<path d="M152.369 229.929C152.703 228.399 151.734 226.887 150.204 226.553C148.673 226.219 147.162 227.188 146.828 228.719C146.494 230.249 147.463 231.76 148.993 232.094C150.524 232.429 152.035 231.459 152.369 229.929Z" fill="#AA97FF"/>
<path d="M269.231 188.344C270.797 188.344 272.067 187.074 272.067 185.508C272.067 183.942 270.797 182.672 269.231 182.672C267.664 182.672 266.395 183.942 266.395 185.508C266.395 187.074 267.664 188.344 269.231 188.344Z" fill="#574B90"/>
<path d="M134.779 219.045C136.346 219.045 137.615 217.775 137.615 216.209C137.615 214.643 136.346 213.373 134.779 213.373C133.213 213.373 131.943 214.643 131.943 216.209C131.943 217.775 133.213 219.045 134.779 219.045Z" fill="#574B90"/>
<path d="M46.1435 230.443C46.7482 228.998 46.0672 227.337 44.6223 226.732C43.1775 226.128 41.516 226.809 40.9113 228.254C40.3066 229.698 40.9877 231.36 42.4325 231.965C43.8774 232.569 45.5389 231.888 46.1435 230.443Z" fill="#574B90"/>
<path d="M110.012 131.295C111.447 130.694 112.124 129.043 111.523 127.607C110.922 126.172 109.272 125.495 107.836 126.096C106.4 126.697 105.723 128.347 106.324 129.783C106.925 131.219 108.576 131.896 110.012 131.295Z" fill="#FC85AE"/>
<path d="M155.14 207.682C155.14 208.24 154.975 208.784 154.665 209.248C154.355 209.711 153.915 210.072 153.4 210.286C152.885 210.499 152.319 210.555 151.772 210.446C151.226 210.337 150.723 210.069 150.329 209.675C149.935 209.281 149.667 208.779 149.558 208.232C149.449 207.685 149.505 207.119 149.718 206.604C149.932 206.089 150.293 205.649 150.756 205.339C151.22 205.03 151.765 204.864 152.322 204.864C152.692 204.864 153.058 204.937 153.4 205.079C153.742 205.22 154.053 205.428 154.315 205.69C154.576 205.951 154.784 206.262 154.925 206.604C155.067 206.946 155.14 207.312 155.14 207.682Z" fill="#FC85AE"/>
<path d="M30.4319 213.4C30.4319 213.957 30.2666 214.502 29.957 214.965C29.6473 215.429 29.2072 215.79 28.6923 216.003C28.1774 216.216 27.6108 216.272 27.0641 216.163C26.5175 216.055 26.0154 215.786 25.6213 215.392C25.2272 214.998 24.9588 214.496 24.85 213.949C24.7413 213.403 24.7971 212.836 25.0104 212.321C25.2237 211.806 25.5849 211.366 26.0483 211.056C26.5117 210.747 27.0566 210.582 27.6139 210.582C28.3613 210.582 29.078 210.878 29.6065 211.407C30.135 211.935 30.4319 212.652 30.4319 213.4Z" fill="#AA97FF"/>
<path d="M248.565 64.958H176.567C171.401 64.958 167.213 69.1459 167.213 74.312V231.792C167.213 236.958 171.401 241.146 176.567 241.146H248.565C253.731 241.146 257.919 236.958 257.919 231.792V74.312C257.919 69.1459 253.731 64.958 248.565 64.958Z" fill="#161E31"/>
<path d="M241.073 64.958H168.039C163.159 64.958 159.203 68.914 159.203 73.794V232.31C159.203 237.19 163.159 241.146 168.039 241.146H241.073C245.953 241.146 249.909 237.19 249.909 232.31V73.794C249.909 68.914 245.953 64.958 241.073 64.958Z" fill="white"/>
<path d="M240.555 241.58H168.555C165.957 241.58 163.466 240.549 161.629 238.713C159.791 236.878 158.758 234.388 158.755 231.79V74.3142C158.755 71.715 159.787 69.2224 161.625 67.3845C163.463 65.5467 165.956 64.5142 168.555 64.5142H240.555C243.154 64.5142 245.647 65.5467 247.485 67.3845C249.322 69.2224 250.355 71.715 250.355 74.3142V231.8C250.35 234.396 249.315 236.883 247.477 238.717C245.64 240.55 243.151 241.58 240.555 241.58ZM168.559 65.4002C166.194 65.4028 163.927 66.3434 162.254 68.0157C160.582 69.6879 159.642 71.9552 159.639 74.3202V231.8C159.642 234.165 160.582 236.432 162.254 238.105C163.927 239.777 166.194 240.717 168.559 240.72H240.559C242.924 240.717 245.191 239.777 246.863 238.105C248.536 236.432 249.476 234.165 249.479 231.8V74.3142C249.476 71.9492 248.536 69.6819 246.863 68.0097C245.191 66.3374 242.924 65.3968 240.559 65.3942L168.559 65.4002Z" fill="#161E31"/>
<path d="M255.959 91.0721V106.22H252.477V91.0721C252.492 90.6206 252.682 90.1927 253.007 89.8787C253.332 89.5647 253.766 89.3892 254.218 89.3892C254.669 89.3892 255.103 89.5647 255.428 89.8787C255.753 90.1927 255.943 90.6206 255.959 91.0721ZM246.561 223.334V226.114C246.561 227.25 246.337 228.375 245.902 229.425C245.467 230.474 244.83 231.428 244.026 232.231C243.223 233.035 242.269 233.672 241.219 234.106C240.17 234.541 239.045 234.764 237.909 234.764H171.335C169.04 234.764 166.84 233.853 165.218 232.231C163.596 230.608 162.685 228.408 162.685 226.114V223.334H246.561ZM252.477 109H255.959V128.674C255.943 129.126 255.753 129.554 255.428 129.868C255.103 130.182 254.669 130.357 254.218 130.357C253.766 130.357 253.332 130.182 253.007 129.868C252.682 129.554 252.492 129.126 252.477 128.674V109ZM254.263 172.376C254.034 172.376 253.807 172.332 253.596 172.244C253.385 172.157 253.193 172.029 253.031 171.867C252.869 171.706 252.741 171.514 252.653 171.302C252.566 171.091 252.521 170.865 252.521 170.636V144C252.521 143.538 252.705 143.096 253.031 142.77C253.358 142.443 253.801 142.26 254.263 142.26C254.724 142.261 255.166 142.444 255.492 142.77C255.819 143.097 256.002 143.539 256.003 144V170.636C256.003 171.098 255.819 171.54 255.493 171.867C255.167 172.193 254.724 172.376 254.263 172.376Z" fill="#381A8A"/>
<path d="M203.024 72.3827C204.519 72.3827 205.73 71.1712 205.73 69.6767C205.73 68.1822 204.519 66.9707 203.024 66.9707C201.53 66.9707 200.318 68.1822 200.318 69.6767C200.318 71.1712 201.53 72.3827 203.024 72.3827Z" fill="#161E31"/>
<path d="M247.099 81.1855V84.1335H162.639V81.1855C162.641 79.0988 163.471 77.0984 164.947 75.6228C166.422 74.1471 168.422 73.3167 170.509 73.3135H239.225C241.312 73.3156 243.313 74.1456 244.789 75.6213C246.266 77.0971 247.096 79.0982 247.099 81.1855Z" fill="#381A8A"/>
<path d="M239.225 73.3135H170.509C168.422 73.3167 166.422 74.1471 164.947 75.6228C163.471 77.0984 162.641 79.0988 162.639 81.1855V226.811C162.642 228.898 163.472 230.897 164.947 232.372C166.423 233.847 168.423 234.677 170.509 234.679H239.225C241.311 234.678 243.312 233.849 244.789 232.374C246.265 230.899 247.095 228.898 247.099 226.811V81.1855C247.096 79.0982 246.266 77.0971 244.789 75.6213C243.313 74.1456 241.312 73.3156 239.225 73.3135ZM246.575 226.811C246.573 228.76 245.798 230.628 244.42 232.006C243.042 233.384 241.173 234.159 239.225 234.161H170.509C168.56 234.159 166.692 233.384 165.314 232.006C163.937 230.628 163.161 228.76 163.159 226.811V81.1855C163.161 79.2369 163.937 77.369 165.314 75.9912C166.692 74.6133 168.56 73.8381 170.509 73.8355H239.225C241.173 73.8376 243.042 74.6126 244.42 75.9906C245.798 77.3685 246.573 79.2368 246.575 81.1855V226.811Z" fill="#161E31"/>
<path d="M223.404 80.1187V77.6507C223.405 77.2606 223.56 76.8867 223.836 76.6111C224.112 76.3355 224.486 76.1807 224.876 76.1807H234.758C235.148 76.1812 235.522 76.3362 235.797 76.6118C236.073 76.8874 236.228 77.261 236.228 77.6507V80.1187C236.228 80.5087 236.073 80.8828 235.798 81.1588C235.522 81.4348 235.148 81.5901 234.758 81.5907H224.884C224.69 81.5915 224.498 81.554 224.319 81.4804C224.139 81.4068 223.976 81.2985 223.839 81.1618C223.701 81.025 223.592 80.8625 223.518 80.6835C223.443 80.5045 223.405 80.3126 223.404 80.1187ZM224.876 76.9827C224.699 76.9827 224.529 77.053 224.403 77.1782C224.278 77.3034 224.207 77.4733 224.206 77.6507V80.1187C224.206 80.2964 224.277 80.4668 224.403 80.5924C224.528 80.7181 224.699 80.7887 224.876 80.7887H234.758C234.936 80.7881 235.106 80.7174 235.231 80.5918C235.357 80.4663 235.428 80.2962 235.428 80.1187V77.6507C235.428 77.4733 235.357 77.3034 235.231 77.1782C235.106 77.053 234.936 76.9827 234.758 76.9827H224.876Z" fill="white"/>
<path d="M235.841 77.6505V80.1185C235.842 80.2591 235.814 80.3983 235.761 80.5283C235.707 80.6582 235.628 80.7763 235.529 80.8757C235.429 80.9751 235.311 81.0539 235.181 81.1076C235.051 81.1613 234.912 81.1888 234.771 81.1885H229.771V76.5885H234.771C235.054 76.5885 235.325 76.7001 235.525 76.8991C235.726 77.098 235.839 77.3681 235.841 77.6505ZM172.451 75.4765V82.1825C172.452 82.2012 172.452 82.2199 172.451 82.2385C172.437 82.3763 172.373 82.504 172.269 82.5965H170.987C170.885 82.5035 170.82 82.3761 170.805 82.2385C170.804 82.2199 170.804 82.2012 170.805 82.1825V75.4765C170.805 75.328 170.864 75.1855 170.969 75.0805C171.074 74.9755 171.217 74.9165 171.365 74.9165H171.897C172.045 74.9181 172.186 74.9778 172.29 75.0826C172.393 75.1875 172.451 75.329 172.451 75.4765ZM175.539 76.2365V82.2105C175.54 82.2198 175.54 82.2292 175.539 82.2385C175.533 82.375 175.474 82.5036 175.373 82.5965H174.057C173.957 82.5036 173.898 82.375 173.891 82.2385C173.89 82.2292 173.89 82.2198 173.891 82.2105V76.2365C173.891 76.0959 173.947 75.9611 174.047 75.8617C174.146 75.7623 174.281 75.7065 174.421 75.7065H175.021C175.16 75.7096 175.292 75.7669 175.388 75.8659C175.485 75.965 175.539 76.098 175.539 76.2365ZM178.625 76.9265V82.2385C178.626 82.3053 178.612 82.3715 178.586 82.433C178.56 82.4945 178.522 82.5501 178.473 82.5965H177.125C177.078 82.5498 177.04 82.4941 177.014 82.4326C176.989 82.3711 176.975 82.3051 176.975 82.2385V76.9265C176.975 76.7934 177.028 76.6657 177.122 76.5715C177.217 76.4774 177.344 76.4245 177.477 76.4245H178.123C178.257 76.4245 178.384 76.4774 178.478 76.5715C178.573 76.6657 178.625 76.7934 178.625 76.9265Z" fill="white"/>
<path d="M170.227 82.2388H178.985V82.5968H170.227V82.2388Z" fill="white"/>
<path d="M217.417 181.103H191.677C189.081 181.103 186.977 183.207 186.977 185.803V210.547C186.977 213.143 189.081 215.247 191.677 215.247H217.417C220.012 215.247 222.117 213.143 222.117 210.547V185.803C222.117 183.207 220.012 181.103 217.417 181.103Z" fill="#EED6FF"/>
<path d="M218.43 183.6V207.652C218.43 208.839 217.958 209.978 217.118 210.818C216.278 211.658 215.139 212.13 213.952 212.13H189.902C188.898 212.13 187.923 211.792 187.135 211.172C186.346 210.551 185.788 209.683 185.552 208.708C185.467 208.362 185.424 208.007 185.424 207.652V183.6C185.424 182.412 185.896 181.273 186.735 180.433C187.575 179.593 188.714 179.122 189.902 179.122H213.952C215.139 179.122 216.278 179.594 217.118 180.434C217.957 181.273 218.429 182.412 218.43 183.6Z" fill="#AA97FF"/>
<path d="M193.21 191.029H194.464L198.324 201.501H196.74L193.838 193.053L190.934 201.501H189.35L193.21 191.029ZM191.132 197.799H196.64V199.199H191.132V197.799ZM199.91 191.029H201.38V201.501H199.91V191.029ZM200.668 196.041H204.01C204.304 196.048 204.594 195.97 204.846 195.817C205.089 195.665 205.283 195.445 205.404 195.185C205.534 194.886 205.602 194.564 205.602 194.237C205.602 193.911 205.534 193.588 205.404 193.289C205.282 193.028 205.089 192.808 204.846 192.653C204.595 192.498 204.304 192.419 204.01 192.425H200.662V191.025H203.96C204.535 191.013 205.104 191.15 205.61 191.425C206.079 191.686 206.462 192.077 206.714 192.551C206.972 193.075 207.107 193.651 207.107 194.235C207.107 194.819 206.972 195.396 206.714 195.919C206.462 196.392 206.079 196.781 205.61 197.039C205.103 197.312 204.535 197.45 203.96 197.439H200.662L200.668 196.041ZM209.094 191.029H210.564V201.501H209.094V191.029ZM209.85 196.041H213.21C213.503 196.048 213.793 195.97 214.044 195.817C214.287 195.665 214.481 195.445 214.604 195.185C214.734 194.886 214.802 194.564 214.802 194.237C214.802 193.911 214.734 193.588 214.604 193.289C214.481 193.024 214.282 192.8 214.033 192.647C213.785 192.493 213.496 192.416 213.204 192.425H209.85V191.025H213.148C213.723 191.012 214.292 191.15 214.798 191.425C215.267 191.686 215.652 192.077 215.904 192.551C216.161 193.075 216.296 193.651 216.296 194.235C216.296 194.819 216.161 195.395 215.904 195.919C215.651 196.392 215.267 196.781 214.798 197.039C214.291 197.313 213.723 197.45 213.148 197.439H209.85V196.041Z" fill="white"/>
<path d="M226.854 103.404H180.894C176.417 103.404 172.788 107.033 172.788 111.51V149.97C172.788 154.447 176.417 158.076 180.894 158.076H226.854C231.331 158.076 234.96 154.447 234.96 149.97V111.51C234.96 107.033 231.331 103.404 226.854 103.404Z" fill="#AA97FF"/>
<path d="M227.847 159.043H179.899C177.758 159.04 175.705 158.188 174.19 156.674C172.676 155.16 171.824 153.107 171.821 150.965V110.517C171.824 108.375 172.676 106.322 174.19 104.808C175.705 103.294 177.758 102.442 179.899 102.439H227.847C229.989 102.442 232.042 103.294 233.556 104.808C235.071 106.322 235.923 108.375 235.925 110.517V150.965C235.923 153.107 235.071 155.16 233.556 156.674C232.042 158.188 229.989 159.04 227.847 159.043ZM179.899 104.369C178.27 104.371 176.707 105.02 175.555 106.172C174.403 107.325 173.755 108.887 173.753 110.517V150.965C173.755 152.594 174.404 154.156 175.556 155.309C176.708 156.461 178.27 157.109 179.899 157.111H227.847C229.477 157.109 231.039 156.461 232.191 155.309C233.343 154.156 233.991 152.594 233.993 150.965V110.517C233.992 108.887 233.344 107.325 232.192 106.172C231.039 105.02 229.477 104.371 227.847 104.369H179.899Z" fill="#AA97FF"/>
<path d="M192.019 149.565L213.467 120.525L209.941 117.705L186.557 145.237C186.257 145.593 186.031 146.007 185.893 146.453C185.755 146.899 185.708 147.367 185.755 147.832C185.802 148.296 185.941 148.746 186.165 149.155C186.389 149.565 186.693 149.925 187.058 150.215C187.424 150.505 187.844 150.718 188.294 150.842C188.744 150.967 189.214 151 189.676 150.939C190.139 150.878 190.585 150.725 190.987 150.489C191.39 150.253 191.741 149.939 192.019 149.565ZM188.447 148.453C188.194 148.249 188.006 147.975 187.908 147.665C187.81 147.355 187.807 147.022 187.898 146.71C187.989 146.398 188.171 146.12 188.42 145.911C188.669 145.702 188.975 145.571 189.298 145.536C189.621 145.501 189.948 145.562 190.236 145.713C190.524 145.863 190.762 146.095 190.918 146.381C191.074 146.666 191.142 146.991 191.114 147.315C191.085 147.639 190.961 147.947 190.757 148.201C190.484 148.54 190.088 148.757 189.654 148.805C189.221 148.852 188.787 148.725 188.447 148.453Z" fill="white"/>
<path d="M219.552 121.452C218.781 122.406 217.787 123.154 216.657 123.63C215.527 124.106 214.297 124.296 213.076 124.181C211.855 124.066 210.682 123.652 209.66 122.974C208.638 122.296 207.8 121.375 207.22 120.295C206.64 119.215 206.337 118.007 206.336 116.781C206.336 115.555 206.639 114.348 207.219 113.267C207.798 112.187 208.635 111.266 209.657 110.587C210.678 109.909 211.851 109.494 213.072 109.378C213.147 109.375 213.222 109.393 213.287 109.429C213.352 109.466 213.406 109.521 213.442 109.587C213.478 109.653 213.495 109.727 213.49 109.802C213.485 109.877 213.46 109.949 213.416 110.01L210.938 113.108C210.314 113.89 210.025 114.887 210.136 115.88C210.247 116.874 210.747 117.784 211.528 118.408L212.688 119.336C213.47 119.961 214.467 120.249 215.461 120.139C216.456 120.028 217.365 119.527 217.99 118.746L220.454 115.662C220.504 115.606 220.569 115.565 220.642 115.544C220.715 115.522 220.792 115.522 220.864 115.543C220.937 115.564 221.002 115.605 221.052 115.662C221.103 115.718 221.136 115.788 221.148 115.862C221.272 116.854 221.195 117.86 220.92 118.82C220.646 119.781 220.181 120.676 219.552 121.452ZM220.074 146.268L208.488 132.54C208.096 132.076 207.542 131.777 206.939 131.705C206.335 131.633 205.727 131.793 205.236 132.152C204.741 132.516 204.405 133.055 204.295 133.659C204.186 134.263 204.312 134.886 204.648 135.4L214.464 150.4C215.064 151.32 216.876 151.12 218.464 149.958C220.052 148.796 220.788 147.114 220.074 146.268Z" fill="white"/>
<path d="M192.371 115.746L193.678 114.788L207.891 134.179L206.584 135.137L192.371 115.746Z" fill="white"/>
<path d="M194.809 117.399L194.527 117.599C194.37 117.715 194.191 117.798 194.001 117.845C193.811 117.891 193.614 117.9 193.421 117.87C193.228 117.841 193.042 117.773 192.875 117.672C192.708 117.57 192.563 117.437 192.447 117.279L190.445 114.039L192.621 112.439L195.139 115.319C195.254 115.478 195.337 115.657 195.383 115.847C195.428 116.037 195.436 116.235 195.406 116.428C195.375 116.621 195.306 116.806 195.204 116.973C195.102 117.14 194.968 117.285 194.809 117.399Z" fill="white"/>
<path d="M147.705 103.157H106.921C105.099 103.155 103.353 102.43 102.065 101.142C100.777 99.8544 100.053 98.1082 100.051 96.2868V61.8868C100.051 60.064 100.774 58.3158 102.062 57.0261C103.351 55.7365 105.098 55.0109 106.921 55.0088H147.705C149.527 55.0109 151.273 55.7357 152.561 57.024C153.849 58.3124 154.573 60.0591 154.575 61.8808V96.2808C154.574 98.1032 153.85 99.8509 152.562 101.14C151.274 102.429 149.527 103.155 147.705 103.157ZM106.921 56.6528C105.535 56.6544 104.206 57.2057 103.226 58.1858C102.246 59.1659 101.694 60.4947 101.693 61.8808V96.2808C101.694 97.6669 102.246 98.9957 103.226 99.9758C104.206 100.956 105.535 101.507 106.921 101.509H147.705C149.091 101.507 150.42 100.956 151.4 99.9758C152.38 98.9957 152.931 97.6669 152.933 96.2808V61.8808C152.931 60.4947 152.38 59.1659 151.4 58.1858C150.42 57.2057 149.091 56.6544 147.705 56.6528H106.921Z" fill="#FC85AE"/>
<path d="M128.171 63.4858H153.543V65.1278H128.171V63.4858Z" fill="#FC85AE"/>
<path d="M146.529 59.521C146.529 59.7682 146.602 60.0099 146.74 60.2155C146.877 60.421 147.072 60.5812 147.301 60.6758C147.529 60.7705 147.78 60.7952 148.023 60.747C148.265 60.6987 148.488 60.5797 148.663 60.4049C148.838 60.2301 148.957 60.0073 149.005 59.7649C149.053 59.5224 149.028 59.271 148.934 59.0426C148.839 58.8142 148.679 58.619 148.473 58.4817C148.268 58.3443 148.026 58.271 147.779 58.271C147.447 58.271 147.13 58.4027 146.895 58.6371C146.661 58.8715 146.529 59.1895 146.529 59.521ZM141.577 59.521C141.577 59.7682 141.65 60.0099 141.788 60.2155C141.925 60.421 142.12 60.5812 142.349 60.6758C142.577 60.7705 142.828 60.7952 143.071 60.747C143.313 60.6987 143.536 60.5797 143.711 60.4049C143.886 60.2301 144.005 60.0073 144.053 59.7649C144.101 59.5224 144.076 59.271 143.982 59.0426C143.887 58.8142 143.727 58.619 143.521 58.4817C143.316 58.3443 143.074 58.271 142.827 58.271C142.495 58.271 142.178 58.4027 141.943 58.6371C141.709 58.8715 141.577 59.1895 141.577 59.521ZM136.625 59.521C136.625 59.7682 136.698 60.0099 136.836 60.2155C136.973 60.421 137.168 60.5812 137.397 60.6758C137.625 60.7705 137.876 60.7952 138.119 60.747C138.361 60.6987 138.584 60.5797 138.759 60.4049C138.934 60.2301 139.053 60.0073 139.101 59.7649C139.149 59.5224 139.124 59.271 139.03 59.0426C138.935 58.8142 138.775 58.619 138.569 58.4817C138.364 58.3443 138.122 58.271 137.875 58.271C137.543 58.271 137.226 58.4027 136.991 58.6371C136.757 58.8715 136.625 59.1895 136.625 59.521Z" fill="#AA97FF"/>
<path d="M123.64 114.406L121.508 107.04L118.988 114.406H123.64ZM144.968 122.55L152.334 120.418L144.968 117.896V122.55Z" fill="#161E31"/>
<path d="M148.75 120.999H120.734V109.269H122.092V119.643H148.75V120.999Z" fill="#161E31"/>
<path d="M140.548 73.0283H128.738C126.62 73.0283 124.902 74.7458 124.902 76.8643V88.6743C124.902 90.7929 126.62 92.5103 128.738 92.5103H140.548C142.667 92.5103 144.384 90.7929 144.384 88.6743V76.8643C144.384 74.7458 142.667 73.0283 140.548 73.0283Z" fill="#AA97FF"/>
<path d="M135.083 77.013L136.683 80.267C136.718 80.3384 136.77 80.4001 136.835 80.4468C136.899 80.4935 136.974 80.5237 137.053 80.535L140.653 81.057C140.743 81.0704 140.828 81.1087 140.898 81.1678C140.968 81.2268 141.019 81.3042 141.048 81.3911C141.076 81.4781 141.079 81.5712 141.057 81.6599C141.035 81.7485 140.988 81.8293 140.923 81.893L138.323 84.425C138.266 84.4807 138.224 84.5492 138.199 84.6247C138.174 84.7002 138.168 84.7806 138.181 84.859L138.803 88.437C138.818 88.5269 138.808 88.6193 138.773 88.7038C138.739 88.7883 138.682 88.8614 138.608 88.9151C138.534 88.9687 138.447 89.0007 138.356 89.0074C138.265 89.0141 138.174 88.9952 138.093 88.953L134.881 87.265C134.811 87.2275 134.732 87.2079 134.653 87.2079C134.573 87.2079 134.495 87.2275 134.425 87.265L131.203 88.953C131.122 88.9952 131.031 89.0141 130.94 89.0074C130.849 89.0007 130.762 88.9687 130.688 88.9151C130.614 88.8614 130.557 88.7883 130.522 88.7038C130.488 88.6193 130.478 88.5269 130.493 88.437L131.107 84.859C131.12 84.7806 131.114 84.7002 131.089 84.6247C131.064 84.5492 131.022 84.4807 130.965 84.425L128.365 81.893C128.299 81.8292 128.253 81.7482 128.231 81.6594C128.209 81.5706 128.213 81.4774 128.241 81.3904C128.269 81.3034 128.321 81.226 128.391 81.1671C128.461 81.1082 128.546 81.0701 128.637 81.057L132.237 80.535C132.316 80.5237 132.391 80.4935 132.455 80.4468C132.52 80.4001 132.572 80.3384 132.607 80.267L134.207 77.013C134.248 76.9318 134.31 76.8634 134.388 76.8157C134.465 76.768 134.554 76.7427 134.645 76.7427C134.736 76.7427 134.825 76.768 134.902 76.8157C134.98 76.8634 135.042 76.9318 135.083 77.013Z" fill="white"/>
<path d="M122.534 64.0659H104.772C104.349 64.0659 104.006 64.4089 104.006 64.8319V65.9179C104.006 66.341 104.349 66.6839 104.772 66.6839H122.534C122.957 66.6839 123.3 66.341 123.3 65.9179V64.8319C123.3 64.4089 122.957 64.0659 122.534 64.0659Z" fill="#374F89"/>
<path d="M122.534 68.6152H104.772C104.349 68.6152 104.006 68.9582 104.006 69.3812V70.4672C104.006 70.8903 104.349 71.2332 104.772 71.2332H122.534C122.957 71.2332 123.3 70.8903 123.3 70.4672V69.3812C123.3 68.9582 122.957 68.6152 122.534 68.6152Z" fill="#374F89"/>
<mask id="mask0_4072_9101" style="mask-type:luminance" maskUnits="userSpaceOnUse" x="19" y="92" width="162" height="150">
<path d="M180.706 241.157L19.586 241.157L19.586 92.7372L180.706 92.7372L180.706 241.157Z" fill="white"/>
</mask>
<g mask="url(#mask0_4072_9101)">
<path d="M159.632 155.493C152.972 161.293 148.526 165.107 148.526 165.107L142.562 159.491L146.762 153.527L159.632 155.493ZM167.974 145.365C169.24 144.871 175.754 142.391 177.008 144.243C177.578 145.083 176.866 146.523 176.786 146.679C175.924 148.377 173.856 148.145 171.49 149.623C165.946 153.085 160.22 153.369 158.81 153.049C158.81 153.049 158.536 152.617 167.974 145.365Z" fill="#FC85AE"/>
<path d="M135.2 154.558C135.2 154.558 141.566 142.246 144.4 139.332C144.4 139.332 144.666 136.314 145.278 133.304C145.932 130.104 146.594 127.958 148.244 127.334C149.188 126.978 150.512 127.12 151.08 127.836C151.48 128.352 151.388 129.02 151.314 129.726C151.152 131.359 151.142 133.003 151.284 134.638C150.72 129.608 151.684 125.61 153.832 124.772C154.398 124.552 155.021 124.532 155.6 124.714C156.288 124.954 157.352 125.714 158.614 131.808C158.868 133.034 159.202 134.826 159.476 137.034C159.434 136.604 158.462 126.406 160.144 123.51C160.412 123.05 160.996 122.042 162.062 121.778C162.651 121.671 163.258 121.748 163.8 122C163.8 122 166.344 123.154 166.49 138.52C169.388 131.484 172.216 126.696 173.276 126.158C173.917 125.826 174.631 125.664 175.352 125.686C175.58 125.688 175.806 125.732 176.018 125.816C178.018 127.004 175.218 135.694 172.418 141.616C171.854 142.866 171.222 144.085 170.524 145.266C168.892 147.95 164.686 153.734 154.808 157.884C152.802 158.114 150.779 158.173 148.762 158.06C144.058 157.781 139.452 156.591 135.2 154.558Z" fill="#FC85AE"/>
<path d="M144.221 152.662L144.275 153.508C141.511 153.682 138.795 152.708 136.487 151.448C136.675 151.302 136.865 151.16 137.053 151.016L137.093 150.986C137.155 150.972 137.239 150.95 137.343 150.93C139.441 152.018 141.833 152.812 144.221 152.662ZM105.559 204.66C105.559 204.66 109.143 272.492 109.559 292.606C109.975 312.72 103.843 387.884 103.843 387.884C94.8199 389.6 85.5541 389.6 76.531 387.884C77.943 355.772 79.3543 323.66 80.765 291.548L78.225 248.99C77.7196 262.755 77.155 276.518 76.531 290.278C75.035 323.254 73.1996 356.212 71.025 389.154C66.4204 390.524 61.5725 390.874 56.819 390.179C52.0654 389.484 47.5206 387.761 43.501 385.13C45.923 359.494 48.579 324.66 49.007 290.278C49.271 269.01 49.437 258.374 49.007 251.902C47.287 226.056 45.861 218.44 48.159 209.822C49.859 203.47 105.559 204.66 105.559 204.66Z" fill="#161E31"/>
<path d="M87.816 151.81C87.94 154.946 88.15 157.95 88.416 160.81C90.5137 167.299 93.6183 173.418 97.616 178.942C103.188 186.6 108.6 194.032 116.162 195.444C127.73 197.6 139.614 184.8 149.012 174.662C150.876 172.652 152.657 170.566 154.35 168.41C155.022 167.556 155.375 166.494 155.349 165.407C155.323 164.321 154.919 163.277 154.206 162.456C151.07 158.833 147.216 155.9 142.888 153.842C140.587 152.756 138.172 151.931 135.688 151.382C134.698 151.16 133.663 151.266 132.738 151.684C131.813 152.102 131.05 152.809 130.562 153.698C127.952 158.487 124.833 162.98 121.258 167.098C121.136 167.24 121.012 167.382 120.888 167.52C120.714 167.72 120.538 167.92 120.362 168.12L120.292 168.038L120.12 167.87C112.842 160.62 107.046 154.792 102.64 149.988C100.546 147.706 96.87 143.588 90.64 140.988C89.7058 140.599 88.7519 140.258 87.782 139.968C87.654 143.678 87.65 147.636 87.816 151.81Z" fill="#574B90"/>
<path d="M45.4004 212.087L45.4904 212.103C46.4124 212.273 54.3744 213.713 64.0744 214.633C72.1864 215.399 81.5204 215.799 88.9644 214.799C105.876 212.499 106.692 210.471 106.692 210.471C106.692 210.471 105.572 204.753 104.372 198.581C102.672 189.837 101.822 185.465 101.55 183.951C99.2004 170.919 100.102 167.219 97.2884 153.845C96.1924 148.635 95.3224 145.725 92.8884 142.949C91.2981 141.157 89.3548 139.713 87.1804 138.707C85.2049 137.795 83.1122 137.162 80.9624 136.825L69.8784 138.085L66.0784 138.519L59.0784 150.203L56.4544 154.599L52.1644 161.763C49.9711 178.054 47.7831 194.351 45.6004 210.655C45.5284 211.133 45.4624 211.609 45.4004 212.087Z" fill="#574B90"/>
<path d="M101.8 186.743L102.35 186.695C102.33 186.479 100.446 164.795 97.2739 152.465L96.7399 152.603C99.8999 164.889 101.78 186.525 101.8 186.743ZM69.8799 138.085C70.2139 142.025 73.9799 145.129 78.5719 145.129C82.9199 145.129 86.5259 142.345 87.1819 138.707C85.2063 137.795 83.1137 137.162 80.9639 136.825L69.8799 138.085Z" fill="#161E31"/>
<path d="M72.3242 119.54V139.614C72.3242 141.448 74.1342 143.014 76.5882 143.288C77.5976 143.403 78.6159 143.418 79.6282 143.332L80.0502 143.292C82.4842 143.018 84.2602 141.442 84.2602 139.624V119.54H72.3242Z" fill="#FC85AE"/>
<path d="M75.0361 127.455C75.0361 127.455 76.7441 135.637 84.2561 137.225V130.915C81.3701 129.021 77.7621 127.455 75.0361 127.455Z" fill="#BC55BB"/>
<path d="M87.7444 112.928C89.4416 112.193 91.2328 111.699 93.0664 111.46C95.2164 111.178 95.8664 111.46 96.7364 110.908C98.7904 109.63 100.266 105.008 97.6544 102.284C95.6184 100.164 91.8884 100.012 89.3964 102.284C89.4784 102.06 90.3404 99.5776 89.0304 97.8836C87.6304 96.0836 84.2144 95.7096 81.5064 97.8836C81.3964 97.6936 80.1584 95.6256 78.0204 95.4996C75.8824 95.3736 73.6204 97.2636 73.2484 100.086C71.9804 100.97 69.6264 102.886 68.2944 106.142C67.0644 109.152 67.3624 111.702 67.7444 114.942C67.9824 116.97 68.5444 121.324 71.5984 125.4C71.8944 125.8 72.1544 126.11 72.3324 126.318L73.8004 126.686C74.2362 125.373 74.543 124.02 74.7164 122.648C75.0704 119.848 74.6444 118.668 74.8924 117.648C75.3224 115.868 77.9404 113.852 87.7444 112.928Z" fill="#161E31"/>
<path d="M93.0662 110.357C93.4008 114.518 93.2781 118.702 92.7002 122.835C92.1782 126.515 91.4202 129.165 89.3962 131.275C88.7962 131.907 87.9662 132.747 86.6442 133.111C84.2902 133.759 82.1542 132.413 79.7642 130.911C77.7902 129.667 75.8922 128.469 75.0842 126.143C74.8582 125.493 74.8202 124.673 74.7582 123.063C74.5902 118.835 74.0682 115.735 76.0942 114.743C76.4122 114.587 76.8242 114.207 77.7862 113.641C81.3582 111.541 83.6142 110.213 85.9102 110.731C86.4202 110.845 86.7602 111.013 88.4782 111.465C89.9962 111.865 90.4042 111.911 90.8642 111.831C91.3242 111.751 92.1802 111.493 93.0662 110.357Z" fill="#FC85AE"/>
<path d="M76.7874 118.863C76.5154 116.313 74.9034 114.801 73.6754 114.939C72.7714 115.043 72.0054 116.047 71.7814 116.969C71.4794 118.219 72.1814 119.273 72.7814 120.169C73.4132 121.1 74.2473 121.876 75.2214 122.439C75.7481 121.25 76.2701 120.058 76.7874 118.863Z" fill="#FC85AE"/>
<path d="M83.9014 126.054C83.9114 126.128 83.9274 126.236 83.9554 126.366C84.0354 126.732 84.2054 127.504 84.8094 127.966C85.4134 128.428 86.1234 128.366 86.4614 128.332C86.9901 128.279 87.4959 128.09 87.9294 127.782C88.4784 127.416 88.9212 126.912 89.2134 126.32L88.9154 126.3C88.7474 126.364 88.5734 126.42 88.3894 126.47C86.6254 126.952 84.9794 126.5 83.9014 126.054ZM90.0474 117.916C90.0474 118.077 90.095 118.234 90.1842 118.368C90.2734 118.501 90.4003 118.605 90.5486 118.667C90.697 118.728 90.8603 118.744 91.0178 118.713C91.1753 118.682 91.32 118.604 91.4335 118.491C91.5471 118.377 91.6244 118.232 91.6558 118.075C91.6871 117.917 91.671 117.754 91.6096 117.606C91.5481 117.457 91.444 117.331 91.3105 117.241C91.177 117.152 91.02 117.104 90.8594 117.104C90.644 117.104 90.4375 117.19 90.2852 117.342C90.1329 117.495 90.0474 117.701 90.0474 117.916Z" fill="#161E31"/>
<path d="M83.8218 118.998C84.2702 118.998 84.6338 118.634 84.6338 118.186C84.6338 117.738 84.2702 117.374 83.8218 117.374C83.3733 117.374 83.0098 117.738 83.0098 118.186C83.0098 118.634 83.3733 118.998 83.8218 118.998Z" fill="#161E31"/>
<path d="M83.7715 126.295L83.9555 126.369C84.1555 126.447 84.3395 126.515 84.5215 126.569C85.2726 126.814 86.0573 126.942 86.8475 126.947C87.4179 126.95 87.986 126.874 88.5355 126.721C88.7554 126.659 88.9701 126.58 89.1775 126.485L89.3015 126.423L89.1695 126.187C89.087 126.229 89.0022 126.267 88.9155 126.301C88.744 126.369 88.5683 126.425 88.3895 126.471C87.5495 126.693 86.0815 126.871 84.2295 126.183C84.1195 126.145 84.0115 126.103 83.9015 126.055H83.8755L83.7715 126.295Z" fill="#303A52"/>
<path d="M74.2183 120.654C74.2804 120.653 74.3408 120.634 74.3912 120.597C74.4417 120.561 74.4798 120.511 74.5004 120.452C74.5209 120.393 74.5229 120.33 74.5061 120.27C74.4892 120.21 74.4544 120.157 74.4063 120.118C73.4783 119.378 73.1143 118.224 73.5403 117.376C73.7974 116.925 74.2188 116.591 74.7163 116.444C74.7538 116.432 74.7886 116.413 74.8187 116.387C74.8488 116.361 74.8735 116.33 74.8916 116.295C74.9096 116.26 74.9205 116.222 74.9237 116.182C74.9269 116.143 74.9224 116.104 74.9103 116.066C74.8982 116.028 74.8788 115.994 74.8533 115.964C74.8278 115.933 74.7966 115.909 74.7615 115.891C74.7264 115.873 74.6881 115.862 74.6487 115.859C74.6094 115.855 74.5698 115.86 74.5323 115.872C74.2087 115.967 73.907 116.125 73.6444 116.337C73.3819 116.548 73.1637 116.81 73.0023 117.106C72.4503 118.208 72.8843 119.672 74.0303 120.588C74.0837 120.63 74.15 120.654 74.2183 120.654ZM76.9863 112.232C77.115 112.229 77.2425 112.257 77.3585 112.312C77.4745 112.368 77.5757 112.451 77.6537 112.553C77.7317 112.656 77.7844 112.775 77.8074 112.902C77.8305 113.028 77.8232 113.159 77.7863 113.282C77.5463 114.082 77.3443 115.214 77.6483 116.23C77.9783 117.33 78.2483 118.388 78.3943 119.06C78.4394 119.258 78.4091 119.466 78.3093 119.643C78.2095 119.82 78.0472 119.954 77.8543 120.018C77.6526 120.085 77.4328 120.07 77.2416 119.978C77.0503 119.885 76.9028 119.722 76.8303 119.522C76.0923 117.496 74.0603 112.044 73.6123 112.194C73.2423 112.318 75.5043 112.274 76.9863 112.232ZM81.7843 115.704C81.827 115.704 81.8692 115.695 81.9083 115.678C83.1223 115.154 84.4562 114.972 85.7663 115.15C85.8458 115.164 85.9278 115.146 85.9942 115.1C86.0606 115.054 86.106 114.984 86.1203 114.904C86.1346 114.824 86.1167 114.742 86.0706 114.676C86.0245 114.61 85.9538 114.564 85.8743 114.55C84.4429 114.345 82.9829 114.544 81.6583 115.124C81.5964 115.153 81.5462 115.202 81.5159 115.263C81.4857 115.324 81.4772 115.394 81.4919 115.46C81.5065 115.527 81.5435 115.587 81.5967 115.63C81.6498 115.672 81.716 115.696 81.7843 115.696V115.704ZM93.1603 115.704C93.2138 115.705 93.2665 115.691 93.3127 115.663C93.3589 115.636 93.3968 115.597 93.4223 115.55C93.458 115.481 93.4659 115.401 93.4443 115.327C93.4227 115.252 93.3733 115.189 93.3063 115.15C91.5823 114.192 89.3523 114.55 89.2583 114.566C89.2189 114.572 89.1811 114.587 89.1472 114.608C89.1133 114.629 89.0838 114.656 89.0605 114.688C89.0372 114.721 89.0205 114.758 89.0114 114.796C89.0022 114.835 89.0008 114.876 89.0073 114.915C89.0137 114.954 89.0278 114.992 89.0489 115.026C89.0699 115.06 89.0974 115.089 89.1298 115.113C89.1622 115.136 89.1989 115.153 89.2377 115.162C89.2766 115.171 89.3169 115.172 89.3563 115.166C89.3763 115.166 91.4763 114.83 93.0143 115.684C93.0607 115.702 93.1107 115.709 93.1603 115.704ZM87.7463 124.6H87.7763C88.3863 124.54 89.8283 124.326 90.0503 123.664C90.2503 123.086 88.8603 119.942 88.0203 118.12C88.0037 118.084 87.9803 118.052 87.9513 118.025C87.9223 117.998 87.8883 117.977 87.8512 117.964C87.8142 117.95 87.7748 117.944 87.7353 117.946C87.6959 117.947 87.6571 117.956 87.6213 117.973C87.5854 117.989 87.5532 118.013 87.5264 118.042C87.4996 118.071 87.4788 118.105 87.4651 118.142C87.4515 118.179 87.4453 118.218 87.4468 118.258C87.4484 118.297 87.4577 118.336 87.4743 118.372C88.4923 120.572 89.5183 123.096 89.4743 123.492C89.4163 123.662 88.5583 123.918 87.7143 124.004C87.6749 124.006 87.6363 124.016 87.6006 124.033C87.565 124.049 87.533 124.073 87.5065 124.102C87.4801 124.132 87.4596 124.166 87.4464 124.203C87.4331 124.24 87.4273 124.28 87.4293 124.319C87.4312 124.358 87.441 124.397 87.4579 124.433C87.4748 124.468 87.4985 124.5 87.5278 124.527C87.557 124.553 87.5912 124.574 87.6283 124.587C87.6655 124.6 87.7049 124.606 87.7443 124.604L87.7463 124.6ZM45.4883 212.104C46.4103 212.274 54.3723 213.714 64.0723 214.634C65.0455 213.891 65.8255 212.924 66.3463 211.816C67.7123 208.84 66.5803 205.784 65.9463 204.054C65.3123 202.324 64.5063 201.054 62.2723 198.134C60.1847 195.409 58.0068 192.754 55.7423 190.174C57.1023 176.773 58.4629 163.373 59.8243 149.974C59.5723 150.046 59.3283 150.126 59.0863 150.214L56.4543 154.6L52.1643 161.764C49.9389 178.541 47.7136 195.321 45.4883 212.104Z" fill="#161E31"/>
<path d="M26.4248 189.524C26.4248 189.524 26.5548 192.38 30.4488 198.74C31.2908 200.116 32.4728 201.91 33.8268 203.876L34.1848 204.396C37.0368 208.536 42.3508 217.974 47.3228 220.416C47.7768 220.64 48.5508 220.964 49.2708 220.676C50.3328 220.252 50.9648 218.618 50.6328 217.286C50.5253 216.864 50.3266 216.472 50.0508 216.136C50.0868 216.172 50.5008 216.58 51.1128 217.104L51.1868 217.168C51.5608 217.484 51.9988 217.838 52.4708 218.168C53.9148 219.206 55.6568 220.106 56.6708 219.368C58.0708 218.342 58.1288 216.782 57.1388 215.12C56.6871 214.388 56.1374 213.722 55.5048 213.14C55.5328 213.158 55.8948 213.386 56.4188 213.654C57.9468 214.928 59.7788 215.038 60.6528 214.228C61.5268 213.418 61.2688 211.95 61.2108 211.58C61.0469 210.617 60.5594 209.738 59.8288 209.09L59.2648 208.076C59.4248 208.17 60.5588 208.812 61.7308 208.334C63.0308 207.806 63.4228 206.288 63.3808 205.334C63.3676 204.881 63.2469 204.438 63.0288 204.042C61.3228 201.36 49.5468 191.814 48.1148 190.658L47.9728 190.542L47.9388 190.16L47.3228 183.014L26.4248 189.524Z" fill="#FC85AE"/>
<path d="M26.686 192.122C31.748 194.068 50.828 188.618 49.142 183.814C47.63 179.512 46.43 169.79 46.198 167.814C46.17 167.584 46.156 167.46 46.156 167.46L46.6 167.06C49.618 164.372 54.182 160.312 58.876 154.474C62.496 149.974 65.65 145.974 67.572 139.754C67.754 139.154 67.89 138.664 67.972 138.324C67.55 138.364 66.91 138.43 66.134 138.524C62.2 139.03 45.086 141.558 30.84 155C25.116 160.4 23.622 164.03 22.956 166.6C22.356 168.888 22.662 171.058 22.662 174.852C22.662 183.166 21.624 190.174 26.686 192.122Z" fill="#574B90"/>
<path d="M59.8301 209.103L59.2661 208.089C59.2661 208.089 59.3341 208.075 59.4521 208.045L50.2261 199.461L49.8741 199.841L59.8301 209.103ZM55.5021 213.151C55.5301 213.169 55.8921 213.397 56.4161 213.665L47.5081 204.665L47.1401 205.031L57.1401 215.135C56.6875 214.402 56.1364 213.734 55.5021 213.151ZM50.6341 217.289C50.5189 216.871 50.321 216.479 50.0521 216.139C50.0881 216.175 50.5021 216.583 51.1141 217.107L51.1881 217.171L45.6201 209.431L45.2001 209.735L50.6341 217.289ZM33.8281 203.879L34.1861 204.399C34.6821 203.111 35.3561 201.581 36.2641 199.767C38.6421 195.013 42.2641 192.727 44.8921 191.649C45.9326 191.222 47.0124 190.897 48.1161 190.681L47.9741 190.565L47.9401 190.183C46.8292 190.407 45.7423 190.738 44.6941 191.169C41.9881 192.281 38.2481 194.635 35.8001 199.535C34.9641 201.201 34.3201 202.643 33.8281 203.879ZM36.0981 169.329L36.4841 170.007C39.4304 168.321 42.8132 167.555 46.1981 167.807C46.1701 167.577 46.1561 167.453 46.1561 167.453L46.6001 167.053C42.95 166.707 39.2823 167.497 36.0981 169.315V169.329ZM121.048 174.449L121.864 174.469C121.933 172.115 121.601 169.767 120.88 167.525C120.706 167.725 120.53 167.925 120.354 168.125L120.284 168.043L120.112 167.875C120.793 169.998 121.11 172.22 121.048 174.449Z" fill="#161E31"/>
<path d="M65.3975 158.8H91.5735L93.4435 197.656H65.3975V158.8ZM90.9275 159.486H66.0755V196.976H92.7235L90.9275 159.486Z" fill="#FEF8FA"/>
<path d="M151.094 139.529L150.464 139.447C150.959 135.739 151.24 132.006 151.308 128.267H151.944C151.876 132.034 151.592 135.794 151.094 139.529ZM171.43 144.217C170.729 145.485 169.917 146.69 169.006 147.817C168.564 148.393 168.082 148.933 167.606 149.479C167.13 150.025 166.606 150.533 166.09 151.043C165.574 151.553 165.018 152.029 164.454 152.493C163.889 152.956 163.3 153.39 162.69 153.793C162.08 154.2 161.44 154.562 160.776 154.875C160.114 155.196 159.418 155.438 158.7 155.599L158.678 155.539C159.345 155.28 159.99 154.966 160.604 154.599C161.221 154.233 161.816 153.832 162.388 153.399C163.532 152.536 164.621 151.6 165.646 150.599C166.682 149.599 167.674 148.571 168.63 147.499C169.586 146.427 170.506 145.327 171.378 144.187L171.43 144.217Z" fill="#161E31"/>
</g>
</g>
<defs>
<clipPath id="clip0_4072_9101">
<rect width="300" height="300" fill="white" transform="translate(-1 -1)"/>
</clipPath>
</defs>
</svg>
