<svg width="298" height="298" viewBox="0 0 298 298" fill="none" xmlns="http://www.w3.org/2000/svg">
<g clip-path="url(#clip0_4072_9177)">
<path d="M191.765 69.9749C191.765 69.9749 186.371 74.3243 180.089 72.1029C179.809 72.0003 179.548 71.8883 179.277 71.7576C178.428 71.3656 176.057 70.3296 173.192 69.7976C171.241 69.4336 169.067 69.2936 166.985 69.7323C166.995 69.7323 166.995 69.7323 166.995 69.7229C167.293 69.5083 173.099 63.8989 180.78 67.5576C181.284 67.7909 181.797 67.9963 182.329 68.1643C182.497 68.2203 183.673 68.2856 183.841 68.3323C185.923 68.9109 188.629 71.3469 191.765 69.9749Z" fill="#7043A0"/>
<path d="M191.767 69.9742C188.631 71.3462 184.711 70.6089 182.611 70.0302C182.443 69.9836 182.275 69.9369 182.107 69.8809C181.584 69.7129 181.062 69.5169 180.558 69.2742C172.876 65.6156 167.267 69.5169 166.978 69.7222C167.192 69.3956 172.167 62.0316 181.118 65.3542C182.163 65.7462 183.134 66.2969 184.03 66.9782C185.262 67.9209 187.894 69.5449 191.767 69.9742Z" fill="#8F66BB"/>
<path d="M140.936 69.0322C140.936 69.0322 143.978 75.7802 151.053 76.6669C151.37 76.7042 151.678 76.7229 152.005 76.7322C153.004 76.7602 155.776 76.9189 158.772 77.7776C160.806 78.3656 162.953 79.2802 164.736 80.6989C164.736 80.6896 164.736 80.6896 164.736 80.6896C164.558 80.3442 161.74 72.1962 152.621 72.0096C152.024 72.0002 151.436 71.9349 150.848 71.8416C150.661 71.8136 149.504 71.3189 149.326 71.2816C147.03 70.8149 143.26 71.8416 140.936 69.0322Z" fill="#7043A0"/>
<path d="M140.936 69.0322C143.26 71.8509 147.366 73.0176 149.653 73.4749C149.83 73.5122 150.017 73.5402 150.204 73.5776C150.782 73.6709 151.38 73.7269 151.977 73.7456C161.105 73.9416 164.558 80.3536 164.736 80.6989C164.689 80.2882 163.522 70.8616 153.349 69.7416C152.164 69.6109 150.96 69.6762 149.774 69.8909C148.15 70.1896 144.846 70.4789 140.936 69.0322Z" fill="#8F66BB"/>
<path d="M160.675 109.52L160.498 109.464C160.451 109.455 160.395 109.436 160.339 109.418L159.872 109.259C159.574 109.166 159.275 109.063 158.976 108.97C158.482 108.802 157.987 108.643 157.511 108.475C157.408 108.438 157.315 108.41 157.222 108.372C157.576 107.103 157.884 105.834 158.155 104.555C158.51 102.912 158.808 101.251 159.042 99.5991L160.694 87.8857C161.104 84.9457 161.692 82.0617 162.42 79.2057C162.514 78.8231 162.607 78.4497 162.71 78.0671C162.775 77.8337 162.831 77.6004 162.896 77.3671C163.008 76.9657 163.12 76.5644 163.242 76.1537C165.314 68.9297 168.16 61.9297 171.063 55.0231C172.808 50.8791 174.134 48.2284 175.151 46.5017C176.29 44.5697 177.055 43.7857 177.606 43.3657L178.268 46.4551C178.128 46.5671 177.811 46.8751 177.279 47.6871C176.467 48.9377 175.142 51.3924 173.126 56.1804C171.567 59.8764 170.195 63.6564 169 67.5017C168.907 67.8097 168.804 68.1177 168.711 68.4351C168.674 68.5751 168.627 68.7151 168.59 68.8551C168.524 69.0791 168.45 69.3031 168.384 69.5271C166.611 75.5564 165.276 81.7351 164.39 88.0071L163.932 91.2644L163.839 91.9364L163.802 92.2071L163.736 92.683L162.747 99.7297C162.467 101.727 162.103 103.724 161.655 105.703C161.356 106.982 161.039 108.251 160.675 109.52Z" fill="#8F66BB"/>
<path d="M172.315 54.7528C169.319 53.0448 168.264 49.2368 169.972 46.2315L173.174 40.6128L184.038 46.7915L180.836 52.4101C179.128 55.4061 175.311 56.4608 172.315 54.7528Z" fill="#581B98"/>
<path d="M202.022 34.6117C199.773 38.8863 195.881 41.6863 191.55 42.685C188.517 43.385 185.894 45.3077 184.354 48.0143L183.804 48.985C183.458 49.601 182.674 49.8157 182.058 49.461L171.857 43.6557C171.241 43.3103 171.026 42.5263 171.381 41.9103L171.885 41.0237C173.425 38.317 173.826 35.0783 172.865 32.1197C171.53 28.0223 171.866 23.4023 174.162 19.361C178.605 11.549 188.676 8.945 196.385 13.7423C203.404 18.1197 205.877 27.3037 202.022 34.6117Z" fill="#FFDE74"/>
<path d="M191.559 42.693C188.526 43.393 185.903 45.3156 184.363 48.0223L183.812 48.993C183.467 49.609 182.683 49.8236 182.067 49.469L180.732 48.713C181.348 49.0676 182.132 48.853 182.478 48.237L183.028 47.2663C184.568 44.5596 187.191 42.637 190.224 41.937C194.546 40.9383 198.438 38.129 200.687 33.8636C204.523 26.5836 202.087 17.4463 195.134 13.0503C195.554 13.265 195.964 13.4983 196.375 13.7503C203.394 18.1183 205.876 27.3023 202.012 34.6196C199.772 38.885 195.88 41.685 191.559 42.693Z" fill="#FFF87F"/>
<path d="M180.777 52.1481L170.211 46.1468C169.735 45.8761 169.577 45.2788 169.838 44.8028C170.109 44.3268 170.706 44.1681 171.182 44.4294L181.738 50.4401C182.214 50.7108 182.373 51.3081 182.111 51.7841C181.85 52.2508 181.243 52.4188 180.777 52.1481ZM179.311 54.7241L168.755 48.7134C168.279 48.4428 168.121 47.8454 168.382 47.3694C168.653 46.8934 169.25 46.7348 169.726 46.9961L180.282 53.0068C180.758 53.2774 180.917 53.8748 180.655 54.3508C180.385 54.8268 179.778 54.9948 179.311 54.7241Z" fill="#BDBDBD"/>
<path d="M178.605 47.4987L178.185 47.256L185.315 34.7213L182.87 33.3307L175.739 45.8653L175.319 45.6227L182.45 33.088L180.341 31.8933C178.95 31.1 178.465 29.3267 179.249 27.936L179.305 27.8427C180.098 26.452 181.871 25.9667 183.262 26.7507C184.653 27.544 185.138 29.3173 184.354 30.708L183.103 32.9107L185.549 34.3013L186.799 32.0987C187.593 30.708 189.366 30.2227 190.757 31.0067C192.147 31.8 192.633 33.5733 191.849 34.964L191.793 35.0573C190.999 36.448 189.226 36.9333 187.835 36.1493L185.726 34.9547L178.605 47.4987ZM185.969 34.5533L188.078 35.748C189.235 36.4107 190.719 36 191.382 34.8427L191.438 34.7493C192.101 33.592 191.69 32.108 190.533 31.4453C189.375 30.7827 187.891 31.1933 187.229 32.3507L185.969 34.5533ZM183.029 27.18C181.871 26.5173 180.387 26.928 179.725 28.0853L179.669 28.1787C179.006 29.336 179.417 30.82 180.574 31.4827L182.683 32.6773L183.934 30.4747C184.597 29.3173 184.195 27.8427 183.029 27.18Z" fill="#414042"/>
<path d="M194.416 15.3934L194.014 15.832C193.286 16.6254 192.194 16.952 191.149 16.7187C186.184 15.5987 181.144 16.4294 176.001 19.864C180.08 14.096 185.922 11.8747 194.192 14.5347C194.546 14.6467 194.677 15.104 194.416 15.3934Z" fill="white"/>
<path d="M85.0664 109.231C85.0664 109.231 93.8024 112.432 100.821 106.907C101.129 106.664 101.418 106.393 101.708 106.113C102.613 105.245 105.18 102.912 108.596 100.999C110.91 99.7014 113.617 98.5814 116.464 98.2454C116.454 98.2454 116.454 98.2454 116.454 98.2361C115.988 98.0961 106.188 93.4667 98.0024 101.428C97.4704 101.941 96.8917 102.427 96.2944 102.865C96.1077 103.005 94.6424 103.603 94.4464 103.733C92.0384 105.367 89.6397 109.623 85.0664 109.231Z" fill="#7043A0"/>
<path d="M85.0664 109.232C89.6397 109.624 94.3064 106.992 96.7237 105.358C96.9197 105.228 97.1064 105.088 97.2931 104.957C97.8904 104.518 98.4597 104.042 99.0011 103.52C107.186 95.5583 115.997 98.0969 116.454 98.2369C116.044 97.9103 106.552 90.7049 96.6024 98.7783C95.4451 99.7209 94.4464 100.85 93.5971 102.092C92.4584 103.809 89.8077 107.01 85.0664 109.232Z" fill="#8F66BB"/>
<path d="M149.265 86.1128C149.265 86.1128 148.304 95.9968 139.698 100.187C139.316 100.374 138.924 100.523 138.522 100.673C137.262 101.139 133.818 102.53 130.374 104.919C128.041 106.543 125.708 108.634 124.056 111.201C124.056 111.191 124.056 111.191 124.056 111.191C124.13 110.678 124.205 99.1048 135.713 94.9328C136.46 94.6621 137.188 94.3261 137.888 93.9621C138.112 93.8501 139.372 92.7115 139.586 92.5901C142.284 91.0128 147.52 90.6955 149.265 86.1128Z" fill="#7043A0"/>
<path d="M149.263 86.1128C147.517 90.6955 142.804 93.9528 140.097 95.5208C139.883 95.6515 139.659 95.7635 139.444 95.8848C138.744 96.2488 138.016 96.5848 137.269 96.8555C125.761 101.027 124.128 110.678 124.053 111.191C123.932 110.65 121.356 98.1715 133.797 92.3568C135.253 91.6755 136.812 91.2461 138.399 91.0128C140.583 90.6955 144.913 89.6408 149.263 86.1128Z" fill="#8F66BB"/>
<path d="M141.625 146.08L141.821 145.93C141.877 145.893 141.942 145.846 141.998 145.8L142.521 145.398C142.857 145.156 143.193 144.894 143.538 144.642C144.098 144.222 144.649 143.802 145.19 143.382C145.302 143.298 145.414 143.214 145.517 143.13C144.528 141.674 143.576 140.181 142.68 138.678C141.513 136.737 140.421 134.768 139.413 132.761L132.273 118.584C130.481 115.028 128.484 111.612 126.337 108.298C126.057 107.85 125.768 107.421 125.478 106.982C125.292 106.712 125.124 106.441 124.937 106.18C124.62 105.722 124.302 105.256 123.985 104.789C118.236 96.501 111.6 88.829 104.936 81.3063C100.932 76.7983 98.1035 73.9983 96.0689 72.2437C93.7915 70.2837 92.4755 69.6117 91.5889 69.313L92.0835 73.5223C92.3169 73.597 92.8489 73.8583 93.8755 74.661C95.4435 75.9023 98.1875 78.4503 102.817 83.6677C106.392 87.6997 109.77 91.8997 112.944 96.277C113.205 96.6223 113.457 96.9863 113.709 97.3317C113.821 97.4903 113.942 97.649 114.045 97.8077C114.232 98.0597 114.409 98.321 114.596 98.573C119.449 105.47 123.808 112.741 127.634 120.338L129.613 124.277L130.024 125.089L130.192 125.416L130.481 125.994L134.774 134.525C135.988 136.942 137.313 139.322 138.732 141.646C139.665 143.149 140.617 144.633 141.625 146.08Z" fill="#8F66BB"/>
<path d="M103.231 81.4923C106.311 78.0297 105.994 72.7283 102.531 69.6577L96.0448 63.8896L84.9102 76.4243L91.3968 82.1923C94.8595 85.263 100.161 84.955 103.231 81.4923Z" fill="#581B98"/>
<path d="M56.785 68.7141C61.489 73.1661 67.6397 75.0514 73.5664 74.4634C77.729 74.0528 81.8824 75.3501 85.009 78.1314L86.129 79.1301C86.8384 79.7648 87.921 79.6994 88.5557 78.9901L99.0184 67.2208C99.653 66.5114 99.5877 65.4288 98.8784 64.7941L97.861 63.8888C94.7344 61.1168 92.8304 57.1688 92.7744 52.9968C92.6997 47.2101 90.2824 41.4794 85.625 37.3354C76.609 29.3181 62.6837 30.3541 54.965 39.7714C47.9277 48.3394 48.7304 61.0794 56.785 68.7141Z" fill="#FFDE74"/>
<path d="M73.5679 74.4638C77.7305 74.0531 81.8839 75.3505 85.0105 78.1318L86.1305 79.1305C86.8399 79.7651 87.9225 79.6998 88.5572 78.9905L89.9199 77.4505C89.2852 78.1598 88.2025 78.2251 87.4932 77.5905L86.3732 76.5918C83.2465 73.8105 79.0932 72.5038 74.9305 72.9238C69.0039 73.5118 62.8439 71.6265 58.1492 67.1745C50.1319 59.5771 49.3012 46.9118 56.2359 38.3345C55.7972 38.7825 55.3679 39.2585 54.9572 39.7625C47.9292 48.3398 48.7319 61.0798 56.7865 68.7145C61.4905 73.1665 67.6412 75.0518 73.5679 74.4638Z" fill="#FFF87F"/>
<path d="M91.3466 81.8371L102.173 69.6477C102.659 69.1064 102.612 68.2664 102.061 67.7811C101.52 67.2957 100.68 67.3424 100.195 67.8931L89.368 80.0824C88.8826 80.6237 88.9293 81.4637 89.48 81.9491C90.0306 82.4344 90.8613 82.3877 91.3466 81.8371ZM94.324 84.4784L105.151 72.2891C105.636 71.7477 105.589 70.9077 105.039 70.4224C104.497 69.9371 103.657 69.9837 103.172 70.5344L92.3453 82.7237C91.86 83.2651 91.9066 84.1051 92.4573 84.5904C92.9986 85.0757 93.8386 85.0291 94.324 84.4784Z" fill="#BDBDBD"/>
<path d="M77.6464 62.1438L75.4904 64.5705C74.0624 66.1758 71.5984 66.3252 69.9931 64.8972L69.8811 64.7945C68.2757 63.3665 68.1264 60.9025 69.5544 59.2972C70.9824 57.6918 73.4464 57.5425 75.0517 58.9705L77.5904 61.2292L80.1011 58.4105L77.5624 56.1518C75.9571 54.7238 75.8077 52.2598 77.2357 50.6545C78.6637 49.0492 81.1277 48.8998 82.7331 50.3278L82.8451 50.4212C84.4504 51.8492 84.5997 54.3132 83.1717 55.9185L81.0157 58.3452L95.4824 71.1972L95.0531 71.6825L80.5864 58.8398L78.0757 61.6585L92.5424 74.5105L92.1131 74.9958L77.6464 62.1438ZM74.6224 59.4558C73.2784 58.2612 71.2251 58.3825 70.0304 59.7265C68.8357 61.0705 68.9571 63.1238 70.3011 64.3185L70.4131 64.4118C71.7571 65.6065 73.8104 65.4852 75.0051 64.1412L77.1611 61.7145L74.6224 59.4558ZM77.9917 55.6665L80.5304 57.9252L82.6864 55.4985C83.8811 54.1545 83.7597 52.1012 82.4157 50.9065L82.3037 50.8038C80.9597 49.6092 78.9064 49.7305 77.7117 51.0745C76.5264 52.4185 76.6477 54.4812 77.9917 55.6665Z" fill="#414042"/>
<path d="M58.1768 41.0045L58.8768 41.3871C60.1368 42.0778 61.6675 42.0218 62.8995 41.2751C68.7235 37.7098 75.4902 36.5991 83.5168 38.7458C75.8448 33.1738 67.4635 32.8751 58.1115 39.8191C57.6822 40.1178 57.7195 40.7525 58.1768 41.0045Z" fill="white"/>
<path d="M198.582 217.023C198.395 222.268 198.022 227.523 197.471 232.768C195.922 247.515 192.926 262.261 188.502 277.008C187.914 278.977 185.711 280.424 183.06 280.555C164.926 281.46 146.782 281.46 128.647 280.564C125.987 280.424 123.784 278.968 123.196 276.999C122.739 275.459 122.291 273.919 121.871 272.369C116.803 254.085 113.919 235.633 113.116 217.013H198.582V217.023Z" fill="#5B3483"/>
<path d="M196.951 222.257C169.296 224.992 141.884 224.992 114.733 222.267C112.092 221.996 110.048 220.26 109.889 218.104L109.208 208.883H202.485L201.804 218.095C201.645 220.251 199.601 221.996 196.951 222.257Z" fill="#462568"/>
<path d="M202.244 208.893C202.244 210.834 191.25 212.514 175.392 213.289C174.926 213.308 174.45 213.326 173.974 213.345C172.219 213.42 170.418 213.494 168.57 213.541C167.954 213.56 167.347 213.578 166.731 213.588H166.619C166.003 213.606 165.396 213.616 164.771 213.634C164.407 213.634 164.024 213.644 163.651 213.653C162.522 213.672 161.374 213.681 160.216 213.69H159.759C159.628 213.7 159.488 213.7 159.358 213.7H158.154C157.388 213.709 156.623 213.709 155.839 213.709C154.56 213.709 153.291 213.709 152.04 213.7C151.779 213.7 151.527 213.7 151.275 213.69C150.976 213.69 150.678 213.69 150.388 213.681C149.894 213.672 149.418 213.662 148.942 213.662H148.932C148.279 213.653 147.626 213.644 146.982 213.625C125.59 213.196 109.434 211.245 109.434 208.884C109.434 207.866 112.439 206.924 117.572 206.149C121.931 205.486 127.839 204.945 134.746 204.562C135.558 204.525 136.388 204.488 137.219 204.441C138.199 204.394 139.207 204.348 140.224 204.31C143.295 204.198 146.506 204.114 149.838 204.077C150.052 204.077 150.276 204.068 150.491 204.068C151.126 204.068 151.77 204.058 152.414 204.058C152.927 204.049 153.44 204.049 153.963 204.04H155.82C157.071 204.04 158.284 204.049 159.498 204.058H159.768C160.72 204.058 161.644 204.077 162.578 204.096C163.166 204.105 163.735 204.114 164.295 204.124C164.93 204.133 165.555 204.142 166.162 204.161C166.348 204.161 166.535 204.17 166.722 204.17C167.347 204.189 167.963 204.208 168.57 204.217C171.5 204.31 174.31 204.422 176.979 204.562C177.166 204.572 177.352 204.581 177.539 204.59C178.043 204.618 178.528 204.646 179.023 204.684C180.236 204.758 181.422 204.833 182.56 204.917C188.506 205.356 193.415 205.934 196.84 206.606C200.303 207.316 202.244 208.072 202.244 208.893Z" fill="#5B3483"/>
<path d="M197.474 232.767C195.925 247.514 192.929 262.26 188.505 277.007C187.917 278.976 185.714 280.423 183.063 280.554C164.929 281.459 146.785 281.459 128.65 280.563C125.99 280.423 123.787 278.967 123.199 276.998C122.742 275.458 122.294 273.918 121.874 272.368C174.813 282.448 193.125 244.546 197.474 232.767Z" fill="#54307A"/>
<path d="M235.472 120.475C235.472 120.475 226.176 120.914 221.136 113.541C220.912 113.214 220.716 112.869 220.529 112.523C219.923 111.422 218.168 108.435 215.489 105.579C213.669 103.647 211.42 101.771 208.807 100.595C208.816 100.595 208.816 100.595 208.816 100.595C209.301 100.595 220.035 99.1112 225.467 109.163C225.821 109.817 226.232 110.442 226.661 111.039C226.801 111.226 228.015 112.234 228.164 112.421C229.984 114.707 230.992 119.486 235.472 120.475Z" fill="#7043A0"/>
<path d="M235.475 120.477C230.995 119.487 227.327 115.577 225.516 113.29C225.367 113.113 225.227 112.917 225.096 112.73C224.657 112.133 224.256 111.507 223.901 110.854C218.469 100.802 209.313 100.597 208.828 100.587C209.313 100.401 220.532 96.3594 227.607 107.046C228.428 108.297 229.044 109.669 229.483 111.106C230.052 113.094 231.611 116.939 235.475 120.477Z" fill="#8F66BB"/>
<path d="M181.133 79.2139C181.133 79.2139 179.089 88.9299 186.052 95.5005C186.36 95.7899 186.687 96.0512 187.032 96.3219C188.096 97.1432 190.971 99.5045 193.537 102.818C195.283 105.067 196.879 107.755 197.691 110.705C197.691 110.695 197.691 110.695 197.7 110.695C197.775 110.182 201.181 99.1219 191.447 91.6925C190.812 91.2072 190.215 90.6752 189.655 90.1152C189.477 89.9379 188.619 88.4819 188.451 88.2952C186.332 85.9805 181.432 84.1045 181.133 79.2139Z" fill="#7043A0"/>
<path d="M181.135 79.2139C181.424 84.1045 184.952 88.6312 187.061 90.9272C187.229 91.1139 187.407 91.2912 187.584 91.4685C188.144 92.0285 188.741 92.5699 189.376 93.0459C199.111 100.475 197.776 110.163 197.701 110.677C197.981 110.191 204.169 99.0565 194.043 89.7885C192.857 88.7059 191.504 87.8285 190.048 87.1285C188.051 86.1765 184.233 83.8805 181.135 79.2139Z" fill="#8F66BB"/>
<path d="M170.483 138.724L170.343 138.518C170.297 138.462 170.25 138.406 170.213 138.341L169.83 137.8C169.587 137.464 169.335 137.118 169.093 136.773C168.682 136.204 168.281 135.634 167.889 135.074C167.805 134.962 167.721 134.841 167.655 134.729C169.037 133.637 170.39 132.498 171.697 131.322C173.386 129.82 175.019 128.261 176.578 126.656L187.638 115.26C190.41 112.404 193.341 109.744 196.374 107.224C196.775 106.888 197.177 106.552 197.587 106.225C197.839 106.02 198.091 105.824 198.343 105.618C198.782 105.273 199.221 104.918 199.669 104.582C207.639 98.3944 216.254 93.0651 224.869 87.8757C230.039 84.7677 233.567 82.9477 236.041 81.8837C238.803 80.6984 240.25 80.4557 241.193 80.4277L239.457 84.3011C239.214 84.3104 238.626 84.3944 237.403 84.8517C235.537 85.5704 232.149 87.1757 226.175 90.7691C221.565 93.5411 217.085 96.5464 212.735 99.7664C212.39 100.018 212.035 100.289 211.69 100.55C211.531 100.672 211.373 100.784 211.223 100.905C210.971 101.092 210.719 101.288 210.477 101.474C203.785 106.598 197.447 112.236 191.521 118.34L188.45 121.504L187.815 122.157L187.554 122.418L187.106 122.876L180.451 129.726C178.575 131.668 176.597 133.544 174.543 135.336C173.227 136.512 171.874 137.632 170.483 138.724Z" fill="#8F66BB"/>
<path d="M153.448 193.764L152.486 202.351C152.356 203.499 151.441 204.404 150.284 204.507L130.012 206.364C127.65 206.579 125.401 207.484 123.544 208.95C122.918 209.444 123.264 210.452 124.066 210.452H125.186C126.642 210.452 128.08 210.191 129.442 209.687L130.749 209.201C131.934 208.763 133.176 208.511 134.436 208.445L143.816 208.007L142.593 210.536C142.406 210.919 142.808 211.32 143.19 211.133L147.726 208.931C149.938 207.858 152.542 207.941 154.689 209.155L157.881 210.965C158.525 211.329 159.328 210.956 159.477 210.238L159.785 208.716C159.897 208.156 160.392 207.745 160.961 207.745H166.262C166.421 207.745 166.58 207.773 166.729 207.839L172.712 210.368C173.076 210.527 173.412 210.079 173.15 209.771L170.854 207.018L180.514 208.063C181.401 208.156 182.288 208.352 183.137 208.632L187.785 210.163C188.205 210.303 188.485 209.733 188.13 209.481L185.526 207.661C183.622 206.327 181.382 205.534 179.049 205.384L167.438 204.619C166.468 204.553 165.628 203.919 165.301 203.013L162.893 196.293L153.448 193.764Z" fill="#8F66BB"/>
<path d="M159.534 202.482C152.226 202.482 146.3 196.555 146.3 189.247V175.546H172.778V189.247C172.769 196.555 166.842 202.482 159.534 202.482Z" fill="#581B98"/>
<path d="M193.169 134.265C193.496 144.485 189.268 153.725 182.352 160.109C177.499 164.589 174.68 170.861 174.68 177.459V179.83C174.68 181.333 173.467 182.546 171.964 182.546H147.091C145.588 182.546 144.375 181.333 144.375 179.83V177.674C144.375 171.075 141.733 164.682 136.852 160.239C130.104 154.089 125.876 145.222 125.876 135.375C125.876 116.326 141.696 100.973 160.913 101.747C178.413 102.447 192.609 116.755 193.169 134.265Z" fill="#FFDE74"/>
<path d="M182.354 160.099C177.5 164.579 174.682 170.851 174.682 177.459V179.829C174.682 181.332 173.468 182.545 171.966 182.545H168.718C170.22 182.545 171.434 181.332 171.434 179.829V177.459C171.434 170.851 174.243 164.579 179.106 160.099C186.022 153.724 190.25 144.484 189.923 134.264C189.363 116.829 175.298 102.568 157.9 101.756C158.89 101.709 159.898 101.7 160.915 101.747C178.415 102.447 192.611 116.764 193.171 134.273C193.498 144.484 189.27 153.724 182.354 160.099Z" fill="#FFF87F"/>
<path d="M172.402 188.815H146.66C145.512 188.815 144.579 187.882 144.579 186.734C144.579 185.586 145.512 184.653 146.66 184.653H172.402C173.55 184.653 174.483 185.586 174.483 186.734C174.492 187.882 173.559 188.815 172.402 188.815ZM172.402 195.097H146.66C145.512 195.097 144.579 194.163 144.579 193.015C144.579 191.867 145.512 190.934 146.66 190.934H172.402C173.55 190.934 174.483 191.867 174.483 193.015C174.492 194.163 173.559 195.097 172.402 195.097Z" fill="#BDBDBD"/>
<path d="M163.539 182.536H162.522V151.988H156.567V182.536H155.55V151.988H150.416C147.028 151.988 144.266 149.226 144.266 145.838V145.604C144.266 142.216 147.028 139.454 150.416 139.454C153.814 139.454 156.567 142.216 156.567 145.604V150.971H162.522V145.604C162.522 142.216 165.284 139.454 168.672 139.454C172.06 139.454 174.823 142.216 174.823 145.604V145.838C174.823 149.226 172.06 151.988 168.672 151.988H163.539V182.536ZM163.539 150.971H168.672C171.5 150.971 173.806 148.666 173.806 145.838V145.604C173.806 142.776 171.5 140.471 168.672 140.471C165.844 140.471 163.539 142.776 163.539 145.604V150.971ZM150.407 140.471C147.579 140.471 145.274 142.776 145.274 145.604V145.838C145.274 148.666 147.579 150.971 150.407 150.971H155.54V145.604C155.531 142.776 153.235 140.471 150.407 140.471Z" fill="#414042"/>
<path d="M159.011 106.832L158.731 108.054C158.227 110.276 156.556 112.021 154.382 112.684C144.059 115.82 135.65 122.642 129.77 134.356C131.244 119.46 139.682 109.249 157.686 105.488C158.479 105.329 159.188 106.038 159.011 106.832Z" fill="white"/>
<path d="M226.434 88.5766C224.53 84.3579 226.415 79.3926 230.643 77.4886L238.558 73.9326L245.436 89.2206L237.522 92.7766C233.303 94.6899 228.338 92.8046 226.434 88.5766Z" fill="#581B98"/>
<path d="M274.574 90.2849C268.759 93.1315 262.319 93.0849 256.841 90.7515C252.995 89.1089 248.637 89.1182 244.829 90.8262L243.457 91.4422C242.589 91.8342 241.571 91.4422 241.179 90.5835L234.721 76.2195C234.329 75.3515 234.721 74.3342 235.579 73.9422L236.821 73.3822C240.629 71.6649 243.634 68.4822 244.941 64.5062C246.742 59.0089 250.755 54.2675 256.449 51.7009C267.453 46.7542 280.426 51.9062 284.971 63.1995C289.125 73.4942 284.542 85.4129 274.574 90.2849Z" fill="#FFDE74"/>
<path d="M256.841 90.7519C252.996 89.1092 248.637 89.1092 244.82 90.8265L243.448 91.4425C242.58 91.8345 241.563 91.4425 241.18 90.5745L240.34 88.6985C240.732 89.5665 241.749 89.9492 242.608 89.5665L243.98 88.9505C247.797 87.2332 252.147 87.2332 256.001 88.8759C261.48 91.2092 267.92 91.2559 273.735 88.4092C283.656 83.5559 288.239 71.7305 284.188 61.4639C284.477 62.0239 284.739 62.6025 284.981 63.1999C289.125 73.4945 284.543 85.4039 274.575 90.2759C268.76 93.1319 262.32 93.0852 256.841 90.7519Z" fill="#FFF87F"/>
<path d="M237.67 92.4685L230.977 77.6005C230.679 76.9379 230.978 76.1539 231.64 75.8552C232.303 75.5565 233.087 75.8552 233.385 76.5179L240.077 91.3859C240.376 92.0485 240.078 92.8325 239.415 93.1312C238.752 93.4299 237.968 93.1312 237.67 92.4685ZM234.048 94.0925L227.356 79.2245C227.058 78.5619 227.356 77.7779 228.019 77.4792C228.681 77.1805 229.465 77.4792 229.764 78.1419L236.456 93.0099C236.755 93.6725 236.456 94.4565 235.794 94.7552C235.122 95.0539 234.347 94.7645 234.048 94.0925Z" fill="#BDBDBD"/>
<path d="M238.996 85.711L238.734 85.123L256.384 77.1896L254.834 73.7456L237.185 81.679L236.924 81.091L254.573 73.1576L253.238 70.1896C252.361 68.2296 253.238 65.915 255.189 65.0376L255.32 64.9816C257.28 64.1043 259.594 64.9816 260.472 66.9323C261.349 68.8923 260.472 71.207 258.521 72.0843L255.422 73.475L256.972 76.919L260.07 75.5283C262.03 74.651 264.345 75.5283 265.222 77.479C266.1 79.439 265.222 81.7536 263.272 82.631L263.141 82.687C261.181 83.5643 258.866 82.687 257.989 80.7363L256.654 77.7683L238.996 85.711ZM257.233 77.507L258.568 80.475C259.305 82.1083 261.228 82.8363 262.861 82.1083L262.992 82.0523C264.625 81.315 265.353 79.3923 264.625 77.759C263.888 76.1256 261.965 75.3976 260.332 76.1256L257.233 77.507ZM259.884 67.1936C259.146 65.5603 257.224 64.8323 255.59 65.5603L255.46 65.6163C253.826 66.3536 253.098 68.2763 253.826 69.9096L255.161 72.8776L258.26 71.487C259.884 70.759 260.612 68.827 259.884 67.1936Z" fill="#414042"/>
<path d="M281.546 63.4243L280.762 63.583C279.353 63.863 277.906 63.359 276.954 62.267C272.465 57.1243 266.333 54.035 258.045 53.6803C267.033 50.6657 275.116 52.887 281.966 62.3043C282.274 62.7336 282.05 63.331 281.546 63.4243Z" fill="white"/>
<path d="M49.7671 114.31C46.4258 120.003 43.4111 119.443 40.6765 112.966L40.4805 106.414L49.1978 106.983L49.7671 114.31Z" fill="#F79BBC"/>
<path d="M54.006 94.2325C54.006 94.2325 57.2447 102.987 54.4634 108.055C53.026 110.687 49.806 111.76 47.034 110.631C44.9154 109.763 41.7887 108.083 39.3154 105.078C39.1007 104.816 39.5767 96.8458 39.5767 96.8458L41.4247 94.1018L48.6487 93.0005L54.006 94.2325Z" fill="#F79BBC"/>
<path d="M46.4851 101.616L45.3278 98.5455C45.3278 98.5455 46.2798 98.9002 47.4465 99.0495C49.1265 99.2735 50.6758 98.0788 50.9091 96.3988L50.9651 95.9788C50.9651 95.9788 58.3571 95.4748 55.4918 88.9042C55.1278 88.0735 54.3998 87.4482 53.5318 87.2055C52.0198 86.7855 49.3505 86.6362 45.8318 88.7735C44.8051 89.3988 43.4985 89.2402 42.3691 88.8388C41.1465 88.4002 39.2985 88.5028 38.1038 92.1055C37.8985 92.7402 37.5905 93.3282 37.1891 93.8602C36.0411 95.3908 32.6718 101.075 40.2505 107.636C40.4651 107.823 40.7918 107.655 40.7731 107.384C40.6705 105.965 40.5771 102.876 41.4638 101.233C42.0051 100.225 43.4145 100.104 44.1331 101L45.2065 102.344C45.4585 102.661 45.9158 102.717 46.2425 102.484C46.5038 102.297 46.6065 101.933 46.4851 101.616Z" fill="#333333"/>
<path d="M92.9652 164.876L95.8585 166.416C96.3159 166.659 96.8572 166.706 97.3519 166.538L99.4799 165.819C99.8812 165.679 100.32 165.894 100.469 166.295C100.591 166.622 100.479 166.995 100.189 167.2L98.5652 168.376C98.1359 168.684 98.0705 169.31 98.4439 169.692L102.131 173.594C102.42 173.902 102.411 174.378 102.112 174.676C101.823 174.966 101.356 174.984 101.048 174.704L98.8079 172.688L101.337 174.975C101.701 175.302 101.711 175.88 101.347 176.216C101.02 176.524 100.516 176.524 100.189 176.216L96.5399 172.763L99.4705 175.498C99.8159 175.815 99.8252 176.356 99.4985 176.692C99.1719 177.028 98.6492 177.038 98.3132 176.711L94.4679 172.959L97.3892 175.787C97.7159 176.104 97.7252 176.618 97.4172 176.954C97.1185 177.28 96.6145 177.308 96.2785 177.028C93.7119 174.928 91.2199 172.268 88.7559 169.291L92.9652 164.876Z" fill="#F79BBC"/>
<path d="M35.9595 261.405L28.0264 261.022L27.4426 273.132L35.3757 273.514L35.9595 261.405Z" fill="#F79BBC"/>
<path d="M27.6596 275L26.3716 276.484L26.0263 276.97C25.821 277.25 25.709 277.586 25.6903 277.94L25.625 279.294C25.6063 279.63 25.8676 279.919 26.2036 279.928L27.7063 280.003L27.725 279.62L28.537 279.658L28.5183 280.04L30.3196 280.171L30.3383 279.854L31.1876 279.891L31.169 280.227L33.185 280.311L34.2863 279.042C35.873 279.583 37.301 280.227 38.4956 281.002C38.5516 281.048 40.5956 281.151 40.605 281.104L40.6236 280.796L41.417 280.834L41.3983 281.142C42.0516 281.216 42.705 281.254 43.349 281.235L43.3676 280.918L44.1423 280.955L44.133 281.216C44.8143 281.244 45.421 281.207 45.953 281.076L45.9623 280.824L46.7463 280.759L46.737 280.983C47.1943 280.946 47.6236 280.843 48.0343 280.694L48.0063 280.442L48.7156 280.19L48.8463 280.451C49.6116 280.18 50.3116 279.891 50.9276 279.574C50.9276 279.574 51.105 278.547 50.4703 278.463L42.2943 277.166L31.813 275.206L27.6596 275Z" fill="#333333"/>
<path d="M26.1599 274.191C26.1319 274.695 26.1599 275.208 26.2439 275.703L26.3746 276.487C29.5386 276.58 32.4786 276.963 35.0732 277.747C35.6146 277.915 36.1372 278.092 36.6506 278.298C41.0186 280.052 45.6292 280.024 50.4639 278.456L50.5012 277.719C50.5292 277.168 50.1652 276.683 49.6332 276.543L46.1426 275.656C45.5266 275.498 44.9012 275.358 44.2759 275.208C42.5212 274.798 40.9252 274.014 39.4599 272.912C39.3759 272.856 39.3012 272.791 39.2172 272.726C39.1706 272.688 39.1239 272.651 39.0772 272.614C38.9466 273.379 38.1626 274.284 38.1159 274.34C38.0879 274.368 38.0599 274.378 38.0226 274.378C38.0039 274.378 37.9852 274.368 37.9759 274.35C37.9386 274.312 37.9292 274.256 37.9666 274.21C38.2466 273.892 38.8532 273.052 38.8999 272.474C38.8626 272.446 38.8346 272.418 38.7972 272.39C38.1906 272.194 37.1359 272.38 36.7066 272.502C36.6506 272.511 36.6039 272.483 36.5852 272.436C36.5666 272.38 36.6039 272.324 36.6506 272.315C36.7066 272.296 37.6959 272.035 38.4892 272.128C38.3679 272.026 38.2559 271.923 38.1346 271.811C38.0599 271.746 37.9852 271.671 37.9199 271.606C37.7612 271.456 37.6119 271.298 37.4532 271.139C37.3879 271.074 37.3319 271.008 37.2666 270.943C37.0426 270.7 36.8186 270.458 36.6039 270.206C36.1092 270.224 35.4559 270.532 35.1852 270.7C35.1386 270.728 35.0732 270.71 35.0546 270.663C35.0266 270.616 35.0452 270.56 35.0919 270.532C35.1292 270.504 35.8292 270.103 36.4546 270.028C36.3706 269.926 36.2772 269.823 36.1932 269.711C36.0532 269.534 35.8479 269.422 35.6239 269.403L27.4479 268.703C27.1492 268.675 26.8879 268.908 26.8879 269.207L26.8692 270.178C26.8599 270.896 26.7386 271.606 26.5146 272.287C26.3092 272.912 26.1972 273.547 26.1599 274.191Z" fill="#581B98"/>
<path d="M37.9741 274.358C37.9834 274.368 38.0021 274.377 38.0207 274.386C38.0581 274.395 38.0861 274.377 38.1141 274.349C38.1607 274.302 38.9447 273.388 39.0754 272.622C39.0194 272.576 38.9541 272.529 38.8981 272.473C38.8607 273.061 38.2447 273.892 37.9647 274.209C37.9274 274.265 37.9367 274.321 37.9741 274.358ZM36.5741 272.436C36.5834 272.492 36.6394 272.519 36.6954 272.501C37.1341 272.379 38.1794 272.193 38.7861 272.389C38.6834 272.305 38.5807 272.211 38.4781 272.127C37.6847 272.034 36.6954 272.295 36.6394 272.314C36.5927 272.333 36.5647 272.389 36.5741 272.436Z" fill="#211F23"/>
<path d="M35.0501 270.671C35.0781 270.718 35.1341 270.737 35.1808 270.709C35.4515 270.55 36.1048 270.233 36.5995 270.214C36.5435 270.149 36.4968 270.093 36.4408 270.027C35.8155 270.102 35.1155 270.513 35.0781 270.531C35.0315 270.559 35.0128 270.625 35.0501 270.671Z" fill="#303030"/>
<path d="M26.1599 274.188C26.1319 274.692 26.1599 275.206 26.2439 275.7L26.3746 276.484C29.5386 276.578 32.4786 276.96 35.0732 277.744L39.2639 275.14C39.5066 274.991 39.5626 274.664 39.3946 274.44L35.6239 269.41L27.4479 268.71C27.1492 268.682 26.8879 268.915 26.8879 269.214L26.8692 270.184C26.8599 270.903 26.7386 271.612 26.5146 272.294C26.3092 272.91 26.1972 273.544 26.1599 274.188Z" fill="#414042"/>
<path d="M35.453 269.775L35.5184 269.719L35.4717 269.654H35.397L35.3877 269.738H35.425L35.453 269.775Z" fill="#581B98"/>
<path d="M26.5951 275.934L26.6791 275.916L26.6977 276.037L26.6137 276.056L26.5951 275.934ZM26.5577 275.701L26.6417 275.682L26.6604 275.804L26.5764 275.822L26.5577 275.701ZM26.5204 275.458L26.6044 275.449C26.6137 275.486 26.6137 275.524 26.6231 275.561L26.5391 275.57C26.5391 275.542 26.5297 275.505 26.5204 275.458ZM26.4924 275.225L26.5764 275.216C26.5764 275.253 26.5857 275.29 26.5857 275.337L26.5017 275.346C26.5017 275.3 26.5017 275.262 26.4924 275.225ZM26.4737 274.992L26.5577 274.982C26.5577 275.02 26.5671 275.057 26.5671 275.104L26.4831 275.113C26.4831 275.066 26.4737 275.029 26.4737 274.992ZM26.4644 274.749H26.5484C26.5484 274.786 26.5484 274.824 26.5577 274.87L26.4737 274.88C26.4644 274.833 26.4644 274.786 26.4644 274.749ZM26.4551 274.506H26.5391C26.5391 274.544 26.5391 274.581 26.5391 274.628H26.4551C26.4551 274.59 26.4551 274.553 26.4551 274.506ZM26.4644 274.273H26.5484C26.5484 274.31 26.5484 274.348 26.5484 274.394H26.4644C26.4551 274.348 26.4551 274.31 26.4644 274.273ZM26.4644 274.152C26.4644 274.114 26.4737 274.068 26.4737 274.03L26.5577 274.04C26.5577 274.077 26.5484 274.114 26.5484 274.161L26.4644 274.152ZM26.4831 273.918C26.4831 273.881 26.4924 273.844 26.4924 273.797L26.5764 273.806C26.5764 273.844 26.5671 273.881 26.5671 273.928L26.4831 273.918ZM26.5111 273.676C26.5204 273.638 26.5204 273.601 26.5297 273.554L26.6137 273.564C26.6044 273.601 26.6044 273.638 26.5951 273.685L26.5111 273.676ZM26.5391 273.442C26.5484 273.405 26.5484 273.368 26.5577 273.321L26.6417 273.34C26.6324 273.377 26.6324 273.414 26.6231 273.452L26.5391 273.442ZM26.5857 273.209C26.5951 273.172 26.6044 273.134 26.6137 273.088L26.6977 273.106C26.6884 273.144 26.6791 273.181 26.6791 273.218L26.5857 273.209ZM26.6324 272.976C26.6417 272.938 26.6511 272.901 26.6604 272.864L26.7444 272.882C26.7351 272.92 26.7257 272.957 26.7164 272.994L26.6324 272.976ZM26.6884 272.742C26.6977 272.705 26.7071 272.668 26.7164 272.63L26.8004 272.658C26.7911 272.696 26.7817 272.733 26.7724 272.77L26.6884 272.742ZM26.7537 272.509C26.7631 272.472 26.7817 272.434 26.7911 272.397L26.8751 272.425C26.8657 272.462 26.8471 272.5 26.8377 272.537L26.7537 272.509ZM26.8284 272.285C26.8377 272.248 26.8471 272.21 26.8657 272.173L26.9497 272.201C26.9404 272.238 26.9311 272.276 26.9124 272.313L26.8284 272.285ZM26.8937 272.061C26.9031 272.024 26.9124 271.986 26.9217 271.949L27.0057 271.968C26.9964 272.005 26.9871 272.042 26.9777 272.08L26.8937 272.061ZM26.9497 271.828C26.9591 271.79 26.9684 271.753 26.9777 271.716L27.0617 271.734C27.0524 271.772 27.0431 271.809 27.0337 271.846L26.9497 271.828ZM27.0057 271.604C27.0151 271.566 27.0244 271.529 27.0244 271.492L27.1084 271.51C27.0991 271.548 27.0897 271.585 27.0804 271.632L27.0057 271.604ZM27.0431 271.37C27.0524 271.333 27.0524 271.296 27.0617 271.258L27.1457 271.268C27.1364 271.305 27.1364 271.342 27.1271 271.389L27.0431 271.37ZM27.0804 271.137C27.0897 271.1 27.0897 271.062 27.0991 271.025L27.1831 271.034C27.1737 271.072 27.1737 271.109 27.1644 271.156L27.0804 271.137ZM27.1177 270.904C27.1177 270.866 27.1271 270.829 27.1271 270.782L27.2111 270.792C27.2111 270.829 27.2017 270.866 27.2017 270.913L27.1177 270.904ZM27.1364 270.67C27.1364 270.633 27.1457 270.596 27.1457 270.549L27.2297 270.558C27.2297 270.596 27.2204 270.642 27.2204 270.68L27.1364 270.67ZM27.1551 270.316H27.2391C27.2391 270.353 27.2391 270.39 27.2391 270.437H27.1551C27.1551 270.39 27.1551 270.353 27.1551 270.316ZM27.1551 270.082H27.2391V270.204H27.1551V270.082ZM27.1644 269.84H27.2484V269.961H27.1644V269.84ZM27.1644 269.606H27.2484V269.728H27.1644V269.606ZM27.1737 269.364H27.2577V269.485H27.1737V269.364ZM35.1537 269.718L35.1631 269.634L35.2844 269.644L35.2751 269.728L35.1537 269.718ZM34.9111 269.7L34.9204 269.616L35.0417 269.625L35.0324 269.709L34.9111 269.7ZM34.6777 269.681L34.6871 269.597L34.8084 269.606L34.7991 269.69L34.6777 269.681ZM34.4444 269.653L34.4537 269.569L34.5751 269.578L34.5657 269.662L34.4444 269.653ZM34.2017 269.634L34.2111 269.55L34.3324 269.56L34.3231 269.644L34.2017 269.634ZM33.9684 269.616L33.9777 269.532L34.0991 269.541L34.0897 269.625L33.9684 269.616ZM33.7257 269.597L33.7351 269.513L33.8564 269.522L33.8471 269.606L33.7257 269.597ZM33.4924 269.578L33.5017 269.494L33.6231 269.504L33.6137 269.588L33.4924 269.578ZM33.2591 269.56L33.2684 269.476L33.3897 269.485L33.3804 269.569L33.2591 269.56ZM33.0164 269.541L33.0257 269.457L33.1471 269.466L33.1284 269.55L33.0164 269.541ZM27.1737 269.242C27.1831 269.196 27.2017 269.158 27.2297 269.121L27.3044 269.168C27.2857 269.196 27.2764 269.224 27.2671 269.261L27.1737 269.242ZM32.7831 269.513L32.7924 269.429L32.9137 269.438L32.9044 269.522L32.7831 269.513ZM32.5497 269.494L32.5591 269.41L32.6804 269.42L32.6711 269.504L32.5497 269.494ZM32.3071 269.476L32.3164 269.392L32.4377 269.401L32.4191 269.485L32.3071 269.476ZM32.0737 269.457L32.0831 269.373L32.2044 269.382L32.1857 269.466L32.0737 269.457ZM31.8404 269.438L31.8497 269.354L31.9711 269.364L31.9617 269.448L31.8404 269.438ZM31.5977 269.42L31.6071 269.336L31.7284 269.345L31.7191 269.429L31.5977 269.42ZM31.3644 269.392L31.3737 269.308L31.4951 269.317L31.4857 269.401L31.3644 269.392ZM31.1311 269.373L31.1404 269.289L31.2617 269.298L31.2524 269.382L31.1311 269.373ZM30.8884 269.354L30.8977 269.27L31.0191 269.28L31.0097 269.364L30.8884 269.354ZM30.6551 269.336L30.6644 269.252L30.7857 269.261L30.7764 269.345L30.6551 269.336ZM30.4217 269.317L30.4311 269.233L30.5524 269.242L30.5431 269.326L30.4217 269.317ZM30.1791 269.298L30.1884 269.214L30.3097 269.224L30.3004 269.308L30.1791 269.298ZM29.9457 269.27L29.9551 269.186L30.0764 269.196L30.0671 269.28L29.9457 269.27ZM29.7124 269.252L29.7217 269.168L29.8431 269.177L29.8337 269.261L29.7124 269.252ZM29.4697 269.233L29.4791 269.149L29.6004 269.158L29.5911 269.242L29.4697 269.233ZM29.2364 269.214L29.2457 269.13L29.3671 269.14L29.3577 269.224L29.2364 269.214ZM29.0031 269.196L29.0124 269.112L29.1337 269.121L29.1244 269.205L29.0031 269.196ZM28.7604 269.177L28.7697 269.093L28.8911 269.102L28.8817 269.186L28.7604 269.177ZM28.5271 269.158L28.5364 269.074L28.6577 269.084L28.6484 269.168L28.5271 269.158ZM27.3324 269.028C27.3697 269.009 27.4164 268.99 27.4631 268.981L27.4724 269.065C27.4351 269.065 27.4071 269.084 27.3791 269.093L27.3324 269.028ZM28.2937 269.13L28.3031 269.046L28.4244 269.056L28.4151 269.14L28.2937 269.13ZM28.0511 269.112L28.0604 269.028L28.1817 269.037L28.1724 269.121L28.0511 269.112ZM27.8177 269.093L27.8271 269.009L27.9484 269.018L27.9391 269.102L27.8177 269.093ZM27.5751 269.074L27.5844 268.99L27.7057 269L27.6964 269.084L27.5751 269.074Z" fill="#581B98"/>
<path d="M26.6525 276.242L26.7458 276.252L26.7551 276.158H26.7271V276.14L26.6338 276.149L26.6525 276.242Z" fill="#581B98"/>
<path d="M34.7033 277.38L34.7313 277.296L34.8433 277.324L34.8153 277.408L34.7033 277.38ZM34.4793 277.315L34.5073 277.231L34.6193 277.259L34.5913 277.343L34.4793 277.315ZM34.2553 277.259L34.2739 277.175L34.3859 277.203L34.3673 277.287L34.2553 277.259ZM34.0313 277.194L34.0499 277.11L34.1619 277.138L34.1433 277.222L34.0313 277.194ZM33.7979 277.138L33.8166 277.054L33.9286 277.082L33.9099 277.166L33.7979 277.138ZM33.5739 277.082L33.5926 276.998L33.7046 277.026L33.6859 277.11L33.5739 277.082ZM33.3499 277.035L33.3686 276.951L33.4806 276.979L33.4619 277.063L33.3499 277.035ZM33.1166 276.979L33.1353 276.895L33.2473 276.923L33.2286 277.007L33.1166 276.979ZM32.8926 276.932L32.9113 276.848L33.0233 276.876L33.0046 276.96L32.8926 276.932ZM32.6593 276.886L32.6779 276.802L32.7899 276.82L32.7713 276.904L32.6593 276.886ZM32.4353 276.839L32.4539 276.755L32.5659 276.774L32.5473 276.858L32.4353 276.839ZM32.2019 276.802L32.2206 276.718L32.3326 276.736L32.3139 276.82L32.2019 276.802ZM31.9686 276.755L31.9873 276.671L32.0993 276.69L32.0806 276.774L31.9686 276.755ZM31.7446 276.718L31.7633 276.634L31.8753 276.652L31.8566 276.736L31.7446 276.718ZM31.5113 276.68L31.5206 276.596L31.6326 276.615L31.6139 276.699L31.5113 276.68ZM31.2779 276.652L31.2873 276.568L31.3993 276.587L31.3899 276.671L31.2779 276.652ZM31.0539 276.615L31.0633 276.531L31.1753 276.55L31.1659 276.634L31.0539 276.615ZM30.8206 276.578L30.8299 276.494L30.9419 276.512L30.9326 276.596L30.8206 276.578ZM30.5873 276.55L30.5966 276.466L30.7086 276.484L30.6993 276.568L30.5873 276.55ZM30.3539 276.522L30.3633 276.438L30.4753 276.456L30.4659 276.54L30.3539 276.522ZM30.1206 276.494L30.1299 276.41L30.2419 276.419L30.2326 276.503L30.1206 276.494ZM29.8873 276.466L29.8966 276.382L30.0086 276.391L29.9993 276.475L29.8873 276.466ZM29.6539 276.447L29.6633 276.363L29.7753 276.372L29.7659 276.456L29.6539 276.447ZM29.4299 276.419L29.4393 276.335L29.5513 276.344L29.5419 276.428L29.4299 276.419ZM29.1966 276.4L29.2059 276.316L29.3179 276.326L29.3086 276.41L29.1966 276.4ZM28.9633 276.382L28.9726 276.298L29.0939 276.307L29.0846 276.391L28.9633 276.382ZM28.7299 276.363L28.7393 276.279L28.8606 276.288L28.8513 276.372L28.7299 276.363ZM28.4966 276.344L28.5059 276.26L28.6179 276.27L28.6086 276.354L28.4966 276.344ZM28.2633 276.326L28.2726 276.242L28.3939 276.251L28.3846 276.335L28.2633 276.326ZM28.0299 276.307L28.0393 276.223L28.1606 276.232L28.1513 276.316L28.0299 276.307ZM27.7966 276.298L27.8059 276.214L27.9273 276.223L27.9179 276.307L27.7966 276.298ZM26.8633 276.167H26.9846V276.251L26.8633 276.242V276.167ZM27.5633 276.288V276.204L27.6846 276.214L27.6753 276.298L27.5633 276.288ZM27.0966 276.176L27.2179 276.186V276.27L27.1059 276.26L27.0966 276.176ZM27.3299 276.27V276.186L27.4513 276.195V276.279L27.3299 276.27Z" fill="#581B98"/>
<path d="M35.0063 277.466L35.0716 277.429L35.025 277.354L34.997 277.373L34.9596 277.363L34.9316 277.447L35.0063 277.466Z" fill="#581B98"/>
<path d="M35.125 277.289L35.2277 277.223L35.2743 277.298L35.1717 277.363L35.125 277.289ZM35.321 277.167L35.4237 277.102L35.4703 277.177L35.3677 277.242L35.321 277.167ZM35.5263 277.046L35.629 276.981L35.6757 277.055L35.573 277.121L35.5263 277.046ZM35.7223 276.915L35.825 276.85L35.8717 276.925L35.769 276.99L35.7223 276.915ZM35.9183 276.794L36.021 276.729L36.0677 276.803L35.965 276.869L35.9183 276.794ZM36.1143 276.673L36.217 276.607L36.2637 276.682L36.161 276.747L36.1143 276.673ZM36.3197 276.551L36.4223 276.486L36.469 276.561L36.3663 276.626L36.3197 276.551ZM36.5157 276.421L36.6183 276.355L36.665 276.43L36.5623 276.495L36.5157 276.421ZM36.7117 276.299L36.8143 276.234L36.861 276.309L36.7583 276.374L36.7117 276.299ZM36.9077 276.178L37.0103 276.113L37.057 276.187L36.9543 276.253L36.9077 276.178ZM37.113 276.057L37.2157 275.991L37.2623 276.066L37.1597 276.131L37.113 276.057ZM37.309 275.935L37.4117 275.87L37.4583 275.945L37.3557 276.01L37.309 275.935ZM37.505 275.805L37.6077 275.739L37.6543 275.814L37.5517 275.879L37.505 275.805ZM37.7103 275.683L37.813 275.618L37.8597 275.693L37.757 275.758L37.7103 275.683ZM37.9063 275.562L38.009 275.497L38.0557 275.571L37.953 275.637L37.9063 275.562ZM38.1023 275.441L38.205 275.375L38.2517 275.45L38.149 275.515L38.1023 275.441ZM38.2983 275.31L38.401 275.245L38.4477 275.319L38.345 275.385L38.2983 275.31ZM38.5037 275.189L38.6063 275.123L38.653 275.198L38.5503 275.263L38.5037 275.189ZM38.6997 275.067L38.8023 275.002L38.849 275.077L38.7463 275.142L38.6997 275.067ZM38.8957 274.946L38.9983 274.881L39.045 274.955L38.9423 275.021L38.8957 274.946ZM39.0637 274.815C39.073 274.797 39.0823 274.769 39.0917 274.741C39.0917 274.731 39.0917 274.731 39.0917 274.722L39.1757 274.731C39.1757 274.741 39.1757 274.75 39.1757 274.759C39.1663 274.797 39.157 274.834 39.1383 274.862L39.0637 274.815ZM39.0543 274.591L39.017 274.545L39.0917 274.489L39.129 274.535C39.1477 274.554 39.157 274.573 39.1663 274.601L39.0823 274.638C39.073 274.619 39.0637 274.601 39.0543 274.591ZM38.8863 274.358L38.961 274.302L39.0357 274.395L38.961 274.451L38.8863 274.358ZM38.7463 274.171L38.821 274.115L38.8957 274.209L38.821 274.265L38.7463 274.171ZM38.6063 273.985L38.681 273.929L38.7557 274.022L38.681 274.078L38.6063 273.985ZM38.4663 273.798L38.541 273.742L38.6157 273.835L38.541 273.891L38.4663 273.798ZM38.3263 273.611L38.401 273.555L38.4757 273.649L38.401 273.705L38.3263 273.611ZM38.1863 273.425L38.261 273.369L38.3357 273.462L38.261 273.518L38.1863 273.425ZM38.037 273.238L38.1117 273.182L38.1863 273.275L38.1117 273.331L38.037 273.238ZM37.897 273.051L37.9717 272.995L38.037 273.089L37.9623 273.145L37.897 273.051ZM37.757 272.865L37.8317 272.809L37.9063 272.902L37.8317 272.958L37.757 272.865ZM37.617 272.678L37.6917 272.622L37.7663 272.715L37.6917 272.771L37.617 272.678ZM37.477 272.482L37.5517 272.426L37.6263 272.519L37.5517 272.575L37.477 272.482ZM37.337 272.295L37.4117 272.239L37.4863 272.332L37.4117 272.389L37.337 272.295ZM37.197 272.109L37.2717 272.053L37.337 272.146L37.2623 272.202L37.197 272.109ZM37.057 271.922L37.1317 271.866L37.2063 271.959L37.1317 272.015L37.057 271.922ZM36.917 271.735L36.9917 271.679L37.0663 271.773L36.9917 271.829L36.917 271.735ZM36.777 271.549L36.8517 271.493L36.917 271.586L36.8423 271.642L36.777 271.549ZM36.637 271.362L36.7117 271.306L36.7863 271.399L36.7117 271.455L36.637 271.362ZM36.497 271.175L36.5717 271.119L36.6463 271.212L36.5717 271.269L36.497 271.175ZM36.357 270.989L36.4317 270.933L36.5063 271.026L36.4317 271.082L36.357 270.989ZM36.217 270.802L36.2917 270.746L36.357 270.839L36.2823 270.895L36.217 270.802ZM36.077 270.615L36.1517 270.559L36.217 270.653L36.1423 270.709L36.077 270.615ZM35.937 270.429L36.0117 270.373L36.0863 270.466L36.0117 270.522L35.937 270.429ZM35.797 270.242L35.8717 270.186L35.9463 270.279L35.8717 270.335L35.797 270.242ZM35.657 270.055L35.7317 269.999L35.8063 270.093L35.7317 270.149L35.657 270.055ZM35.517 269.869L35.5917 269.812L35.6663 269.906L35.5917 269.962L35.517 269.869Z" fill="#581B98"/>
<path d="M37.5612 274.198C37.6079 273.955 37.8412 273.787 38.0839 273.825C38.3266 273.871 38.4946 274.105 38.4572 274.347C38.4106 274.59 38.1772 274.758 37.9346 274.721C37.6826 274.683 37.5146 274.45 37.5612 274.198ZM37.6919 274.226C37.6639 274.394 37.7759 274.562 37.9439 274.59C38.1119 274.618 38.2799 274.506 38.3079 274.338C38.3359 274.17 38.2239 274.002 38.0559 273.974C37.8879 273.937 37.7292 274.049 37.6919 274.226ZM36.1146 272.406C36.1612 272.163 36.3946 271.995 36.6372 272.033C36.8799 272.079 37.0479 272.313 37.0106 272.555C36.9639 272.798 36.7306 272.966 36.4879 272.929C36.2452 272.891 36.0772 272.658 36.1146 272.406ZM36.2546 272.434C36.2266 272.602 36.3386 272.77 36.5066 272.798C36.6746 272.826 36.8426 272.714 36.8706 272.546C36.8986 272.378 36.7866 272.21 36.6186 272.182C36.4506 272.145 36.2826 272.266 36.2546 272.434Z" fill="#E8E6E7"/>
<path d="M37.9646 274.218C37.9273 274.255 37.9366 274.321 37.974 274.358C37.9833 274.367 38.002 274.377 38.0206 274.386C38.058 274.395 38.086 274.377 38.114 274.349C38.1606 274.302 38.9446 273.387 39.0753 272.622C39.0846 272.594 39.0846 272.575 39.0846 272.547C39.094 272.463 39.094 272.379 39.0846 272.305C39.0753 272.221 39.0566 272.137 39.0193 272.062C38.87 271.754 38.4966 271.605 37.918 271.595C37.9926 271.67 38.0673 271.735 38.1326 271.801C38.506 271.829 38.7393 271.95 38.842 272.146C38.8513 272.165 38.8606 272.183 38.8606 272.202C38.8886 272.267 38.898 272.342 38.8886 272.426C38.8886 272.445 38.8886 272.454 38.8886 272.473C38.8513 273.07 38.2446 273.901 37.9646 274.218Z" fill="#211F23"/>
<path d="M36.574 272.436C36.5834 272.492 36.6394 272.52 36.6954 272.501C37.134 272.38 38.1794 272.193 38.786 272.389C38.8234 272.398 38.8514 272.417 38.8887 272.426C38.9634 272.464 39.0287 272.501 39.0754 272.548C39.094 272.566 39.122 272.594 39.1407 272.613C39.1687 272.65 39.1874 272.688 39.206 272.725C39.29 272.79 39.3647 272.846 39.4487 272.912C39.4394 272.744 39.3927 272.604 39.2994 272.492C39.2434 272.417 39.1687 272.361 39.0847 272.305C39.0194 272.268 38.9447 272.23 38.8607 272.202C38.7487 272.165 38.618 272.137 38.4874 272.118C37.694 272.025 36.7047 272.286 36.6487 272.305C36.5927 272.333 36.5647 272.389 36.574 272.436Z" fill="#211F23"/>
<path d="M34.681 270.596C34.6903 270.344 34.905 270.157 35.157 270.166C35.409 270.176 35.5957 270.39 35.5863 270.642C35.577 270.894 35.3623 271.081 35.1103 271.072C34.8583 271.062 34.6717 270.848 34.681 270.596ZM34.821 270.605C34.8117 270.773 34.9423 270.922 35.1197 270.932C35.2877 270.941 35.437 270.81 35.4463 270.633C35.4557 270.465 35.325 270.316 35.1477 270.306C34.9797 270.297 34.8303 270.428 34.821 270.605Z" fill="#E8E6E7"/>
<path d="M35.0501 270.67C35.0781 270.717 35.1341 270.735 35.1808 270.707C35.4515 270.549 36.1048 270.231 36.5995 270.213C36.7675 270.203 36.9168 270.231 37.0288 270.315C37.1875 270.427 37.2715 270.642 37.2621 270.95C37.3181 271.015 37.3835 271.081 37.4488 271.146C37.4955 270.661 37.3928 270.334 37.1408 270.157C36.9541 270.026 36.7021 269.998 36.4408 270.035C35.8155 270.11 35.1155 270.521 35.0781 270.539C35.0315 270.558 35.0128 270.623 35.0501 270.67Z" fill="#211F23"/>
<path d="M62.8937 261.061L55.0312 261.361L55.4944 273.477L63.3568 273.176L62.8937 261.061Z" fill="#F79BBC"/>
<path d="M55.4633 275L54.1753 276.484L53.83 276.97C53.6247 277.25 53.5127 277.586 53.494 277.94L53.4287 279.294C53.41 279.63 53.6713 279.919 54.0073 279.928L55.51 280.003L55.5287 279.62L56.3407 279.658L56.322 280.04L58.1233 280.171L58.142 279.854L58.9913 279.891L58.9727 280.227L60.9887 280.311L62.09 279.042C63.6767 279.583 65.1047 280.227 66.2993 281.002C66.3553 281.048 68.3993 281.151 68.4087 281.104L68.4273 280.796L69.2207 280.834L69.202 281.142C69.8553 281.216 70.5087 281.254 71.1527 281.235L71.1713 280.918L71.946 280.955L71.9367 281.216C72.618 281.244 73.2247 281.207 73.7567 281.076L73.766 280.824L74.55 280.759L74.5407 280.983C75.0073 280.946 75.4273 280.843 75.838 280.694L75.81 280.442L76.5193 280.19L76.65 280.451C77.4153 280.18 78.1153 279.891 78.7313 279.574C78.7313 279.574 78.9087 278.547 78.274 278.463L70.098 277.166L59.6167 275.206L55.4633 275Z" fill="#333333"/>
<path d="M53.9587 274.191C53.9307 274.695 53.9587 275.208 54.0427 275.703L54.1734 276.487C57.3374 276.58 60.2681 276.963 62.8721 277.747C63.4134 277.915 63.9361 278.092 64.4494 278.298C68.8174 280.052 73.4281 280.024 78.2627 278.456L78.3001 277.719C78.3281 277.168 77.9641 276.683 77.4321 276.543L73.9414 275.656C73.3254 275.498 72.7001 275.358 72.0747 275.208C70.3201 274.798 68.7241 274.014 67.2587 272.912C67.1747 272.856 67.1001 272.791 67.0161 272.726C66.9694 272.688 66.9227 272.651 66.8761 272.614C66.7454 273.379 65.9614 274.284 65.9147 274.34C65.8867 274.368 65.8587 274.378 65.8214 274.378C65.8027 274.378 65.7841 274.368 65.7747 274.35C65.7374 274.312 65.7281 274.256 65.7654 274.21C66.0454 273.892 66.6521 273.052 66.6987 272.474C66.6614 272.446 66.6334 272.418 66.5961 272.39C65.9894 272.194 64.9347 272.38 64.5054 272.502C64.4494 272.511 64.4027 272.483 64.3841 272.436C64.3747 272.38 64.4027 272.324 64.4494 272.315C64.5054 272.296 65.4947 272.035 66.2881 272.128C66.1667 272.026 66.0547 271.923 65.9334 271.811C65.8587 271.746 65.7841 271.671 65.7187 271.606C65.5601 271.456 65.4107 271.298 65.2521 271.139C65.1867 271.074 65.1307 271.008 65.0654 270.943C64.8414 270.7 64.6174 270.458 64.4027 270.206C63.9081 270.224 63.2547 270.532 62.9841 270.7C62.9374 270.728 62.8721 270.71 62.8534 270.663C62.8254 270.616 62.8441 270.56 62.8907 270.532C62.9281 270.504 63.6281 270.103 64.2534 270.028C64.1694 269.926 64.0761 269.823 63.9921 269.711C63.8521 269.534 63.6467 269.422 63.4227 269.403L55.2467 268.703C54.9481 268.675 54.6867 268.908 54.6867 269.207L54.6681 270.178C54.6587 270.896 54.5374 271.606 54.3134 272.287C54.1081 272.912 53.9867 273.547 53.9587 274.191Z" fill="#581B98"/>
<path d="M65.7739 274.358C65.7832 274.368 65.8019 274.377 65.8205 274.386C65.8579 274.395 65.8859 274.377 65.9139 274.349C65.9605 274.302 66.7445 273.388 66.8752 272.622C66.8192 272.576 66.7539 272.529 66.6979 272.473C66.6605 273.061 66.0445 273.892 65.7645 274.209C65.7272 274.265 65.7272 274.321 65.7739 274.358ZM64.3739 272.436C64.3832 272.492 64.4392 272.519 64.4952 272.501C64.9339 272.379 65.9792 272.193 66.5859 272.389C66.4832 272.305 66.3805 272.211 66.2779 272.127C65.4845 272.034 64.4952 272.295 64.4392 272.314C64.3925 272.333 64.3645 272.389 64.3739 272.436Z" fill="#211F23"/>
<path d="M62.8475 270.671C62.8755 270.718 62.9315 270.737 62.9781 270.709C63.2488 270.55 63.9021 270.233 64.3968 270.214C64.3408 270.149 64.2941 270.093 64.2381 270.027C63.6128 270.102 62.9128 270.513 62.8755 270.531C62.8381 270.559 62.8195 270.625 62.8475 270.671Z" fill="#303030"/>
<path d="M53.9587 274.188C53.9307 274.692 53.9587 275.206 54.0427 275.7L54.1734 276.484C57.3374 276.578 60.2681 276.96 62.8721 277.744L67.0627 275.14C67.3054 274.991 67.3614 274.664 67.1934 274.44L63.4227 269.41L55.2467 268.71C54.9481 268.682 54.6867 268.915 54.6867 269.214L54.6681 270.184C54.6587 270.903 54.5374 271.612 54.3134 272.294C54.1081 272.91 53.9867 273.544 53.9587 274.188Z" fill="#414042"/>
<path d="M63.2464 269.775L63.3211 269.719L63.2744 269.654H63.1904V269.738H63.2278L63.2464 269.775Z" fill="#581B98"/>
<path d="M54.3988 275.934L54.4828 275.916L54.5015 276.037L54.4175 276.056L54.3988 275.934ZM54.3615 275.701L54.4455 275.682L54.4641 275.804L54.3801 275.822L54.3615 275.701ZM54.3241 275.458L54.4081 275.449C54.4175 275.486 54.4175 275.524 54.4268 275.561L54.3428 275.57C54.3335 275.542 54.3335 275.505 54.3241 275.458ZM54.2961 275.225L54.3801 275.216C54.3801 275.253 54.3895 275.29 54.3895 275.337L54.3055 275.346C54.3055 275.3 54.2961 275.262 54.2961 275.225ZM54.2775 274.992L54.3615 274.982C54.3615 275.02 54.3708 275.057 54.3708 275.104L54.2868 275.113C54.2775 275.066 54.2775 275.029 54.2775 274.992ZM54.2588 274.749H54.3428C54.3428 274.786 54.3428 274.824 54.3521 274.87L54.2681 274.88C54.2681 274.833 54.2681 274.786 54.2588 274.749ZM54.2588 274.506H54.3428C54.3428 274.544 54.3428 274.581 54.3428 274.628H54.2588C54.2588 274.59 54.2588 274.553 54.2588 274.506ZM54.2588 274.273H54.3428C54.3428 274.31 54.3428 274.348 54.3428 274.394H54.2588C54.2588 274.348 54.2588 274.31 54.2588 274.273ZM54.2681 274.152C54.2681 274.114 54.2681 274.068 54.2775 274.03L54.3615 274.04C54.3615 274.077 54.3521 274.114 54.3521 274.161L54.2681 274.152ZM54.2868 273.918C54.2868 273.881 54.2961 273.844 54.2961 273.797L54.3801 273.806C54.3801 273.844 54.3708 273.881 54.3708 273.928L54.2868 273.918ZM54.3055 273.676C54.3148 273.638 54.3148 273.601 54.3241 273.554L54.4081 273.564C54.3988 273.601 54.3988 273.638 54.3895 273.685L54.3055 273.676ZM54.3428 273.442C54.3521 273.405 54.3521 273.368 54.3615 273.321L54.4455 273.34C54.4361 273.377 54.4361 273.414 54.4268 273.452L54.3428 273.442ZM54.3801 273.209C54.3895 273.172 54.3988 273.134 54.4081 273.088L54.4921 273.106C54.4828 273.144 54.4735 273.181 54.4735 273.218L54.3801 273.209ZM54.4268 272.976C54.4361 272.938 54.4455 272.901 54.4548 272.864L54.5388 272.882C54.5295 272.92 54.5201 272.957 54.5108 272.994L54.4268 272.976ZM54.4921 272.742C54.5015 272.705 54.5108 272.668 54.5201 272.63L54.6041 272.658C54.5948 272.696 54.5855 272.733 54.5761 272.77L54.4921 272.742ZM54.5575 272.509C54.5668 272.472 54.5855 272.434 54.5948 272.397L54.6788 272.425C54.6695 272.462 54.6508 272.5 54.6415 272.537L54.5575 272.509ZM54.6228 272.285C54.6321 272.248 54.6415 272.21 54.6601 272.173L54.7441 272.201C54.7348 272.238 54.7255 272.276 54.7068 272.313L54.6228 272.285ZM54.6881 272.061C54.6975 272.024 54.7068 271.986 54.7161 271.949L54.8001 271.968C54.7908 272.005 54.7815 272.042 54.7721 272.08L54.6881 272.061ZM54.7535 271.828C54.7628 271.79 54.7721 271.753 54.7815 271.716L54.8655 271.734C54.8561 271.772 54.8468 271.809 54.8375 271.846L54.7535 271.828ZM54.8001 271.604C54.8095 271.566 54.8188 271.529 54.8188 271.492L54.9028 271.51C54.8935 271.548 54.8841 271.585 54.8841 271.632L54.8001 271.604ZM54.8468 271.37C54.8561 271.333 54.8561 271.296 54.8655 271.258L54.9495 271.268C54.9401 271.305 54.9401 271.342 54.9308 271.389L54.8468 271.37ZM54.8841 271.137C54.8935 271.1 54.8935 271.062 54.9028 271.025L54.9868 271.034C54.9775 271.072 54.9775 271.109 54.9681 271.156L54.8841 271.137ZM54.9121 270.904C54.9121 270.866 54.9215 270.829 54.9215 270.782L55.0055 270.792C55.0055 270.829 54.9961 270.866 54.9961 270.913L54.9121 270.904ZM54.9401 270.67C54.9401 270.633 54.9495 270.596 54.9495 270.549L55.0335 270.558C55.0335 270.596 55.0241 270.642 55.0241 270.68L54.9401 270.67ZM54.9495 270.316H55.0335C55.0335 270.353 55.0335 270.39 55.0335 270.437H54.9495C54.9495 270.39 54.9495 270.353 54.9495 270.316ZM54.9588 270.082H55.0428V270.204H54.9588V270.082ZM54.9588 269.84H55.0428V269.961H54.9588V269.84ZM54.9681 269.606H55.0521V269.728H54.9681V269.606ZM54.9681 269.364H55.0521V269.485H54.9681V269.364ZM62.9481 269.718L62.9575 269.634L63.0788 269.644L63.0695 269.728L62.9481 269.718ZM62.7148 269.7L62.7241 269.616L62.8455 269.625L62.8361 269.709L62.7148 269.7ZM62.4815 269.681L62.4908 269.597L62.6121 269.606L62.6028 269.69L62.4815 269.681ZM62.2388 269.653L62.2481 269.569L62.3695 269.578L62.3601 269.662L62.2388 269.653ZM62.0055 269.634L62.0148 269.55L62.1361 269.56L62.1268 269.644L62.0055 269.634ZM61.7721 269.616L61.7815 269.532L61.9028 269.541L61.8935 269.625L61.7721 269.616ZM61.5295 269.597L61.5388 269.513L61.6601 269.522L61.6508 269.606L61.5295 269.597ZM61.2961 269.578L61.3055 269.494L61.4268 269.504L61.4175 269.588L61.2961 269.578ZM61.0535 269.56L61.0628 269.476L61.1841 269.485L61.1748 269.569L61.0535 269.56ZM60.8201 269.541L60.8295 269.457L60.9508 269.466L60.9321 269.55L60.8201 269.541ZM54.9775 269.242C54.9868 269.196 55.0055 269.158 55.0335 269.121L55.1081 269.168C55.0895 269.196 55.0801 269.224 55.0708 269.261L54.9775 269.242ZM60.5868 269.513L60.5961 269.429L60.7175 269.438L60.7081 269.522L60.5868 269.513ZM60.3441 269.494L60.3535 269.41L60.4748 269.42L60.4655 269.504L60.3441 269.494ZM60.1108 269.476L60.1201 269.392L60.2415 269.401L60.2228 269.485L60.1108 269.476ZM59.8775 269.457L59.8868 269.373L60.0081 269.382L59.9895 269.466L59.8775 269.457ZM59.6348 269.438L59.6441 269.354L59.7655 269.364L59.7561 269.448L59.6348 269.438ZM59.4015 269.42L59.4108 269.336L59.5321 269.345L59.5228 269.429L59.4015 269.42ZM59.1681 269.392L59.1775 269.308L59.2988 269.317L59.2895 269.401L59.1681 269.392ZM58.9255 269.373L58.9348 269.289L59.0561 269.298L59.0468 269.382L58.9255 269.373ZM58.6921 269.354L58.7015 269.27L58.8228 269.28L58.8135 269.364L58.6921 269.354ZM58.4588 269.336L58.4681 269.252L58.5895 269.261L58.5801 269.345L58.4588 269.336ZM58.2161 269.317L58.2255 269.233L58.3468 269.242L58.3375 269.326L58.2161 269.317ZM57.9828 269.298L57.9921 269.214L58.1135 269.224L58.1041 269.308L57.9828 269.298ZM57.7495 269.27L57.7588 269.186L57.8801 269.196L57.8708 269.28L57.7495 269.27ZM57.5068 269.252L57.5161 269.168L57.6375 269.177L57.6281 269.261L57.5068 269.252ZM57.2735 269.233L57.2828 269.149L57.4041 269.158L57.3948 269.242L57.2735 269.233ZM57.0401 269.214L57.0495 269.13L57.1708 269.14L57.1615 269.224L57.0401 269.214ZM56.7975 269.196L56.8068 269.112L56.9281 269.121L56.9188 269.205L56.7975 269.196ZM56.5641 269.177L56.5735 269.093L56.6948 269.102L56.6855 269.186L56.5641 269.177ZM56.3308 269.158L56.3401 269.074L56.4615 269.084L56.4521 269.168L56.3308 269.158ZM55.1268 269.028C55.1641 269.009 55.2108 268.99 55.2575 268.981L55.2668 269.065C55.2295 269.065 55.2015 269.084 55.1735 269.093L55.1268 269.028ZM56.0881 269.13L56.0975 269.046L56.2188 269.056L56.2095 269.14L56.0881 269.13ZM55.8548 269.112L55.8641 269.028L55.9855 269.037L55.9761 269.121L55.8548 269.112ZM55.6215 269.093L55.6308 269.009L55.7521 269.018L55.7428 269.102L55.6215 269.093ZM55.3788 269.074L55.3881 268.99L55.5095 269L55.5001 269.084L55.3788 269.074Z" fill="#581B98"/>
<path d="M54.4562 276.242L54.5495 276.252V276.158H54.5308L54.5215 276.14L54.4375 276.149L54.4562 276.242Z" fill="#581B98"/>
<path d="M62.5109 277.38L62.5389 277.296L62.6509 277.324L62.6229 277.408L62.5109 277.38ZM62.2869 277.315L62.3149 277.231L62.4269 277.259L62.3989 277.343L62.2869 277.315ZM62.0629 277.259L62.0816 277.175L62.1936 277.203L62.1749 277.287L62.0629 277.259ZM61.8296 277.194L61.8482 277.11L61.9602 277.138L61.9416 277.222L61.8296 277.194ZM61.6056 277.138L61.6242 277.054L61.7362 277.082L61.7176 277.166L61.6056 277.138ZM61.3816 277.082L61.4002 276.998L61.5122 277.026L61.4936 277.11L61.3816 277.082ZM61.1482 277.035L61.1669 276.951L61.2789 276.979L61.2602 277.063L61.1482 277.035ZM60.9242 276.979L60.9429 276.895L61.0549 276.923L61.0362 277.007L60.9242 276.979ZM60.6909 276.932L60.7096 276.848L60.8216 276.876L60.8029 276.96L60.6909 276.932ZM60.4669 276.886L60.4856 276.802L60.5976 276.82L60.5789 276.904L60.4669 276.886ZM60.2336 276.839L60.2522 276.755L60.3642 276.774L60.3456 276.858L60.2336 276.839ZM60.0096 276.802L60.0282 276.718L60.1402 276.736L60.1216 276.82L60.0096 276.802ZM59.7762 276.755L59.7949 276.671L59.9069 276.69L59.8882 276.774L59.7762 276.755ZM59.5429 276.718L59.5616 276.634L59.6736 276.652L59.6549 276.736L59.5429 276.718ZM59.3189 276.68L59.3282 276.596L59.4402 276.615L59.4216 276.699L59.3189 276.68ZM59.0856 276.652L59.0949 276.568L59.2069 276.587L59.1976 276.671L59.0856 276.652ZM58.8522 276.615L58.8616 276.531L58.9736 276.55L58.9642 276.634L58.8522 276.615ZM58.6189 276.578L58.6282 276.494L58.7402 276.512L58.7309 276.596L58.6189 276.578ZM58.3949 276.55L58.4042 276.466L58.5162 276.484L58.5069 276.568L58.3949 276.55ZM58.1616 276.522L58.1709 276.438L58.2829 276.456L58.2736 276.54L58.1616 276.522ZM57.9282 276.494L57.9376 276.41L58.0496 276.419L58.0402 276.503L57.9282 276.494ZM57.6949 276.466L57.7042 276.382L57.8162 276.391L57.8069 276.475L57.6949 276.466ZM57.4616 276.447L57.4709 276.363L57.5829 276.372L57.5736 276.456L57.4616 276.447ZM57.2282 276.419L57.2376 276.335L57.3496 276.344L57.3402 276.428L57.2282 276.419ZM56.9949 276.4L57.0042 276.316L57.1162 276.326L57.1069 276.41L56.9949 276.4ZM56.7616 276.382L56.7709 276.298L56.8829 276.307L56.8736 276.391L56.7616 276.382ZM56.5282 276.363L56.5376 276.279L56.6589 276.288L56.6496 276.372L56.5282 276.363ZM56.2949 276.344L56.3042 276.26L56.4162 276.27L56.4069 276.354L56.2949 276.344ZM56.0616 276.326L56.0709 276.242L56.1922 276.251L56.1829 276.335L56.0616 276.326ZM55.8282 276.307L55.8376 276.223L55.9589 276.232L55.9496 276.316L55.8282 276.307ZM55.5949 276.298L55.6042 276.214L55.7256 276.223L55.7162 276.307L55.5949 276.298ZM54.6709 276.167H54.7922V276.251L54.6709 276.242V276.167ZM55.3616 276.288V276.204L55.4829 276.214L55.4736 276.298L55.3616 276.288ZM54.9042 276.176L55.0256 276.186V276.27L54.9136 276.26L54.9042 276.176ZM55.1282 276.27V276.186L55.2496 276.195V276.279L55.1282 276.27Z" fill="#581B98"/>
<path d="M62.8061 277.466L62.8714 277.429L62.8248 277.354L62.7968 277.373L62.7594 277.363L62.7314 277.447L62.8061 277.466Z" fill="#581B98"/>
<path d="M62.9316 277.289L63.0343 277.223L63.081 277.298L62.9783 277.363L62.9316 277.289ZM63.1276 277.167L63.2303 277.102L63.277 277.177L63.1743 277.242L63.1276 277.167ZM63.3236 277.046L63.4263 276.981L63.473 277.055L63.3703 277.121L63.3236 277.046ZM63.529 276.915L63.6316 276.85L63.6783 276.925L63.5756 276.99L63.529 276.915ZM63.725 276.794L63.8276 276.729L63.8743 276.803L63.7716 276.869L63.725 276.794ZM63.921 276.673L64.0236 276.607L64.0703 276.682L63.9676 276.747L63.921 276.673ZM64.117 276.551L64.2196 276.486L64.2663 276.561L64.1636 276.626L64.117 276.551ZM64.3223 276.421L64.425 276.355L64.4716 276.43L64.369 276.495L64.3223 276.421ZM64.5183 276.299L64.621 276.234L64.6676 276.309L64.565 276.374L64.5183 276.299ZM64.7143 276.178L64.817 276.113L64.8636 276.187L64.761 276.253L64.7143 276.178ZM64.9103 276.057L65.013 275.991L65.0596 276.066L64.957 276.131L64.9103 276.057ZM65.1156 275.935L65.2183 275.87L65.265 275.945L65.1623 276.01L65.1156 275.935ZM65.3116 275.805L65.4143 275.739L65.461 275.814L65.3583 275.879L65.3116 275.805ZM65.5076 275.683L65.6103 275.618L65.657 275.693L65.5543 275.758L65.5076 275.683ZM65.7036 275.562L65.8063 275.497L65.853 275.571L65.7503 275.637L65.7036 275.562ZM65.909 275.441L66.0116 275.375L66.0583 275.45L65.9556 275.515L65.909 275.441ZM66.105 275.31L66.2076 275.245L66.2543 275.319L66.1516 275.385L66.105 275.31ZM66.301 275.189L66.4036 275.123L66.4503 275.198L66.3476 275.263L66.301 275.189ZM66.5063 275.067L66.609 275.002L66.6556 275.077L66.553 275.142L66.5063 275.067ZM66.7023 274.946L66.805 274.881L66.8516 274.955L66.749 275.021L66.7023 274.946ZM66.8703 274.815C66.8796 274.797 66.889 274.769 66.8983 274.741C66.8983 274.731 66.8983 274.731 66.8983 274.722L66.9823 274.731C66.9823 274.741 66.9823 274.75 66.9823 274.759C66.973 274.797 66.9636 274.834 66.945 274.862L66.8703 274.815ZM66.861 274.591L66.8236 274.545L66.8983 274.489L66.9356 274.535C66.9543 274.554 66.9636 274.573 66.973 274.601L66.889 274.638C66.8796 274.619 66.8703 274.601 66.861 274.591ZM66.6836 274.358L66.7583 274.302L66.833 274.395L66.7583 274.451L66.6836 274.358ZM66.5436 274.171L66.6183 274.115L66.693 274.209L66.6183 274.265L66.5436 274.171ZM66.4036 273.985L66.4783 273.929L66.5436 274.022L66.469 274.078L66.4036 273.985ZM66.2636 273.798L66.3383 273.742L66.413 273.835L66.3383 273.891L66.2636 273.798ZM66.1236 273.611L66.1983 273.555L66.273 273.649L66.1983 273.705L66.1236 273.611ZM65.9836 273.425L66.0583 273.369L66.133 273.462L66.0583 273.518L65.9836 273.425ZM65.8436 273.238L65.9183 273.182L65.993 273.275L65.9183 273.331L65.8436 273.238ZM65.7036 273.051L65.7783 272.995L65.853 273.089L65.7783 273.145L65.7036 273.051ZM65.5636 272.865L65.6383 272.809L65.7036 272.902L65.629 272.958L65.5636 272.865ZM65.4236 272.678L65.4983 272.622L65.573 272.715L65.4983 272.771L65.4236 272.678ZM65.2836 272.482L65.3583 272.426L65.433 272.519L65.3583 272.575L65.2836 272.482ZM65.1436 272.295L65.2183 272.239L65.293 272.332L65.2183 272.389L65.1436 272.295ZM65.0036 272.109L65.0783 272.053L65.153 272.146L65.0783 272.202L65.0036 272.109ZM64.8636 271.922L64.9383 271.866L65.013 271.959L64.9383 272.015L64.8636 271.922ZM64.7236 271.735L64.7983 271.679L64.873 271.773L64.7983 271.829L64.7236 271.735ZM64.5836 271.549L64.6583 271.493L64.733 271.586L64.6583 271.642L64.5836 271.549ZM64.4436 271.362L64.5183 271.306L64.5836 271.399L64.509 271.455L64.4436 271.362ZM64.3036 271.175L64.3783 271.119L64.453 271.212L64.3783 271.269L64.3036 271.175ZM64.1636 270.989L64.2383 270.933L64.313 271.026L64.2383 271.082L64.1636 270.989ZM64.0236 270.802L64.0983 270.746L64.173 270.839L64.0983 270.895L64.0236 270.802ZM63.8836 270.615L63.9583 270.559L64.033 270.653L63.9583 270.709L63.8836 270.615ZM63.7436 270.429L63.8183 270.373L63.893 270.466L63.8183 270.522L63.7436 270.429ZM63.6036 270.242L63.6783 270.186L63.753 270.279L63.6783 270.335L63.6036 270.242ZM63.4636 270.055L63.5383 269.999L63.613 270.093L63.5383 270.149L63.4636 270.055ZM63.3236 269.869L63.3983 269.812L63.473 269.906L63.3983 269.962L63.3236 269.869Z" fill="#581B98"/>
<path d="M65.3558 274.198C65.4025 273.955 65.6358 273.787 65.8785 273.825C66.1212 273.871 66.2892 274.105 66.2518 274.347C66.2052 274.59 65.9718 274.758 65.7292 274.721C65.4865 274.683 65.3185 274.45 65.3558 274.198ZM65.4958 274.226C65.4678 274.394 65.5798 274.562 65.7478 274.59C65.9158 274.618 66.0838 274.506 66.1118 274.338C66.1398 274.17 66.0278 274.002 65.8598 273.974C65.6918 273.937 65.5238 274.049 65.4958 274.226ZM63.9185 272.406C63.9652 272.163 64.1985 271.995 64.4412 272.033C64.6838 272.079 64.8518 272.313 64.8145 272.555C64.7678 272.798 64.5345 272.966 64.2918 272.929C64.0398 272.891 63.8812 272.658 63.9185 272.406ZM64.0585 272.434C64.0305 272.602 64.1425 272.77 64.3105 272.798C64.4785 272.826 64.6465 272.714 64.6745 272.546C64.7025 272.378 64.5905 272.21 64.4225 272.182C64.2545 272.145 64.0865 272.266 64.0585 272.434Z" fill="#E8E6E7"/>
<path d="M65.7674 274.218C65.73 274.255 65.7394 274.321 65.7767 274.358C65.786 274.367 65.8047 274.377 65.8234 274.386C65.8607 274.395 65.8887 274.377 65.9167 274.349C65.9634 274.302 66.7474 273.387 66.878 272.622C66.878 272.594 66.8874 272.575 66.8874 272.547C66.8967 272.463 66.8967 272.379 66.8874 272.305C66.878 272.221 66.8594 272.137 66.822 272.062C66.6727 271.754 66.2994 271.605 65.7207 271.595C65.7954 271.67 65.87 271.735 65.9354 271.801C66.3087 271.829 66.542 271.95 66.6447 272.146C66.654 272.165 66.6634 272.183 66.6634 272.202C66.6914 272.267 66.7007 272.342 66.6914 272.426C66.6914 272.445 66.6914 272.454 66.6914 272.473C66.654 273.07 66.0474 273.901 65.7674 274.218Z" fill="#211F23"/>
<path d="M64.3738 272.436C64.3832 272.492 64.4392 272.52 64.4952 272.501C64.9338 272.38 65.9792 272.193 66.5858 272.389C66.6232 272.398 66.6512 272.417 66.6885 272.426C66.7632 272.464 66.8285 272.501 66.8752 272.548C66.8938 272.566 66.9218 272.594 66.9405 272.613C66.9685 272.65 66.9872 272.688 67.0058 272.725C67.0898 272.79 67.1645 272.846 67.2485 272.912C67.2392 272.744 67.1925 272.604 67.0992 272.492C67.0432 272.417 66.9685 272.361 66.8845 272.305C66.8192 272.268 66.7445 272.23 66.6605 272.202C66.5485 272.165 66.4178 272.137 66.2872 272.118C65.4938 272.025 64.5045 272.286 64.4485 272.305C64.3925 272.333 64.3645 272.389 64.3738 272.436Z" fill="#211F23"/>
<path d="M62.4846 270.598C62.494 270.346 62.7086 270.159 62.9606 270.168C63.2126 270.178 63.3993 270.392 63.39 270.644C63.3806 270.896 63.166 271.083 62.914 271.074C62.662 271.064 62.466 270.85 62.4846 270.598ZM62.6246 270.607C62.6153 270.775 62.746 270.924 62.9233 270.934C63.0913 270.943 63.2406 270.812 63.25 270.635C63.2593 270.467 63.1286 270.318 62.9513 270.308C62.7833 270.299 62.634 270.43 62.6246 270.607Z" fill="#E8E6E7"/>
<path d="M62.8504 270.672C62.8784 270.719 62.9344 270.737 62.9811 270.709C63.2517 270.551 63.9051 270.233 64.3997 270.215C64.5677 270.205 64.7171 270.233 64.8291 270.317C64.9877 270.429 65.0717 270.644 65.0624 270.952C65.1184 271.017 65.1837 271.083 65.2491 271.148C65.2957 270.663 65.1931 270.336 64.9411 270.159C64.7544 270.028 64.5024 270 64.2411 270.037C63.6157 270.112 62.9157 270.523 62.8784 270.541C62.8411 270.56 62.8224 270.625 62.8504 270.672Z" fill="#211F23"/>
<path d="M28.454 173.454L26.2793 266.162L37.2086 266.685L46.766 193.791L53.5606 266.153L64.3313 266.666L64.1913 167.574L44.7033 164.335L28.454 173.454Z" fill="#333333"/>
<path d="M38.8028 116.558L40.6882 112.955C43.2548 116.53 46.2602 117.146 49.7788 114.299L59.3082 129.316L56.1068 136.167L55.5002 160.77L52.4949 172.408C50.4042 175.442 47.0815 175.834 43.0402 174.732L38.5228 171.606L32.3628 147.031L32.3535 136.68C32.3535 136.68 34.4255 129.438 34.7615 129.064C35.0788 128.71 38.8028 116.558 38.8028 116.558Z" fill="#F2F1F1"/>
<path d="M35.0611 165.343L40.4185 158.651L25.8678 147.358L27.8651 143.718L28.0891 180.248C28.0891 180.687 28.4625 181.042 28.9011 181.023C31.6265 180.92 40.4278 180.174 43.0318 174.732C43.2745 174.228 43.0038 173.519 42.9011 173.006C42.7238 172.156 42.5931 171.298 42.4811 170.43C41.1185 160.154 43.6478 149.924 43.4331 139.639C43.2558 131.416 41.7531 123.194 40.9225 115.018C40.9131 114.915 40.6891 112.946 40.6891 112.946C31.7571 113.963 22.3678 123.39 13.7905 143.895C12.2878 147.488 13.5851 151.651 16.8705 153.742L35.0611 165.343ZM95.5411 165.436L75.9505 145.202C75.2971 145.79 64.3305 119.74 54.2785 116.1C53.5318 115.83 52.8411 115.438 52.1038 115.139C51.8424 115.036 49.9478 114.42 49.7611 114.299C50.1998 116.418 50.6291 118.546 51.0678 120.664C51.8891 124.659 52.2345 128.523 51.8611 132.602C51.5625 135.868 51.0678 139.135 51.0491 142.42C51.0211 146.266 51.8891 149.952 52.3651 153.742C53.2425 160.798 52.5798 167.994 52.4118 175.087C52.3838 176.095 53.2705 176.898 54.2785 176.776C58.2731 176.272 61.6425 174.695 64.3678 172.007C64.6571 171.718 64.8065 171.307 64.7598 170.906C64.2278 166.211 63.6025 161.526 62.9211 156.85C62.1745 151.744 61.2971 144.324 62.1651 144.128C62.9491 143.951 69.2491 154.292 69.5665 154.414C72.4411 156.336 89.6518 171.708 89.6518 171.708L95.5411 165.436Z" fill="#CFA1FF"/>
<path d="M49.5172 111.081C49.5172 111.081 45.1958 111.389 42.3398 108.561C42.3398 108.561 44.5612 112.108 49.6292 112.574L49.5172 111.081Z" fill="#EA96B4"/>
<path d="M38.5341 158.923L41.3154 159.38C41.8194 159.511 42.3514 159.436 42.7994 159.156L44.7034 157.971C45.0674 157.747 45.5434 157.85 45.7767 158.204C45.9634 158.494 45.9447 158.886 45.7114 159.147L44.3954 160.659C44.0501 161.06 44.1341 161.676 44.5727 161.975L49.0527 164.934C49.4074 165.167 49.5101 165.634 49.2861 165.988C49.0714 166.343 48.6141 166.455 48.2501 166.259L45.6087 164.812L48.5954 166.455C49.0247 166.688 49.1647 167.248 48.8941 167.659C48.6514 168.032 48.1567 168.144 47.7647 167.92L43.4247 165.391L46.8967 167.388C47.2981 167.622 47.4381 168.144 47.1954 168.546C46.9621 168.947 46.4394 169.068 46.0474 168.835L41.4461 166.063L44.9367 168.135C45.3287 168.368 45.4594 168.872 45.2354 169.264C45.0114 169.647 44.5354 169.796 44.1434 169.6C41.1661 168.144 38.1327 166.119 35.0527 163.786L38.5341 158.923Z" fill="#F79BBC"/>
<path d="M98.8175 189.91C93.4135 189.956 88.9709 185.28 88.9242 179.494C88.8775 173.698 93.2269 168.947 98.6309 168.9C104.035 168.854 108.478 173.53 108.524 179.316C108.58 185.112 104.222 189.863 98.8175 189.91ZM98.6495 171.336C94.5895 171.374 91.3135 175.023 91.3509 179.466C91.3882 183.908 94.7295 187.502 98.7895 187.474C102.85 187.436 106.126 183.787 106.088 179.344C106.051 174.892 102.719 171.308 98.6495 171.336ZM130.131 189.854C127.956 189.154 125.95 189.21 124.242 189.592C121.61 190.171 119.351 191.767 117.69 193.886C114.498 197.992 110.512 199.392 108.944 199.803C108.515 199.906 108.272 199.952 108.272 199.952L104.259 194.063L106.555 189.938C108.02 190.918 109.579 191.394 111.035 191.58C112.108 191.72 113.126 191.702 114.022 191.599C115.823 191.412 117.494 190.647 118.94 189.555C122.608 186.783 127.2 186.923 128.815 187.072C129.179 187.11 129.496 187.324 129.674 187.642L130.579 189.312C130.756 189.611 130.458 189.956 130.131 189.854Z" fill="#F3558E"/>
<path d="M111.044 191.571C110.932 195.165 109.56 198.469 108.944 199.803C108.515 199.906 108.272 199.953 108.272 199.953L104.259 194.063L106.555 189.938C108.02 190.918 109.579 191.394 111.044 191.571Z" fill="#E5457F"/>
<path d="M86.8797 180.287L84.2104 184.067C81.4664 187.959 82.5864 193.401 86.7117 195.79C91.3784 198.497 98.4997 200.97 108.244 199.953C108.244 199.953 112.985 191.179 109.186 184.861C108.486 183.685 107.478 182.714 106.321 181.986C101.636 179.027 96.3344 177.805 90.4637 178.243C89.0264 178.355 87.7104 179.102 86.8797 180.287Z" fill="#F3558E"/>
<path d="M109.578 196.807C110.558 193.681 111.295 189.089 109.055 185.355C108.346 184.179 107.347 183.209 106.19 182.481C101.504 179.522 96.2029 178.299 90.3322 178.747C88.8949 178.85 87.5789 179.606 86.7482 180.782L84.0789 184.562C83.6495 185.178 83.3042 185.841 83.0615 186.513C83.3042 185.663 83.6962 184.833 84.2375 184.067L86.9069 180.287C87.7375 179.111 89.0535 178.355 90.4909 178.243C96.3709 177.805 101.663 179.027 106.348 181.986C107.506 182.714 108.514 183.685 109.214 184.861C111.575 188.79 110.632 193.681 109.578 196.807Z" fill="#E5457F"/>
<path d="M135.002 187.65C134.442 187.603 133.873 187.575 133.303 187.547L133.322 187.062C133.891 187.09 134.461 187.127 135.03 187.164L135.002 187.65ZM172.317 211.076C171.719 210.143 171.103 209.228 170.487 208.36L170.889 208.08C171.514 208.958 172.13 209.882 172.737 210.815L172.317 211.076ZM168.518 205.738C167.837 204.87 167.127 204.03 166.418 203.227L166.782 202.9C167.501 203.712 168.21 204.562 168.901 205.439L168.518 205.738ZM164.169 200.838C163.394 200.063 162.582 199.307 161.779 198.607L162.097 198.243C162.909 198.952 163.73 199.718 164.514 200.502L164.169 200.838ZM159.241 196.535C158.363 195.872 157.467 195.247 156.562 194.659L156.823 194.248C157.738 194.836 158.653 195.48 159.53 196.143L159.241 196.535ZM153.753 192.988C152.801 192.466 151.811 191.98 150.822 191.532L151.018 191.084C152.026 191.532 153.015 192.027 153.986 192.55L153.753 192.988ZM147.789 190.31C146.771 189.946 145.726 189.61 144.671 189.311L144.802 188.844C145.866 189.143 146.921 189.479 147.957 189.852L147.789 190.31ZM141.489 188.546C140.434 188.331 139.351 188.144 138.259 187.995L138.325 187.51C139.426 187.659 140.527 187.846 141.582 188.07L141.489 188.546ZM134.946 189.684C134.395 189.554 133.845 189.432 133.285 189.32L133.378 188.844C133.938 188.956 134.498 189.078 135.049 189.208L134.946 189.684ZM164.561 213.083C164.029 212.122 163.487 211.17 162.927 210.264L163.338 210.012C163.898 210.927 164.449 211.879 164.981 212.85L164.561 213.083ZM161.145 207.548C160.519 206.652 159.866 205.775 159.203 204.935L159.586 204.636C160.249 205.476 160.911 206.363 161.546 207.268L161.145 207.548ZM157.103 202.462C156.366 201.659 155.601 200.875 154.826 200.138L155.162 199.783C155.946 200.52 156.721 201.314 157.458 202.126L157.103 202.462ZM152.39 198C151.55 197.319 150.673 196.666 149.786 196.059L150.057 195.658C150.953 196.274 151.839 196.927 152.689 197.618L152.39 198ZM147.033 194.342C146.099 193.81 145.129 193.306 144.149 192.848L144.354 192.41C145.343 192.876 146.323 193.38 147.266 193.922L147.033 194.342ZM141.162 191.579C140.173 191.206 139.137 190.851 138.082 190.534L138.222 190.067C139.286 190.384 140.331 190.748 141.33 191.131L141.162 191.579ZM134.666 192.755C134.19 192.447 133.714 192.148 133.229 191.85L133.481 191.439C133.966 191.738 134.451 192.046 134.927 192.354L134.666 192.755ZM154.527 212.299C153.883 211.319 153.211 210.348 152.53 209.415L152.922 209.126C153.613 210.068 154.294 211.039 154.938 212.028L154.527 212.299ZM150.365 206.652C149.627 205.756 148.853 204.86 148.069 204.002L148.433 203.675C149.226 204.543 150.01 205.439 150.747 206.344L150.365 206.652ZM145.633 201.482C144.802 200.67 143.943 199.867 143.066 199.092L143.393 198.728C144.279 199.512 145.147 200.315 145.978 201.136L145.633 201.482ZM140.369 196.843C139.463 196.124 138.521 195.415 137.569 194.734L137.849 194.342C138.81 195.032 139.762 195.742 140.667 196.47L140.369 196.843Z" fill="#E0E0E0"/>
<path d="M134.528 195.697C133.716 194.979 133.24 194.615 133.24 194.615L133.539 194.223C133.558 194.241 134.034 194.596 134.855 195.333L134.528 195.697ZM147.791 212.133C147.184 211.125 146.55 210.117 145.915 209.137L146.326 208.867C146.97 209.847 147.604 210.855 148.22 211.881L147.791 212.133ZM143.899 206.235C143.199 205.273 142.48 204.331 141.762 203.425L142.144 203.117C142.872 204.032 143.6 204.984 144.3 205.945L143.899 206.235ZM139.484 200.709C138.691 199.813 137.879 198.936 137.076 198.124L137.422 197.779C138.234 198.6 139.046 199.477 139.848 200.383L139.484 200.709Z" fill="#E0E0E0"/>
</g>
<defs>
<clipPath id="clip0_4072_9177">
<rect width="280" height="280" fill="white" transform="translate(9 9)"/>
</clipPath>
</defs>
</svg>
