<svg width="18" height="15" viewBox="0 0 18 15" fill="none" xmlns="http://www.w3.org/2000/svg">
<path d="M16.9219 0.375H0.890625C0.654501 0.375275 0.428127 0.469197 0.261162 0.636162C0.0941968 0.803127 0.000274997 1.0295 0 1.26562V13.1406C0.000274997 13.3767 0.0941968 13.6031 0.261162 13.7701C0.428127 13.9371 0.654501 14.031 0.890625 14.0312H16.9219C17.158 14.031 17.3844 13.9371 17.5513 13.7701C17.7183 13.6031 17.8122 13.3767 17.8125 13.1406V1.26562C17.8122 1.0295 17.7183 0.803127 17.5513 0.636162C17.3844 0.469197 17.158 0.375275 16.9219 0.375ZM16.625 1.5625V3.9375H1.1875V1.5625H16.625ZM1.1875 12.8438V6.3125H16.625V12.8438H1.1875Z" fill="black"/>
<path d="M5.04688 9.28125H2.67188V10.4688H5.04688V9.28125Z" fill="black"/>
<path d="M8.60938 9.28125H6.23438V10.4688H8.60938V9.28125Z" fill="black"/>
</svg>
