<svg width="600" height="501" viewBox="0 0 600 501" fill="none" xmlns="http://www.w3.org/2000/svg">
<g clip-path="url(#clip0_3924_39609)">
<path d="M243.352 377.579L364.927 411.126C374.833 414.318 385.289 408.045 387.094 397.787L441.883 94.3434C443.996 82.4346 436.182 71.0101 424.317 68.6548L304.392 44.8151C292.88 42.5258 281.742 50.2302 279.826 61.8089L228.691 353.476C226.93 364.042 233.16 374.277 243.352 377.579Z" fill="url(#paint0_linear_3924_39609)"/>
<path d="M232.761 377.579L354.337 411.126C364.242 414.318 374.698 408.045 376.503 397.787L431.293 94.3434C433.406 82.4346 425.592 71.0101 413.727 68.6548L293.824 44.8151C282.312 42.5258 271.173 50.2302 269.258 61.8089L218.123 353.476C216.34 364.042 222.592 374.277 232.761 377.579Z" fill="url(#paint1_linear_3924_39609)"/>
<path d="M425.636 93.3542L370.868 396.798C369.9 402.257 365.167 406.241 359.62 406.241C358.453 406.241 357.264 406.043 356.12 405.669L234.544 372.121C227.104 369.744 222.481 362.128 223.758 354.445L274.893 62.7787C276.104 55.4925 282.356 50.1875 289.73 50.1875C290.698 50.1875 291.711 50.2756 292.68 50.4737L333.821 58.6623C334.944 58.8825 335.868 59.6969 336.22 60.7976L338.312 67.2472C338.752 68.634 339.897 69.6906 341.305 70.0428L362.547 75.3699C363.802 75.6781 365.145 75.3259 366.092 74.4454L372.739 68.1498C373.686 67.2472 375.007 66.873 376.283 67.1152L412.604 74.3353C421.365 76.0083 427.176 84.5711 425.636 93.3542Z" fill="url(#paint2_linear_3924_39609)"/>
<path d="M425.79 145.35L430.742 146.208L429.642 151.887L424.711 151.051L425.79 145.35Z" fill="white"/>
<path d="M423.961 154.021L428.914 154.858L427.814 160.537L422.883 159.701L423.961 154.021Z" fill="white"/>
<g opacity="0.15">
<path opacity="0.037" d="M378.223 261.972C378.223 309.035 414.653 350.903 459.625 355.503C504.597 360.104 541.028 325.676 541.028 278.635C541.028 231.595 504.597 189.705 459.625 185.104C414.653 180.503 378.223 214.909 378.223 261.972Z" fill="#030711"/>
<path opacity="0.074" d="M379.234 262.082C379.234 308.551 415.225 349.891 459.602 354.425C503.98 358.96 539.97 324.972 539.97 278.526C539.97 232.079 503.98 190.718 459.602 186.183C415.225 181.626 379.234 215.614 379.234 262.082Z" fill="#030711"/>
<path opacity="0.111" d="M380.266 262.192C380.266 308.066 415.794 348.877 459.599 353.368C503.426 357.858 538.932 324.311 538.932 278.437C538.932 232.563 503.426 191.729 459.599 187.239C415.772 182.748 380.266 216.317 380.266 262.192Z" fill="#030711"/>
<path opacity="0.148" d="M381.305 262.28C381.305 307.56 416.371 347.843 459.603 352.268C502.836 356.692 537.902 323.585 537.902 278.306C537.902 233.026 502.858 192.743 459.603 188.318C416.349 183.894 381.305 217.023 381.305 262.28Z" fill="#030711"/>
<path opacity="0.185" d="M382.34 262.389C382.34 307.075 416.944 346.83 459.626 351.188C502.308 355.547 536.912 322.88 536.912 278.194C536.912 233.509 502.308 193.754 459.626 189.396C416.944 185.037 382.34 217.726 382.34 262.389Z" fill="#030711"/>
<path opacity="0.222" d="M383.355 262.499C383.355 306.59 417.497 345.816 459.607 350.109C501.717 354.423 535.859 322.175 535.859 278.083C535.859 233.992 501.717 194.766 459.607 190.473C417.497 186.181 383.355 218.407 383.355 262.499Z" fill="#030711"/>
<path opacity="0.259" d="M384.387 262.609C384.387 306.106 418.066 344.804 459.604 349.052C501.141 353.301 534.821 321.493 534.821 277.996C534.821 234.499 501.141 195.801 459.604 191.552C418.066 187.304 384.387 219.112 384.387 262.609Z" fill="#030711"/>
<path opacity="0.296" d="M385.418 262.719C385.418 305.622 418.635 343.792 459.6 347.974C500.566 352.156 533.783 320.788 533.783 277.908C533.783 235.027 500.566 196.836 459.6 192.653C418.635 188.449 385.418 219.817 385.418 262.719Z" fill="#030711"/>
<path opacity="0.333" d="M386.453 262.808C386.453 305.117 419.208 342.758 459.623 346.874C500.038 350.991 532.793 320.063 532.793 277.777C532.793 235.469 500.038 197.827 459.623 193.711C419.208 189.573 386.453 220.522 386.453 262.808Z" fill="#030711"/>
<path opacity="0.37" d="M387.465 262.915C387.465 304.629 419.757 341.72 459.6 345.814C499.443 349.909 531.735 319.377 531.735 277.685C531.735 235.994 499.443 198.88 459.6 194.786C419.757 190.692 387.465 221.223 387.465 262.915Z" fill="#030711"/>
<path opacity="0.407" d="M388.5 263.028C388.5 304.148 420.33 340.71 459.601 344.739C498.871 348.767 530.701 318.698 530.701 277.578C530.701 236.459 498.871 199.896 459.601 195.868C420.33 191.839 388.5 221.909 388.5 263.028Z" fill="#030711"/>
<path opacity="0.444" d="M389.539 263.137C389.539 303.64 420.907 339.697 459.605 343.659C498.303 347.621 529.671 317.992 529.671 277.467C529.671 236.942 498.303 200.907 459.605 196.945C420.907 192.983 389.539 222.612 389.539 263.137Z" fill="#030711"/>
<path opacity="0.481" d="M390.574 263.226C390.574 303.135 421.48 338.663 459.628 342.559C497.753 346.455 528.681 317.267 528.681 277.336C528.681 237.405 497.753 201.921 459.606 198.025C421.48 194.128 390.574 223.317 390.574 263.226Z" fill="#030711"/>
<path opacity="0.518" d="M391.586 263.336C391.586 302.651 422.029 337.651 459.605 341.503C497.18 345.355 527.624 316.585 527.624 277.27C527.624 237.956 497.18 202.956 459.605 199.104C422.051 195.251 391.586 224.022 391.586 263.336Z" fill="#030711"/>
<path opacity="0.556" d="M392.617 263.445C392.617 302.165 422.598 336.637 459.601 340.423C496.605 344.209 526.586 315.879 526.586 277.159C526.586 238.439 496.605 203.967 459.601 200.181C422.62 196.395 392.617 224.725 392.617 263.445Z" fill="#030711"/>
<path opacity="0.593" d="M393.652 263.558C393.652 301.684 423.193 335.627 459.602 339.347C496.033 343.067 525.552 315.177 525.552 277.052C525.552 238.926 496.011 204.982 459.602 201.262C423.171 197.52 393.652 225.41 393.652 263.558Z" fill="#030711"/>
<path opacity="0.63" d="M394.688 263.665C394.688 301.196 423.766 334.611 459.625 338.288C495.483 341.964 524.562 314.492 524.562 276.961C524.562 239.429 495.483 206.014 459.625 202.338C423.744 198.662 394.688 226.111 394.688 263.665Z" fill="#030711"/>
<path opacity="0.667" d="M395.703 263.756C395.703 300.694 424.319 333.58 459.606 337.19C494.892 340.8 523.508 313.791 523.508 276.832C523.508 239.895 494.892 207.008 459.606 203.398C424.319 199.81 395.703 226.819 395.703 263.756Z" fill="#030711"/>
<path opacity="0.704" d="M396.734 263.863C396.734 300.206 424.888 332.564 459.602 336.108C494.316 339.652 522.47 313.083 522.47 276.718C522.47 240.354 494.316 208.017 459.602 204.473C424.888 200.929 396.734 227.52 396.734 263.863Z" fill="#030711"/>
<path opacity="0.741" d="M397.77 263.976C397.77 299.724 425.461 331.555 459.603 335.033C493.744 338.51 521.436 312.382 521.436 276.611C521.436 240.841 493.744 209.033 459.603 205.555C425.461 202.077 397.77 228.227 397.77 263.976Z" fill="#030711"/>
<path opacity="0.778" d="M398.805 264.084C398.805 299.238 426.034 330.54 459.625 333.974C493.217 337.408 520.446 311.697 520.446 276.543C520.446 241.389 493.217 210.087 459.625 206.653C426.034 203.219 398.805 228.93 398.805 264.084Z" fill="#030711"/>
<path opacity="0.815" d="M399.82 264.195C399.82 298.755 426.588 329.528 459.606 332.896C492.625 336.264 519.393 310.994 519.393 276.434C519.393 241.874 492.625 211.101 459.606 207.733C426.588 204.343 399.82 229.613 399.82 264.195Z" fill="#030711"/>
<path opacity="0.852" d="M400.848 264.282C400.848 298.247 427.153 328.471 459.599 331.795C492.046 335.119 518.351 310.266 518.351 276.301C518.351 242.336 492.046 212.112 459.599 208.788C427.153 205.464 400.848 230.317 400.848 264.282Z" fill="#030711"/>
<path opacity="0.889" d="M401.883 264.393C401.883 297.764 427.726 327.459 459.6 330.739C491.474 333.997 517.317 309.585 517.317 276.214C517.317 242.843 491.474 213.148 459.6 209.868C427.726 206.61 401.883 231.022 401.883 264.393Z" fill="#030711"/>
<path opacity="0.926" d="M402.918 264.504C402.918 297.281 428.298 326.447 459.622 329.661C490.946 332.875 516.327 308.881 516.327 276.104C516.327 243.328 490.946 214.161 459.622 210.947C428.298 207.755 402.918 231.727 402.918 264.504Z" fill="#030711"/>
<path opacity="0.963" d="M403.934 264.612C403.934 296.795 428.852 325.433 459.603 328.581C490.355 331.729 515.273 308.175 515.273 275.993C515.273 243.81 490.355 215.172 459.603 212.024C428.874 208.877 403.934 232.43 403.934 264.612Z" fill="#030711"/>
<path d="M404.969 264.701C404.969 296.29 429.425 324.4 459.604 327.481C489.783 330.563 514.239 307.472 514.239 275.884C514.239 244.296 489.783 216.186 459.604 213.104C429.425 210.022 404.969 233.113 404.969 264.701Z" fill="#030711"/>
</g>
<g opacity="0.15">
<path opacity="0.037" d="M309.938 381.192C309.938 428.255 346.368 470.123 391.34 474.724C436.312 479.324 472.742 444.897 472.742 397.856C472.742 350.815 436.312 308.925 391.34 304.324C346.39 299.724 309.938 334.151 309.938 381.192Z" fill="#030711"/>
<path opacity="0.074" d="M310.973 381.303C310.973 427.772 346.963 469.111 391.341 473.646C435.718 478.181 471.708 444.193 471.708 397.747C471.708 351.3 435.718 309.938 391.341 305.404C346.963 300.869 310.973 334.857 310.973 381.303Z" fill="#030711"/>
<path opacity="0.111" d="M312.004 381.412C312.004 427.286 347.532 468.098 391.337 472.588C435.142 477.079 470.671 443.531 470.671 397.657C470.671 351.783 435.142 310.972 391.337 306.481C347.532 301.991 312.004 335.538 312.004 381.412Z" fill="#030711"/>
<path opacity="0.148" d="M313.047 381.523C313.047 426.803 348.113 467.086 391.346 471.51C434.578 475.935 469.644 442.828 469.644 397.548C469.644 352.268 434.578 311.985 391.346 307.561C348.091 303.136 313.047 336.243 313.047 381.523Z" fill="#030711"/>
<path opacity="0.185" d="M314.055 381.631C314.055 426.317 348.658 466.072 391.341 470.43C434.023 474.789 468.627 442.122 468.627 397.436C468.627 352.751 434.023 312.996 391.341 308.638C348.658 304.257 314.055 336.946 314.055 381.631Z" fill="#030711"/>
<path opacity="0.222" d="M315.094 381.721C315.094 425.812 349.235 465.039 391.345 469.331C433.455 473.623 467.597 441.397 467.597 397.306C467.597 353.215 433.455 313.988 391.345 309.696C349.235 305.403 315.094 337.652 315.094 381.721Z" fill="#030711"/>
<path opacity="0.259" d="M316.125 381.83C316.125 425.326 349.804 464.024 391.342 468.273C432.88 472.521 466.559 440.713 466.559 397.216C466.559 353.719 432.88 315.021 391.342 310.773C349.804 306.524 316.125 338.355 316.125 381.83Z" fill="#030711"/>
<path opacity="0.296" d="M317.156 381.94C317.156 424.843 350.373 463.013 391.339 467.195C432.304 471.377 465.521 440.01 465.521 397.129C465.521 354.249 432.304 316.057 391.339 311.874C350.373 307.692 317.156 339.038 317.156 381.94Z" fill="#030711"/>
<path opacity="0.333" d="M318.172 382.049C318.172 424.357 350.927 461.999 391.342 466.115C431.757 470.253 464.511 439.304 464.511 397.017C464.511 354.731 431.757 317.068 391.342 312.951C350.949 308.813 318.172 339.741 318.172 382.049Z" fill="#030711"/>
<path opacity="0.37" d="M319.203 382.159C319.203 423.873 351.496 460.964 391.338 465.059C431.181 469.131 463.474 438.622 463.474 396.93C463.474 355.238 431.181 318.125 391.338 314.03C351.496 309.936 319.203 340.446 319.203 382.159Z" fill="#030711"/>
<path opacity="0.407" d="M320.234 382.249C320.234 423.368 352.065 459.931 391.335 463.959C430.605 467.988 462.436 437.918 462.436 396.799C462.436 355.679 430.605 319.116 391.335 315.088C352.065 311.06 320.234 341.151 320.234 382.249Z" fill="#030711"/>
<path opacity="0.444" d="M321.277 382.357C321.277 422.861 352.645 458.917 391.343 462.879C430.041 466.842 461.409 437.213 461.409 396.688C461.409 356.163 430.041 320.128 391.343 316.166C352.645 312.203 321.277 341.854 321.277 382.357Z" fill="#030711"/>
<path opacity="0.481" d="M322.289 382.471C322.289 422.379 353.195 457.908 391.343 461.804C429.468 465.7 460.396 436.511 460.396 396.581C460.396 356.65 429.49 321.143 391.343 317.247C353.195 313.351 322.289 342.54 322.289 382.471Z" fill="#030711"/>
<path opacity="0.518" d="M323.324 382.579C323.324 421.893 353.768 456.893 391.343 460.745C428.919 464.598 459.362 435.827 459.362 396.513C459.362 357.198 428.919 322.198 391.343 318.346C353.79 314.494 323.324 343.242 323.324 382.579Z" fill="#030711"/>
<path opacity="0.556" d="M324.355 382.666C324.355 421.386 354.337 455.858 391.34 459.644C428.343 463.43 458.324 435.1 458.324 396.38C458.324 357.66 428.343 323.188 391.34 319.402C354.337 315.616 324.355 343.946 324.355 382.666Z" fill="#030711"/>
<path opacity="0.593" d="M325.391 382.777C325.391 420.903 354.932 454.846 391.34 458.566C427.771 462.286 457.29 434.396 457.29 396.271C457.29 358.145 427.749 324.201 391.34 320.481C354.909 316.761 325.391 344.651 325.391 382.777Z" fill="#030711"/>
<path opacity="0.63" d="M326.402 382.885C326.402 420.417 355.481 453.832 391.339 457.508C427.198 461.184 456.277 433.712 456.277 396.181C456.277 358.65 427.198 325.234 391.339 321.558C355.481 317.882 326.402 345.354 326.402 382.885Z" fill="#030711"/>
<path opacity="0.667" d="M327.441 382.998C327.441 419.936 356.058 452.822 391.344 456.432C426.63 460.042 455.246 433.011 455.246 396.074C455.246 359.137 426.63 326.25 391.344 322.64C356.058 319.03 327.441 346.039 327.441 382.998Z" fill="#030711"/>
<path opacity="0.704" d="M328.477 383.105C328.477 419.448 356.631 451.806 391.344 455.35C426.058 458.894 454.212 432.325 454.212 395.96C454.212 359.596 426.058 327.259 391.344 323.715C356.631 320.149 328.477 346.74 328.477 383.105Z" fill="#030711"/>
<path opacity="0.741" d="M329.508 383.197C329.508 418.945 357.2 450.775 391.341 454.253C425.483 457.731 453.175 431.602 453.175 395.832C453.175 360.061 425.483 328.253 391.341 324.775C357.2 321.297 329.508 347.448 329.508 383.197Z" fill="#030711"/>
<path opacity="0.778" d="M330.523 383.307C330.523 418.461 357.753 449.763 391.344 453.197C424.935 456.631 452.165 430.92 452.165 395.766C452.165 360.612 424.935 329.31 391.344 325.876C357.753 322.442 330.523 348.153 330.523 383.307Z" fill="#030711"/>
<path opacity="0.815" d="M331.559 383.415C331.559 417.975 358.326 448.749 391.345 452.117C424.364 455.485 451.131 430.214 451.131 395.654C451.131 361.095 424.364 330.321 391.345 326.953C358.326 323.563 331.559 348.856 331.559 383.415Z" fill="#030711"/>
<path opacity="0.852" d="M332.586 383.524C332.586 417.49 358.891 447.713 391.338 451.037C423.784 454.361 450.089 429.509 450.089 395.543C450.089 361.578 423.784 331.354 391.338 328.031C358.891 324.707 332.586 349.559 332.586 383.524Z" fill="#030711"/>
<path opacity="0.889" d="M333.621 383.61C333.621 416.981 359.464 446.676 391.338 449.956C423.212 453.214 449.055 428.802 449.055 395.431C449.055 362.059 423.212 332.364 391.338 329.085C359.464 325.827 333.621 350.239 333.621 383.61Z" fill="#030711"/>
<path opacity="0.926" d="M334.633 383.723C334.633 416.499 360.013 445.666 391.337 448.88C422.661 452.094 448.042 428.1 448.042 395.323C448.042 362.546 422.661 333.38 391.337 330.166C360.035 326.974 334.633 350.946 334.633 383.723Z" fill="#030711"/>
<path opacity="0.963" d="M335.672 383.832C335.672 416.014 360.59 444.652 391.342 447.8C422.093 450.948 447.012 427.394 447.012 395.212C447.012 363.03 422.093 334.391 391.342 331.243C360.59 328.118 335.672 351.649 335.672 383.832Z" fill="#030711"/>
<path d="M336.707 383.942C336.707 415.53 361.163 443.64 391.342 446.722C421.521 449.803 445.977 426.712 445.977 395.124C445.977 363.536 421.521 335.426 391.342 332.344C361.163 329.262 336.707 352.354 336.707 383.942Z" fill="#030711"/>
</g>
<g opacity="0.15">
<path opacity="0.037" d="M47.2194 234.037C49.1565 245.417 69.4301 252.395 92.5213 249.644C115.612 246.87 132.76 235.401 130.823 224.021C128.886 212.64 108.612 205.663 85.5213 208.414C62.4521 211.188 45.2823 222.656 47.2194 234.037Z" fill="#030711"/>
<path opacity="0.074" d="M47.7422 233.971C49.6352 245.22 69.6667 252.11 92.4717 249.38C115.277 246.651 132.204 235.336 130.289 224.088C128.396 212.839 108.365 205.949 85.5598 208.679C62.7767 211.408 45.8491 222.723 47.7422 233.971Z" fill="#030711"/>
<path opacity="0.111" d="M48.2721 233.904C50.1431 244.998 69.9104 251.8 92.4293 249.114C114.926 246.429 131.656 235.246 129.763 224.152C127.892 213.058 108.124 206.256 85.6054 208.941C63.0865 211.627 46.401 222.809 48.2721 233.904Z" fill="#030711"/>
<path opacity="0.148" d="M48.8056 233.839C50.6546 244.78 70.1578 251.515 92.3905 248.852C114.601 246.188 131.111 235.16 129.24 224.198C127.39 213.258 107.887 206.522 85.6546 209.185C63.4439 211.849 46.9565 222.899 48.8056 233.839Z" fill="#030711"/>
<path opacity="0.185" d="M49.3312 233.771C51.1583 244.579 70.4193 251.205 92.3218 248.585C114.224 245.966 130.536 235.07 128.687 224.261C126.86 213.453 107.599 206.827 85.696 209.447C63.7935 212.088 47.5042 222.963 49.3312 233.771Z" fill="#030711"/>
<path opacity="0.222" d="M49.861 233.706C51.666 244.36 70.6629 250.92 92.2792 248.323C113.918 245.725 129.965 234.983 128.16 224.329C126.355 213.675 107.358 207.115 85.7415 209.712C64.1251 212.31 48.056 223.052 49.861 233.706Z" fill="#030711"/>
<path opacity="0.259" d="M50.3868 233.663C52.1699 244.185 70.9026 250.635 92.2327 248.081C113.563 245.528 129.412 234.918 127.629 224.418C125.846 213.896 107.113 207.446 85.7831 210C64.4529 212.531 48.6038 223.141 50.3868 233.663Z" fill="#030711"/>
<path opacity="0.296" d="M50.9164 233.597C52.6774 243.965 71.146 250.349 92.19 247.817C113.234 245.286 128.863 234.852 127.102 224.462C125.341 214.094 106.872 207.71 85.8284 210.242C64.8064 212.751 49.1554 223.207 50.9164 233.597Z" fill="#030711"/>
<path opacity="0.333" d="M51.4423 233.532C53.1813 243.768 71.4077 250.042 92.1435 247.554C112.901 245.067 128.31 234.765 126.571 224.529C124.832 214.293 106.606 208.02 85.8699 210.507C65.1341 212.995 49.7033 223.296 51.4423 233.532Z" fill="#030711"/>
<path opacity="0.37" d="M51.972 233.464C53.689 243.546 71.6513 249.732 92.101 247.288C112.551 244.845 127.761 234.675 126.044 224.593C124.327 214.512 106.365 208.326 85.9154 210.77C65.4657 213.213 50.255 223.383 51.972 233.464Z" fill="#030711"/>
<path opacity="0.407" d="M52.5026 233.398C54.1756 243.347 71.8957 249.445 92.0592 247.023C112.223 244.602 127.213 234.586 125.518 224.637C123.845 214.687 106.125 208.59 85.9618 211.011C65.7982 213.432 50.8297 223.448 52.5026 233.398Z" fill="#030711"/>
<path opacity="0.444" d="M53.0283 233.332C54.6793 243.127 72.1352 249.137 92.0126 246.76C111.89 244.382 126.66 234.498 124.987 224.703C123.336 214.907 105.881 208.898 86.0032 211.275C66.1478 213.653 51.3774 223.536 53.0283 233.332Z" fill="#030711"/>
<path opacity="0.481" d="M53.5581 233.264C55.187 242.928 72.4008 248.849 91.97 246.494C111.539 244.139 126.112 234.409 124.461 224.768C122.832 215.104 105.618 209.183 86.0486 211.538C66.4794 213.893 51.9291 223.623 53.5581 233.264Z" fill="#030711"/>
<path opacity="0.518" d="M54.0878 233.201C55.6947 242.71 72.6444 248.543 91.9274 246.232C111.21 243.921 125.563 234.345 123.934 224.836C122.327 215.326 105.377 209.493 86.0941 211.804C66.8111 214.116 52.4809 223.691 54.0878 233.201Z" fill="#030711"/>
<path opacity="0.556" d="M54.6137 233.155C56.1986 242.533 72.8841 248.278 91.881 245.989C110.878 243.721 124.988 234.278 123.403 224.901C121.818 215.523 105.133 209.778 86.1357 212.067C67.1388 214.335 53.0287 223.778 54.6137 233.155Z" fill="#030711"/>
<path opacity="0.593" d="M55.1393 233.091C56.7022 242.315 73.1236 247.972 91.8343 245.727C110.545 243.481 124.435 234.192 122.872 224.969C121.309 215.745 104.888 210.088 86.1771 212.333C67.4884 214.557 53.5764 223.868 55.1393 233.091Z" fill="#030711"/>
<path opacity="0.63" d="M55.6691 233.025C57.21 242.094 73.3892 247.685 91.7917 245.462C110.216 243.261 123.886 234.103 122.345 225.034C120.804 215.965 104.625 210.374 86.2225 212.597C67.82 214.798 54.1282 223.934 55.6691 233.025Z" fill="#030711"/>
<path opacity="0.667" d="M56.2027 232.957C57.7216 241.894 73.6367 247.375 91.753 245.196C109.869 243.016 123.341 234.013 121.822 225.076C120.303 216.139 104.388 210.658 86.2719 212.837C68.1556 215.016 54.6839 224.02 56.2027 232.957Z" fill="#030711"/>
<path opacity="0.704" d="M56.7255 232.893C58.2224 241.676 73.8733 247.091 91.7035 244.956C109.534 242.82 122.785 233.971 121.288 225.166C119.792 216.361 104.141 210.968 86.3104 213.103C68.4803 215.239 55.2507 224.11 56.7255 232.893Z" fill="#030711"/>
<path opacity="0.741" d="M57.2551 232.825C58.73 241.476 74.1168 246.781 91.6608 244.69C109.205 242.598 122.236 233.881 120.761 225.231C119.287 216.58 103.9 211.275 86.3557 213.366C68.8337 215.457 55.8023 224.174 57.2551 232.825Z" fill="#030711"/>
<path opacity="0.778" d="M57.7849 232.759C59.2157 241.256 74.3824 246.473 91.6182 244.426C108.876 242.357 121.687 233.794 120.235 225.297C118.804 216.8 103.637 211.583 86.4012 213.63C69.1654 215.699 56.3541 224.262 57.7849 232.759Z" fill="#030711"/>
<path opacity="0.815" d="M58.3146 232.694C59.7234 241.059 74.6259 246.188 91.5756 244.163C108.525 242.138 121.139 233.707 119.708 225.342C118.299 216.977 103.396 211.848 86.4467 213.873C69.497 215.921 56.9058 224.351 58.3146 232.694Z" fill="#030711"/>
<path opacity="0.852" d="M58.8364 232.65C60.2232 240.86 74.8615 245.901 91.5251 243.92C108.189 241.917 120.582 233.64 119.173 225.43C117.764 217.219 103.148 212.178 86.4842 214.159C69.8427 216.14 57.4496 224.417 58.8364 232.65Z" fill="#030711"/>
<path opacity="0.889" d="M59.3661 232.584C60.7309 240.663 75.1051 245.616 91.4825 243.657C107.86 241.698 120.011 233.553 118.646 225.496C117.281 217.418 102.907 212.465 86.5297 214.424C70.1743 216.361 58.0014 224.506 59.3661 232.584Z" fill="#030711"/>
<path opacity="0.926" d="M59.8998 232.517C61.2426 240.442 75.3746 245.306 91.4438 243.391C107.535 241.476 119.466 233.486 118.123 225.539C116.78 217.615 102.648 212.75 86.579 214.665C70.5099 216.602 58.557 224.593 59.8998 232.517Z" fill="#030711"/>
<path opacity="0.963" d="M60.4256 232.452C61.7464 240.244 75.6143 245.021 91.3973 243.128C107.18 241.235 118.913 233.398 117.592 225.606C116.272 217.813 102.404 213.037 86.6206 214.93C70.8376 216.823 59.1049 224.659 60.4256 232.452Z" fill="#030711"/>
<path d="M60.9554 232.386C62.2541 240.024 75.8579 244.713 91.3548 242.864C106.852 241.015 118.364 233.31 117.065 225.672C115.767 218.034 102.163 213.345 86.6661 215.194C71.1692 217.043 59.6567 224.747 60.9554 232.386Z" fill="#030711"/>
</g>
<path d="M364.461 156.266C368.335 156.575 372.121 156.685 375.775 156.685C378.153 156.685 380.464 156.597 382.731 156.42H382.775C395.609 155.65 406.967 153.009 416.895 149.398C405.03 152.392 391.514 153.867 376.326 152.656L364.461 156.266Z" fill="url(#paint3_linear_3924_39609)"/>
<path d="M438.34 322.572C438.34 322.572 439.617 322.352 441.158 322.044C441.202 322.044 441.202 322.044 441.224 322.044C443.205 321.626 445.692 321.142 446.617 320.811C556.503 282.091 562.909 186.16 562.909 186.16L551.044 189.77C493.481 167.78 473.01 136.368 466.802 123.557C466.428 123.909 466.054 124.217 465.658 124.547C455.884 132.78 439.419 143.808 416.878 149.399C406.95 153.009 395.591 155.651 382.758 156.421H382.714C380.447 156.598 378.136 156.664 375.758 156.686C375.67 157.456 375.582 158.314 375.494 159.283C373.117 183.277 370.365 266.903 438.34 322.572Z" fill="url(#paint4_linear_3924_39609)"/>
<path d="M426.471 326.201C426.471 326.201 433.097 325.012 434.748 324.44C436.905 323.67 439.062 322.877 441.153 322.063C441.197 322.063 441.197 322.063 441.219 322.063C544.877 281.934 551.04 189.789 551.04 189.789C493.477 167.799 473.006 136.387 466.798 123.575C465.301 120.472 464.597 118.446 464.465 117.962L464.421 117.83C464.421 117.83 447.955 138.192 416.873 149.418C406.946 153.028 395.587 155.67 382.754 156.44H382.71C380.443 156.616 378.131 156.682 375.754 156.704C372.1 156.704 368.314 156.594 364.44 156.286C364.462 156.264 346.411 260.626 426.471 326.201Z" fill="url(#paint5_linear_3924_39609)"/>
<path d="M539.749 196.373C521.874 188.889 507.61 180.502 496.34 172.115C507.17 181.052 521.258 190.254 539.352 198.53C539.506 197.76 539.639 197.033 539.749 196.373Z" fill="url(#paint6_linear_3924_39609)"/>
<path d="M429.352 315.109C429.66 315.043 429.946 314.999 430.166 314.933C378.635 265.251 378.547 196.616 380.396 172.292C381.078 172.27 381.805 172.292 382.487 172.292H384.358C386.295 172.248 388.189 172.16 390.082 172.028H390.126C402.893 171.257 415.352 168.704 427.129 164.389C444.277 158.204 457.352 149.443 466.135 142.245C464.308 139.735 462.789 137.38 461.468 135.223C452.751 142.707 438.95 152.414 420.393 159.128C408.616 163.399 396.157 165.996 383.39 166.767H383.346C381.453 166.899 379.56 166.965 377.622 167.009L375.795 167.031C375.069 167.053 374.343 167.031 373.66 167.009C371.767 192.257 371.921 265.119 429.352 315.109Z" fill="url(#paint7_linear_3924_39609)"/>
<path d="M430.169 314.931C430.785 314.821 431.225 314.711 431.468 314.623C433.361 313.962 435.364 313.214 437.323 312.421L439.062 311.739H439.172C515.754 281.34 534.751 221.73 539.329 198.528C521.235 190.252 507.169 181.072 496.317 172.113C482.008 161.503 472.411 150.915 466.093 142.242C457.332 149.418 444.257 158.201 427.087 164.387C415.31 168.679 402.851 171.255 390.084 172.025H390.04C388.147 172.157 386.254 172.267 384.317 172.289H382.446C381.763 172.311 381.037 172.289 380.354 172.289C378.549 196.613 378.637 265.248 430.169 314.931Z" fill="url(#paint8_linear_3924_39609)"/>
<path d="M464.422 117.809L464.466 117.941C464.62 118.426 465.302 120.451 466.799 123.555C473.007 136.366 493.478 167.778 551.041 189.768L562.906 186.158C489.032 157.938 476.287 114.199 476.287 114.199L464.422 117.809Z" fill="url(#paint9_linear_3924_39609)"/>
<path d="M373.66 167.009L380.396 172.292C381.078 172.27 381.805 172.292 382.487 172.292H384.358C386.295 172.248 388.188 172.16 390.082 172.028H390.126C402.893 171.257 415.352 168.704 427.129 164.389C444.276 158.204 457.352 149.443 466.135 142.245C464.308 139.735 462.789 137.38 461.468 135.223C452.751 142.707 438.949 152.414 420.393 159.128C408.616 163.399 396.157 165.996 383.39 166.767H383.346C381.453 166.899 379.56 166.965 377.622 167.009L375.795 167.031C375.069 167.053 374.365 167.031 373.66 167.009Z" fill="url(#paint10_linear_3924_39609)"/>
<path d="M430.168 314.931C430.784 314.821 431.225 314.711 431.467 314.623C433.36 313.962 435.363 313.214 437.322 312.421L439.061 311.739H439.171C515.753 281.34 534.75 221.73 539.328 198.528C521.234 190.252 507.168 181.072 496.316 172.113C482.008 161.503 472.41 150.915 466.092 142.242L430.168 314.931Z" fill="url(#paint11_linear_3924_39609)"/>
<path d="M415.489 150.168C405.562 153.778 394.203 156.419 381.37 157.19H381.326C379.058 157.366 376.747 157.432 374.37 157.454C371.112 157.454 367.744 157.344 364.332 157.102C364.398 156.595 364.464 156.265 364.464 156.265C368.338 156.573 372.124 156.684 375.779 156.684C378.156 156.684 380.467 156.595 382.735 156.419H382.779C395.612 155.649 406.97 153.007 416.898 149.397C422.643 147.328 427.882 144.951 432.615 142.441C427.486 145.237 421.807 147.901 415.489 150.168Z" fill="url(#paint12_linear_3924_39609)"/>
<path d="M549.652 190.54C492.089 168.55 471.617 137.138 465.41 124.326C464.177 121.795 463.517 120.034 463.23 119.175C464.001 118.317 464.441 117.811 464.441 117.811L464.485 117.943C464.639 118.427 465.322 120.452 466.819 123.556C473.026 136.367 493.498 167.779 551.061 189.77C551.061 189.77 545.932 266.043 466.929 310.002C544.589 265.933 549.652 190.54 549.652 190.54Z" fill="url(#paint13_linear_3924_39609)"/>
<path d="M438.07 210.856C439.435 204.252 445.929 200.004 452.532 201.368C459.136 202.733 463.385 209.227 462.02 215.831C460.985 220.805 457.045 224.438 452.334 225.34L449.891 237.139C449.363 239.67 446.875 241.299 444.344 240.771C441.812 240.243 440.183 237.755 440.712 235.224L443.155 223.425C439.193 220.739 437.014 215.831 438.07 210.856Z" fill="url(#paint14_linear_3924_39609)"/>
<g opacity="0.23">
<path opacity="0.037" d="M213.742 210.683C213.742 257.746 250.173 299.614 295.145 304.214C340.116 308.815 376.547 274.387 376.547 227.346C376.547 180.305 340.116 138.416 295.145 133.815C250.173 129.214 213.742 163.62 213.742 210.683Z" fill="#030711"/>
<path opacity="0.074" d="M214.777 210.77C214.777 257.239 250.768 298.578 295.145 303.113C339.523 307.647 375.513 273.66 375.513 227.213C375.513 180.767 339.523 139.405 295.145 134.871C250.768 130.336 214.777 164.323 214.777 210.77Z" fill="#030711"/>
<path opacity="0.111" d="M215.785 210.881C215.785 256.755 251.313 297.566 295.118 302.057C338.946 306.547 374.452 273 374.452 227.126C374.452 181.252 338.946 140.44 295.141 135.95C251.335 131.459 215.785 165.028 215.785 210.881Z" fill="#030711"/>
<path opacity="0.148" d="M216.824 210.992C216.824 256.271 251.89 296.554 295.123 300.979C338.378 305.404 373.422 272.297 373.422 227.017C373.422 181.737 338.378 141.454 295.145 137.029C251.89 132.605 216.824 165.712 216.824 210.992Z" fill="#030711"/>
<path opacity="0.185" d="M217.859 211.101C217.859 255.786 252.463 295.541 295.146 299.899C337.828 304.258 372.432 271.591 372.432 226.906C372.432 182.22 337.828 142.465 295.146 138.107C252.463 133.748 217.859 166.415 217.859 211.101Z" fill="#030711"/>
<path opacity="0.222" d="M218.895 211.213C218.895 255.304 253.036 294.531 295.146 298.823C337.256 303.116 371.398 270.889 371.398 226.798C371.398 182.707 337.256 143.48 295.146 139.188C253.036 134.873 218.895 167.122 218.895 211.213Z" fill="#030711"/>
<path opacity="0.259" d="M219.906 211.299C219.906 254.796 253.585 293.494 295.123 297.742C336.661 301.991 370.34 270.182 370.34 226.685C370.34 183.189 336.661 144.491 295.123 140.242C253.585 136.016 219.906 167.824 219.906 211.299Z" fill="#030711"/>
<path opacity="0.296" d="M220.938 211.407C220.938 254.309 254.154 292.479 295.12 296.662C336.085 300.844 369.302 269.476 369.302 226.596C369.302 183.715 336.085 145.523 295.12 141.341C254.154 137.158 220.938 168.526 220.938 211.407Z" fill="#030711"/>
<path opacity="0.333" d="M221.973 211.52C221.973 253.828 254.727 291.469 295.142 295.586C335.558 299.702 368.312 268.774 368.312 226.488C368.312 184.202 335.558 146.538 295.142 142.422C254.727 138.284 221.973 169.211 221.973 211.52Z" fill="#030711"/>
<path opacity="0.37" d="M223.008 211.626C223.008 253.34 255.3 290.431 295.143 294.526C334.986 298.62 367.278 268.088 367.278 226.397C367.278 184.705 334.986 147.592 295.143 143.497C255.3 139.403 223.008 169.912 223.008 211.626Z" fill="#030711"/>
<path opacity="0.407" d="M224.02 211.739C224.02 252.859 255.85 289.421 295.12 293.45C334.391 297.478 366.221 267.409 366.221 226.289C366.221 185.17 334.391 148.607 295.12 144.579C255.872 140.55 224.02 170.62 224.02 211.739Z" fill="#030711"/>
<path opacity="0.444" d="M225.059 211.826C225.059 252.329 256.427 288.386 295.125 292.348C333.823 296.31 365.191 266.681 365.191 226.156C365.191 185.631 333.845 149.596 295.147 145.656C256.427 141.694 225.059 171.323 225.059 211.826Z" fill="#030711"/>
<path opacity="0.481" d="M226.094 211.937C226.094 251.846 256.999 287.374 295.147 291.27C333.295 295.167 364.201 265.978 364.201 226.047C364.201 186.116 333.295 150.61 295.147 146.714C256.999 142.818 226.094 172.028 226.094 211.937Z" fill="#030711"/>
<path opacity="0.518" d="M227.129 212.048C227.129 251.362 257.572 286.362 295.148 290.214C332.723 294.066 363.167 265.296 363.167 225.981C363.167 186.667 332.723 151.667 295.148 147.815C257.572 143.963 227.129 172.711 227.129 212.048Z" fill="#030711"/>
<path opacity="0.556" d="M228.137 212.158C228.137 250.878 258.118 285.35 295.121 289.136C332.124 292.922 362.105 264.592 362.105 225.872C362.105 187.152 332.124 152.68 295.121 148.894C258.14 145.086 228.137 173.416 228.137 212.158Z" fill="#030711"/>
<path opacity="0.593" d="M229.172 212.246C229.172 250.371 258.713 284.315 295.122 288.035C331.552 291.755 361.071 263.865 361.071 225.739C361.071 187.614 331.53 153.67 295.122 149.95C258.713 146.23 229.172 174.12 229.172 212.246Z" fill="#030711"/>
<path opacity="0.63" d="M230.207 212.355C230.207 249.886 259.286 283.301 295.144 286.977C331.003 290.653 360.081 263.182 360.081 225.65C360.081 188.119 331.003 154.704 295.144 151.028C259.286 147.373 230.207 174.823 230.207 212.355Z" fill="#030711"/>
<path opacity="0.667" d="M231.242 212.467C231.242 249.404 259.859 282.291 295.145 285.901C330.431 289.511 359.047 262.48 359.047 225.542C359.047 188.605 330.431 155.719 295.145 152.109C259.837 148.498 231.242 175.53 231.242 212.467Z" fill="#030711"/>
<path opacity="0.704" d="M232.254 212.574C232.254 248.917 260.408 281.275 295.122 284.819C329.836 288.364 357.99 261.794 357.99 225.43C357.99 189.065 329.836 156.728 295.122 153.184C260.408 149.64 232.254 176.209 232.254 212.574Z" fill="#030711"/>
<path opacity="0.741" d="M233.289 212.687C233.289 248.435 260.981 280.266 295.122 283.744C329.264 287.222 356.956 261.093 356.956 225.322C356.956 189.552 329.264 157.744 295.122 154.266C260.981 150.788 233.289 176.917 233.289 212.687Z" fill="#030711"/>
<path opacity="0.778" d="M234.324 212.776C234.324 247.93 261.554 279.232 295.145 282.665C328.736 286.099 355.966 260.389 355.966 225.235C355.966 190.081 328.736 158.779 295.145 155.345C261.554 151.911 234.324 177.621 234.324 212.776Z" fill="#030711"/>
<path opacity="0.815" d="M235.359 212.884C235.359 247.444 262.127 278.218 295.146 281.586C328.164 284.954 354.932 259.683 354.932 225.123C354.932 190.564 328.164 159.79 295.146 156.422C262.127 153.054 235.359 178.325 235.359 212.884Z" fill="#030711"/>
<path opacity="0.852" d="M236.367 212.995C236.367 246.96 262.672 277.184 295.119 280.508C327.565 283.831 353.87 258.979 353.87 225.014C353.87 191.048 327.587 160.825 295.141 157.501C262.672 154.177 236.367 179.03 236.367 212.995Z" fill="#030711"/>
<path opacity="0.889" d="M237.402 213.104C237.402 246.475 263.245 276.17 295.119 279.45C326.994 282.708 352.836 258.296 352.836 224.925C352.836 191.554 326.994 161.859 295.119 158.579C263.245 155.321 237.402 179.733 237.402 213.104Z" fill="#030711"/>
<path opacity="0.926" d="M238.438 213.191C238.438 245.968 263.818 275.135 295.142 278.349C326.466 281.562 351.846 257.569 351.846 224.792C351.846 192.015 326.466 162.849 295.142 159.635C263.818 156.443 238.438 180.415 238.438 213.191Z" fill="#030711"/>
<path opacity="0.963" d="M239.477 213.302C239.477 245.485 264.395 274.123 295.146 277.271C325.898 280.419 350.816 256.865 350.816 224.683C350.816 192.5 325.898 163.862 295.146 160.714C264.395 157.588 239.477 181.12 239.477 213.302Z" fill="#030711"/>
<path d="M240.488 213.412C240.488 245 264.944 273.111 295.123 276.192C325.303 279.274 349.759 256.183 349.759 224.595C349.759 193.007 325.303 164.897 295.123 161.815C264.944 158.733 240.488 181.824 240.488 213.412Z" fill="#030711"/>
</g>
<path d="M197.147 80.7832L342.166 108.079C346.854 108.959 349.958 113.494 349.055 118.183L328.364 227.013C327.219 233.088 321.254 236.984 315.222 235.62L175.993 204.252C170.798 203.085 163.533 197.626 164.436 192.365L186.405 88.2455C187.285 83.1826 192.106 79.8367 197.147 80.7832Z" fill="url(#paint15_linear_3924_39609)"/>
<path d="M195.185 81.3145L340.204 108.61C344.892 109.491 347.996 114.025 347.094 118.714L326.402 227.544C325.257 233.619 319.292 237.516 313.26 236.151L170.135 204.343C164.94 203.176 161.572 198.135 162.474 192.896L184.443 88.7767C185.301 83.7139 190.144 80.3679 195.185 81.3145Z" fill="url(#paint16_linear_3924_39609)"/>
<path d="M341.921 146.03L179.182 113.672L173.48 140.681L336.484 174.647L341.921 146.03Z" fill="#DD57DB"/>
<path d="M283.214 181.029L311.302 186.312C312.205 186.488 312.821 187.369 312.645 188.271L308.639 209.359C308.418 210.526 307.252 211.296 306.085 211.032L279.098 204.957C278.085 204.737 277.447 203.746 277.623 202.734L281.123 182.482C281.299 181.491 282.224 180.853 283.214 181.029Z" fill="url(#paint17_linear_3924_39609)"/>
<path d="M211.982 164.831L191.664 160.34C191.598 160.318 191.554 160.274 191.576 160.208L192.17 157.566C192.192 157.5 192.236 157.456 192.302 157.478L212.62 161.969C212.686 161.991 212.73 162.035 212.708 162.101L212.114 164.743C212.114 164.809 212.048 164.853 211.982 164.831Z" fill="url(#paint18_linear_3924_39609)"/>
<path d="M229.302 177.092L189.922 168.397C189.856 168.375 189.812 168.331 189.834 168.265L190.428 165.623C190.45 165.557 190.494 165.513 190.56 165.535L229.941 174.23C230.007 174.252 230.051 174.296 230.029 174.362L229.434 177.004C229.412 177.07 229.346 177.114 229.302 177.092Z" fill="url(#paint19_linear_3924_39609)"/>
<path d="M227.524 185.148L188.121 176.453C188.055 176.431 188.011 176.387 188.033 176.321L188.627 173.68C188.649 173.614 188.693 173.57 188.759 173.592L228.14 182.287C228.206 182.309 228.25 182.353 228.228 182.419L227.634 185.06C227.634 185.126 227.59 185.17 227.524 185.148Z" fill="url(#paint20_linear_3924_39609)"/>
<path d="M225.74 193.205L186.359 184.51C186.293 184.488 186.249 184.444 186.271 184.378L186.866 181.736C186.888 181.67 186.932 181.626 186.998 181.648L226.378 190.343C226.444 190.365 226.488 190.409 226.466 190.475L225.872 193.117C225.872 193.183 225.806 193.205 225.74 193.205Z" fill="url(#paint21_linear_3924_39609)"/>
<path d="M313.569 119.925L294.968 116.909C294.924 116.909 294.902 116.865 294.902 116.821L295.299 114.334C295.299 114.29 295.343 114.268 295.387 114.268L313.987 117.283C314.031 117.283 314.053 117.327 314.053 117.371L313.657 119.859C313.635 119.903 313.591 119.947 313.569 119.925Z" fill="url(#paint22_linear_3924_39609)"/>
<path d="M329.79 130.116L293.777 124.261C293.733 124.261 293.711 124.217 293.711 124.173L294.107 121.685C294.107 121.641 294.151 121.619 294.195 121.619L330.208 127.474C330.252 127.474 330.274 127.519 330.274 127.563L329.878 130.05C329.856 130.094 329.834 130.116 329.79 130.116Z" fill="url(#paint23_linear_3924_39609)"/>
<path d="M216.822 94.9623L203.812 92.8491C203.768 92.8491 203.746 92.805 203.746 92.761L204.032 91.066C204.032 91.022 204.076 91 204.12 91L217.13 93.1132C217.174 93.1132 217.196 93.1572 217.196 93.2013L216.91 94.8962C216.91 94.9403 216.866 94.9843 216.822 94.9623Z" fill="url(#paint24_linear_3924_39609)"/>
<path d="M228.225 102.118L202.976 98.0014C202.932 98.0014 202.91 97.9574 202.91 97.9133L203.196 96.2184C203.196 96.1744 203.24 96.1523 203.284 96.1523L228.533 100.269C228.577 100.269 228.599 100.313 228.599 100.357L228.313 102.052C228.291 102.096 228.247 102.118 228.225 102.118Z" fill="url(#paint25_linear_3924_39609)"/>
<path d="M227.385 107.266L202.136 103.15C202.092 103.15 202.07 103.106 202.07 103.062L202.356 101.367C202.356 101.323 202.4 101.301 202.445 101.301L227.693 105.417C227.737 105.417 227.759 105.461 227.759 105.505L227.473 107.2C227.451 107.244 227.407 107.288 227.385 107.266Z" fill="url(#paint26_linear_3924_39609)"/>
<path d="M226.549 112.44L201.3 108.324C201.256 108.324 201.234 108.28 201.234 108.236L201.521 106.541C201.521 106.497 201.565 106.475 201.609 106.475L226.857 110.591C226.901 110.591 226.923 110.635 226.923 110.679L226.637 112.374C226.615 112.418 226.571 112.44 226.549 112.44Z" fill="url(#paint27_linear_3924_39609)"/>
<path d="M322.944 302.847L450.022 326.775C454.139 327.545 456.846 331.507 456.054 335.624L437.915 430.982C436.903 436.309 431.686 439.721 426.403 438.533L300.975 410.665C296.419 409.63 293.469 405.227 294.261 400.627L313.5 309.385C314.293 304.96 318.541 302.01 322.944 302.847Z" fill="url(#paint28_linear_3924_39609)"/>
<path d="M320.876 303.617L447.955 327.544C452.071 328.315 454.778 332.277 453.986 336.393L435.848 431.752C434.835 437.079 429.618 440.491 424.335 439.302L298.885 411.412C294.329 410.378 291.379 405.975 292.171 401.374L311.41 310.132C312.225 305.73 316.473 302.78 320.876 303.617Z" fill="url(#paint29_linear_3924_39609)"/>
<path d="M356.846 359.001L331.751 353.938C330.585 353.696 329.814 352.507 330.056 351.296C330.298 350.086 331.421 349.271 332.588 349.513L357.682 354.576C358.849 354.818 359.619 356.007 359.377 357.218C359.157 358.428 358.012 359.221 356.846 359.001Z" fill="url(#paint30_linear_3924_39609)"/>
<path d="M396.31 346.872L371.216 341.809C370.049 341.567 369.279 340.378 369.521 339.167C369.763 337.957 370.886 337.142 372.053 337.384L397.147 342.447C398.314 342.689 399.084 343.878 398.842 345.089C398.622 346.322 397.477 347.114 396.31 346.872Z" fill="url(#paint31_linear_3924_39609)"/>
<path d="M354.818 369.655L329.724 364.592C328.557 364.35 327.787 363.161 328.029 361.951C328.271 360.74 329.394 359.926 330.56 360.168L355.655 365.231C356.821 365.473 357.592 366.661 357.35 367.872C357.108 369.083 355.985 369.897 354.818 369.655Z" fill="url(#paint32_linear_3924_39609)"/>
<path d="M352.795 380.309L327.7 375.246C326.534 375.004 325.763 373.816 326.005 372.605C326.248 371.394 327.37 370.58 328.537 370.822L353.631 375.885C354.798 376.127 355.568 377.316 355.326 378.526C355.084 379.759 353.939 380.552 352.795 380.309Z" fill="url(#paint33_linear_3924_39609)"/>
<path d="M350.767 390.985L325.673 385.922C324.506 385.68 323.736 384.491 323.978 383.281C324.22 382.07 325.343 381.256 326.51 381.498L351.604 386.561C352.771 386.803 353.541 387.991 353.299 389.202C353.057 390.413 351.912 391.227 350.767 390.985Z" fill="url(#paint34_linear_3924_39609)"/>
<path d="M427.018 379.12L368.465 367.321L371.128 353.365L429.66 365.164L427.018 379.12Z" stroke="white" stroke-width="0.45283" stroke-miterlimit="10"/>
<path d="M423.149 399.46L364.617 387.662L367.259 373.684L425.812 385.482L423.149 399.46Z" stroke="white" stroke-width="0.45283" stroke-miterlimit="10"/>
<path d="M419.274 419.778L360.742 407.979L363.406 394.023L421.937 405.822L419.274 419.778Z" stroke="white" stroke-width="0.45283" stroke-miterlimit="10"/>
<path d="M57.8102 122.982L136.131 137.73C138.662 138.214 140.335 140.658 139.851 143.189L128.03 206.057C127.414 209.337 124.2 211.45 120.942 210.702L43.6341 193.532C40.8385 192.894 39.0114 190.186 39.4957 187.346L51.9988 127.01C52.4611 124.28 55.0806 122.475 57.8102 122.982Z" fill="url(#paint35_linear_3924_39609)"/>
<path d="M69.6055 150.033L76.2092 180.52L115.788 168.92L111.76 156.989L84.53 167.027L78.4985 146.379L69.6055 150.033Z" fill="url(#paint36_linear_3924_39609)"/>
<path d="M54.7711 123.796L133.092 138.544C135.623 139.029 137.296 141.472 136.812 144.004L124.991 206.872C124.375 210.151 121.161 212.265 117.903 211.516L40.595 194.346C37.7994 193.708 35.9723 191 36.4566 188.161L48.9598 127.824C49.422 125.095 52.0415 123.29 54.7711 123.796Z" fill="url(#paint37_linear_3924_39609)"/>
<path d="M66.5742 150.851L73.178 181.339L112.757 169.738L108.728 157.807L81.4987 167.845L75.4673 147.197L66.5742 150.851Z" fill="white"/>
<path d="M82.4863 200.4L74.4958 236.919C73.3511 242.114 76.587 247.265 81.7379 248.519L118.697 257.522C123.584 258.711 128.471 255.651 129.571 250.765L151.496 151.95C152.618 146.909 157.615 143.717 162.656 144.84L172.166 146.953" stroke="#6959B7" stroke-width="1.35849" stroke-miterlimit="10"/>
<path d="M194.609 370.537C184.637 362.216 161.282 356.383 134.03 356.383C106.779 356.383 83.4234 362.216 73.4517 370.537H68.3008V379.54C68.3008 392.329 97.7316 402.675 134.03 402.675C170.329 402.675 199.76 392.307 199.76 379.54V370.537H194.609Z" fill="#303A52"/>
<path d="M194.968 370.183C184.997 361.863 161.641 356.029 134.39 356.029C107.138 356.029 83.7828 361.863 73.8111 370.183L68.6602 364.108V379.187C68.6602 391.976 98.091 402.322 134.39 402.322C170.688 402.322 200.119 391.954 200.119 379.187V364.108L194.968 370.183Z" fill="url(#paint38_linear_3924_39609)"/>
<path d="M134.39 387.245C170.691 387.245 200.119 376.887 200.119 364.11C200.119 351.333 170.691 340.975 134.39 340.975C98.0883 340.975 68.6602 351.333 68.6602 364.11C68.6602 376.887 98.0883 387.245 134.39 387.245Z" fill="url(#paint39_linear_3924_39609)"/>
<path d="M185.914 364.109C185.914 364.813 185.804 365.451 185.606 366.112C182.767 357.02 160.886 349.976 134.383 349.976C107.88 349.976 86.0214 357.02 83.1597 366.112C82.9616 365.473 82.8516 364.813 82.8516 364.109C82.8516 354.071 105.921 345.992 134.361 345.992C162.801 345.992 185.914 354.071 185.914 364.109Z" fill="url(#paint40_linear_3924_39609)"/>
<path d="M185.611 366.088C182.771 375.18 160.89 382.202 134.387 382.202C107.884 382.202 86.0257 375.158 83.1641 366.088C86.0037 356.997 107.884 349.953 134.387 349.953C160.912 349.975 182.771 357.019 185.611 366.088Z" fill="url(#paint41_linear_3924_39609)"/>
<path d="M134.39 386.582C98.3991 386.582 69.2325 376.391 68.7042 363.777C68.7042 363.887 68.6602 363.997 68.6602 364.108C68.6602 376.897 98.091 387.243 134.39 387.243C170.688 387.243 200.119 376.875 200.119 364.108C200.119 363.997 200.075 363.887 200.075 363.777C199.569 376.391 170.38 386.582 134.39 386.582Z" fill="url(#paint42_linear_3924_39609)"/>
<path d="M132.228 378.329V375.027C128.75 375.005 125.162 374.41 123.07 373.596L124.501 371.395C126.658 372.187 129.762 372.803 133.13 372.803C137.378 372.803 140.262 371.461 140.262 369.59C140.262 367.785 137.929 366.684 133.504 365.693C127.407 364.373 123.621 362.876 123.621 360.036C123.621 357.329 127.143 355.259 132.668 354.753V351.451H136.388V354.621C139.976 354.687 142.441 355.215 144.158 355.766L142.662 357.923C141.407 357.527 138.941 356.8 135.111 356.8C130.489 356.8 128.772 358.297 128.772 359.618C128.772 361.313 130.995 362.171 136.19 363.36C142.353 364.725 145.457 366.442 145.457 369.347C145.457 371.923 142.177 374.366 135.992 374.917V378.329H132.228Z" fill="white"/>
<path d="M194.609 353.013C184.637 344.693 161.282 338.859 134.03 338.859C106.779 338.859 83.4234 344.693 73.4517 353.013H68.3008V362.017C68.3008 374.806 97.7316 385.152 134.03 385.152C170.329 385.152 199.76 374.784 199.76 362.017V353.013H194.609Z" fill="#303A52"/>
<path d="M194.968 352.664C184.997 344.343 161.641 338.51 134.39 338.51C107.138 338.51 83.7828 344.343 73.8111 352.664L68.6602 346.588V361.667C68.6602 374.456 98.091 384.802 134.39 384.802C170.688 384.802 200.119 374.434 200.119 361.667V346.588L194.968 352.664Z" fill="url(#paint43_linear_3924_39609)"/>
<path d="M134.39 369.722C170.691 369.722 200.119 359.364 200.119 346.586C200.119 333.809 170.691 323.451 134.39 323.451C98.0883 323.451 68.6602 333.809 68.6602 346.586C68.6602 359.364 98.0883 369.722 134.39 369.722Z" fill="url(#paint44_linear_3924_39609)"/>
<path d="M185.914 346.585C185.914 347.29 185.804 347.928 185.606 348.588C182.767 339.497 160.886 332.453 134.383 332.453C107.88 332.453 86.0214 339.497 83.1597 348.588C82.9616 347.95 82.8516 347.29 82.8516 346.585C82.8516 336.547 105.921 328.469 134.361 328.469C162.801 328.469 185.914 336.547 185.914 346.585Z" fill="url(#paint45_linear_3924_39609)"/>
<path d="M185.611 348.567C182.771 357.658 160.89 364.68 134.387 364.68C107.884 364.68 86.0257 357.636 83.1641 348.567C86.0037 339.476 107.884 332.432 134.387 332.432C160.912 332.454 182.771 339.498 185.611 348.567Z" fill="url(#paint46_linear_3924_39609)"/>
<path d="M134.39 369.061C98.3991 369.061 69.2325 358.869 68.7042 346.256C68.7042 346.366 68.6602 346.476 68.6602 346.586C68.6602 359.375 98.091 369.721 134.39 369.721C170.688 369.721 200.119 359.353 200.119 346.586C200.119 346.476 200.075 346.366 200.075 346.256C199.569 358.869 170.38 369.061 134.39 369.061Z" fill="url(#paint47_linear_3924_39609)"/>
<path d="M132.228 360.807V357.505C128.75 357.483 125.162 356.889 123.07 356.074L124.501 353.873C126.658 354.666 129.762 355.282 133.13 355.282C137.378 355.282 140.262 353.939 140.262 352.068C140.262 350.263 137.929 349.162 133.504 348.172C127.407 346.851 123.621 345.354 123.621 342.515C123.621 339.807 127.143 337.738 132.668 337.232V333.93H136.388V337.1C139.976 337.166 142.441 337.694 144.158 338.244L142.662 340.401C141.407 340.005 138.941 339.279 135.111 339.279C130.489 339.279 128.772 340.776 128.772 342.096C128.772 343.791 130.995 344.65 136.19 345.838C142.353 347.203 145.457 348.92 145.457 351.826C145.457 354.401 142.177 356.845 135.992 357.395V360.807H132.228Z" fill="white"/>
<path d="M194.609 335.496C184.637 327.175 161.282 321.342 134.03 321.342C106.779 321.342 83.4234 327.175 73.4517 335.496H68.3008V344.499C68.3008 357.288 97.7316 367.634 134.03 367.634C170.329 367.634 199.76 357.266 199.76 344.499V335.496H194.609Z" fill="#303A52"/>
<path d="M194.964 335.142C184.993 326.822 161.637 320.988 134.386 320.988C107.134 320.988 83.7789 326.822 73.8072 335.142L68.6562 329.067V344.146C68.6562 356.935 98.0871 367.281 134.386 367.281C170.685 367.281 200.115 356.913 200.115 344.146V329.067L194.964 335.142Z" fill="url(#paint48_linear_3924_39609)"/>
<path d="M134.386 352.202C170.687 352.202 200.115 341.844 200.115 329.067C200.115 316.29 170.687 305.932 134.386 305.932C98.0844 305.932 68.6562 316.29 68.6562 329.067C68.6562 341.844 98.0844 352.202 134.386 352.202Z" fill="url(#paint49_linear_3924_39609)"/>
<path d="M185.911 329.068C185.911 329.772 185.8 330.41 185.602 331.071C182.763 321.979 160.882 314.935 134.379 314.935C107.876 314.935 86.0175 321.979 83.1558 331.071C82.9577 330.432 82.8477 329.772 82.8477 329.068C82.8477 319.03 105.917 310.951 134.357 310.951C162.797 310.951 185.911 319.03 185.911 329.068Z" fill="url(#paint50_linear_3924_39609)"/>
<path d="M185.607 331.047C182.767 340.139 160.887 347.161 134.383 347.161C107.88 347.161 86.0218 340.117 83.1602 331.047C85.9998 321.956 107.88 314.912 134.383 314.912C160.909 314.934 182.767 321.978 185.607 331.047Z" fill="url(#paint51_linear_3924_39609)"/>
<path d="M134.386 351.543C98.3952 351.543 69.2286 341.351 68.7003 328.738C68.7003 328.848 68.6562 328.958 68.6562 329.068C68.6562 341.858 98.0871 352.204 134.386 352.204C170.685 352.204 200.115 341.836 200.115 329.068C200.115 328.958 200.071 328.848 200.071 328.738C199.565 341.351 170.376 351.543 134.386 351.543Z" fill="url(#paint52_linear_3924_39609)"/>
<path d="M132.224 343.288V339.986C128.746 339.964 125.158 339.369 123.066 338.555L124.497 336.354C126.654 337.146 129.758 337.762 133.126 337.762C137.375 337.762 140.258 336.42 140.258 334.548C140.258 332.743 137.925 331.643 133.5 330.652C127.403 329.332 123.617 327.835 123.617 324.995C123.617 322.288 127.139 320.218 132.664 319.712V316.41H136.384V319.58C139.972 319.646 142.437 320.174 144.154 320.725L142.658 322.882C141.403 322.486 138.937 321.759 135.107 321.759C130.485 321.759 128.768 323.256 128.768 324.577C128.768 326.272 130.991 327.13 136.186 328.319C142.349 329.684 145.453 331.401 145.453 334.306C145.453 336.882 142.173 339.325 135.988 339.876V343.288H132.224Z" fill="white"/>
<path d="M194.609 317.972C184.637 309.652 161.282 303.818 134.03 303.818C106.779 303.818 83.4234 309.652 73.4517 317.972H68.3008V326.976C68.3008 339.765 97.7316 350.111 134.03 350.111C170.329 350.111 199.76 339.743 199.76 326.976V317.972H194.609Z" fill="#303A52"/>
<path d="M194.964 317.619C184.993 309.298 161.637 303.465 134.386 303.465C107.134 303.465 83.7789 309.298 73.8072 317.619L68.6562 311.543V326.622C68.6562 339.411 98.0871 349.757 134.386 349.757C170.685 349.757 200.115 339.389 200.115 326.622V311.543L194.964 317.619Z" fill="url(#paint53_linear_3924_39609)"/>
<path d="M134.386 334.679C170.687 334.679 200.115 324.321 200.115 311.543C200.115 298.766 170.687 288.408 134.386 288.408C98.0844 288.408 68.6562 298.766 68.6562 311.543C68.6562 324.321 98.0844 334.679 134.386 334.679Z" fill="url(#paint54_linear_3924_39609)"/>
<path d="M185.911 311.544C185.911 312.248 185.8 312.887 185.602 313.547C182.763 304.456 160.882 297.412 134.379 297.412C107.876 297.412 86.0175 304.456 83.1558 313.547C82.9577 312.909 82.8477 312.248 82.8477 311.544C82.8477 301.506 105.917 293.428 134.357 293.428C162.797 293.428 185.911 301.506 185.911 311.544Z" fill="url(#paint55_linear_3924_39609)"/>
<path d="M185.607 313.524C182.767 322.615 160.887 329.637 134.383 329.637C107.88 329.637 86.0218 322.593 83.1602 313.524C85.9998 304.433 107.88 297.389 134.383 297.389C160.909 297.411 182.767 304.455 185.607 313.524Z" fill="url(#paint56_linear_3924_39609)"/>
<path d="M134.386 334.02C98.3952 334.02 69.2286 323.828 68.7003 311.215C68.7003 311.325 68.6562 311.435 68.6562 311.545C68.6562 324.334 98.0871 334.68 134.386 334.68C170.685 334.68 200.115 324.312 200.115 311.545C200.115 311.435 200.071 311.325 200.071 311.215C199.565 323.828 170.376 334.02 134.386 334.02Z" fill="url(#paint57_linear_3924_39609)"/>
<path d="M132.224 325.764V322.462C128.746 322.44 125.158 321.846 123.066 321.031L124.497 318.83C126.654 319.623 129.758 320.239 133.126 320.239C137.375 320.239 140.258 318.896 140.258 317.025C140.258 315.22 137.925 314.119 133.5 313.129C127.403 311.808 123.617 310.311 123.617 307.472C123.617 304.764 127.139 302.695 132.664 302.189V298.887H136.384V302.057C139.972 302.123 142.437 302.651 144.154 303.201L142.658 305.358C141.403 304.962 138.937 304.236 135.107 304.236C130.485 304.236 128.768 305.733 128.768 307.053C128.768 308.748 130.991 309.607 136.186 310.796C142.349 312.16 145.453 313.877 145.453 316.783C145.453 319.358 142.173 321.802 135.988 322.352V325.764H132.224Z" fill="white"/>
<path d="M194.609 300.451C184.637 292.13 161.282 286.297 134.03 286.297C106.779 286.297 83.4234 292.13 73.4517 300.451H68.3008V309.454C68.3008 322.243 97.7316 332.589 134.03 332.589C170.329 332.589 199.76 322.221 199.76 309.454V300.451H194.609Z" fill="#303A52"/>
<path d="M194.964 300.097C184.993 291.777 161.637 285.943 134.386 285.943C107.134 285.943 83.7789 291.777 73.8072 300.097L68.6562 294.022V309.101C68.6562 321.89 98.0871 332.236 134.386 332.236C170.685 332.236 200.115 321.868 200.115 309.101V294.022L194.964 300.097Z" fill="url(#paint58_linear_3924_39609)"/>
<path d="M134.386 317.157C170.687 317.157 200.115 306.799 200.115 294.022C200.115 281.245 170.687 270.887 134.386 270.887C98.0844 270.887 68.6562 281.245 68.6562 294.022C68.6562 306.799 98.0844 317.157 134.386 317.157Z" fill="url(#paint59_linear_3924_39609)"/>
<path d="M185.911 294.023C185.911 294.727 185.8 295.365 185.602 296.026C182.763 286.935 160.882 279.891 134.379 279.891C107.876 279.891 86.0175 286.935 83.1558 296.026C82.9577 295.387 82.8477 294.727 82.8477 294.023C82.8477 283.985 105.917 275.906 134.357 275.906C162.797 275.906 185.911 283.985 185.911 294.023Z" fill="url(#paint60_linear_3924_39609)"/>
<path d="M185.607 296.002C182.767 305.094 160.887 312.116 134.383 312.116C107.88 312.116 86.0218 305.072 83.1602 296.002C85.9998 286.911 107.88 279.867 134.383 279.867C160.909 279.889 182.767 286.933 185.607 296.002Z" fill="url(#paint61_linear_3924_39609)"/>
<path d="M134.386 316.498C98.3952 316.498 69.2286 306.307 68.7003 293.693C68.7003 293.803 68.6562 293.913 68.6562 294.024C68.6562 306.813 98.0871 317.159 134.386 317.159C170.685 317.159 200.115 306.791 200.115 294.024C200.115 293.913 200.071 293.803 200.071 293.693C199.565 306.307 170.376 316.498 134.386 316.498Z" fill="url(#paint62_linear_3924_39609)"/>
<path d="M132.224 308.243V304.941C128.746 304.919 125.158 304.324 123.066 303.51L124.497 301.309C126.654 302.101 129.758 302.717 133.126 302.717C137.375 302.717 140.258 301.375 140.258 299.504C140.258 297.699 137.925 296.598 133.5 295.607C127.403 294.287 123.617 292.79 123.617 289.95C123.617 287.243 127.139 285.173 132.664 284.667V281.365H136.384V284.535C139.972 284.601 142.437 285.129 144.154 285.68L142.658 287.837C141.403 287.441 138.937 286.714 135.107 286.714C130.485 286.714 128.768 288.211 128.768 289.532C128.768 291.227 130.991 292.085 136.186 293.274C142.349 294.639 145.453 296.356 145.453 299.261C145.453 301.837 142.173 304.28 135.988 304.831V308.243H132.224Z" fill="white"/>
<path d="M194.609 282.928C184.637 274.607 161.282 268.773 134.03 268.773C106.779 268.773 83.4234 274.607 73.4517 282.928H68.3008V291.931C68.3008 304.72 97.7316 315.066 134.03 315.066C170.329 315.066 199.76 304.698 199.76 291.931V282.928H194.609Z" fill="#303A52"/>
<path d="M194.964 282.574C184.993 274.253 161.637 268.42 134.386 268.42C107.134 268.42 83.7789 274.253 73.8072 282.574L68.6562 276.499V291.577C68.6562 304.366 98.0871 314.712 134.386 314.712C170.685 314.712 200.115 304.344 200.115 291.577V276.499L194.964 282.574Z" fill="url(#paint63_linear_3924_39609)"/>
<path d="M134.386 299.634C170.687 299.634 200.115 289.276 200.115 276.498C200.115 263.721 170.687 253.363 134.386 253.363C98.0844 253.363 68.6562 263.721 68.6562 276.498C68.6562 289.276 98.0844 299.634 134.386 299.634Z" fill="url(#paint64_linear_3924_39609)"/>
<path d="M185.911 276.499C185.911 277.204 185.8 277.842 185.602 278.502C182.763 269.411 160.882 262.367 134.379 262.367C107.876 262.367 86.0175 269.411 83.1558 278.502C82.9577 277.864 82.8477 277.204 82.8477 276.499C82.8477 266.461 105.917 258.383 134.357 258.383C162.797 258.383 185.911 266.461 185.911 276.499Z" fill="url(#paint65_linear_3924_39609)"/>
<path d="M185.607 278.479C182.767 287.57 160.887 294.592 134.383 294.592C107.88 294.592 86.0218 287.548 83.1602 278.479C85.9998 269.388 107.88 262.344 134.383 262.344C160.909 262.366 182.767 269.41 185.607 278.479Z" fill="url(#paint66_linear_3924_39609)"/>
<path d="M134.386 298.975C98.3952 298.975 69.2286 288.783 68.7003 276.17C68.7003 276.28 68.6562 276.39 68.6562 276.5C68.6562 289.289 98.0871 299.635 134.386 299.635C170.685 299.635 200.115 289.267 200.115 276.5C200.115 276.39 200.071 276.28 200.071 276.17C199.565 288.783 170.376 298.975 134.386 298.975Z" fill="url(#paint67_linear_3924_39609)"/>
<path d="M132.224 290.719V287.417C128.746 287.395 125.158 286.801 123.066 285.986L124.497 283.785C126.654 284.578 129.758 285.194 133.126 285.194C137.375 285.194 140.258 283.851 140.258 281.98C140.258 280.175 137.925 279.074 133.5 278.084C127.403 276.763 123.617 275.266 123.617 272.427C123.617 269.719 127.139 267.65 132.664 267.144V263.842H136.384V267.012C139.972 267.078 142.437 267.606 144.154 268.156L142.658 270.314C141.403 269.917 138.937 269.191 135.107 269.191C130.485 269.191 128.768 270.688 128.768 272.008C128.768 273.703 130.991 274.562 136.186 275.751C142.349 277.115 145.453 278.832 145.453 281.738C145.453 284.314 142.173 286.757 135.988 287.307V290.719H132.224Z" fill="white"/>
<path d="M297.142 411.196C287.17 397.306 263.815 387.576 236.563 387.576C209.311 387.576 185.956 397.328 175.984 411.196H170.855V426.23C170.855 447.582 200.286 464.884 236.585 464.884C272.884 464.884 302.315 447.582 302.315 426.23V411.196H297.142Z" fill="#303A52"/>
<path d="M297.496 410.602C287.524 396.712 264.169 386.982 236.917 386.982C209.665 386.982 186.31 396.734 176.338 410.602H171.188V425.637C171.188 446.989 200.618 464.291 236.917 464.291C273.216 464.291 302.647 446.989 302.647 425.637V410.602H297.496Z" fill="url(#paint68_linear_3924_39609)"/>
<path d="M236.94 449.255C273.242 449.255 302.67 431.949 302.67 410.601C302.67 389.253 273.242 371.947 236.94 371.947C200.639 371.947 171.211 389.253 171.211 410.601C171.211 431.949 200.639 449.255 236.94 449.255Z" fill="url(#paint69_linear_3924_39609)"/>
<path d="M288.446 410.601C288.446 411.768 288.336 412.847 288.138 413.947C285.298 398.781 263.417 387.004 236.914 387.004C210.411 387.004 188.553 398.759 185.691 413.947C185.493 412.869 185.383 411.79 185.383 410.601C185.383 393.85 208.452 380.334 236.892 380.334C265.332 380.334 288.446 393.828 288.446 410.601Z" fill="url(#paint70_linear_3924_39609)"/>
<path d="M288.138 413.926C285.298 429.092 263.418 440.869 236.915 440.869C210.412 440.869 188.553 429.115 185.691 413.926C188.531 398.759 210.412 386.982 236.915 386.982C263.44 387.004 285.298 398.759 288.138 413.926Z" fill="url(#paint71_linear_3924_39609)"/>
<path d="M236.94 448.133C200.95 448.133 171.783 431.117 171.255 410.029C171.255 410.227 171.211 410.404 171.211 410.58C171.211 431.932 200.642 449.234 236.94 449.234C273.239 449.234 302.67 431.932 302.67 410.58C302.67 410.381 302.626 410.205 302.626 410.029C302.098 431.139 272.909 448.133 236.94 448.133Z" fill="url(#paint72_linear_3924_39609)"/>
<path d="M234.782 434.353V428.828C231.304 428.784 227.716 427.793 225.625 426.428L227.056 422.774C229.213 424.095 232.317 425.13 235.685 425.13C239.933 425.13 242.817 422.884 242.817 419.759C242.817 416.743 240.483 414.894 236.059 413.243C229.961 411.042 226.175 408.532 226.175 403.777C226.175 399.243 229.697 395.787 235.222 394.972V389.447H238.943V394.752C242.531 394.862 244.996 395.743 246.713 396.667L245.216 400.277C243.961 399.617 241.496 398.406 237.666 398.406C233.043 398.406 231.326 400.916 231.326 403.117C231.326 405.957 233.55 407.388 238.744 409.347C244.908 411.636 248.012 414.498 248.012 419.362C248.012 423.677 244.732 427.727 238.546 428.652V434.353H234.782Z" fill="white"/>
<path d="M194.107 355.456C178.192 349.227 153.273 353.783 130.424 368.598C107.575 383.412 93.2671 404.324 92.4746 421.384L88.1602 424.18L96.3488 436.793C107.971 454.689 142.069 453.192 172.534 433.447C202.978 413.68 218.255 383.148 206.632 365.252L198.443 352.639L194.107 355.456Z" fill="#303A52"/>
<path d="M194.083 354.775C178.168 348.545 153.25 353.102 130.401 367.916C107.552 382.731 93.2436 403.643 92.4512 420.702L88.1367 423.498L96.3254 436.111C107.948 454.007 142.046 452.51 172.511 432.765C202.976 413.02 218.231 382.466 206.608 364.57L198.42 351.957L194.083 354.775Z" fill="url(#paint73_linear_3924_39609)"/>
<path d="M198.419 351.956C210.042 369.852 194.765 400.406 164.322 420.151C133.878 439.918 99.7588 441.415 88.1362 423.497C76.5135 405.601 91.7902 375.047 122.234 355.302C152.677 335.557 186.797 334.06 198.419 351.956Z" fill="url(#paint74_linear_3924_39609)"/>
<path d="M186.489 359.684C187.127 360.653 187.634 361.621 188.052 362.656C177.398 351.474 152.656 353.521 130.423 367.939C108.19 382.357 96.2375 404.128 102.115 418.414C101.366 417.621 100.684 416.763 100.046 415.772C90.9325 401.706 102.907 377.823 126.791 362.348C150.675 346.851 177.376 345.64 186.489 359.684Z" fill="url(#paint75_linear_3924_39609)"/>
<path d="M188.051 362.653C193.928 376.939 181.975 398.688 159.743 413.128C137.51 427.546 112.768 429.593 102.114 418.411C96.2364 404.125 108.189 382.376 130.422 367.936C152.655 353.518 177.397 351.471 188.051 362.653Z" fill="url(#paint76_linear_3924_39609)"/>
<path d="M163.708 419.228C133.529 438.819 99.7838 440.426 87.875 423.014C87.9631 423.168 88.0291 423.345 88.1392 423.499C99.7618 441.395 133.859 439.898 164.325 420.153C194.768 400.385 210.045 369.854 198.422 351.958C198.312 351.804 198.18 351.672 198.07 351.518C209.12 369.48 193.888 399.637 163.708 419.228Z" fill="url(#paint77_linear_3924_39609)"/>
<path d="M154.392 408.84L151.376 404.195C148.427 406.044 144.883 407.167 142.373 407.167L141.581 403.314C144.112 403.248 147.282 402.412 150.1 400.585C153.666 398.274 154.854 394.818 153.16 392.22C151.531 389.689 148.559 389.402 143.936 390.437C137.619 391.912 133.084 391.868 130.509 387.862C128.043 384.053 129.122 379.233 133.304 375.557L130.288 370.912L133.414 368.887L136.298 373.333C139.38 371.462 141.911 370.868 143.87 370.714L144.575 374.566C143.166 374.698 140.458 375.028 137.244 377.119C133.37 379.629 133.282 382.689 134.471 384.516C136.012 386.893 138.653 386.893 144.09 385.704C150.518 384.274 154.678 384.978 157.32 389.05C159.675 392.682 159.125 397.855 154.458 401.994L157.562 406.77L154.392 408.84Z" fill="white"/>
</g>
<defs>
<linearGradient id="paint0_linear_3924_39609" x1="319.164" y1="299.495" x2="363.447" y2="83.4668" gradientUnits="userSpaceOnUse">
<stop stop-color="#FCF3F6"/>
<stop offset="1" stop-color="#EAC7D3"/>
</linearGradient>
<linearGradient id="paint1_linear_3924_39609" x1="370.062" y1="65.0755" x2="289.121" y2="347.467" gradientUnits="userSpaceOnUse">
<stop stop-color="#FCF3F6"/>
<stop offset="1" stop-color="#EAC7D3"/>
</linearGradient>
<linearGradient id="paint2_linear_3924_39609" x1="368.556" y1="70.3248" x2="290.299" y2="343.357" gradientUnits="userSpaceOnUse">
<stop stop-color="#7362C4"/>
<stop offset="1" stop-color="#4F4191"/>
</linearGradient>
<linearGradient id="paint3_linear_3924_39609" x1="391.327" y1="145.558" x2="389.098" y2="160.109" gradientUnits="userSpaceOnUse">
<stop stop-color="#FFFBFC"/>
<stop offset="1" stop-color="#EAC7D3"/>
</linearGradient>
<linearGradient id="paint4_linear_3924_39609" x1="462.266" y1="321.716" x2="470.363" y2="131.472" gradientUnits="userSpaceOnUse">
<stop stop-color="#FFFBFC"/>
<stop offset="1" stop-color="#EAC7D3"/>
</linearGradient>
<linearGradient id="paint5_linear_3924_39609" x1="461.558" y1="145.673" x2="433.163" y2="331.059" gradientUnits="userSpaceOnUse">
<stop stop-color="#FCF3F6"/>
<stop offset="1" stop-color="#EAC7D3"/>
</linearGradient>
<linearGradient id="paint6_linear_3924_39609" x1="518.516" y1="178.194" x2="515.888" y2="195.35" gradientUnits="userSpaceOnUse">
<stop stop-color="#7362C4"/>
<stop offset="1" stop-color="#4F4191"/>
</linearGradient>
<linearGradient id="paint7_linear_3924_39609" x1="436.285" y1="258.489" x2="419.288" y2="172.824" gradientUnits="userSpaceOnUse">
<stop stop-color="#7362C4"/>
<stop offset="1" stop-color="#4F4191"/>
</linearGradient>
<linearGradient id="paint8_linear_3924_39609" x1="466.02" y1="142.301" x2="439.355" y2="316.394" gradientUnits="userSpaceOnUse">
<stop stop-color="#7362C4"/>
<stop offset="1" stop-color="#4F4191"/>
</linearGradient>
<linearGradient id="paint9_linear_3924_39609" x1="518.007" y1="120.661" x2="508.411" y2="183.315" gradientUnits="userSpaceOnUse">
<stop stop-color="#FFFBFC"/>
<stop offset="1" stop-color="#EAC7D3"/>
</linearGradient>
<linearGradient id="paint10_linear_3924_39609" x1="376.646" y1="158.65" x2="481.678" y2="147.933" gradientUnits="userSpaceOnUse">
<stop stop-color="#7362C4"/>
<stop offset="1" stop-color="#4F4191"/>
</linearGradient>
<linearGradient id="paint11_linear_3924_39609" x1="427.738" y1="218.681" x2="505.177" y2="257.109" gradientUnits="userSpaceOnUse">
<stop stop-color="#574B90"/>
<stop offset="0.995" stop-color="#3E22C4"/>
</linearGradient>
<linearGradient id="paint12_linear_3924_39609" x1="399.388" y1="140.731" x2="396.057" y2="162.479" gradientUnits="userSpaceOnUse">
<stop stop-color="#FCF3F6"/>
<stop offset="1" stop-color="white"/>
</linearGradient>
<linearGradient id="paint13_linear_3924_39609" x1="507.477" y1="149.762" x2="482.047" y2="315.793" gradientUnits="userSpaceOnUse">
<stop stop-color="#FCF3F6"/>
<stop offset="1" stop-color="white"/>
</linearGradient>
<linearGradient id="paint14_linear_3924_39609" x1="436.418" y1="210.742" x2="455.845" y2="226.547" gradientUnits="userSpaceOnUse">
<stop stop-color="#FFFBFC"/>
<stop offset="1" stop-color="#EAC7D3"/>
</linearGradient>
<linearGradient id="paint15_linear_3924_39609" x1="308.201" y1="208.788" x2="234.293" y2="130.934" gradientUnits="userSpaceOnUse">
<stop stop-color="#FD6E9F"/>
<stop offset="0.995" stop-color="#FC85AE"/>
</linearGradient>
<linearGradient id="paint16_linear_3924_39609" x1="270.823" y1="89.8243" x2="247.784" y2="192.056" gradientUnits="userSpaceOnUse">
<stop stop-color="#FD6E9F"/>
<stop offset="0.995" stop-color="#FC85AE"/>
</linearGradient>
<linearGradient id="paint17_linear_3924_39609" x1="297.862" y1="182.682" x2="293.413" y2="202.424" gradientUnits="userSpaceOnUse">
<stop stop-color="#FCF3F6"/>
<stop offset="1" stop-color="#EAC7D3"/>
</linearGradient>
<linearGradient id="paint18_linear_3924_39609" x1="202.429" y1="159.935" x2="201.83" y2="162.646" gradientUnits="userSpaceOnUse">
<stop stop-color="#FCF3F6"/>
<stop offset="1" stop-color="#EAC7D3"/>
</linearGradient>
<linearGradient id="paint19_linear_3924_39609" x1="210.191" y1="170.09" x2="209.593" y2="172.801" gradientUnits="userSpaceOnUse">
<stop stop-color="#FCF3F6"/>
<stop offset="1" stop-color="#EAC7D3"/>
</linearGradient>
<linearGradient id="paint20_linear_3924_39609" x1="208.419" y1="178.138" x2="207.821" y2="180.85" gradientUnits="userSpaceOnUse">
<stop stop-color="#FCF3F6"/>
<stop offset="1" stop-color="#EAC7D3"/>
</linearGradient>
<linearGradient id="paint21_linear_3924_39609" x1="206.642" y1="186.187" x2="206.044" y2="188.898" gradientUnits="userSpaceOnUse">
<stop stop-color="#FCF3F6"/>
<stop offset="1" stop-color="#EAC7D3"/>
</linearGradient>
<linearGradient id="paint22_linear_3924_39609" x1="304.655" y1="115.974" x2="304.252" y2="118.448" gradientUnits="userSpaceOnUse">
<stop stop-color="#FCF3F6"/>
<stop offset="1" stop-color="#EAC7D3"/>
</linearGradient>
<linearGradient id="paint23_linear_3924_39609" x1="312.174" y1="124.739" x2="311.772" y2="127.213" gradientUnits="userSpaceOnUse">
<stop stop-color="#FCF3F6"/>
<stop offset="1" stop-color="#EAC7D3"/>
</linearGradient>
<linearGradient id="paint24_linear_3924_39609" x1="210.601" y1="92.1955" x2="210.318" y2="93.9326" gradientUnits="userSpaceOnUse">
<stop stop-color="#FCF3F6"/>
<stop offset="1" stop-color="#EAC7D3"/>
</linearGradient>
<linearGradient id="paint25_linear_3924_39609" x1="215.877" y1="98.3486" x2="215.594" y2="100.086" gradientUnits="userSpaceOnUse">
<stop stop-color="#FCF3F6"/>
<stop offset="1" stop-color="#EAC7D3"/>
</linearGradient>
<linearGradient id="paint26_linear_3924_39609" x1="215.035" y1="103.503" x2="214.752" y2="105.241" gradientUnits="userSpaceOnUse">
<stop stop-color="#FCF3F6"/>
<stop offset="1" stop-color="#EAC7D3"/>
</linearGradient>
<linearGradient id="paint27_linear_3924_39609" x1="214.197" y1="108.661" x2="213.914" y2="110.399" gradientUnits="userSpaceOnUse">
<stop stop-color="#FCF3F6"/>
<stop offset="1" stop-color="#EAC7D3"/>
</linearGradient>
<linearGradient id="paint28_linear_3924_39609" x1="367.069" y1="348.953" x2="392.419" y2="409.365" gradientUnits="userSpaceOnUse">
<stop stop-color="#7362C4"/>
<stop offset="1" stop-color="#4F4191"/>
</linearGradient>
<linearGradient id="paint29_linear_3924_39609" x1="351.013" y1="416.66" x2="398.293" y2="321.338" gradientUnits="userSpaceOnUse">
<stop stop-color="#574B90"/>
<stop offset="0.995" stop-color="#3E22C4"/>
</linearGradient>
<linearGradient id="paint30_linear_3924_39609" x1="344.398" y1="355.938" x2="345.108" y2="352.418" gradientUnits="userSpaceOnUse">
<stop stop-color="#FCF3F6"/>
<stop offset="1" stop-color="#EAC7D3"/>
</linearGradient>
<linearGradient id="paint31_linear_3924_39609" x1="383.869" y1="343.827" x2="384.579" y2="340.306" gradientUnits="userSpaceOnUse">
<stop stop-color="#FCF3F6"/>
<stop offset="1" stop-color="#EAC7D3"/>
</linearGradient>
<linearGradient id="paint32_linear_3924_39609" x1="342.368" y1="366.601" x2="343.078" y2="363.081" gradientUnits="userSpaceOnUse">
<stop stop-color="#FCF3F6"/>
<stop offset="1" stop-color="#EAC7D3"/>
</linearGradient>
<linearGradient id="paint33_linear_3924_39609" x1="340.343" y1="377.264" x2="341.052" y2="373.744" gradientUnits="userSpaceOnUse">
<stop stop-color="#FCF3F6"/>
<stop offset="1" stop-color="#EAC7D3"/>
</linearGradient>
<linearGradient id="paint34_linear_3924_39609" x1="338.313" y1="387.927" x2="339.023" y2="384.407" gradientUnits="userSpaceOnUse">
<stop stop-color="#FCF3F6"/>
<stop offset="1" stop-color="#EAC7D3"/>
</linearGradient>
<linearGradient id="paint35_linear_3924_39609" x1="98.7949" y1="127.516" x2="85.6244" y2="185.96" gradientUnits="userSpaceOnUse">
<stop stop-color="#7362C4"/>
<stop offset="1" stop-color="#4F4191"/>
</linearGradient>
<linearGradient id="paint36_linear_3924_39609" x1="69.6105" y1="163.443" x2="115.781" y2="163.443" gradientUnits="userSpaceOnUse">
<stop stop-color="#7362C4"/>
<stop offset="1" stop-color="#4F4191"/>
</linearGradient>
<linearGradient id="paint37_linear_3924_39609" x1="84.3278" y1="196.436" x2="88.7303" y2="138.323" gradientUnits="userSpaceOnUse">
<stop stop-color="#574B90"/>
<stop offset="0.995" stop-color="#3E22C4"/>
</linearGradient>
<linearGradient id="paint38_linear_3924_39609" x1="191.525" y1="374.764" x2="45.6172" y2="386.036" gradientUnits="userSpaceOnUse">
<stop stop-color="#B24FB1"/>
<stop offset="0.359" stop-color="#FFB6CF"/>
<stop offset="0.722" stop-color="#9E579D"/>
<stop offset="1" stop-color="#AD52AC"/>
</linearGradient>
<linearGradient id="paint39_linear_3924_39609" x1="146.221" y1="332.123" x2="125.905" y2="387.08" gradientUnits="userSpaceOnUse">
<stop stop-color="#B24FB1"/>
<stop offset="0.359" stop-color="#FFB6CF"/>
<stop offset="1" stop-color="#AD52AC"/>
</linearGradient>
<linearGradient id="paint40_linear_3924_39609" x1="63.6051" y1="363.805" x2="207.64" y2="351.823" gradientUnits="userSpaceOnUse">
<stop stop-color="#B24FB1"/>
<stop offset="0.359" stop-color="#FFB6CF"/>
<stop offset="0.705" stop-color="#9E579D"/>
<stop offset="1" stop-color="#AD52AC"/>
</linearGradient>
<linearGradient id="paint41_linear_3924_39609" x1="170.639" y1="342.529" x2="98.1509" y2="389.664" gradientUnits="userSpaceOnUse">
<stop stop-color="#B24FB1"/>
<stop offset="0.359" stop-color="#FFB6CF"/>
<stop offset="1" stop-color="#AD52AC"/>
</linearGradient>
<linearGradient id="paint42_linear_3924_39609" x1="68.6718" y1="375.506" x2="200.125" y2="375.506" gradientUnits="userSpaceOnUse">
<stop stop-color="#FFB6CF"/>
<stop offset="1" stop-color="#FFCCDE"/>
</linearGradient>
<linearGradient id="paint43_linear_3924_39609" x1="191.525" y1="357.244" x2="45.6172" y2="368.516" gradientUnits="userSpaceOnUse">
<stop stop-color="#B24FB1"/>
<stop offset="0.359" stop-color="#FFB6CF"/>
<stop offset="0.722" stop-color="#9E579D"/>
<stop offset="1" stop-color="#AD52AC"/>
</linearGradient>
<linearGradient id="paint44_linear_3924_39609" x1="146.221" y1="314.599" x2="125.905" y2="369.556" gradientUnits="userSpaceOnUse">
<stop stop-color="#B24FB1"/>
<stop offset="0.359" stop-color="#FFB6CF"/>
<stop offset="1" stop-color="#AD52AC"/>
</linearGradient>
<linearGradient id="paint45_linear_3924_39609" x1="63.6051" y1="346.281" x2="207.64" y2="334.3" gradientUnits="userSpaceOnUse">
<stop stop-color="#B24FB1"/>
<stop offset="0.359" stop-color="#FFB6CF"/>
<stop offset="0.705" stop-color="#9E579D"/>
<stop offset="1" stop-color="#AD52AC"/>
</linearGradient>
<linearGradient id="paint46_linear_3924_39609" x1="170.639" y1="325.007" x2="98.1509" y2="372.142" gradientUnits="userSpaceOnUse">
<stop stop-color="#B24FB1"/>
<stop offset="0.359" stop-color="#FFB6CF"/>
<stop offset="1" stop-color="#AD52AC"/>
</linearGradient>
<linearGradient id="paint47_linear_3924_39609" x1="68.6718" y1="357.984" x2="200.125" y2="357.984" gradientUnits="userSpaceOnUse">
<stop stop-color="#FFB6CF"/>
<stop offset="1" stop-color="#FFCCDE"/>
</linearGradient>
<linearGradient id="paint48_linear_3924_39609" x1="191.521" y1="339.723" x2="45.6133" y2="350.995" gradientUnits="userSpaceOnUse">
<stop stop-color="#B24FB1"/>
<stop offset="0.359" stop-color="#FFB6CF"/>
<stop offset="0.722" stop-color="#9E579D"/>
<stop offset="1" stop-color="#AD52AC"/>
</linearGradient>
<linearGradient id="paint49_linear_3924_39609" x1="146.217" y1="297.079" x2="125.901" y2="352.036" gradientUnits="userSpaceOnUse">
<stop stop-color="#B24FB1"/>
<stop offset="0.359" stop-color="#FFB6CF"/>
<stop offset="1" stop-color="#AD52AC"/>
</linearGradient>
<linearGradient id="paint50_linear_3924_39609" x1="63.6012" y1="328.763" x2="207.636" y2="316.782" gradientUnits="userSpaceOnUse">
<stop stop-color="#B24FB1"/>
<stop offset="0.359" stop-color="#FFB6CF"/>
<stop offset="0.705" stop-color="#9E579D"/>
<stop offset="1" stop-color="#AD52AC"/>
</linearGradient>
<linearGradient id="paint51_linear_3924_39609" x1="170.635" y1="307.488" x2="98.147" y2="354.622" gradientUnits="userSpaceOnUse">
<stop stop-color="#B24FB1"/>
<stop offset="0.359" stop-color="#FFB6CF"/>
<stop offset="1" stop-color="#AD52AC"/>
</linearGradient>
<linearGradient id="paint52_linear_3924_39609" x1="68.6679" y1="340.466" x2="200.121" y2="340.466" gradientUnits="userSpaceOnUse">
<stop stop-color="#FFB6CF"/>
<stop offset="1" stop-color="#FFCCDE"/>
</linearGradient>
<linearGradient id="paint53_linear_3924_39609" x1="191.521" y1="322.199" x2="45.6133" y2="333.471" gradientUnits="userSpaceOnUse">
<stop stop-color="#B24FB1"/>
<stop offset="0.359" stop-color="#FFB6CF"/>
<stop offset="0.722" stop-color="#9E579D"/>
<stop offset="1" stop-color="#AD52AC"/>
</linearGradient>
<linearGradient id="paint54_linear_3924_39609" x1="146.217" y1="279.556" x2="125.901" y2="334.513" gradientUnits="userSpaceOnUse">
<stop stop-color="#B24FB1"/>
<stop offset="0.359" stop-color="#FFB6CF"/>
<stop offset="1" stop-color="#AD52AC"/>
</linearGradient>
<linearGradient id="paint55_linear_3924_39609" x1="63.6012" y1="311.239" x2="207.636" y2="299.258" gradientUnits="userSpaceOnUse">
<stop stop-color="#B24FB1"/>
<stop offset="0.359" stop-color="#FFB6CF"/>
<stop offset="0.705" stop-color="#9E579D"/>
<stop offset="1" stop-color="#AD52AC"/>
</linearGradient>
<linearGradient id="paint56_linear_3924_39609" x1="170.635" y1="289.964" x2="98.147" y2="337.099" gradientUnits="userSpaceOnUse">
<stop stop-color="#B24FB1"/>
<stop offset="0.359" stop-color="#FFB6CF"/>
<stop offset="1" stop-color="#AD52AC"/>
</linearGradient>
<linearGradient id="paint57_linear_3924_39609" x1="68.6679" y1="322.943" x2="200.121" y2="322.943" gradientUnits="userSpaceOnUse">
<stop stop-color="#FFB6CF"/>
<stop offset="1" stop-color="#FFCCDE"/>
</linearGradient>
<linearGradient id="paint58_linear_3924_39609" x1="191.521" y1="304.677" x2="45.6133" y2="315.949" gradientUnits="userSpaceOnUse">
<stop stop-color="#B24FB1"/>
<stop offset="0.359" stop-color="#FFB6CF"/>
<stop offset="0.722" stop-color="#9E579D"/>
<stop offset="1" stop-color="#AD52AC"/>
</linearGradient>
<linearGradient id="paint59_linear_3924_39609" x1="146.217" y1="262.034" x2="125.901" y2="316.991" gradientUnits="userSpaceOnUse">
<stop stop-color="#B24FB1"/>
<stop offset="0.359" stop-color="#FFB6CF"/>
<stop offset="1" stop-color="#AD52AC"/>
</linearGradient>
<linearGradient id="paint60_linear_3924_39609" x1="63.6012" y1="293.718" x2="207.636" y2="281.736" gradientUnits="userSpaceOnUse">
<stop stop-color="#B24FB1"/>
<stop offset="0.359" stop-color="#FFB6CF"/>
<stop offset="0.705" stop-color="#9E579D"/>
<stop offset="1" stop-color="#AD52AC"/>
</linearGradient>
<linearGradient id="paint61_linear_3924_39609" x1="170.635" y1="272.442" x2="98.147" y2="319.577" gradientUnits="userSpaceOnUse">
<stop stop-color="#B24FB1"/>
<stop offset="0.359" stop-color="#FFB6CF"/>
<stop offset="1" stop-color="#AD52AC"/>
</linearGradient>
<linearGradient id="paint62_linear_3924_39609" x1="68.6679" y1="305.421" x2="200.121" y2="305.421" gradientUnits="userSpaceOnUse">
<stop stop-color="#FFB6CF"/>
<stop offset="1" stop-color="#FFCCDE"/>
</linearGradient>
<linearGradient id="paint63_linear_3924_39609" x1="191.521" y1="287.154" x2="45.6133" y2="298.425" gradientUnits="userSpaceOnUse">
<stop stop-color="#B24FB1"/>
<stop offset="0.359" stop-color="#FFB6CF"/>
<stop offset="0.722" stop-color="#9E579D"/>
<stop offset="1" stop-color="#AD52AC"/>
</linearGradient>
<linearGradient id="paint64_linear_3924_39609" x1="146.217" y1="244.51" x2="125.901" y2="299.468" gradientUnits="userSpaceOnUse">
<stop stop-color="#B24FB1"/>
<stop offset="0.359" stop-color="#FFB6CF"/>
<stop offset="1" stop-color="#AD52AC"/>
</linearGradient>
<linearGradient id="paint65_linear_3924_39609" x1="63.6012" y1="276.194" x2="207.636" y2="264.213" gradientUnits="userSpaceOnUse">
<stop stop-color="#B24FB1"/>
<stop offset="0.359" stop-color="#FFB6CF"/>
<stop offset="0.705" stop-color="#9E579D"/>
<stop offset="1" stop-color="#AD52AC"/>
</linearGradient>
<linearGradient id="paint66_linear_3924_39609" x1="170.635" y1="254.919" x2="98.147" y2="302.054" gradientUnits="userSpaceOnUse">
<stop stop-color="#B24FB1"/>
<stop offset="0.359" stop-color="#FFB6CF"/>
<stop offset="1" stop-color="#AD52AC"/>
</linearGradient>
<linearGradient id="paint67_linear_3924_39609" x1="68.6679" y1="287.898" x2="200.121" y2="287.898" gradientUnits="userSpaceOnUse">
<stop stop-color="#FFB6CF"/>
<stop offset="1" stop-color="#FFCCDE"/>
</linearGradient>
<linearGradient id="paint68_linear_3924_39609" x1="294.053" y1="421.214" x2="148.1" y2="432.489" gradientUnits="userSpaceOnUse">
<stop stop-color="#B24FB1"/>
<stop offset="0.359" stop-color="#FFB6CF"/>
<stop offset="0.722" stop-color="#9E579D"/>
<stop offset="1" stop-color="#AD52AC"/>
</linearGradient>
<linearGradient id="paint69_linear_3924_39609" x1="253.023" y1="367.078" x2="225.376" y2="441.867" gradientUnits="userSpaceOnUse">
<stop stop-color="#B24FB1"/>
<stop offset="0.359" stop-color="#FFB6CF"/>
<stop offset="1" stop-color="#AD52AC"/>
</linearGradient>
<linearGradient id="paint70_linear_3924_39609" x1="165.648" y1="405.036" x2="309.798" y2="393.045" gradientUnits="userSpaceOnUse">
<stop stop-color="#B24FB1"/>
<stop offset="0.359" stop-color="#FFB6CF"/>
<stop offset="0.705" stop-color="#9E579D"/>
<stop offset="1" stop-color="#AD52AC"/>
</linearGradient>
<linearGradient id="paint71_linear_3924_39609" x1="274.181" y1="389.71" x2="199.678" y2="438.155" gradientUnits="userSpaceOnUse">
<stop stop-color="#B24FB1"/>
<stop offset="0.359" stop-color="#FFB6CF"/>
<stop offset="1" stop-color="#AD52AC"/>
</linearGradient>
<linearGradient id="paint72_linear_3924_39609" x1="171.208" y1="429.65" x2="302.66" y2="429.65" gradientUnits="userSpaceOnUse">
<stop stop-color="#FFB6CF"/>
<stop offset="1" stop-color="#FFCCDE"/>
</linearGradient>
<linearGradient id="paint73_linear_3924_39609" x1="196.97" y1="365.546" x2="80.6665" y2="454.446" gradientUnits="userSpaceOnUse">
<stop stop-color="#B24FB1"/>
<stop offset="0.359" stop-color="#FFB6CF"/>
<stop offset="0.722" stop-color="#9E579D"/>
<stop offset="1" stop-color="#AD52AC"/>
</linearGradient>
<linearGradient id="paint74_linear_3924_39609" x1="133.083" y1="342.466" x2="150.596" y2="420.252" gradientUnits="userSpaceOnUse">
<stop stop-color="#B24FB1"/>
<stop offset="0.359" stop-color="#FFB6CF"/>
<stop offset="1" stop-color="#AD52AC"/>
</linearGradient>
<linearGradient id="paint75_linear_3924_39609" x1="80.4474" y1="421.865" x2="194.849" y2="333.346" gradientUnits="userSpaceOnUse">
<stop stop-color="#B24FB1"/>
<stop offset="0.359" stop-color="#FFB6CF"/>
<stop offset="0.705" stop-color="#9E579D"/>
<stop offset="1" stop-color="#AD52AC"/>
</linearGradient>
<linearGradient id="paint76_linear_3924_39609" x1="163.152" y1="349.931" x2="127.02" y2="431.123" gradientUnits="userSpaceOnUse">
<stop stop-color="#B24FB1"/>
<stop offset="0.359" stop-color="#FFB6CF"/>
<stop offset="1" stop-color="#AD52AC"/>
</linearGradient>
<linearGradient id="paint77_linear_3924_39609" x1="98.5062" y1="439.488" x2="208.783" y2="367.939" gradientUnits="userSpaceOnUse">
<stop stop-color="#FFB6CF"/>
<stop offset="1" stop-color="#FFCCDE"/>
</linearGradient>
<clipPath id="clip0_3924_39609">
<rect width="600" height="500" fill="white" transform="translate(0 0.5)"/>
</clipPath>
</defs>
</svg>
