<svg width="83" height="56" viewBox="0 0 83 56" fill="none" xmlns="http://www.w3.org/2000/svg">
<path d="M76.9871 55.982H6.34558C3.34558 55.982 0.911621 53.4743 0.911621 50.3834V5.59469C0.911621 2.5038 3.34558 -0.00390625 6.34558 -0.00390625H76.9871C79.9871 -0.00390625 82.4211 2.5038 82.4211 5.59469V50.3834C82.4211 53.4743 79.9871 55.982 76.9871 55.982ZM63.8392 39.3962V41.9855C64.1992 42.0368 64.6135 42.0672 65.0346 42.0672H65.0709C68.2271 42.0672 69.7237 40.8028 71.0143 37.0588L76.7063 20.6129H73.4143L69.5969 33.317H69.529L65.7116 20.6129H62.3245L67.815 36.2726L67.5207 37.2244C67.3214 38.5051 66.255 39.4708 64.9735 39.4708C64.9101 39.4708 64.8467 39.4685 64.7833 39.4638H64.7924C64.5388 39.4522 64.0407 39.4218 63.8414 39.3962H63.8392ZM13.8467 18.784H13.7878C11.7818 18.8424 10.0497 19.9947 9.12823 21.679L9.11464 21.707C7.2037 25.0941 8.41955 30.2775 10.5343 33.4337C11.526 34.9266 12.6128 36.3869 14.046 36.3869H14.1229C14.7229 36.3473 15.2777 36.1863 15.778 35.9274L15.7531 35.939C16.3577 35.6265 17.0686 35.4422 17.8203 35.4352C18.5471 35.4398 19.2354 35.6218 19.8399 35.939L19.815 35.9274C20.3018 36.1887 20.8746 36.3473 21.4837 36.3613H21.4882H21.5494C23.1456 36.3309 24.1463 34.8217 25.0316 33.492C25.6633 32.5496 26.1863 31.4648 26.5531 30.3055L26.578 30.2168V30.1935L26.5373 30.1748C24.7712 29.3467 23.5645 27.5505 23.5531 25.4604V25.458C23.5712 23.6012 24.5199 21.9776 25.9418 21.0561L25.9622 21.0445L26.0029 21.0165C25.0769 19.6448 23.5712 18.7444 21.8595 18.6977H21.8528C21.7735 18.6977 21.692 18.6977 21.6128 18.6977C20.6029 18.7537 19.6611 19.0033 18.8075 19.4139L18.855 19.3929C18.4656 19.5888 18.0128 19.7311 17.535 19.7918L17.5146 19.7941C16.9984 19.7358 16.5275 19.5912 16.0973 19.3719L16.1222 19.3835C15.4588 19.0523 14.6822 18.8354 13.8648 18.7794H13.8467V18.784ZM54.8573 23.0203C56.8497 23.0203 57.9501 23.9814 57.9501 25.724V26.9113L53.9063 27.1586C50.1139 27.3942 48.1101 28.9781 48.1101 31.7378C48.1373 34.3225 50.175 36.4056 52.6882 36.4056C52.8784 36.4056 53.0641 36.3939 53.2475 36.3706L53.2248 36.3729C53.2678 36.3753 53.3199 36.3753 53.372 36.3753C55.3396 36.3753 57.0603 35.2835 57.9931 33.653L58.0067 33.6273H58.0746V36.198H61.0746V25.5C61.0746 22.3975 58.6724 20.396 54.9546 20.396C51.5267 20.396 48.9773 22.4208 48.8754 25.2084H51.7962C52.1222 23.9277 53.2339 22.9993 54.5562 22.9993C54.6626 22.9993 54.769 23.0063 54.8731 23.018L54.8595 23.0156L54.8573 23.0203ZM32.6097 14.7017V36.2003H35.8497V28.8475H40.326C40.4301 28.8545 40.5546 28.8568 40.6769 28.8568C44.3403 28.8568 47.3086 25.7986 47.3086 22.0242C47.3086 21.9286 47.3063 21.8353 47.3041 21.742V21.756C47.3086 21.6673 47.3109 21.5647 47.3109 21.4597C47.3109 17.7226 44.372 14.6947 40.7448 14.6947C40.6362 14.6947 40.5275 14.6971 40.4211 14.7017H40.4369H32.6097ZM21.8618 13.0595C20.5169 13.1948 19.3441 13.8526 18.5177 14.8324L18.5131 14.8394C17.7592 15.7095 17.2995 16.8642 17.2995 18.1285C17.2995 18.2382 17.3041 18.3478 17.3109 18.4551V18.4411C17.3878 18.4411 17.4694 18.4504 17.5599 18.4504C18.8278 18.3758 19.9395 17.7506 20.6799 16.8012L20.6867 16.7919C21.4271 15.8891 21.8777 14.7134 21.8777 13.4257C21.8777 13.2974 21.8731 13.1691 21.8641 13.0408V13.0571L21.8618 13.0595ZM54.0943 33.8232C52.378 33.8232 51.2663 32.9718 51.2663 31.6561C51.2663 30.2985 52.3305 29.517 54.3456 29.3934L57.9456 29.1601V30.3754C57.8663 32.307 56.3267 33.8396 54.4407 33.8396C54.3184 33.8396 54.1984 33.8326 54.0784 33.8209L54.0943 33.8232ZM39.5629 26.0552H35.8407V17.515H39.5765C39.735 17.4917 39.9184 17.4777 40.1063 17.4777C42.2596 17.4777 44.0052 19.2762 44.0052 21.4947C44.0052 21.5927 44.0007 21.693 43.9939 21.7886V21.7746C44.0007 21.8586 44.0029 21.9589 44.0029 22.0592C44.0029 24.2846 42.2505 26.0902 40.0905 26.0902C39.9048 26.0902 39.7192 26.0762 39.5403 26.0505L39.5607 26.0529L39.5629 26.0552Z" fill="black"/>
</svg>
