<svg width="21" height="20" viewBox="0 0 21 20" fill="none" xmlns="http://www.w3.org/2000/svg">
<path d="M10.25 5.61249C10.7678 5.61249 11.1875 5.19275 11.1875 4.67499C11.1875 4.15722 10.7678 3.73749 10.25 3.73749C9.73223 3.73749 9.3125 4.15722 9.3125 4.67499C9.3125 5.19275 9.73223 5.61249 10.25 5.61249Z" fill="#030055"/>
<path d="M1.5 8.11249H19C19.5606 8.11249 20.0525 7.73936 20.2037 7.19936C20.355 6.65936 20.1281 6.08499 19.6491 5.79405L10.8991 0.48155C10.6994 0.3603 10.4747 0.299988 10.25 0.299988C10.0253 0.299988 9.80062 0.3603 9.60125 0.48155L0.851246 5.79405C0.372184 6.08499 0.144996 6.65968 0.296559 7.19936C0.447496 7.73936 0.939371 8.11249 1.5 8.11249ZM10.25 3.11249C11.1131 3.11249 11.8125 3.81186 11.8125 4.67499C11.8125 5.53811 11.1131 6.23749 10.25 6.23749C9.38687 6.23749 8.6875 5.53811 8.6875 4.67499C8.6875 3.81186 9.38687 3.11249 10.25 3.11249Z" fill="#030055"/>
<path d="M13.375 8.73749H10.875V16.55H13.375V8.73749Z" fill="#030055"/>
<path d="M17.125 8.73749H14.625V16.55H17.125V8.73749Z" fill="#030055"/>
<path d="M9.625 8.73749H7.125V16.55H9.625V8.73749Z" fill="#030055"/>
<path d="M5.875 8.73749H3.375V16.55H5.875V8.73749Z" fill="#030055"/>
<path d="M1.5 18.425H19C19 17.7347 18.4403 17.175 17.75 17.175H2.75C2.05969 17.175 1.5 17.7347 1.5 18.425Z" fill="#030055"/>
<path d="M20.0766 18.3H0.423438C0.315937 18.4847 0.25 18.6962 0.25 18.925V19.55H20.25V18.925C20.25 18.6962 20.1841 18.4847 20.0766 18.3Z" fill="#030055"/>
</svg>
