<svg width="83" height="84" viewBox="0 0 83 84" fill="none" xmlns="http://www.w3.org/2000/svg">
<path d="M41.3334 26.637C43.0918 26.637 44.5173 25.1683 44.5173 23.3566C44.5173 21.5449 43.0918 20.0762 41.3334 20.0762C39.5749 20.0762 38.1494 21.5449 38.1494 23.3566C38.1494 25.1683 39.5749 26.637 41.3334 26.637Z" fill="#030055"/>
<path d="M11.6164 35.3857H71.0503C72.9543 35.3857 74.6248 34.0801 75.1385 32.1906C75.6522 30.301 74.8817 28.2912 73.2547 27.2732L43.5377 8.68414C42.8595 8.25987 42.0964 8.04883 41.3333 8.04883C40.5703 8.04883 39.8072 8.25987 39.13 8.68414L9.41306 27.2732C7.78606 28.2912 7.01448 30.3021 7.52922 32.1906C8.04184 34.0801 9.71235 35.3857 11.6164 35.3857ZM41.3333 17.8901C44.2647 17.8901 46.6399 20.3373 46.6399 23.3575C46.6399 26.3777 44.2647 28.8249 41.3333 28.8249C38.402 28.8249 36.0267 26.3777 36.0267 23.3575C36.0267 20.3373 38.402 17.8901 41.3333 17.8901Z" fill="#030055"/>
<path d="M51.9466 37.5723H43.4561V64.9091H51.9466V37.5723Z" fill="#030055"/>
<path d="M64.6825 37.5723H56.1919V64.9091H64.6825V37.5723Z" fill="#030055"/>
<path d="M39.2108 37.5723H30.7202V64.9091H39.2108V37.5723Z" fill="#030055"/>
<path d="M26.4749 37.5723H17.9844V64.9091H26.4749V37.5723Z" fill="#030055"/>
<path d="M11.6162 71.4716H71.0502C71.0502 69.0561 69.1493 67.0977 66.8049 67.0977H15.8615C13.517 67.0977 11.6162 69.0561 11.6162 71.4716Z" fill="#030055"/>
<path d="M74.7066 71.0332H7.96013C7.59503 71.6794 7.37109 72.4197 7.37109 73.2202V75.4071H75.2956V73.2202C75.2956 72.4197 75.0717 71.6794 74.7066 71.0332Z" fill="#030055"/>
</svg>
