<svg width="20" height="20" viewBox="0 0 20 20" fill="none" xmlns="http://www.w3.org/2000/svg">
	<path fillRule="evenodd" clip-rule="evenodd" d="M1.875 10C1.875 5.5142 5.5142 1.875 10 1.875C14.4858 1.875 18.125 5.5142 18.125 10C18.125 14.4858 14.4858 18.125 10 18.125C5.5142 18.125 1.875 14.4858 1.875 10ZM10 3.125C6.20455 3.125 3.125 6.20455 3.125 10C3.125 13.7954 6.20455 16.875 10 16.875C13.7954 16.875 16.875 13.7954 16.875 10C16.875 6.20455 13.7954 3.125 10 3.125Z" fill="black" />
	<path fillRule="evenodd" clip-rule="evenodd" d="M14.152 6.39645C14.4163 6.61846 14.4506 7.0127 14.2286 7.27701L8.97857 13.527C8.86222 13.6655 8.69155 13.7468 8.51068 13.7499C8.3298 13.753 8.15646 13.6776 8.03545 13.5431L5.78545 11.0431C5.55453 10.7865 5.57533 10.3914 5.8319 10.1605C6.08847 9.92954 6.48365 9.95034 6.71456 10.2069L8.48374 12.1727L13.2714 6.47302C13.4935 6.20871 13.8877 6.17443 14.152 6.39645Z" fill="black" />
</svg>
