<svg width="13" height="13" viewBox="0 0 13 13" fill="none" xmlns="http://www.w3.org/2000/svg">
	<rect width="12" height="12" transform="translate(0.5 0.5)" fill="white" fill-opacity="0.2" />
	<rect x="1.1" y="1.1" width="10.8" height="10.8" stroke="black" stroke-width="1.2" />
	<path fillRule="evenodd" clip-rule="evenodd" d="M9.5899 4.47717C9.78807 4.20441 9.77818 3.76971 9.56781 3.50625C9.35743 3.24278 9.02624 3.25032 8.82807 3.52308L5.80836 7.67935L4.57445 6.20883C4.35774 5.95056 4.02542 5.96517 3.83221 6.24146C3.639 6.51776 3.65805 6.95111 3.87477 7.20938L5.48267 9.1256C5.69938 9.38387 6.03169 9.36926 6.22491 9.09297C6.24049 9.07069 6.25468 9.04739 6.26751 9.02324C6.30076 8.99501 6.33201 8.96127 6.36051 8.92204L9.5899 4.47717Z" fill="black" />
</svg>
