<svg width="11" height="10" viewBox="0 0 11 10" fill="none" xmlns="http://www.w3.org/2000/svg">
<path d="M9.08187 9.96258C8.69546 9.96258 8.32455 9.81056 8.04929 9.53935L5.1574 6.69008L4.14321 5.71008L1.48286 3.25608C0.498883 2.34843 1.14108 0.705078 2.47974 0.705078C2.8635 0.705078 3.23205 0.855122 3.50669 1.12317L6.32371 3.87258L7.43931 4.92258L10.0907 7.42045C11.0603 8.33382 10.4139 9.96258 9.08187 9.96258ZM2.26424 9.96258C0.969579 9.96258 0.340138 8.38051 1.28094 7.49111L3.16498 5.71001C3.65148 5.2501 4.40424 5.22422 4.92118 5.64963C5.50572 6.13067 5.57051 7.00228 5.06352 7.56446L3.32718 9.48983C3.05577 9.79078 2.6695 9.96258 2.26424 9.96258ZM8.14925 4.94882C7.66086 5.42967 6.88655 5.45921 6.36295 5.01697C5.80748 4.54782 5.73329 3.71891 6.19661 3.15857L7.78911 1.23261C8.06537 0.898503 8.47628 0.705078 8.90981 0.705078C10.2108 0.705078 10.8571 2.28274 9.93005 3.1955L8.14925 4.94882Z" fill="black"/>
</svg>
