<svg width="17" height="24" viewBox="0 0 17 24" fill="none" xmlns="http://www.w3.org/2000/svg">
<path d="M0 3.90698C0 3.29047 0.507411 2.7907 1.13333 2.7907H12.4667C13.0926 2.7907 13.6 3.29047 13.6 3.90698V22.8837C13.6 23.5002 13.0926 24 12.4667 24H1.13333C0.50741 24 0 23.5002 0 22.8837V3.90698Z" fill="white"/>
<path fill-rule="evenodd" clip-rule="evenodd" d="M1.7 4.46512V22.3256H11.9V4.46512H1.7ZM1.13333 2.7907C0.507411 2.7907 0 3.29047 0 3.90698V22.8837C0 23.5002 0.50741 24 1.13333 24H12.4667C13.0926 24 13.6 23.5002 13.6 22.8837V3.90698C13.6 3.29047 13.0926 2.7907 12.4667 2.7907H1.13333Z" fill="black"/>
<path d="M3.4 1.11628C3.4 0.499775 3.90741 0 4.53333 0H15.8667C16.4926 0 17 0.499775 17 1.11628V20.093C17 20.7095 16.4926 21.2093 15.8667 21.2093H4.53333C3.90741 21.2093 3.4 20.7095 3.4 20.093V1.11628Z" fill="white"/>
<path fill-rule="evenodd" clip-rule="evenodd" d="M5.1 1.67442V19.5349H15.3V1.67442H5.1ZM4.53333 0C3.90741 0 3.4 0.499775 3.4 1.11628V20.093C3.4 20.7095 3.90741 21.2093 4.53333 21.2093H15.8667C16.4926 21.2093 17 20.7095 17 20.093V1.11628C17 0.499775 16.4926 0 15.8667 0H4.53333Z" fill="black"/>
</svg>
