<svg width="38" height="38" viewBox="0 0 38 38" fill="none" xmlns="http://www.w3.org/2000/svg">
<path d="M11.0376 0.302734C0.801972 0.302734 0 1.10377 0 11.3403V26.7651C0 37.0008 0.801973 37.8027 11.0376 37.8027H26.4624C36.698 37.8027 37.5 37.0017 37.5 26.7651V11.3403C37.5 1.10377 36.699 0.302734 26.4624 0.302734H11.0376ZM8.25 3.78027H29.25C33.7434 3.78027 34.5 4.5892 34.5 9.08264V29.2803C34.5 33.7737 33.7425 34.5303 29.25 34.5303H20.4536V22.8394H24.8939L25.5934 17.8497H20.4536C20.4536 17.8497 20.4461 14.927 20.4536 14.1986C20.4686 12.7727 21.6601 12.0515 22.6838 12.0618C23.7076 12.073 25.8278 12.0654 25.8278 12.0654V7.46582C25.8278 7.46582 23.9924 7.22733 22.0668 7.20764C20.4486 7.19077 18.6618 7.62952 17.22 9.08264C15.7528 10.5601 15.5214 12.7614 15.4933 15.451C15.4848 16.2282 15.4933 17.8479 15.4933 17.8479H11.1482V22.8375H15.4933V34.5303H8.25C3.75656 34.5303 3 33.7728 3 29.2803V9.03027C3 4.53684 3.75656 3.78027 8.25 3.78027Z" fill="white"/>
</svg>
