<svg width="48" height="48" viewBox="0 0 48 48" fill="none" xmlns="http://www.w3.org/2000/svg">
<g clip-path="url(#clip0_3924_40481)">
<path d="M24 48C37.2548 48 48 37.2548 48 24C48 10.7452 37.2548 0 24 0C10.7452 0 0 10.7452 0 24C0 37.2548 10.7452 48 24 48Z" fill="#50B748"/>
<path d="M29.0484 47.4342C29.5086 47.3449 29.9662 47.2422 30.4204 47.1262C31.1906 46.9109 31.9495 46.6573 32.6944 46.3662C33.4402 46.0776 34.1711 45.7518 34.8844 45.3902C35.5979 45.0272 36.2927 44.6287 36.9664 44.1962C37.6392 43.7636 38.2901 43.2977 38.9164 42.8002C39.5438 42.302 40.1459 41.7726 40.7204 41.2142C41.2939 40.6571 41.8393 40.0717 42.3544 39.4602C42.8699 38.8481 43.3545 38.2107 43.8064 37.5502C44.2581 36.8908 44.6767 36.2093 45.0604 35.5082C45.4442 34.806 45.7926 34.0851 46.1044 33.3482C46.4165 32.6111 46.6915 31.8588 46.9284 31.0942C47.1313 30.4248 47.3048 29.7468 47.4484 29.0622L33.1884 14.8042C31.9841 13.5946 30.5526 12.6351 28.9761 11.9809C27.3996 11.3267 25.7092 10.9907 24.0024 10.9922C22.294 10.9903 20.6021 11.3261 19.0239 11.9803C17.4457 12.6345 16.0124 13.5942 14.8064 14.8042C13.5973 16.0106 12.6381 17.4437 11.9836 19.0213C11.3291 20.5989 10.9922 22.2902 10.9922 23.9982C10.9922 25.7062 11.3291 27.3974 11.9836 28.9751C12.6381 30.5527 13.5973 31.9858 14.8064 33.1922L29.0484 47.4342Z" fill="#10A711"/>
<path d="M24.0024 10.9922C27.3264 10.9922 30.6504 12.2622 33.1944 14.8042C34.4035 16.0106 35.3627 17.4437 36.0172 19.0213C36.6717 20.5989 37.0086 22.2902 37.0086 23.9982C37.0086 25.7062 36.6717 27.3974 36.0172 28.9751C35.3627 30.5527 34.4035 31.9858 33.1944 33.1922C31.988 34.4013 30.5549 35.3605 28.9773 36.015C27.3996 36.6695 25.7084 37.0064 24.0004 37.0064C22.2924 37.0064 20.6011 36.6695 19.0235 36.015C17.4459 35.3605 16.0128 34.4013 14.8064 33.1922C13.5973 31.9858 12.6381 30.5527 11.9836 28.9751C11.3291 27.3974 10.9922 25.7062 10.9922 23.9982C10.9922 22.2902 11.3291 20.5989 11.9836 19.0213C12.6381 17.4437 13.5973 16.0106 14.8064 14.8042C16.0124 13.5942 17.4457 12.6345 19.0239 11.9803C20.6021 11.3261 22.294 10.9903 24.0024 10.9922ZM29.9224 19.9962C29.7331 20.0143 29.5528 20.0858 29.4024 20.2022L22.0944 25.6822L18.7084 22.2982C17.9744 21.5342 16.5284 22.9782 17.2944 23.7122L21.2944 27.7122C21.4678 27.8762 21.6926 27.9751 21.9306 27.9923C22.1687 28.0094 22.4053 27.9437 22.6004 27.8062L30.6004 21.8062C31.2724 21.3162 30.8584 20.0102 30.0264 19.9982C29.9924 19.9965 29.9584 19.9965 29.9244 19.9982L29.9224 19.9962Z" fill="white"/>
</g>
<defs>
<clipPath id="clip0_3924_40481">
<rect width="48" height="48" fill="white"/>
</clipPath>
</defs>
</svg>
