<svg width="20" height="20" viewBox="0 0 20 20" fill="none" xmlns="http://www.w3.org/2000/svg">
<path d="M7.38126 17.6628H2.51512C1.81397 17.6628 1.25 17.1005 1.25 16.4014V2.51135C1.25 1.81229 1.81397 1.25 2.51512 1.25H9.74383C10.4412 1.25 11.009 1.81229 11.009 2.51135V9.76033" stroke="black" stroke-width="0.9" stroke-linecap="round" stroke-linejoin="round"/>
<path d="M1.25 4.35547H11.009" stroke="black" stroke-width="0.9" stroke-linecap="round" stroke-linejoin="round"/>
<path d="M4.79883 2.58203H7.46036" stroke="black" stroke-width="0.9" stroke-linecap="round" stroke-linejoin="round"/>
<path d="M1.25 14.5586H7.46024" stroke="black" stroke-width="0.9" stroke-linecap="round" stroke-linejoin="round"/>
<path d="M16.6594 17.7505H10.1436C9.58894 17.7505 9.14062 17.2946 9.14062 16.7361V13.5713V12.6785C9.14062 12.12 9.58894 11.6641 10.1436 11.6641H16.6594C17.214 11.6641 17.6624 12.12 17.6624 12.6785V16.7361C17.6624 17.2946 17.214 17.7505 16.6594 17.7505Z" stroke="black" stroke-width="0.9" stroke-linecap="round" stroke-linejoin="round"/>
<path d="M9.14062 13.7383H17.6624" stroke="black" stroke-width="0.9" stroke-linecap="round" stroke-linejoin="round"/>
<path d="M10.1436 14.7422H12.6511" stroke="black" stroke-width="0.9" stroke-linecap="round" stroke-linejoin="round"/>
<path d="M10.1436 16.2461H12.1496" stroke="black" stroke-width="0.9" stroke-linecap="round" stroke-linejoin="round"/>
<path d="M15.1543 14.7422H16.1573" stroke="black" stroke-width="0.9" stroke-linecap="round" stroke-linejoin="round"/>
<path d="M6.11661 6.19531V7.35409M6.11661 11.2407V12.2741M7.29438 7.41487H5.6645C5.21238 7.41487 4.84766 7.82139 4.84766 8.3267C4.84766 8.832 5.21238 9.23852 5.6645 9.23852H6.48134C6.93345 9.23852 7.29818 9.64504 7.29818 10.1503C7.29818 10.6556 6.93345 11.0622 6.48134 11.0622H4.85146" stroke="black" stroke-width="0.9" stroke-linecap="round" stroke-linejoin="round"/>
</svg>
