<svg width="19" height="19" viewBox="0 0 19 19" fill="none" xmlns="http://www.w3.org/2000/svg">
    <path d="M3.5625 2.375V15.4375H10.6875V2.375H3.5625ZM2.96875 1.1875H11.2812C11.4387 1.1875 11.5897 1.25006 11.7011 1.36141C11.8124 1.47276 11.875 1.62378 11.875 1.78125V16.0312C11.875 16.1887 11.8124 16.3397 11.7011 16.4511C11.5897 16.5624 11.4387 16.625 11.2812 16.625H2.96875C2.81128 16.625 2.66026 16.5624 2.54891 16.4511C2.43756 16.3397 2.375 16.1887 2.375 16.0312V1.78125C2.375 1.62378 2.43756 1.47276 2.54891 1.36141C2.66026 1.25006 2.81128 1.1875 2.96875 1.1875Z" fill="black"/>
    <path d="M4.75 4.75H9.5V5.9375H4.75V4.75ZM4.75 8.3125H9.5V9.5H4.75V8.3125ZM4.75 11.875H9.5V13.0625H4.75V11.875ZM11.875 9.5H14.25V10.6875H11.875V9.5ZM11.875 11.875H14.25V13.0625H11.875V11.875ZM1.1875 15.4375H17.8125V16.625H1.1875V15.4375Z" fill="black"/>
    <path d="M11.875 7.125V15.4375H15.4375V7.125H11.875ZM11.2812 5.9375H16.0312C16.1887 5.9375 16.3397 6.00006 16.4511 6.11141C16.5624 6.22276 16.625 6.37378 16.625 6.53125V16.0312C16.625 16.1887 16.5624 16.3397 16.4511 16.4511C16.3397 16.5624 16.1887 16.625 16.0312 16.625H11.2812C11.1238 16.625 10.9728 16.5624 10.8614 16.4511C10.7501 16.3397 10.6875 16.1887 10.6875 16.0312V6.53125C10.6875 6.37378 10.7501 6.22276 10.8614 6.11141C10.9728 6.00006 11.1238 5.9375 11.2812 5.9375Z" fill="black"/>
    </svg>