<svg width="22" height="22" viewBox="0 0 22 22" fill="none" xmlns="http://www.w3.org/2000/svg">
<path d="M14.9242 19.5788H6.38466C5.51697 19.5788 4.8125 18.8743 4.8125 18.0066V10.8417C4.8125 9.974 5.51697 9.26953 6.38466 9.26953H14.9199C15.7876 9.26953 16.4921 9.974 16.4921 10.8417V18.0023C16.4963 18.8743 15.7919 19.5788 14.9242 19.5788Z" stroke="black" stroke-linecap="round" stroke-linejoin="round"/>
<path d="M6.84863 9.26953V19.5788" stroke="black" stroke-linecap="round" stroke-linejoin="round"/>
<path d="M16.9987 8.93943H4.99699C4.51589 8.93943 4.125 8.54854 4.125 8.06744V2.24699C4.125 1.76589 4.51589 1.375 4.99699 1.375H17.003C17.4841 1.375 17.875 1.76589 17.875 2.24699V8.06744C17.8707 8.54854 17.4798 8.93943 16.9987 8.93943Z" stroke="black" stroke-miterlimit="10" stroke-linecap="round" stroke-linejoin="round"/>
<mask id="path-4-inside-1_3518_11177" fill="white">
<path d="M10.9973 3.33966C11.9939 3.33966 12.8014 4.14722 12.8014 5.14378C12.8014 6.14034 11.9939 6.9479 10.9973 6.9479C10.0007 6.9479 9.19317 6.14034 9.19317 5.14378C9.19317 4.14722 10.0007 3.33966 10.9973 3.33966ZM10.9973 2.73828C9.66998 2.73828 8.5918 3.81646 8.5918 5.14378C8.5918 6.4711 9.66998 7.54928 10.9973 7.54928C12.3246 7.54928 13.4028 6.4711 13.4028 5.14378C13.4028 3.81646 12.3246 2.73828 10.9973 2.73828Z"/>
</mask>
<path d="M10.9973 3.33966C11.9939 3.33966 12.8014 4.14722 12.8014 5.14378C12.8014 6.14034 11.9939 6.9479 10.9973 6.9479C10.0007 6.9479 9.19317 6.14034 9.19317 5.14378C9.19317 4.14722 10.0007 3.33966 10.9973 3.33966ZM10.9973 2.73828C9.66998 2.73828 8.5918 3.81646 8.5918 5.14378C8.5918 6.4711 9.66998 7.54928 10.9973 7.54928C12.3246 7.54928 13.4028 6.4711 13.4028 5.14378C13.4028 3.81646 12.3246 2.73828 10.9973 2.73828Z" fill="black"/>
<path d="M10.9973 4.33966C11.4416 4.33966 11.8014 4.6995 11.8014 5.14378H13.8014C13.8014 3.59493 12.5461 2.33966 10.9973 2.33966V4.33966ZM11.8014 5.14378C11.8014 5.58806 11.4416 5.9479 10.9973 5.9479V7.9479C12.5461 7.9479 13.8014 6.69263 13.8014 5.14378H11.8014ZM10.9973 5.9479C10.553 5.9479 10.1932 5.58806 10.1932 5.14378H8.19317C8.19317 6.69263 9.44845 7.9479 10.9973 7.9479V5.9479ZM10.1932 5.14378C10.1932 4.6995 10.553 4.33966 10.9973 4.33966V2.33966C9.44845 2.33966 8.19317 3.59493 8.19317 5.14378H10.1932ZM10.9973 1.73828C9.11769 1.73828 7.5918 3.26418 7.5918 5.14378H9.5918C9.5918 4.36874 10.2223 3.73828 10.9973 3.73828V1.73828ZM7.5918 5.14378C7.5918 7.02338 9.11769 8.54928 10.9973 8.54928V6.54928C10.2223 6.54928 9.5918 5.91881 9.5918 5.14378H7.5918ZM10.9973 8.54928C12.8769 8.54928 14.4028 7.02338 14.4028 5.14378H12.4028C12.4028 5.91881 11.7723 6.54928 10.9973 6.54928V8.54928ZM14.4028 5.14378C14.4028 3.26418 12.8769 1.73828 10.9973 1.73828V3.73828C11.7723 3.73828 12.4028 4.36874 12.4028 5.14378H14.4028Z" fill="black" mask="url(#path-4-inside-1_3518_11177)"/>
<path d="M13.7476 16.1437H16.4968C17.2571 16.1437 17.8713 15.5294 17.8713 14.7691C17.8713 14.0088 17.2571 13.3945 16.4968 13.3945H13.7476C12.9873 13.3945 12.373 14.0088 12.373 14.7691C12.373 15.5294 12.9873 16.1437 13.7476 16.1437Z" stroke="black" stroke-linecap="round" stroke-linejoin="round"/>
<path d="M14.9656 14.7694C14.9656 14.6831 15.0356 14.6131 15.122 14.6131C15.2083 14.6131 15.2783 14.6831 15.2783 14.7694C15.2783 14.8558 15.2083 14.9258 15.122 14.9258C15.0356 14.9258 14.9656 14.8558 14.9656 14.7694Z" fill="black" stroke="black"/>
</svg>
