<svg width="82" height="84" viewBox="0 0 82 84" fill="none" xmlns="http://www.w3.org/2000/svg">
<g clip-path="url(#clip0_3071_9334)">
<path d="M69.5281 0H12.4715C5.71907 0 0.245117 5.63979 0.245117 12.5968V71.382C0.245117 78.3391 5.71907 83.9789 12.4715 83.9789H69.5281C76.2806 83.9789 81.7546 78.3391 81.7546 71.382V12.5968C81.7546 5.63979 76.2806 0 69.5281 0Z" fill="white"/>
<path d="M63.516 28.3517L26.9856 69.4208H13.5868C12.6563 69.4208 11.9119 68.4622 12.098 67.5035L21.0306 9.21681C21.2167 7.87468 22.3332 6.91602 23.6359 6.91602H46.3395C61.9714 7.49121 66.2516 15.7357 63.4602 28.3901L63.516 28.3517Z" fill="#002C8A"/>
<path d="M64.1136 24.5547C69.6964 27.6224 70.9991 33.3744 69.1381 41.0437C66.7189 52.3559 59.4612 57.1492 48.8538 57.341L45.8763 57.5327C44.7597 57.5327 44.0154 58.2996 43.8293 59.45L41.41 74.5969C41.224 75.939 40.1074 76.8977 38.8047 76.8977H27.639C26.7086 76.8977 25.9642 75.939 26.1503 74.9804L30.2444 47.5626C30.4305 46.6039 64.1136 24.5547 64.1136 24.5547Z" fill="#009BE1"/>
<path d="M30.0225 48.9025L33.7444 24.5524C33.8664 23.9757 34.1696 23.4566 34.6069 23.0753C35.0443 22.6941 35.5914 22.472 36.1636 22.4434H54.0287C58.3088 22.4434 61.4724 23.2103 64.0778 24.5524C63.1473 32.9887 59.2393 46.6017 40.2577 46.9851H32.0695C31.139 46.9851 30.2086 47.7521 30.0225 48.9025Z" fill="#001F6B"/>
</g>
<defs>
<clipPath id="clip0_3071_9334">
<rect width="81.5094" height="83.9789" fill="white" transform="translate(0.245117)"/>
</clipPath>
</defs>
</svg>
