<svg width="64" height="65" viewBox="0 0 64 65" fill="none" xmlns="http://www.w3.org/2000/svg">
<g clip-path="url(#clip0_3061_8115)">
<path d="M54.4 0.755859H9.6C4.29807 0.755859 0 5.05393 0 10.3559V55.1559C0 60.4578 4.29807 64.7559 9.6 64.7559H54.4C59.7019 64.7559 64 60.4578 64 55.1559V10.3559C64 5.05393 59.7019 0.755859 54.4 0.755859Z" fill="white"/>
<path d="M49.6783 22.3634L20.9952 53.662H10.4747C9.7441 53.662 9.15962 52.9315 9.30574 52.2009L16.3194 7.78077C16.4656 6.75794 17.3423 6.02734 18.3651 6.02734H36.1916C48.4656 6.4657 51.8263 12.7488 49.6345 22.3926L49.6783 22.3634Z" fill="#002C8A"/>
<path d="M50.1491 19.4688C54.5327 21.8066 55.5555 26.1902 54.0943 32.035C52.1948 40.656 46.4962 44.3089 38.1674 44.4551L35.8295 44.6012C34.9528 44.6012 34.3683 45.1856 34.2222 46.0624L32.3226 57.6057C32.1765 58.6286 31.2998 59.3592 30.277 59.3592H21.5098C20.7793 59.3592 20.1948 58.6286 20.3409 57.898L23.5555 37.003C23.7016 36.2724 50.1491 19.4688 50.1491 19.4688Z" fill="#009BE1"/>
<path d="M23.3809 38.0277L26.3032 19.4706C26.3991 19.0311 26.6371 18.6355 26.9805 18.3449C27.3239 18.0544 27.7535 17.8851 28.2028 17.8633H42.2302C45.5909 17.8633 48.0749 18.4478 50.1206 19.4706C49.39 25.8998 46.3215 36.2742 31.4174 36.5665H24.9882C24.2576 36.5665 23.527 37.151 23.3809 38.0277Z" fill="#001F6B"/>
</g>
<defs>
<clipPath id="clip0_3061_8115">
<rect width="64" height="64" fill="white" transform="translate(0 0.755859)"/>
</clipPath>
</defs>
</svg>
