<svg width="23" height="21" viewBox="0 0 23 21" fill="none" xmlns="http://www.w3.org/2000/svg">
<path d="M11.3064 15.8555H3.79388C2.77682 15.8555 1.91699 14.8328 1.91699 13.6242V4.14141C1.91699 2.93281 2.77682 1.91016 3.79388 1.91016H17.3301C18.3472 1.91016 19.207 2.93281 19.207 4.14141V9.34765M1.91699 5.62891H19.2119M4.27539 8.41797H9.77832M4.27539 13.0664H7.41992M14.4951 8.41797H16.8535" stroke="black" stroke-linecap="round" stroke-linejoin="round"/>
<path d="M17.5296 12.871V13.6347M17.5296 16.6892V17.4528M17.5296 18.9801C19.6475 18.9801 21.363 17.2715 21.363 15.1619C21.363 13.0524 19.6475 11.3438 17.5296 11.3438C15.4117 11.3438 13.6963 13.0524 13.6963 15.1619C13.6963 17.2715 15.4117 18.9801 17.5296 18.9801Z" stroke="black" stroke-linecap="round" stroke-linejoin="round"/>
<path d="M18.6799 13.6328H17.1465C16.7249 13.6328 16.3799 13.9764 16.3799 14.3964C16.3799 14.8164 16.7249 15.1601 17.1465 15.1601H17.9132C18.3349 15.1601 18.6799 15.5037 18.6799 15.9237C18.6799 16.3437 18.3349 16.6874 17.9132 16.6874H16.3799" stroke="black" stroke-linecap="round" stroke-linejoin="round"/>
</svg>
