<svg width="52" height="52" viewBox="0 0 52 52" fill="none" xmlns="http://www.w3.org/2000/svg">
<path fill-rule="evenodd" clip-rule="evenodd" d="M48 26C48 13.8497 38.1503 4 26 4C13.8497 4 4 13.8497 4 26C4 38.1503 13.8497 48 26 48C38.1503 48 48 38.1503 48 26ZM26 0C40.3594 0 52 11.6406 52 26C52 40.3594 40.3594 52 26 52C11.6406 52 -3.8147e-06 40.3594 -3.8147e-06 26C-3.8147e-06 11.6406 11.6406 0 26 0ZM28.5479 16.4775L19.6099 24.6315H26.2H38V28.6315H26.2H19.7593L28.5195 36.3228L25.8805 39.3287L13.1305 28.1344L11.4512 26.66L13.1021 25.1539L25.8521 13.5225L28.5479 16.4775Z" fill="black"/>
</svg>
