<svg width="24" height="26" viewBox="0 0 24 26" fill="none" xmlns="http://www.w3.org/2000/svg">
<path d="M8.90416 2.73825C9.33254 1.43833 10.5567 0.5 12.0001 0.5C13.4435 0.5 14.6677 1.43833 15.096 2.73825C18.0601 3.95689 20.1473 6.87303 20.1473 10.2766V16.7944L23.6447 20.2918C24.158 20.8051 23.7945 21.6827 23.0686 21.6827H0.93141C0.205576 21.6827 -0.157936 20.8051 0.355305 20.2918L3.8529 16.7944V10.2766C3.8529 6.87303 5.94001 3.95689 8.90416 2.73825Z" fill="white"/>
<path d="M8.71059 21.9271C8.71059 23.5263 10.0264 25.5 12.0001 25.5C13.9737 25.5 15.2895 23.5263 15.2895 21.9271H8.71059Z" fill="white"/>
</svg>
