<svg width="26" height="26" viewBox="0 0 26 26" fill="none" xmlns="http://www.w3.org/2000/svg">
<path d="M24.8921 19.325C23.8231 18.4721 20.4929 16.831 19.6712 16.6419C18.8512 16.4512 17.8586 17.2443 17.5852 18.2289C17.3103 19.2142 16.7976 19.121 16.7976 19.121C16.7976 19.121 14.8222 18.3952 11.209 14.7958C7.59524 11.1953 6.86479 9.22266 6.86479 9.22266C6.86479 9.22266 6.76835 8.70993 7.75311 8.43126C8.73575 8.15531 9.52551 7.15942 9.3327 6.33937C9.14097 5.51937 7.48665 2.19386 6.63061 1.12959C5.77253 0.065387 4.115 0.614207 3.75059 0.879579C3.38407 1.14398 -0.468077 3.59291 0.69045 8.10234C1.85049 12.6124 4.33914 16.2203 7.07405 18.9462C9.80951 21.671 13.4264 24.1459 17.9401 25.289C22.4533 26.4327 24.8884 22.5716 25.1518 22.205C25.4155 21.8395 25.9579 20.1794 24.8921 19.325Z" fill="white"/>
</svg>
